<svg width="40" height="40" viewBox="0 0 40 40" fill="none" xmlns="http://www.w3.org/2000/svg">
<path d="M31.0871 9.95185C29.0045 9.01496 26.8176 8.28558 24.527 7.86932C24.2145 8.38996 23.902 9.01496 23.6938 9.5356C21.1944 9.22309 18.8 9.22309 16.405 9.5356C16.0925 9.01496 15.78 8.38996 15.4681 7.86932C13.1774 8.28558 10.9905 8.91059 8.908 9.95185C4.7417 16.0951 3.59668 22.1345 4.11731 28.0702C6.9286 30.049 9.53239 31.2984 12.2393 32.1315C12.8643 31.2984 13.4887 30.3615 14.0093 29.3202C13.0724 29.0077 12.1349 28.4871 11.3018 27.9665C11.5099 27.7583 11.718 27.654 11.9268 27.4458C17.2375 29.8409 22.8607 29.8409 28.067 27.4458C28.2751 27.654 28.4833 27.7583 28.692 27.9665C27.8589 28.4871 26.922 28.9034 25.9845 29.3202C26.5051 30.2571 27.0257 31.1946 27.7545 32.1315C30.3577 31.2984 33.0652 30.049 35.8765 28.0702C36.5015 21.1976 34.7315 15.1582 31.0871 9.95185ZM14.7381 24.3214C13.1762 24.3214 11.8224 22.8639 11.8224 21.0933C11.8224 19.3226 13.0718 17.8651 14.7381 17.8651C16.3 17.8651 17.6537 19.3226 17.6537 21.0933C17.55 22.9677 16.3006 24.3214 14.7381 24.3214ZM25.2557 24.3214C23.6938 24.3214 22.3401 22.8639 22.3401 21.0933C22.3401 19.3226 23.5895 17.8651 25.2557 17.8651C26.8176 17.8651 28.1714 19.3226 28.1714 21.0933C28.1714 22.9677 26.9214 24.3214 25.2557 24.3214Z" fill="#404EED"/>
</svg>
