<svg width="40" height="40" viewBox="0 0 40 40" fill="none" xmlns="http://www.w3.org/2000/svg">
<g clip-path="url(#clip0_5480_55223)">
<mask id="mask0_5480_55223" style="mask-type:luminance" maskUnits="userSpaceOnUse" x="-6" y="-6" width="52" height="52">
<path d="M-5.19995 -5.20002H45.2V45.2H-5.19995V-5.20002Z" fill="white"/>
</mask>
<g mask="url(#mask0_5480_55223)">
<path d="M38 20C38 10.0589 29.9411 1.99997 20 1.99997C10.0589 1.99997 2 10.0589 2 20C2 28.4416 7.81148 35.5247 15.6516 37.4699V25.5005H11.9399V20H15.6516V17.6298C15.6516 11.5032 18.4242 8.6635 24.4391 8.6635C25.5794 8.6635 27.5471 8.88705 28.3521 9.11069V14.097C27.9272 14.0523 27.1893 14.0299 26.2726 14.0299C23.3211 14.0299 22.1807 15.1479 22.1807 18.0547V20H28.0601L27.0501 25.5005H22.1807V37.8681C31.0933 36.7917 38 29.2029 38 20Z" fill="#0866FF"/>
<path d="M27.0501 25.5005L28.0602 20H22.1808V18.0546C22.1808 15.1478 23.3211 14.0299 26.2726 14.0299C27.1894 14.0299 27.9273 14.0522 28.3521 14.0969V9.11072C27.5472 8.88709 25.5795 8.66346 24.4391 8.66346C18.4243 8.66346 15.6517 11.5032 15.6517 17.6298V20H11.9399V25.5005H15.6517V37.4699C17.0444 37.8154 18.5006 38 20.0001 38C20.7383 38 21.4658 37.9545 22.1808 37.8682V25.5005H27.0501Z" fill="white"/>
</g>
</g>
<defs>
<clipPath id="clip0_5480_55223">
<rect width="36" height="36" fill="white" transform="translate(2 2)"/>
</clipPath>
</defs>
</svg>
