<svg width="40" height="40" viewBox="0 0 40 40" fill="none" xmlns="http://www.w3.org/2000/svg">
<path fill-rule="evenodd" clip-rule="evenodd" d="M20 2C10.0566 2 2 10.0566 2 20C2 27.9512 7.15625 34.7012 14.3105 37.0801C15.2129 37.2441 15.541 36.6934 15.541 36.2129C15.541 35.7852 15.5234 34.6543 15.5176 33.1543C10.5078 34.2383 9.45312 30.7402 9.45312 30.7402C8.63281 28.6602 7.45508 28.1035 7.45508 28.1035C5.82031 26.9902 7.57812 27.0137 7.57812 27.0137C9.38281 27.1426 10.332 28.8652 10.332 28.8652C11.9375 31.6191 14.5449 30.8223 15.5703 30.3652C15.7344 29.1992 16.2031 28.4082 16.7129 27.957C12.7168 27.5059 8.51562 25.959 8.51562 19.0625C8.51562 17.0938 9.21875 15.4883 10.3672 14.2285C10.1855 13.7773 9.56445 11.9434 10.543 9.46485C10.543 9.46485 12.0547 8.98438 15.4941 11.3105C16.9297 10.9121 18.4707 10.7129 20 10.707C21.5293 10.7129 23.0703 10.9121 24.5059 11.3105C27.9453 8.98438 29.4512 9.46485 29.4512 9.46485C30.4355 11.9434 29.8203 13.7773 29.6328 14.2285C30.7871 15.4883 31.4785 17.0938 31.4785 19.0625C31.4785 25.9766 27.2715 27.4941 23.2637 27.9453C23.9082 28.4961 24.4824 29.5977 24.4824 31.2734C24.4824 33.6816 24.4648 35.6211 24.4648 36.2129C24.4648 36.6934 24.7871 37.2559 25.7012 37.0801C32.8496 34.6953 38 27.9512 38 20C38 10.0566 29.9434 2 20 2Z" fill="black"/>
</svg>
