<svg width="40" height="40" viewBox="0 0 40 40" fill="none" xmlns="http://www.w3.org/2000/svg">
<g clip-path="url(#clip0_5480_55166)">
<path d="M31.0827 4H8.91731C6.20155 4 4 6.20155 4 8.91731V31.0827C4 33.7984 6.20155 36 8.91731 36H31.0827C33.7984 36 36 33.7984 36 31.0827V8.91731C36 6.20155 33.7984 4 31.0827 4Z" fill="black"/>
<path d="M21.7002 18.9137L21.0121 17.9162L16.5066 11.3844H11.6072L18.2711 21.1338L18.958 22.139L23.3848 28.6152H28.3922L21.7002 18.9137ZM19.6908 21.2774L19.0046 20.2732L13.6749 12.4757H15.9339L20.2798 18.776L20.9686 19.7746L26.314 27.5243H23.9605L19.6905 21.2774H19.6908Z" fill="#FAFAFA"/>
<path d="M19.0046 20.2732L19.6908 21.2774L18.9583 22.139L13.452 28.6152H11.8979L18.2711 21.1339L19.0046 20.2732Z" fill="#FAFAFA"/>
<path d="M28.1019 11.3844L21.7004 18.9137L20.9687 19.7746L20.28 18.776L21.0123 17.9162L26.5766 11.3844H28.1019Z" fill="#FAFAFA"/>
</g>
<defs>
<clipPath id="clip0_5480_55166">
<rect width="32" height="32" fill="white" transform="translate(4 4)"/>
</clipPath>
</defs>
</svg>
