<svg width="40" height="40" viewBox="0 0 40 40" fill="none" xmlns="http://www.w3.org/2000/svg">
<g clip-path="url(#clip0_5480_55156)">
<g clip-path="url(#clip1_5480_55156)">
<path d="M37.2474 11.3356C36.8326 9.78567 35.6144 8.56769 34.0646 8.1528C31.2583 7.40009 20 7.40009 20 7.40009C20 7.40009 8.74187 7.40009 5.93547 8.1528C4.38559 8.56769 3.1676 9.78567 2.75272 11.3356C2 14.142 2 20.0007 2 20.0007C2 20.0007 2 25.8595 2.75272 28.6659C3.1676 30.2158 4.38559 31.4338 5.93547 31.8486C8.74187 32.6013 20 32.6013 20 32.6013C20 32.6013 31.2583 32.6013 34.0646 31.8486C35.6144 31.4338 36.8326 30.2158 37.2474 28.6659C38.0001 25.8595 38.0001 20.0007 38.0001 20.0007C38.0001 20.0007 37.9971 14.142 37.2474 11.3356Z" fill="#FF0000"/>
<path d="M16.3965 25.4006L25.7492 20.0012L16.3965 14.6017V25.4006Z" fill="white"/>
</g>
</g>
<defs>
<clipPath id="clip0_5480_55156">
<rect width="36" height="25.2013" fill="white" transform="translate(2 7.40009)"/>
</clipPath>
<clipPath id="clip1_5480_55156">
<rect width="36" height="25.2013" fill="white" transform="translate(2 7.40009)"/>
</clipPath>
</defs>
</svg>
