<svg width="32" height="32" viewBox="0 0 32 32" fill="none" xmlns="http://www.w3.org/2000/svg">
<g clip-path="url(#clip0_1599_17924)">
<path fill-rule="evenodd" clip-rule="evenodd" d="M5.4 1C4.6268 1 4 1.6268 4 2.4V29.6C4 30.3732 4.6268 31 5.4 31H26.6C27.3732 31 28 30.3732 28 29.6V9H22C20.8954 9 20 8.10457 20 7V1H5.4Z" fill="#51AEFF"/>
<path d="M21.4 9H28L20 1V7.6C20 8.3732 20.6268 9 21.4 9Z" fill="#85C6FF"/>
<path d="M11.5 12C10.6716 12 10 12.6716 10 13.5V21C10 21.8284 10.6716 22.5 11.5 22.5H20.5C21.3284 22.5 22 21.8284 22 21V13.5C22 12.6716 21.3284 12 20.5 12H11.5ZM20.5 12.75C20.9142 12.75 21.25 13.0858 21.25 13.5V15H10.75V13.5C10.75 13.0858 11.0858 12.75 11.5 12.75H20.5ZM10.75 21V15.75H13.75V21.75H11.5C11.0858 21.75 10.75 21.4142 10.75 21ZM14.5 21.75V15.75H21.25V21C21.25 21.4142 20.9142 21.75 20.5 21.75H14.5Z" fill="white" stroke="white" stroke-width="0.3"/>
<path d="M12.125 14.25C12.3321 14.25 12.5 14.0821 12.5 13.875C12.5 13.6679 12.3321 13.5 12.125 13.5C11.9179 13.5 11.75 13.6679 11.75 13.875C11.75 14.0821 11.9179 14.25 12.125 14.25Z" fill="white"/>
<path d="M12.125 14.25C12.3321 14.25 12.5 14.0821 12.5 13.875C12.5 13.6679 12.3321 13.5 12.125 13.5C11.9179 13.5 11.75 13.6679 11.75 13.875C11.75 14.0821 11.9179 14.25 12.125 14.25Z" fill="white"/>
<path d="M12.125 14.25C12.3321 14.25 12.5 14.0821 12.5 13.875C12.5 13.6679 12.3321 13.5 12.125 13.5C11.9179 13.5 11.75 13.6679 11.75 13.875C11.75 14.0821 11.9179 14.25 12.125 14.25Z" stroke="white" stroke-width="0.3"/>
<path d="M12.125 14.25C12.3321 14.25 12.5 14.0821 12.5 13.875C12.5 13.6679 12.3321 13.5 12.125 13.5C11.9179 13.5 11.75 13.6679 11.75 13.875C11.75 14.0821 11.9179 14.25 12.125 14.25Z" stroke="white" stroke-width="0.3"/>
<path d="M13.625 14.25C13.8321 14.25 14 14.0821 14 13.875C14 13.6679 13.8321 13.5 13.625 13.5C13.4179 13.5 13.25 13.6679 13.25 13.875C13.25 14.0821 13.4179 14.25 13.625 14.25Z" fill="white"/>
<path d="M13.625 14.25C13.8321 14.25 14 14.0821 14 13.875C14 13.6679 13.8321 13.5 13.625 13.5C13.4179 13.5 13.25 13.6679 13.25 13.875C13.25 14.0821 13.4179 14.25 13.625 14.25Z" fill="white"/>
<path d="M13.625 14.25C13.8321 14.25 14 14.0821 14 13.875C14 13.6679 13.8321 13.5 13.625 13.5C13.4179 13.5 13.25 13.6679 13.25 13.875C13.25 14.0821 13.4179 14.25 13.625 14.25Z" stroke="white" stroke-width="0.3"/>
<path d="M13.625 14.25C13.8321 14.25 14 14.0821 14 13.875C14 13.6679 13.8321 13.5 13.625 13.5C13.4179 13.5 13.25 13.6679 13.25 13.875C13.25 14.0821 13.4179 14.25 13.625 14.25Z" stroke="white" stroke-width="0.3"/>
<path d="M15.125 14.25C15.3321 14.25 15.5 14.0821 15.5 13.875C15.5 13.6679 15.3321 13.5 15.125 13.5C14.9179 13.5 14.75 13.6679 14.75 13.875C14.75 14.0821 14.9179 14.25 15.125 14.25Z" fill="white"/>
<path d="M15.125 14.25C15.3321 14.25 15.5 14.0821 15.5 13.875C15.5 13.6679 15.3321 13.5 15.125 13.5C14.9179 13.5 14.75 13.6679 14.75 13.875C14.75 14.0821 14.9179 14.25 15.125 14.25Z" fill="white"/>
<path d="M15.125 14.25C15.3321 14.25 15.5 14.0821 15.5 13.875C15.5 13.6679 15.3321 13.5 15.125 13.5C14.9179 13.5 14.75 13.6679 14.75 13.875C14.75 14.0821 14.9179 14.25 15.125 14.25Z" stroke="white" stroke-width="0.3"/>
<path d="M15.125 14.25C15.3321 14.25 15.5 14.0821 15.5 13.875C15.5 13.6679 15.3321 13.5 15.125 13.5C14.9179 13.5 14.75 13.6679 14.75 13.875C14.75 14.0821 14.9179 14.25 15.125 14.25Z" stroke="white" stroke-width="0.3"/>
</g>
<defs>
<clipPath id="clip0_1599_17924">
<rect width="32" height="32" fill="white"/>
</clipPath>
</defs>
</svg>
