<svg width="32" height="32" viewBox="0 0 32 32" fill="none" xmlns="http://www.w3.org/2000/svg">
<mask id="mask0_2157_6757" style="mask-type:alpha" maskUnits="userSpaceOnUse" x="0" y="0" width="32" height="32">
<rect width="32" height="32" fill="#D9D9D9"/>
</mask>
<g mask="url(#mask0_2157_6757)">
<path d="M10.0875 18.5334H6.74379C6.44001 18.5334 6.18545 18.4307 5.98012 18.2251C5.77479 18.0198 5.67212 17.7652 5.67212 17.4614V14.5388C5.67212 14.235 5.77479 13.9804 5.98012 13.7751C6.18545 13.5695 6.44001 13.4668 6.74379 13.4668H10.0875L14.0438 9.51044C14.3189 9.23532 14.6368 9.17377 14.9975 9.32577C15.3581 9.47777 15.5385 9.74933 15.5385 10.1404V21.8564C15.5385 22.2475 15.3581 22.5197 14.9975 22.6728C14.6368 22.8259 14.3189 22.7649 14.0438 22.4898L10.0875 18.5334ZM13.8051 12.2001L10.8051 15.2001H7.40512V16.8001H10.8051L13.8051 19.8001V12.2001Z" fill="white"/>
</g>
</svg>
