<svg width="32" height="32" viewBox="0 0 32 32" fill="none" xmlns="http://www.w3.org/2000/svg">
<mask id="mask0_1916_10977" style="mask-type:alpha" maskUnits="userSpaceOnUse" x="0" y="0" width="32" height="32">
<rect width="32" height="32" fill="#D9D9D9"/>
</mask>
<g mask="url(#mask0_1916_10977)">
<path d="M24.5949 15.9781C24.5949 14.2483 24.1148 12.6715 23.1545 11.2475C22.1943 9.82323 20.9342 8.75412 19.3742 8.04012C19.1367 7.92634 18.9572 7.76001 18.8359 7.54112C18.7145 7.32245 18.7108 7.0989 18.8245 6.87046C18.9345 6.62534 19.1254 6.46179 19.3972 6.37979C19.669 6.29757 19.9332 6.31257 20.1899 6.42479C22.0665 7.28012 23.5588 8.56923 24.6665 10.2921C25.7741 12.0148 26.3279 13.9188 26.3279 16.0041C26.3279 18.0892 25.7741 19.9863 24.6665 21.6955C23.5588 23.4046 22.0665 24.6868 20.1899 25.5421C19.9332 25.6543 19.669 25.6693 19.3972 25.5871C19.1254 25.5051 18.9345 25.3416 18.8245 25.0965C18.7108 24.868 18.7145 24.6445 18.8359 24.4258C18.9572 24.2069 19.1367 24.0406 19.3742 23.9268C20.9342 23.2128 22.1943 22.142 23.1545 20.7145C24.1148 19.2867 24.5949 17.7079 24.5949 15.9781ZM10.0872 18.5335H6.74354C6.43976 18.5335 6.18521 18.4307 5.97987 18.2251C5.77454 18.0198 5.67188 17.7652 5.67188 17.4615V14.5388C5.67188 14.235 5.77454 13.9805 5.97987 13.7751C6.18521 13.5696 6.43976 13.4668 6.74354 13.4668H10.0872L14.0435 9.51046C14.3187 9.23534 14.6365 9.17379 14.9972 9.32579C15.3579 9.47779 15.5382 9.74935 15.5382 10.1405V21.8565C15.5382 22.2476 15.3579 22.5197 14.9972 22.6728C14.6365 22.8259 14.3187 22.7649 14.0435 22.4898L10.0872 18.5335ZM21.1382 16.0015C21.1382 16.7221 20.9767 17.4705 20.6535 18.2465C20.3307 19.0225 19.8542 19.619 19.2242 20.0361C19.0575 20.1403 18.887 20.1531 18.7125 20.0745C18.5383 19.9958 18.4512 19.8461 18.4512 19.6255V12.3748C18.4512 12.1541 18.5383 12.0045 18.7125 11.9258C18.887 11.8471 19.0575 11.8592 19.2242 11.9621C19.8542 12.3499 20.3307 12.9399 20.6535 13.7321C20.9767 14.5246 21.1382 15.281 21.1382 16.0015ZM13.8049 12.2001L10.8049 15.2001H7.40487V16.8001H10.8049L13.8049 19.8001V12.2001Z" fill="white"/>
</g>
</svg>
