<svg width="32" height="32" viewBox="0 0 32 32" fill="none" xmlns="http://www.w3.org/2000/svg">
<mask id="mask0_1916_10608" style="mask-type:alpha" maskUnits="userSpaceOnUse" x="0" y="0" width="32" height="32">
<rect width="32" height="32" fill="#D9D9D9"/>
</mask>
<g mask="url(#mask0_1916_10608)">
<path d="M21.6102 24.8308C21.3913 24.9693 21.1571 25.101 20.9076 25.2258C20.658 25.3505 20.3905 25.4753 20.1049 25.6002C19.8794 25.6908 19.6439 25.6908 19.3986 25.6002C19.1532 25.5095 18.9921 25.3556 18.9152 25.1385C18.8384 24.913 18.8529 24.6886 18.9589 24.4655C19.0649 24.2424 19.2307 24.0856 19.4562 23.9952C19.682 23.8976 19.8945 23.798 20.0936 23.6962C20.2927 23.5946 20.4452 23.4976 20.5512 23.4052L15.7179 18.9385V21.9002C15.7179 22.2882 15.5376 22.5578 15.1769 22.7092C14.8162 22.8603 14.4982 22.7983 14.2229 22.5232L10.2666 18.5668H6.92291C6.62379 18.5668 6.37046 18.463 6.16291 18.2552C5.95513 18.0476 5.85124 17.7942 5.85124 17.4948V14.5722C5.85124 14.2728 5.95513 14.0194 6.16291 13.8118C6.37046 13.6041 6.62379 13.5002 6.92291 13.5002H10.2462L4.39724 7.61818C4.21279 7.43351 4.11835 7.22929 4.11391 7.00551C4.10968 6.78151 4.20413 6.57296 4.39724 6.37984C4.59057 6.18651 4.79702 6.08984 5.01657 6.08984C5.23635 6.08984 5.44279 6.18651 5.63591 6.37984L25.7999 26.5438C25.9846 26.7285 26.079 26.9272 26.0832 27.1398C26.0875 27.3527 25.993 27.5557 25.7999 27.7488C25.6068 27.942 25.4003 28.0385 25.1806 28.0385C24.961 28.0385 24.7547 27.942 24.5616 27.7488L21.6102 24.8308ZM24.7742 16.0335C24.7742 14.2951 24.2943 12.7113 23.3346 11.2822C22.3748 9.85307 21.1128 8.78729 19.5486 8.08484C19.3144 7.96351 19.1366 7.7934 19.0152 7.57451C18.8939 7.35584 18.8913 7.13362 19.0076 6.90784C19.1153 6.66007 19.2996 6.49518 19.5602 6.41318C19.8209 6.33096 20.0795 6.35062 20.3359 6.47218C22.1906 7.31818 23.6828 8.59373 24.8126 10.2988C25.9426 12.004 26.5076 13.9044 26.5076 16.0002C26.5076 16.8311 26.4088 17.6336 26.2112 18.4078C26.0139 19.1823 25.7178 19.9216 25.3229 20.6258C25.1707 20.9421 24.986 21.1365 24.7689 21.2092C24.552 21.2818 24.3376 21.2754 24.1256 21.1898C23.9136 21.1045 23.7541 20.9571 23.6472 20.7475C23.5403 20.5382 23.5433 20.3293 23.6562 20.1208C24.0205 19.5106 24.2978 18.861 24.4882 18.1718C24.6789 17.483 24.7742 16.7702 24.7742 16.0335ZM19.4152 11.9952C20.0152 12.4481 20.4824 13.0481 20.8166 13.7952C21.1508 14.5421 21.3179 15.2882 21.3179 16.0335C21.3179 16.2524 21.3072 16.4691 21.2859 16.6835C21.2644 16.898 21.2255 17.0993 21.1692 17.2875C21.1077 17.4977 20.9654 17.6311 20.7422 17.6875C20.5191 17.7437 20.3204 17.6847 20.1459 17.5105L18.9589 16.3232C18.8562 16.2207 18.7759 16.108 18.7179 15.9848C18.6597 15.8617 18.6306 15.7198 18.6306 15.5592V12.4052C18.6306 12.195 18.7199 12.0484 18.8986 11.9655C19.0772 11.8826 19.2495 11.8925 19.4152 11.9952ZM13.5896 10.9542C13.4871 10.8515 13.438 10.7198 13.4422 10.5592C13.4465 10.3985 13.4999 10.267 13.6026 10.1645L14.2229 9.54384C14.4982 9.26873 14.8162 9.20673 15.1769 9.35784C15.5376 9.50918 15.7179 9.77884 15.7179 10.1668V11.7898C15.7179 12.0225 15.6008 12.1811 15.3666 12.2655C15.1324 12.3502 14.9391 12.3122 14.7869 12.1515L13.5896 10.9542ZM13.9846 19.8335V17.2052L11.3796 14.6002L10.7796 15.2335H7.58457V16.8335H10.9846L13.9846 19.8335Z" fill="white"/>
</g>
</svg>
