<svg width="44" height="44" viewBox="0 0 44 44" fill="none" xmlns="http://www.w3.org/2000/svg">
<path d="M28.2757 23.0862L25.8149 20.6254H27.4649C27.8551 20.6254 28.1817 20.7571 28.4448 21.0205C28.7082 21.2836 28.8399 21.6102 28.8399 22.0004C28.8399 22.2354 28.7906 22.4458 28.6919 22.6315C28.5932 22.8173 28.4544 22.9689 28.2757 23.0862ZM37.9007 39.8333C37.6352 40.0988 37.3133 40.2315 36.935 40.2315C36.5564 40.2315 36.2343 40.0988 35.9688 39.8333L4.16736 8.0318C3.91375 7.77788 3.78389 7.45888 3.77777 7.0748C3.77197 6.69041 3.90183 6.36545 4.16736 6.09992C4.43319 5.83409 4.75525 5.70117 5.13352 5.70117C5.5118 5.70117 5.83386 5.83409 6.09969 6.09992L37.9007 37.9009C38.1546 38.1548 38.2845 38.474 38.2903 38.8584C38.2964 39.2425 38.1665 39.5674 37.9007 39.8333ZM12.9041 30.321C10.603 30.321 8.641 29.5095 7.01819 27.8863C5.39508 26.2635 4.58352 24.3016 4.58352 22.0004C4.58352 19.9627 5.23986 18.1746 6.55252 16.6361C7.86519 15.0979 9.51229 14.169 11.4938 13.8494H11.9169L14.4977 16.4298H12.9041C11.3644 16.4298 10.0511 16.9734 8.96427 18.0606C7.87711 19.1478 7.33352 20.461 7.33352 22.0004C7.33352 23.5398 7.87711 24.8531 8.96427 25.9403C10.0511 27.0274 11.3644 27.571 12.9041 27.571H18.4747C18.8649 27.571 19.1915 27.7025 19.4546 27.9656C19.718 28.229 19.8497 28.5558 19.8497 28.946C19.8497 29.3362 19.718 29.6628 19.4546 29.9259C19.1915 30.1893 18.8649 30.321 18.4747 30.321H12.9041ZM16.5355 23.3754C16.1453 23.3754 15.8187 23.2437 15.5556 22.9803C15.2922 22.7173 15.1605 22.3906 15.1605 22.0004C15.1605 21.6102 15.2922 21.2836 15.5556 21.0205C15.8187 20.7571 16.1453 20.6254 16.5355 20.6254H18.7213L21.4254 23.3754H16.5355ZM33.6171 28.6146C33.4127 28.2926 33.3458 27.9459 33.4164 27.5747C33.4866 27.2031 33.6888 26.9209 34.0227 26.7281C34.8312 26.2322 35.474 25.5701 35.9509 24.7417C36.4282 23.913 36.6669 22.9993 36.6669 22.0004C36.6669 20.461 36.1263 19.1478 35.0453 18.0606C33.9639 16.9734 32.6593 16.4298 31.1316 16.4298H25.5257C25.1355 16.4298 24.8089 16.2983 24.5458 16.0352C24.2824 15.7718 24.1507 15.445 24.1507 15.0548C24.1507 14.6646 24.2824 14.338 24.5458 14.0749C24.8089 13.8115 25.1355 13.6798 25.5257 13.6798H31.1316C33.4208 13.6798 35.3741 14.4914 36.9914 16.1145C38.6084 17.7373 39.4169 19.6993 39.4169 22.0004C39.4169 23.4506 39.0642 24.7897 38.359 26.0177C37.6538 27.246 36.7018 28.2409 35.5031 29.0024C35.1814 29.2068 34.8376 29.2737 34.4719 29.2031C34.1065 29.1329 33.8215 28.9367 33.6171 28.6146Z" fill="#FF4D4D"/>
</svg>
