<svg width="18" height="18" viewBox="0 0 18 18" fill="none" xmlns="http://www.w3.org/2000/svg">
<path d="M9.4979 14.1563L3.82131 8.4797C3.58568 8.21605 3.4646 7.9075 3.45809 7.55406C3.45157 7.20075 3.57264 6.89976 3.82131 6.6511L6.65882 3.81359C6.92247 3.55189 7.23427 3.42105 7.59423 3.42105C7.95406 3.42105 8.25179 3.55189 8.48742 3.81359L14.164 9.49018C14.4257 9.72776 14.5565 10.0265 14.5565 10.3865C14.5565 10.7463 14.4257 11.0571 14.164 11.3188L11.3265 14.1563C11.0759 14.4049 10.7738 14.526 10.4204 14.5195C10.0671 14.513 9.75959 14.3919 9.4979 14.1563ZM10.2392 13.4647C10.2844 13.5097 10.3421 13.5323 10.4122 13.5323C10.4824 13.5323 10.5401 13.5097 10.5852 13.4647L13.4528 10.5775C13.4979 10.5324 13.5205 10.4747 13.5205 10.4045C13.5205 10.3344 13.4979 10.2767 13.4528 10.2315L7.74613 4.50522C7.7009 4.46013 7.64323 4.43759 7.57312 4.43759C7.50287 4.43759 7.4452 4.46013 7.40011 4.50522L4.51294 7.39239C4.46785 7.43748 4.4453 7.49515 4.4453 7.5654C4.4453 7.63551 4.46785 7.69318 4.51294 7.73841L10.2392 13.4647ZM9.01211 0.983502L10.292 2.28272C10.4001 2.39102 10.4555 2.50753 10.4581 2.63225C10.4606 2.7571 10.4052 2.87615 10.292 2.98941C10.1786 3.10279 10.0575 3.16274 9.92875 3.16926C9.79999 3.17577 9.67892 3.12234 9.56553 3.00896L7.64232 1.08574C7.47185 0.915276 7.42311 0.718158 7.49609 0.49439C7.56895 0.270621 7.71745 0.129609 7.94161 0.0713537C8.13306 0.04985 8.31591 0.0325814 8.49015 0.0195488C8.66453 0.00651628 8.84757 0 9.03928 0C10.1881 0 11.2783 0.208261 12.31 0.624781C13.3415 1.0413 14.2601 1.60998 15.0656 2.33081C15.8711 3.05164 16.5343 3.90175 17.0551 4.88115C17.5759 5.86067 17.8884 6.91833 17.9926 8.05412C18.0187 8.19422 17.9755 8.31392 17.863 8.41323C17.7506 8.51267 17.6243 8.56239 17.4842 8.56239C17.344 8.56239 17.2242 8.51267 17.1251 8.41323C17.0258 8.31392 16.9761 8.19422 16.9761 8.05412C16.8588 7.04253 16.5696 6.10621 16.1085 5.24515C15.6473 4.38396 15.0621 3.63882 14.3528 3.00974C13.6435 2.38066 12.8302 1.8864 11.913 1.52696C10.9956 1.16765 10.0286 0.986499 9.01211 0.983502ZM8.98826 17.0014L7.7084 15.7022C7.60022 15.5939 7.54484 15.4774 7.54223 15.3527C7.53975 15.2278 7.59514 15.1088 7.7084 14.9955C7.82178 14.8821 7.94285 14.8222 8.07161 14.8157C8.20037 14.8092 8.32145 14.8626 8.43483 14.976L10.358 16.8992C10.5285 17.0697 10.5776 17.2619 10.5054 17.4759C10.4332 17.6899 10.2848 17.8285 10.0601 17.8917C9.86828 17.9158 9.68511 17.9374 9.5106 17.9564C9.3361 17.9754 9.15292 17.9849 8.96108 17.9849C7.81591 17.9849 6.72945 17.7801 5.70171 17.3703C4.67409 16.9606 3.75777 16.3955 2.95275 15.6752C2.14773 14.9549 1.48822 14.1038 0.974214 13.1218C0.46021 12.1396 0.138045 11.076 0.00771919 9.93081C-0.0183459 9.79071 0.0215988 9.671 0.127554 9.5717C0.233508 9.47226 0.363052 9.42254 0.516184 9.42254C0.656415 9.42254 0.776119 9.47226 0.875296 9.5717C0.974604 9.671 1.02426 9.79071 1.02426 9.93081C1.14155 10.9424 1.43074 11.8787 1.89184 12.7398C2.35306 13.601 2.94154 14.3461 3.65729 14.9752C4.37317 15.6043 5.18647 16.0985 6.09718 16.458C7.00803 16.8173 7.97172 16.9984 8.98826 17.0014Z" fill="white"/>
</svg>
