<svg width="20" height="20" viewBox="0 0 20 20" fill="none" xmlns="http://www.w3.org/2000/svg">
<mask id="mask0_3940_2831" style="mask-type:alpha" maskUnits="userSpaceOnUse" x="0" y="0" width="20" height="20">
<rect width="20" height="20" fill="#D9D9D9"/>
</mask>
<g mask="url(#mask0_3940_2831)">
<path d="M10 16.7595C9.5567 16.7595 9.17927 16.6038 8.86774 16.2924C8.55635 15.9811 8.40066 15.6036 8.40066 15.1602C8.40066 14.7168 8.55635 14.3395 8.86774 14.0281C9.17927 13.7167 9.5567 13.561 10 13.561C10.4434 13.561 10.8208 13.7167 11.1323 14.0281C11.4437 14.3395 11.5994 14.7168 11.5994 15.1602C11.5994 15.6036 11.4437 15.9811 11.1323 16.2924C10.8208 16.6038 10.4434 16.7595 10 16.7595ZM10 8.64099C11.0374 8.64099 12.0131 8.80766 12.9271 9.14099C13.8411 9.47432 14.6752 9.93537 15.4294 10.5241C15.5822 10.6426 15.669 10.798 15.6898 10.9904C15.7107 11.1827 15.6559 11.344 15.5257 11.4743C15.39 11.61 15.2273 11.6821 15.0377 11.6906C14.848 11.6992 14.6698 11.6485 14.5032 11.5385C13.8708 11.0492 13.1721 10.6704 12.4071 10.4022C11.6421 10.134 10.8398 9.99995 10 9.99995C9.16031 9.99995 8.35795 10.134 7.59295 10.4022C6.82795 10.6704 6.12927 11.0492 5.49691 11.5385C5.33024 11.6485 5.15204 11.7006 4.96232 11.6947C4.77274 11.6888 4.6101 11.6179 4.47441 11.4822C4.33871 11.352 4.2826 11.1906 4.30607 10.9983C4.32968 10.8061 4.41788 10.6506 4.57066 10.532C5.32482 9.94342 6.15892 9.48106 7.07295 9.14495C7.98697 8.80898 8.96267 8.64099 10 8.64099ZM10 3.64099C11.7286 3.64099 13.352 3.93321 14.8702 4.51766C16.3884 5.1021 17.7581 5.91516 18.9792 6.95682C19.132 7.09238 19.2175 7.25634 19.2357 7.4487C19.2537 7.64106 19.1976 7.80238 19.0673 7.93266C18.9125 8.08752 18.7319 8.15481 18.5257 8.13453C18.3195 8.11425 18.1304 8.03092 17.9584 7.88453C16.8591 6.98398 15.6379 6.27807 14.2948 5.76682C12.9519 5.25557 11.5203 4.99995 10 4.99995C8.47975 4.99995 7.04816 5.25557 5.70524 5.76682C4.36218 6.27807 3.141 6.98398 2.0417 7.88453C1.86961 8.03092 1.68052 8.11773 1.47441 8.14495C1.26816 8.17217 1.0876 8.10835 0.932738 7.95349C0.802461 7.82321 0.74635 7.65842 0.764405 7.45912C0.7826 7.25981 0.868086 7.09238 1.02086 6.95682C2.24197 5.91516 3.61163 5.1021 5.12982 4.51766C6.64802 3.93321 8.27142 3.64099 10 3.64099Z" fill="#51AEFF"/>
</g>
</svg>
