<svg width="20" height="20" viewBox="0 0 20 20" fill="none" xmlns="http://www.w3.org/2000/svg">
<mask id="mask0_3940_2852" style="mask-type:alpha" maskUnits="userSpaceOnUse" x="0" y="0" width="20" height="20">
<rect width="20" height="20" fill="#D9D9D9"/>
</mask>
<g mask="url(#mask0_3940_2852)">
<path d="M10 16.7597C9.5567 16.7597 9.17927 16.604 8.86774 16.2926C8.55635 15.9812 8.40066 15.6038 8.40066 15.1603C8.40066 14.7169 8.55635 14.3396 8.86774 14.0282C9.17927 13.7168 9.5567 13.5611 10 13.5611C10.4434 13.5611 10.8208 13.7168 11.1323 14.0282C11.4437 14.3396 11.5994 14.7169 11.5994 15.1603C11.5994 15.6038 11.4437 15.9812 11.1323 16.2926C10.8208 16.604 10.4434 16.7597 10 16.7597ZM10 8.64111C11.0374 8.64111 12.0131 8.80778 12.9271 9.14111C13.8411 9.47445 14.6752 9.93549 15.4294 10.5242C15.5822 10.6427 15.669 10.7981 15.6898 10.9905C15.7107 11.1828 15.6559 11.3442 15.5257 11.4744C15.39 11.6101 15.2273 11.6822 15.0377 11.6907C14.848 11.6993 14.6698 11.6486 14.5032 11.5386C13.8708 11.0493 13.1721 10.6706 12.4071 10.4024C11.6421 10.1342 10.8398 10.0001 10 10.0001C9.16031 10.0001 8.35795 10.1342 7.59295 10.4024C6.82795 10.6706 6.12927 11.0493 5.49691 11.5386C5.33024 11.6486 5.15204 11.7007 4.96232 11.6949C4.77274 11.6889 4.6101 11.6181 4.47441 11.4824C4.33871 11.3521 4.2826 11.1908 4.30607 10.9984C4.32968 10.8062 4.41788 10.6508 4.57066 10.5322C5.32482 9.94354 6.15892 9.48118 7.07295 9.14507C7.98697 8.8091 8.96267 8.64111 10 8.64111ZM10 3.64111C11.7286 3.64111 13.352 3.93333 14.8702 4.51778C16.3884 5.10222 17.7581 5.91528 18.9792 6.95695C19.132 7.0925 19.2175 7.25646 19.2357 7.44882C19.2537 7.64118 19.1976 7.8025 19.0673 7.93278C18.9125 8.08764 18.7319 8.15493 18.5257 8.13465C18.3195 8.11438 18.1304 8.03104 17.9584 7.88465C16.8591 6.9841 15.6379 6.2782 14.2948 5.76695C12.9519 5.2557 11.5203 5.00007 10 5.00007C8.47975 5.00007 7.04816 5.2557 5.70524 5.76695C4.36218 6.2782 3.141 6.9841 2.0417 7.88465C1.86961 8.03104 1.68052 8.11785 1.47441 8.14507C1.26816 8.17229 1.0876 8.10847 0.932738 7.95361C0.802461 7.82334 0.74635 7.65854 0.764405 7.45924C0.7826 7.25993 0.868086 7.0925 1.02086 6.95695C2.24197 5.91528 3.61163 5.10222 5.12982 4.51778C6.64802 3.93333 8.27142 3.64111 10 3.64111Z" fill="#1F1F1F"/>
</g>
</svg>
