<svg width="20" height="20" viewBox="0 0 20 20" fill="none" xmlns="http://www.w3.org/2000/svg">
<path d="M7.5 2.5H3.33333C2.8731 2.5 2.5 2.8731 2.5 3.33333V7.5C2.5 7.96025 2.8731 8.33333 3.33333 8.33333H7.5C7.96025 8.33333 8.33333 7.96025 8.33333 7.5V3.33333C8.33333 2.8731 7.96025 2.5 7.5 2.5Z" fill="#FFEB3B" stroke="#1F1F1F" stroke-width="1.66667" stroke-linejoin="round"/>
<path d="M7.5 11.668H3.33333C2.8731 11.668 2.5 12.0411 2.5 12.5013V16.668C2.5 17.1282 2.8731 17.5013 3.33333 17.5013H7.5C7.96025 17.5013 8.33333 17.1282 8.33333 16.668V12.5013C8.33333 12.0411 7.96025 11.668 7.5 11.668Z" fill="#FFEB3B" stroke="#1F1F1F" stroke-width="1.66667" stroke-linejoin="round"/>
<path d="M16.668 2.5H12.5013C12.0411 2.5 11.668 2.8731 11.668 3.33333V7.5C11.668 7.96025 12.0411 8.33333 12.5013 8.33333H16.668C17.1282 8.33333 17.5013 7.96025 17.5013 7.5V3.33333C17.5013 2.8731 17.1282 2.5 16.668 2.5Z" fill="#FFEB3B" stroke="#1F1F1F" stroke-width="1.66667" stroke-linejoin="round"/>
<path d="M16.668 11.668H12.5013C12.0411 11.668 11.668 12.0411 11.668 12.5013V16.668C11.668 17.1282 12.0411 17.5013 12.5013 17.5013H16.668C17.1282 17.5013 17.5013 17.1282 17.5013 16.668V12.5013C17.5013 12.0411 17.1282 11.668 16.668 11.668Z" fill="#FFEB3B" stroke="#1F1F1F" stroke-width="1.66667" stroke-linejoin="round"/>
</svg>
