<svg width="32" height="32" viewBox="0 0 32 32" fill="none" xmlns="http://www.w3.org/2000/svg">
<path fill-rule="evenodd" clip-rule="evenodd" d="M12.25 7C11.8357 7 11.5 7.33579 11.5 7.75C11.5 8.16421 11.8357 8.5 12.25 8.5H19.75C20.1642 8.5 20.5 8.16421 20.5 7.75C20.5 7.33579 20.1642 7 19.75 7H12.25ZM7.93371 11.9288C7.97109 11.4054 8.40653 11 8.93117 11H23.0689C23.5936 11 24.029 11.4054 24.0664 11.9288L24.9235 23.9288C24.9649 24.5076 24.5064 25 23.9261 25H8.07403C7.49368 25 7.03522 24.5076 7.07657 23.9288L7.93371 11.9288ZM12 14C12 13.7239 12.2239 13.5 12.5 13.5H19.5C19.7761 13.5 20 13.7239 20 14C20 14.2761 19.7761 14.5 19.5 14.5H12.5C12.2239 14.5 12 14.2761 12 14Z" fill="#B2B0AF"/>
</svg>
