<svg width="24" height="24" viewBox="0 0 24 24" fill="none" xmlns="http://www.w3.org/2000/svg">
<path d="M17.7695 5.07715H6.23099C5.59374 5.07715 5.07715 5.59374 5.07715 6.23099V17.7695C5.07715 18.4067 5.59374 18.9233 6.23099 18.9233H17.7695C18.4067 18.9233 18.9233 18.4067 18.9233 17.7695V6.23099C18.9233 5.59374 18.4067 5.07715 17.7695 5.07715Z" fill="#FFEB3B"/>
<path fill-rule="evenodd" clip-rule="evenodd" d="M4.5 6.23077C4.5 5.27489 5.27489 4.5 6.23077 4.5H17.7692C18.7251 4.5 19.5 5.2749 19.5 6.23077V17.7692C19.5 18.7251 18.7251 19.5 17.7692 19.5H6.23077C5.2749 19.5 4.5 18.7251 4.5 17.7692V6.23077ZM6.23077 5.65385C5.91215 5.65385 5.65385 5.91215 5.65385 6.23077V17.7692C5.65385 18.0879 5.91214 18.3462 6.23077 18.3462H17.7692C18.0879 18.3462 18.3462 18.0879 18.3462 17.7692V6.23077C18.3462 5.91214 18.0879 5.65385 17.7692 5.65385H6.23077Z" fill="#FFEB3B"/>
<path fill-rule="evenodd" clip-rule="evenodd" d="M11.5916 10.0528C11.8169 9.82746 12.1822 9.82746 12.4075 10.0528L15.4844 13.1297C15.7097 13.355 15.7097 13.7203 15.4844 13.9456C15.2591 14.1709 14.8938 14.1709 14.6685 13.9456L11.9995 11.2766L9.33057 13.9456C9.10527 14.1709 8.73998 14.1709 8.51468 13.9456C8.28938 13.7203 8.28938 13.355 8.51468 13.1297L11.5916 10.0528Z" fill="#1F1F1F"/>
<path fill-rule="evenodd" clip-rule="evenodd" d="M12.0003 10.0762C12.3189 10.0762 12.5772 10.3345 12.5772 10.6531V16.6146C12.5772 16.9333 12.3189 17.1916 12.0003 17.1916C11.6816 17.1916 11.4233 16.9333 11.4233 16.6146V10.6531C11.4233 10.3345 11.6816 10.0762 12.0003 10.0762Z" fill="#1F1F1F"/>
<path fill-rule="evenodd" clip-rule="evenodd" d="M8.3457 8.15407C8.3457 7.83545 8.604 7.57715 8.92263 7.57715H15.0765C15.3951 7.57715 15.6534 7.83545 15.6534 8.15407C15.6534 8.4727 15.3951 8.73099 15.0765 8.73099H8.92263C8.604 8.73099 8.3457 8.4727 8.3457 8.15407Z" fill="#1F1F1F"/>
</svg>
