<svg width="24" height="24" viewBox="0 0 24 24" fill="none" xmlns="http://www.w3.org/2000/svg">
<path fill-rule="evenodd" clip-rule="evenodd" d="M4.5 6.23077C4.5 5.27489 5.27489 4.5 6.23077 4.5H17.7692C18.7251 4.5 19.5 5.2749 19.5 6.23077V17.7692C19.5 18.7251 18.7251 19.5 17.7692 19.5H6.23077C5.2749 19.5 4.5 18.7251 4.5 17.7692V6.23077ZM8.34644 8.15385C8.34644 7.83522 8.60474 7.57692 8.92337 7.57692H15.0772C15.3958 7.57692 15.6541 7.83522 15.6541 8.15385C15.6541 8.47247 15.3958 8.73077 15.0772 8.73077H8.92337C8.60474 8.73077 8.34644 8.47247 8.34644 8.15385ZM12.4057 10.0559C12.1804 9.83061 11.8151 9.83061 11.5898 10.0559L8.51288 13.1328C8.28757 13.3581 8.28757 13.7234 8.51288 13.9487C8.73818 14.174 9.10347 14.174 9.32877 13.9487L11.4231 11.8544V16.6131C11.4231 16.9318 11.6814 17.1901 12 17.1901C12.3186 17.1901 12.5769 16.9318 12.5769 16.6131V11.8589L14.6667 13.9487C14.892 14.174 15.2573 14.174 15.4826 13.9487C15.7079 13.7234 15.7079 13.3581 15.4826 13.1328L12.4057 10.0559Z" fill="#ADADAD"/>
</svg>
