<svg width="20" height="20" viewBox="0 0 20 20" fill="none" xmlns="http://www.w3.org/2000/svg">
<path d="M11.7844 15.4167H16.5463H11.7844ZM11.7844 15.4167L14.1654 10L16.5463 15.4167H11.7844Z" fill="#FFEB3B"/>
<path d="M11.7844 15.4167H16.5463M11.7844 15.4167L10.832 17.5M11.7844 15.4167L14.1654 10L16.5463 15.4167M16.5463 15.4167L17.4987 17.5" stroke="#1F1F1F" stroke-width="1.66667" stroke-linecap="round" stroke-linejoin="round"/>
<path d="M6.66797 2.5L7.08464 3.75" stroke="#1F1F1F" stroke-width="1.66667" stroke-linecap="round" stroke-linejoin="round"/>
<path d="M10 4.58203C10 4.58203 9.25437 8.00595 7.39033 9.90811C7.26505 10.036 7.13451 10.1621 7 10.2862C6.86549 10.1621 6.73495 10.036 6.60967 9.90811C4.74563 8.00595 4 4.58203 4 4.58203H10Z" fill="#FFEB3B"/>
<path d="M2.5 4.58203H4M11.6667 4.58203H10M10 4.58203C10 4.58203 9.25437 8.00595 7.39033 9.90811C7.26505 10.036 7.13451 10.1621 7 10.2862M10 4.58203H4M2.5 13.332C2.5 13.332 5.13319 12.008 7 10.2862M4 4.58203C4 4.58203 4.74563 8.00595 6.60967 9.90811C6.73495 10.036 6.86549 10.1621 7 10.2862M7 10.2862C8.1387 11.3364 9.56254 12.455 10.5 12.999" stroke="#1F1F1F" stroke-width="1.66667" stroke-linecap="round" stroke-linejoin="round"/>
</svg>
