<svg width="210" height="100" viewBox="0 0 210 100" fill="none" xmlns="http://www.w3.org/2000/svg">
<g clip-path="url(#clip0_3565_37732)">
<mask id="path-1-inside-1_3565_37732" fill="white">
<path d="M0 0H210V100H0V0Z"/>
</mask>
<path d="M0 0H210V100H0V0Z" fill="#F3F3F3"/>
<g filter="url(#filter0_b_3565_37732)">
<rect x="52" y="32" width="171.97" height="105.999" rx="6" fill="url(#paint0_linear_3565_37732)"/>
<rect x="52.5" y="32.5" width="170.97" height="104.999" rx="5.5" stroke="black" stroke-opacity="0.1"/>
<rect x="93" y="38" width="36" height="94" rx="4" fill="white"/>
<rect x="135" y="38" width="82" height="94" rx="4" fill="white"/>
<rect x="58" y="50" width="12" height="12" rx="6" fill="white"/>
<circle cx="71" cy="39" r="2" fill="#64C555"/>
<circle cx="65" cy="39" r="2" fill="#F5BE51"/>
<circle cx="59" cy="39" r="2" fill="#EC6A5F"/>
<rect x="58" y="69" width="29" height="10" rx="2" fill="white"/>
<rect x="58" y="81" width="29" height="10" rx="2" fill="white"/>
<rect x="58" y="93" width="29" height="10" rx="2" fill="white"/>
</g>
<mask id="mask0_3565_37732" style="mask-type:alpha" maskUnits="userSpaceOnUse" x="16" y="16" width="24" height="24">
<rect x="16" y="16" width="24" height="24" fill="#D9D9D9"/>
</mask>
<g mask="url(#mask0_3565_37732)">
<path d="M28 30.9992C28.8333 30.9992 29.5417 30.7076 30.125 30.1242C30.7083 29.5409 31 28.8326 31 27.9992C31 27.1659 30.7083 26.4576 30.125 25.8742C29.5417 25.2909 28.8333 24.9992 28 24.9992C27.1667 24.9992 26.4583 25.2909 25.875 25.8742C25.2917 26.4576 25 27.1659 25 27.9992C25 28.8326 25.2917 29.5409 25.875 30.1242C26.4583 30.7076 27.1667 30.9992 28 30.9992ZM27.9943 32.7992C26.6648 32.7992 25.5333 32.3306 24.6 31.3935C23.6667 30.4565 23.2 29.3231 23.2 27.9935C23.2 26.664 23.6686 25.5326 24.6058 24.5992C25.5428 23.6659 26.6761 23.1992 28.0058 23.1992C29.3353 23.1992 30.4667 23.6678 31.4 24.605C32.3333 25.542 32.8 26.6753 32.8 28.005C32.8 29.3345 32.3314 30.4659 31.3943 31.3992C30.4573 32.3326 29.3239 32.7992 27.9943 32.7992ZM18.1 28.8992C17.845 28.8992 17.6313 28.8135 17.4588 28.642C17.2863 28.4705 17.2 28.258 17.2 28.0045C17.2 27.751 17.2863 27.5367 17.4588 27.3617C17.6313 27.1867 17.845 27.0992 18.1 27.0992H20.5C20.755 27.0992 20.9688 27.185 21.1413 27.3565C21.3138 27.528 21.4 27.7405 21.4 27.994C21.4 28.2475 21.3138 28.4617 21.1413 28.6367C20.9688 28.8117 20.755 28.8992 20.5 28.8992H18.1ZM35.5 28.8992C35.245 28.8992 35.0313 28.8135 34.8588 28.642C34.6863 28.4705 34.6 28.258 34.6 28.0045C34.6 27.751 34.6863 27.5367 34.8588 27.3617C35.0313 27.1867 35.245 27.0992 35.5 27.0992H37.9C38.155 27.0992 38.3688 27.185 38.5413 27.3565C38.7138 27.528 38.8 27.7405 38.8 27.994C38.8 28.2475 38.7138 28.4617 38.5413 28.6367C38.3688 28.8117 38.155 28.8992 37.9 28.8992H35.5ZM28.0053 21.3992C27.7518 21.3992 27.5375 21.313 27.3625 21.1405C27.1875 20.968 27.1 20.7542 27.1 20.4992V18.0992C27.1 17.8442 27.1858 17.6305 27.3573 17.458C27.5288 17.2855 27.7413 17.1992 27.9948 17.1992C28.2483 17.1992 28.4625 17.2855 28.6375 17.458C28.8125 17.6305 28.9 17.8442 28.9 18.0992V20.4992C28.9 20.7542 28.8143 20.968 28.6428 21.1405C28.4713 21.313 28.2588 21.3992 28.0053 21.3992ZM28.0053 38.7992C27.7518 38.7992 27.5375 38.713 27.3625 38.5405C27.1875 38.368 27.1 38.1542 27.1 37.8992V35.4992C27.1 35.2442 27.1858 35.0305 27.3573 34.858C27.5288 34.6855 27.7413 34.5992 27.9948 34.5992C28.2483 34.5992 28.4625 34.6855 28.6375 34.858C28.8125 35.0305 28.9 35.2442 28.9 35.4992V37.8992C28.9 38.1542 28.8143 38.368 28.6428 38.5405C28.4713 38.713 28.2588 38.7992 28.0053 38.7992ZM22.05 23.3242L20.8 22.0492C20.6167 21.8826 20.525 21.6784 20.525 21.4367C20.525 21.1951 20.6167 20.9826 20.8 20.7992C20.9738 20.6159 21.184 20.5242 21.4305 20.5242C21.6768 20.5242 21.8833 20.6159 22.05 20.7992L23.325 22.0492C23.5083 22.2316 23.6 22.4443 23.6 22.6875C23.6 22.9306 23.5083 23.1434 23.325 23.3257C23.1583 23.5081 22.95 23.5992 22.7 23.5992C22.45 23.5992 22.2333 23.5076 22.05 23.3242ZM33.95 35.1992L32.675 33.9492C32.4917 33.7714 32.4 33.5603 32.4 33.316C32.4 33.0715 32.4917 32.8576 32.675 32.6742C32.8417 32.4909 33.05 32.3992 33.3 32.3992C33.55 32.3992 33.7667 32.4909 33.95 32.6742L35.2 33.9492C35.3833 34.1159 35.475 34.3201 35.475 34.5617C35.475 34.8034 35.3873 35.0159 35.212 35.1992C35.0207 35.3826 34.8083 35.4742 34.575 35.4742C34.3417 35.4742 34.1333 35.3826 33.95 35.1992ZM32.6735 23.3242C32.4912 23.1576 32.4 22.9492 32.4 22.6992C32.4 22.4492 32.4917 22.2326 32.675 22.0492L33.95 20.7992C34.1333 20.6159 34.3417 20.5284 34.575 20.5367C34.8083 20.5451 35.0167 20.6329 35.2 20.8002C35.3833 20.9829 35.475 21.1909 35.475 21.4242C35.475 21.6576 35.3833 21.8659 35.2 22.0492L33.95 23.3242C33.7677 23.5076 33.5549 23.5992 33.3118 23.5992C33.0686 23.5992 32.8558 23.5076 32.6735 23.3242ZM20.8 35.1992C20.6167 35.0254 20.525 34.8152 20.525 34.5687C20.525 34.3224 20.6167 34.1159 20.8 33.9492L22.05 32.6742C22.2278 32.5076 22.4389 32.4242 22.6833 32.4242C22.9278 32.4242 23.1417 32.5076 23.325 32.6742C23.5083 32.8576 23.5962 33.0715 23.5885 33.316C23.5808 33.5603 23.493 33.7714 23.325 33.9492L22.05 35.1992C21.8833 35.3826 21.6792 35.4742 21.4375 35.4742C21.1958 35.4742 20.9833 35.3826 20.8 35.1992Z" fill="#1C1B1F"/>
</g>
</g>
<path d="M210 99H0V101H210V99Z" fill="black" fill-opacity="0.1" mask="url(#path-1-inside-1_3565_37732)"/>
<defs>
<filter id="filter0_b_3565_37732" x="-22.1252" y="-42.1252" width="320.221" height="254.25" filterUnits="userSpaceOnUse" color-interpolation-filters="sRGB">
<feFlood flood-opacity="0" result="BackgroundImageFix"/>
<feGaussianBlur in="BackgroundImageFix" stdDeviation="37.0626"/>
<feComposite in2="SourceAlpha" operator="in" result="effect1_backgroundBlur_3565_37732"/>
<feBlend mode="normal" in="SourceGraphic" in2="effect1_backgroundBlur_3565_37732" result="shape"/>
</filter>
<linearGradient id="paint0_linear_3565_37732" x1="388.5" y1="-117.5" x2="136.299" y2="233.864" gradientUnits="userSpaceOnUse">
<stop stop-color="#FEFBE4"/>
<stop offset="0.214425" stop-color="white"/>
<stop offset="0.531482" stop-color="#FBFBE9"/>
<stop offset="0.768184" stop-color="#FFF3B7"/>
<stop offset="1" stop-color="#FFFFF3"/>
</linearGradient>
<clipPath id="clip0_3565_37732">
<path d="M0 0H210V100H0V0Z" fill="white"/>
</clipPath>
</defs>
</svg>
