<svg width="16" height="17" viewBox="0 0 16 17" fill="none" xmlns="http://www.w3.org/2000/svg">
<circle cx="8" cy="8.5" r="8" fill="#DBDBDB"/>
<mask id="mask0_3446_7594" style="mask-type:alpha" maskUnits="userSpaceOnUse" x="2" y="2" width="12" height="13">
<rect x="2" y="2.5" width="12" height="12" fill="#D9D9D9"/>
</mask>
<g mask="url(#mask0_3446_7594)">
<path d="M7.99999 9.13828L5.94999 11.1883C5.85832 11.2799 5.75416 11.3237 5.63749 11.3195C5.52082 11.3154 5.41666 11.2674 5.32499 11.1758C5.23332 11.0841 5.18749 10.9779 5.18749 10.857C5.18749 10.7362 5.23332 10.6299 5.32499 10.5383L7.36249 8.50078L5.31249 6.45078C5.22082 6.35911 5.17707 6.25286 5.18124 6.13203C5.18541 6.0112 5.23332 5.90495 5.32499 5.81328C5.41666 5.72161 5.52291 5.67578 5.64374 5.67578C5.76457 5.67578 5.87082 5.72161 5.96249 5.81328L7.99999 7.86328L10.05 5.81328C10.1417 5.72161 10.2479 5.67578 10.3687 5.67578C10.4896 5.67578 10.5958 5.72161 10.6875 5.81328C10.7792 5.90495 10.825 6.0112 10.825 6.13203C10.825 6.25286 10.7792 6.35911 10.6875 6.45078L8.63749 8.50078L10.6875 10.5508C10.7792 10.6424 10.825 10.7466 10.825 10.8633C10.825 10.9799 10.7792 11.0841 10.6875 11.1758C10.5958 11.2674 10.4896 11.3133 10.3687 11.3133C10.2479 11.3133 10.1417 11.2674 10.05 11.1758L7.99999 9.13828Z" fill="white"/>
</g>
</svg>
