<svg width="16" height="16" viewBox="0 0 16 16" fill="none" xmlns="http://www.w3.org/2000/svg">
<circle cx="8" cy="8" r="8" fill="#29CC5F"/>
<mask id="mask0_3446_7259" style="mask-type:alpha" maskUnits="userSpaceOnUse" x="2" y="2" width="12" height="12">
<rect x="2" y="2" width="12" height="12" fill="#D9D9D9"/>
</mask>
<g mask="url(#mask0_3446_7259)">
<path d="M6.9375 9.16219L10.2375 5.87469C10.3292 5.78302 10.4333 5.73927 10.55 5.74344C10.6667 5.7476 10.7708 5.79552 10.8625 5.88719C10.9542 5.97885 11 6.08302 11 6.19969C11 6.31635 10.9542 6.42052 10.8625 6.51219L7.2625 10.1122C7.17083 10.2039 7.06458 10.2497 6.94375 10.2497C6.82292 10.2497 6.71667 10.2039 6.625 10.1122L5.1375 8.62469C5.04583 8.53302 5 8.42885 5 8.31219C5 8.19552 5.04583 8.09135 5.1375 7.99969C5.22917 7.90802 5.33333 7.86219 5.45 7.86219C5.56667 7.86219 5.67083 7.90802 5.7625 7.99969L6.9375 9.16219Z" fill="white"/>
</g>
</svg>
