<svg width="16" height="16" viewBox="0 0 16 16" fill="none" xmlns="http://www.w3.org/2000/svg">
<circle cx="8" cy="8" r="8" fill="#FF4D4D"/>
<mask id="mask0_3446_7334" style="mask-type:alpha" maskUnits="userSpaceOnUse" x="2" y="2" width="12" height="12">
<rect x="2" y="2" width="12" height="12" fill="#D9D9D9"/>
</mask>
<g mask="url(#mask0_3446_7334)">
<path d="M8.00267 9.2C7.87592 9.2 7.7688 9.15688 7.6813 9.07063C7.5938 8.98438 7.55005 8.8775 7.55005 8.75V5.45C7.55005 5.3225 7.59292 5.21562 7.67867 5.12937C7.76442 5.04312 7.87067 5 7.99742 5C8.12417 5 8.2313 5.04312 8.3188 5.12937C8.4063 5.21562 8.45005 5.3225 8.45005 5.45V8.75C8.45005 8.8775 8.40717 8.98438 8.32142 9.07063C8.23567 9.15688 8.12942 9.2 8.00267 9.2ZM8.00267 11C7.87592 11 7.7688 10.9571 7.6813 10.8714C7.5938 10.7856 7.55005 10.6794 7.55005 10.5526C7.55005 10.4259 7.59292 10.3188 7.67867 10.2313C7.76442 10.1438 7.87067 10.1 7.99742 10.1C8.12417 10.1 8.2313 10.1429 8.3188 10.2286C8.4063 10.3144 8.45005 10.4206 8.45005 10.5474C8.45005 10.6741 8.40717 10.7812 8.32142 10.8688C8.23567 10.9563 8.12942 11 8.00267 11Z" fill="white"/>
</g>
</svg>
