<svg width="16" height="16" viewBox="0 0 16 16" fill="none" xmlns="http://www.w3.org/2000/svg">
<circle cx="8" cy="8" r="8" fill="#DBDBDB"/>
<mask id="mask0_3446_7170" style="mask-type:alpha" maskUnits="userSpaceOnUse" x="2" y="2" width="12" height="12">
<rect x="2" y="2" width="12" height="12" fill="#D9D9D9"/>
</mask>
<g mask="url(#mask0_3446_7170)">
<path d="M7.5501 8.52539L7.1501 8.92539C7.05843 9.01706 6.95149 9.06289 6.82926 9.06289C6.70704 9.06289 6.60149 9.01706 6.5126 8.92539C6.42093 8.83372 6.3751 8.72747 6.3751 8.60664C6.3751 8.48581 6.42093 8.37956 6.5126 8.28789L7.68932 7.11117C7.77984 7.02065 7.88419 6.97539 8.00237 6.97539C8.12056 6.97539 8.22396 7.02122 8.3126 7.11289L9.4876 8.28789C9.57926 8.37956 9.6251 8.48372 9.6251 8.60039C9.6251 8.71706 9.57926 8.82122 9.4876 8.91289C9.39593 9.00456 9.28968 9.05039 9.16885 9.05039C9.04801 9.05039 8.94176 9.00456 8.8501 8.91289L8.4501 8.52539V10.7004H11.3001C11.6361 10.7004 11.9201 10.5847 12.1521 10.3532C12.3841 10.1218 12.5001 9.83842 12.5001 9.5032C12.5001 9.168 12.3841 8.88372 12.1521 8.65039C11.9201 8.41706 11.6361 8.30039 11.3001 8.30039H10.4001V7.40039C10.4001 6.79206 10.1605 6.28997 9.68135 5.89414C9.20218 5.49831 8.63968 5.30039 7.99385 5.30039C7.34801 5.30039 6.8001 5.53581 6.3501 6.00664C5.9001 6.47747 5.62926 7.04206 5.5376 7.70039H5.0001C4.58581 7.70039 4.23224 7.84707 3.93939 8.14042C3.64653 8.43377 3.5001 8.78793 3.5001 9.20292C3.5001 9.6179 3.64653 9.97122 3.93939 10.2629C4.23224 10.5546 4.58581 10.7004 5.0001 10.7004H6.2001C6.3276 10.7004 6.43447 10.7433 6.52072 10.829C6.60697 10.9148 6.6501 11.021 6.6501 11.1478C6.6501 11.2745 6.60697 11.3816 6.52072 11.4691C6.43447 11.5566 6.3276 11.6004 6.2001 11.6004H5.0001C4.33343 11.6004 3.76676 11.365 3.3001 10.8941C2.83343 10.4233 2.6001 9.85456 2.6001 9.18789C2.6001 8.55456 2.81468 8.00664 3.24385 7.54414C3.67301 7.08164 4.20426 6.83372 4.8376 6.80039C5.03281 6.08582 5.42325 5.50718 6.0089 5.06447C6.59454 4.62175 7.25827 4.40039 8.0001 4.40039C8.89176 4.40039 9.66468 4.68581 10.3188 5.25664C10.973 5.82747 11.3001 6.54206 11.3001 7.40039C11.8834 7.40039 12.3793 7.60456 12.7876 8.01289C13.1959 8.42122 13.4001 8.91289 13.4001 9.48789C13.4001 10.0747 13.1959 10.5735 12.7876 10.9842C12.3793 11.395 11.8834 11.6004 11.3001 11.6004H8.4501C8.2026 11.6004 7.99072 11.5123 7.81447 11.336C7.63822 11.1598 7.5501 10.9479 7.5501 10.7004V8.52539Z" fill="white"/>
</g>
</svg>
