<svg width="16" height="17" viewBox="0 0 16 17" fill="none" xmlns="http://www.w3.org/2000/svg">
<g id="Frame 1597881198">
<circle id="Ellipse 124" cx="8" cy="8.5" r="8" fill="#FF4D4D"/>
<g id="block">
<mask id="mask0_3543_7386" style="mask-type:alpha" maskUnits="userSpaceOnUse" x="2" y="2" width="12" height="13">
<rect id="Bounding box" x="2" y="2.5" width="12" height="12" fill="#D9D9D9"/>
</mask>
<g mask="url(#mask0_3543_7386)">
<path id="block_2" d="M8.00001 13.2992C7.34168 13.2992 6.72085 13.1742 6.13751 12.9242C5.55418 12.6742 5.04376 12.3305 4.60626 11.893C4.16876 11.4555 3.82501 10.9451 3.57501 10.3617C3.32501 9.77839 3.20001 9.15755 3.20001 8.49922C3.20001 7.83255 3.32501 7.20964 3.57501 6.63047C3.82501 6.0513 4.16876 5.54297 4.60626 5.10547C5.04376 4.66797 5.55418 4.32422 6.13751 4.07422C6.72085 3.82422 7.34168 3.69922 8.00001 3.69922C8.66668 3.69922 9.2896 3.82422 9.86876 4.07422C10.4479 4.32422 10.9563 4.66797 11.3938 5.10547C11.8313 5.54297 12.175 6.0513 12.425 6.63047C12.675 7.20964 12.8 7.83255 12.8 8.49922C12.8 9.15755 12.675 9.77839 12.425 10.3617C12.175 10.9451 11.8313 11.4555 11.3938 11.893C10.9563 12.3305 10.4479 12.6742 9.86876 12.9242C9.2896 13.1742 8.66668 13.2992 8.00001 13.2992ZM8.00001 12.3992C8.45835 12.3992 8.89168 12.3242 9.30001 12.1742C9.70835 12.0242 10.0792 11.8159 10.4125 11.5492L4.95001 6.08672C4.68335 6.42005 4.47501 6.79089 4.32501 7.19922C4.17501 7.60755 4.10001 8.04089 4.10001 8.49922C4.10001 9.58255 4.47918 10.5034 5.23751 11.2617C5.99585 12.0201 6.91668 12.3992 8.00001 12.3992ZM11.05 10.9117C11.3167 10.5784 11.525 10.2076 11.675 9.79922C11.825 9.39089 11.9 8.95755 11.9 8.49922C11.9 7.41589 11.5208 6.49505 10.7625 5.73672C10.0042 4.97839 9.08335 4.59922 8.00001 4.59922C7.54168 4.59922 7.10835 4.67422 6.70001 4.82422C6.29168 4.97422 5.92085 5.18255 5.58751 5.44922L11.05 10.9117Z" fill="white"/>
</g>
</g>
</g>
</svg>
