<svg width="28" height="24" viewBox="0 0 28 24" fill="none" xmlns="http://www.w3.org/2000/svg">
<path d="M5.8895 1.6154C9.00427 3.96178 12.3551 8.71863 13.5849 11.2713V18.0137C13.5849 17.8702 13.5298 18.0324 13.4109 18.3818C12.769 20.2735 10.2617 27.6565 4.52846 21.7542C1.50963 18.6467 2.90718 15.5391 8.40229 14.6009C5.25865 15.1375 1.72444 14.2507 0.754813 10.7738C0.475473 9.77359 0 3.61281 0 2.78074C0 -1.38729 3.64204 -0.0771957 5.8895 1.6154ZM21.2804 1.6154C18.1656 3.96178 14.8148 8.71863 13.5849 11.2713V18.0137C13.5849 17.8702 13.6401 18.0324 13.759 18.3818C14.4009 20.2735 16.9082 27.6565 22.6414 21.7542C25.6603 18.6467 24.2627 15.5391 18.7676 14.6009C21.9112 15.1375 25.4454 14.2507 26.4151 10.7738C26.6944 9.77359 27.1699 3.61281 27.1699 2.78074C27.1699 -1.38729 23.5283 -0.0771957 21.2804 1.6154Z" fill="#ADADAD"/>
</svg>
