<svg width="17" height="16" viewBox="0 0 17 16" fill="none" xmlns="http://www.w3.org/2000/svg">
<circle cx="8.2002" cy="8" r="7.5" fill="#51AEFF" stroke="white"/>
<path d="M4.2002 8C4.2002 7.55817 4.55837 7.2 5.0002 7.2H11.4002C11.842 7.2 12.2002 7.55817 12.2002 8C12.2002 8.44183 11.842 8.8 11.4002 8.8H5.0002C4.55837 8.8 4.2002 8.44183 4.2002 8Z" fill="white"/>
<path d="M8.2002 12C7.75837 12 7.4002 11.6418 7.4002 11.2L7.40019 4.8C7.40019 4.35817 7.75837 4 8.2002 4C8.64202 4 9.0002 4.35817 9.0002 4.8L9.0002 11.2C9.0002 11.6418 8.64202 12 8.2002 12Z" fill="white"/>
</svg>
