<svg width="16" height="16" viewBox="0 0 16 16" fill="none" xmlns="http://www.w3.org/2000/svg">
<mask id="mask0_1559_26510" style="mask-type:alpha" maskUnits="userSpaceOnUse" x="0" y="0" width="16" height="16">
<rect width="16" height="16" fill="#D9D9D9"/>
</mask>
<g mask="url(#mask0_1559_26510)">
<path d="M3.60039 5.60039H9.08372H8.81706H9.00039H3.60039ZM3.70039 4.40039H12.3004L11.5004 3.60039H4.50039L3.70039 4.40039ZM6.80039 8.45039L8.00039 7.85039L9.20039 8.45039V5.60039H6.80039V8.45039ZM3.60039 13.6004C3.27039 13.6004 2.98789 13.4829 2.75289 13.2479C2.51789 13.0129 2.40039 12.7304 2.40039 12.4004V4.50039C2.40039 4.34095 2.43095 4.18722 2.49206 4.03922C2.55317 3.89111 2.63795 3.76272 2.74639 3.65406L3.65039 2.75039C3.77261 2.62817 3.90561 2.53928 4.04939 2.48372C4.19317 2.42817 4.3435 2.40039 4.50039 2.40039H11.5004C11.6612 2.40039 11.8153 2.42817 11.9627 2.48372C12.1101 2.53928 12.2393 2.62817 12.3504 2.75039L13.2504 3.65039C13.3726 3.7615 13.4615 3.89111 13.5171 4.03922C13.5726 4.18722 13.6004 4.34095 13.6004 4.50039V6.68372C13.6004 6.85372 13.5432 6.99622 13.4289 7.11122C13.3146 7.22622 13.1729 7.28372 13.0039 7.28372C12.8349 7.28372 12.6921 7.22622 12.5754 7.11122C12.4587 6.99622 12.4004 6.85372 12.4004 6.68372V5.60039H10.4004V8.01706C10.1115 8.23928 9.85317 8.49761 9.62539 8.79206C9.39761 9.0865 9.21706 9.40595 9.08372 9.75039L8.00039 9.20039L6.46756 9.96672C6.26722 10.0669 6.07261 10.0596 5.88372 9.94456C5.69484 9.82945 5.60039 9.65684 5.60039 9.42672V5.60039H3.60039V12.4004H8.63372C8.80372 12.4004 8.94622 12.4574 9.06122 12.5716C9.17622 12.6857 9.23372 12.827 9.23372 12.9956C9.23372 13.1543 9.17817 13.2948 9.06706 13.4171C8.95595 13.5393 8.80884 13.6004 8.62572 13.6004H3.60039ZM12.8039 13.6004C12.6349 13.6004 12.4928 13.5429 12.3776 13.4279C12.2622 13.3129 12.2046 13.1704 12.2046 13.0004V11.8004H11.0017C10.8314 11.8004 10.6886 11.7429 10.5732 11.6279C10.458 11.5129 10.4004 11.3704 10.4004 11.2004C10.4004 11.0304 10.458 10.8879 10.5732 10.7729C10.6886 10.6579 10.8314 10.6004 11.0017 10.6004H12.2046V9.40039C12.2046 9.23039 12.2622 9.08789 12.3776 8.97289C12.4928 8.85789 12.635 8.80039 12.8042 8.80039C12.9736 8.80039 13.1154 8.85789 13.2299 8.97289C13.3444 9.08789 13.4017 9.23039 13.4017 9.40039V10.6004H14.5966C14.7658 10.6004 14.9087 10.6576 15.0254 10.7719C15.1421 10.8862 15.2004 11.0279 15.2004 11.1969C15.2004 11.3659 15.1429 11.5079 15.0279 11.6229C14.9129 11.7379 14.7704 11.7954 14.6004 11.7954H13.4004V12.9954C13.4004 13.1654 13.3432 13.3087 13.2289 13.4254C13.1146 13.5421 12.9729 13.6004 12.8039 13.6004ZM3.60039 5.60039H9.08372H8.81706H9.00039H3.60039Z" fill="#1F1F1F"/>
</g>
</svg>
