<svg width="20" height="20" viewBox="0 0 20 20" fill="none" xmlns="http://www.w3.org/2000/svg">
<circle cx="10" cy="10" r="10" fill="#FF4D4D"/>
<mask id="mask0_3156_4693" style="mask-type:alpha" maskUnits="userSpaceOnUse" x="2" y="2" width="16" height="16">
<rect x="2.5" y="2.5" width="15" height="15" fill="#D9D9D9"/>
</mask>
<g mask="url(#mask0_3156_4693)">
<path d="M10 16C9.17708 16 8.40104 15.8438 7.67188 15.5312C6.94271 15.2188 6.30469 14.7891 5.75781 14.2422C5.21094 13.6953 4.78125 13.0573 4.46875 12.3281C4.15625 11.599 4 10.8229 4 10C4 9.16667 4.15625 8.38802 4.46875 7.66406C4.78125 6.9401 5.21094 6.30469 5.75781 5.75781C6.30469 5.21094 6.94271 4.78125 7.67188 4.46875C8.40104 4.15625 9.17708 4 10 4C10.8333 4 11.612 4.15625 12.3359 4.46875C13.0599 4.78125 13.6953 5.21094 14.2422 5.75781C14.7891 6.30469 15.2188 6.9401 15.5312 7.66406C15.8438 8.38802 16 9.16667 16 10C16 10.8229 15.8438 11.599 15.5312 12.3281C15.2188 13.0573 14.7891 13.6953 14.2422 14.2422C13.6953 14.7891 13.0599 15.2188 12.3359 15.5312C11.612 15.8438 10.8333 16 10 16ZM10 14.875C10.5729 14.875 11.1146 14.7812 11.625 14.5938C12.1354 14.4062 12.599 14.1458 13.0156 13.8125L6.1875 6.98438C5.85417 7.40104 5.59375 7.86458 5.40625 8.375C5.21875 8.88542 5.125 9.42708 5.125 10C5.125 11.3542 5.59896 12.5052 6.54688 13.4531C7.49479 14.401 8.64583 14.875 10 14.875ZM13.8125 13.0156C14.1458 12.599 14.4062 12.1354 14.5938 11.625C14.7812 11.1146 14.875 10.5729 14.875 10C14.875 8.64583 14.401 7.49479 13.4531 6.54688C12.5052 5.59896 11.3542 5.125 10 5.125C9.42708 5.125 8.88542 5.21875 8.375 5.40625C7.86458 5.59375 7.40104 5.85417 6.98438 6.1875L13.8125 13.0156Z" fill="white"/>
</g>
</svg>
