<svg width="8" height="8" viewBox="0 0 8 8" fill="none" xmlns="http://www.w3.org/2000/svg">
<path d="M4 0.25C6.07107 0.25 7.75 1.92893 7.75 4C7.75 6.07107 6.07107 7.75 4 7.75C1.92893 7.75 0.25 6.07107 0.25 4C0.25 1.92893 1.92893 0.25 4 0.25Z" fill="#29CC5F"/>
<path d="M4 0.25C6.07107 0.25 7.75 1.92893 7.75 4C7.75 6.07107 6.07107 7.75 4 7.75C1.92893 7.75 0.25 6.07107 0.25 4C0.25 1.92893 1.92893 0.25 4 0.25Z" stroke="white" stroke-width="0.5"/>
<path d="M2.5 4L3.5 5L5.5 3" stroke="white" stroke-width="0.933333" stroke-linecap="round" stroke-linejoin="round"/>
</svg>
