<svg width="20" height="20" viewBox="0 0 20 20" fill="none" xmlns="http://www.w3.org/2000/svg">
<path d="M0 4C0 1.79086 1.79086 0 4 0H16C18.2091 0 20 1.79086 20 4V16C20 18.2091 18.2091 20 16 20H4C1.79086 20 0 18.2091 0 16V4Z" fill="#51AEFF"/>
<path fill-rule="evenodd" clip-rule="evenodd" d="M14.4129 6.83709C14.779 7.2032 14.779 7.7968 14.4129 8.16291L9.41291 13.1629C9.0468 13.529 8.4532 13.529 8.08709 13.1629L5.58709 10.6629C5.22097 10.2968 5.22097 9.7032 5.58709 9.33709C5.9532 8.97097 6.5468 8.97097 6.91291 9.33709L8.75 11.1742L13.0871 6.83709C13.4532 6.47097 14.0468 6.47097 14.4129 6.83709Z" fill="white"/>
</svg>
