<svg width="24" height="24" viewBox="0 0 24 24" fill="none" xmlns="http://www.w3.org/2000/svg">
<path d="M0 12C0 5.37258 5.37258 0 12 0C18.6274 0 24 5.37258 24 12C24 18.6274 18.6274 24 12 24C5.37258 24 0 18.6274 0 12Z" fill="white"/>
<path d="M12 0.5C18.3513 0.5 23.5 5.64873 23.5 12C23.5 18.3513 18.3513 23.5 12 23.5C5.64873 23.5 0.5 18.3513 0.5 12C0.5 5.64873 5.64873 0.5 12 0.5Z" stroke="black" stroke-opacity="0.1"/>
<mask id="mask0_1559_32107" style="mask-type:alpha" maskUnits="userSpaceOnUse" x="4" y="4" width="17" height="17">
<rect x="4.23828" y="4.20117" width="16" height="16" fill="#D9D9D9"/>
</mask>
<g mask="url(#mask0_1559_32107)">
<path d="M11.5379 12.2012L14.2712 14.9346C14.3934 15.0568 14.4546 15.1985 14.4546 15.3596C14.4546 15.5207 14.3934 15.6623 14.2712 15.7846C14.149 15.9068 14.0073 15.9679 13.8462 15.9679C13.6851 15.9679 13.5416 15.9049 13.4156 15.7789L10.2546 12.6179C10.199 12.5579 10.1573 12.4929 10.1296 12.4229C10.1018 12.3529 10.0879 12.2779 10.0879 12.1979C10.0879 12.1179 10.1018 12.0429 10.1296 11.9729C10.1573 11.9029 10.199 11.8401 10.2546 11.7846L13.4156 8.62357C13.5416 8.49757 13.6851 8.43457 13.8462 8.43457C14.0073 8.43457 14.149 8.49568 14.2712 8.6179C14.3934 8.74013 14.4546 8.88179 14.4546 9.0429C14.4546 9.20401 14.3934 9.34568 14.2712 9.4679L11.5379 12.2012Z" fill="#1C1B1F"/>
</g>
</svg>
