<svg width="24" height="24" viewBox="0 0 24 24" fill="none" xmlns="http://www.w3.org/2000/svg">
<path d="M0 12C0 5.37258 5.37258 0 12 0C18.6274 0 24 5.37258 24 12C24 18.6274 18.6274 24 12 24C5.37258 24 0 18.6274 0 12Z" fill="white"/>
<path d="M12 0.5C18.3513 0.5 23.5 5.64873 23.5 12C23.5 18.3513 18.3513 23.5 12 23.5C5.64873 23.5 0.5 18.3513 0.5 12C0.5 5.64873 5.64873 0.5 12 0.5Z" stroke="black" stroke-opacity="0.1"/>
<mask id="mask0_1559_32023" style="mask-type:alpha" maskUnits="userSpaceOnUse" x="4" y="4" width="17" height="17">
<rect x="4.23828" y="4.20117" width="16" height="16" fill="#D9D9D9"/>
</mask>
<g mask="url(#mask0_1559_32023)">
<path d="M12.9382 12.2003L10.2048 9.46693C10.0826 9.3447 10.0215 9.20304 10.0215 9.04193C10.0215 8.88082 10.0826 8.73915 10.2048 8.61693C10.327 8.4947 10.4687 8.43359 10.6298 8.43359C10.7909 8.43359 10.9345 8.49659 11.0605 8.62259L14.2215 11.7836C14.277 11.8436 14.3187 11.9086 14.3465 11.9786C14.3743 12.0486 14.3882 12.1236 14.3882 12.2036C14.3882 12.2836 14.3743 12.3586 14.3465 12.4286C14.3187 12.4986 14.277 12.5614 14.2215 12.6169L11.0605 15.7779C10.9345 15.9039 10.7937 15.9641 10.6382 15.9586C10.4826 15.953 10.3437 15.8891 10.2215 15.7669C10.0993 15.6447 10.0382 15.503 10.0382 15.3419C10.0382 15.1808 10.0993 15.0391 10.2215 14.9169L12.9382 12.2003Z" fill="#1C1B1F"/>
</g>
</svg>
