<svg width="17" height="16" viewBox="0 0 17 16" fill="none" xmlns="http://www.w3.org/2000/svg">
<mask id="mask0_2649_16472" style="mask-type:alpha" maskUnits="userSpaceOnUse" x="0" y="0" width="16" height="16">
<rect width="16" height="16" fill="#D9D9D9"/>
</mask>
<g mask="url(#mask0_2649_16472)">
<path d="M5.3987 14.1417C6.20981 14.4917 7.07648 14.6667 7.9987 14.6667V14.6637C8.35477 14.6516 8.63972 14.3592 8.63972 14.0001C8.63972 13.6411 8.35477 13.3486 7.9987 13.3365V13.3334C6.52092 13.3334 5.26259 12.8139 4.2237 11.775C3.18481 10.7362 2.66536 9.47782 2.66536 8.00005C2.66536 7.44449 2.77925 6.85005 3.00703 6.21671C3.23481 5.58338 3.5737 4.99727 4.0237 4.45838C4.4737 3.91949 5.03481 3.47782 5.70703 3.13338C6.37925 2.78894 7.15981 2.62782 8.0487 2.65005C8.19314 3.5056 8.57092 4.23894 9.18203 4.85005C9.56651 5.23452 10.1019 5.76019 10.6792 5.76019C11.0548 5.76019 11.3592 5.45575 11.3592 5.08019C11.3592 4.64734 10.6651 4.41643 10.1237 3.87505C9.61814 3.36949 9.35425 2.76116 9.33203 2.05005C9.32092 1.85005 9.27092 1.69171 9.18203 1.57505C9.09314 1.45838 8.96536 1.38894 8.7987 1.36671C7.70981 1.23338 6.70981 1.33338 5.7987 1.66671C4.88759 2.00005 4.10148 2.48894 3.44036 3.13338C2.77925 3.77782 2.26259 4.52505 1.89036 5.37505C1.51814 6.22505 1.33203 7.10005 1.33203 8.00005C1.33203 8.92227 1.50703 9.78894 1.85703 10.6C2.20703 11.4112 2.68203 12.1167 3.28203 12.7167C3.88203 13.3167 4.58759 13.7917 5.3987 14.1417Z" fill="#1F1F1F"/>
<path d="M7.70703 6.37505C7.51259 6.56949 7.27648 6.66671 6.9987 6.66671C6.72092 6.66671 6.48481 6.56949 6.29036 6.37505C6.09592 6.1806 5.9987 5.94449 5.9987 5.66671C5.9987 5.38894 6.09592 5.15282 6.29036 4.95838C6.48481 4.76394 6.72092 4.66671 6.9987 4.66671C7.27648 4.66671 7.51259 4.76394 7.70703 4.95838C7.90148 5.15282 7.9987 5.38894 7.9987 5.66671C7.9987 5.94449 7.90148 6.1806 7.70703 6.37505Z" fill="#1F1F1F"/>
<path d="M5.66536 10C5.94314 10 6.17925 9.90282 6.3737 9.70838C6.56814 9.51394 6.66536 9.27782 6.66536 9.00005C6.66536 8.72227 6.56814 8.48616 6.3737 8.29171C6.17925 8.09727 5.94314 8.00005 5.66536 8.00005C5.38759 8.00005 5.15148 8.09727 4.95703 8.29171C4.76259 8.48616 4.66536 8.72227 4.66536 9.00005C4.66536 9.27782 4.76259 9.51394 4.95703 9.70838C5.15148 9.90282 5.38759 10 5.66536 10Z" fill="#1F1F1F"/>
</g>
<path d="M13 7.25C15.0711 7.25 16.75 8.92893 16.75 11C16.75 13.0711 15.0711 14.75 13 14.75C10.9289 14.75 9.25 13.0711 9.25 11C9.25 8.92893 10.9289 7.25 13 7.25Z" fill="#29CC5F"/>
<path d="M13 7.25C15.0711 7.25 16.75 8.92893 16.75 11C16.75 13.0711 15.0711 14.75 13 14.75C10.9289 14.75 9.25 13.0711 9.25 11C9.25 8.92893 10.9289 7.25 13 7.25Z" stroke="white" stroke-width="0.5"/>
<path d="M11.5 11L12.5 12L14.5 10" stroke="white" stroke-width="0.933333" stroke-linecap="round" stroke-linejoin="round"/>
</svg>
