<svg width="17" height="16" viewBox="0 0 17 16" fill="none" xmlns="http://www.w3.org/2000/svg">
<mask id="mask0_2814_114649" style="mask-type:alpha" maskUnits="userSpaceOnUse" x="0" y="0" width="16" height="16">
<rect width="16" height="16" fill="white"/>
</mask>
<g mask="url(#mask0_2814_114649)">
<path d="M5.3987 14.1415C6.20981 14.4915 7.07648 14.6665 7.9987 14.6665V14.6635C8.35477 14.6514 8.63972 14.3589 8.63972 13.9999C8.63972 13.6409 8.35477 13.3484 7.9987 13.3363V13.3331C6.52092 13.3331 5.26259 12.8137 4.2237 11.7748C3.18481 10.7359 2.66536 9.47758 2.66536 7.9998C2.66536 7.44425 2.77925 6.8498 3.00703 6.21647C3.23481 5.58314 3.5737 4.99702 4.0237 4.45814C4.4737 3.91925 5.03481 3.47758 5.70703 3.13314C6.37925 2.78869 7.15981 2.62758 8.0487 2.6498C8.19314 3.50536 8.57092 4.23869 9.18203 4.8498C9.56651 5.23428 10.1019 5.75995 10.6792 5.75995C11.0548 5.75995 11.3592 5.4555 11.3592 5.07995C11.3592 4.6471 10.6651 4.41619 10.1237 3.8748C9.61814 3.36925 9.35425 2.76091 9.33203 2.0498C9.32092 1.8498 9.27092 1.69147 9.18203 1.5748C9.09314 1.45814 8.96536 1.38869 8.7987 1.36647C7.70981 1.23314 6.70981 1.33314 5.7987 1.66647C4.88759 1.9998 4.10148 2.48869 3.44036 3.13314C2.77925 3.77758 2.26259 4.5248 1.89036 5.3748C1.51814 6.2248 1.33203 7.0998 1.33203 7.9998C1.33203 8.92202 1.50703 9.78869 1.85703 10.5998C2.20703 11.4109 2.68203 12.1165 3.28203 12.7165C3.88203 13.3165 4.58759 13.7915 5.3987 14.1415Z" fill="white"/>
<path d="M7.70703 6.3748C7.51259 6.56925 7.27648 6.66647 6.9987 6.66647C6.72092 6.66647 6.48481 6.56925 6.29036 6.3748C6.09592 6.18036 5.9987 5.94425 5.9987 5.66647C5.9987 5.38869 6.09592 5.15258 6.29036 4.95814C6.48481 4.76369 6.72092 4.66647 6.9987 4.66647C7.27648 4.66647 7.51259 4.76369 7.70703 4.95814C7.90148 5.15258 7.9987 5.38869 7.9987 5.66647C7.9987 5.94425 7.90148 6.18036 7.70703 6.3748Z" fill="white"/>
<path d="M5.66536 9.9998C5.94314 9.9998 6.17925 9.90258 6.3737 9.70814C6.56814 9.51369 6.66536 9.27758 6.66536 8.9998C6.66536 8.72202 6.56814 8.48591 6.3737 8.29147C6.17925 8.09702 5.94314 7.9998 5.66536 7.9998C5.38759 7.9998 5.15148 8.09702 4.95703 8.29147C4.76259 8.48591 4.66536 8.72202 4.66536 8.9998C4.66536 9.27758 4.76259 9.51369 4.95703 9.70814C5.15148 9.90258 5.38759 9.9998 5.66536 9.9998Z" fill="white"/>
</g>
<path d="M13 7.25C15.0711 7.25 16.75 8.92893 16.75 11C16.75 13.0711 15.0711 14.75 13 14.75C10.9289 14.75 9.25 13.0711 9.25 11C9.25 8.92893 10.9289 7.25 13 7.25Z" fill="#FF4D4D"/>
<path d="M13 7.25C15.0711 7.25 16.75 8.92893 16.75 11C16.75 13.0711 15.0711 14.75 13 14.75C10.9289 14.75 9.25 13.0711 9.25 11C9.25 8.92893 10.9289 7.25 13 7.25Z" stroke="white" stroke-width="0.5"/>
<rect x="12.5" y="9" width="1" height="2.5" rx="0.5" fill="white"/>
<rect x="12.5" y="12" width="1" height="1" rx="0.5" fill="white"/>
</svg>
