<svg width="20" height="20" viewBox="0 0 20 20" fill="none" xmlns="http://www.w3.org/2000/svg">
<mask id="mask0_2649_16467" style="mask-type:alpha" maskUnits="userSpaceOnUse" x="2" y="2" width="16" height="16">
<rect x="2" y="2" width="16" height="16" fill="#D9D9D9"/>
</mask>
<g mask="url(#mask0_2649_16467)">
<path d="M7.3987 16.1417C8.20981 16.4917 9.07648 16.6667 9.9987 16.6667V16.6637C10.3548 16.6516 10.6397 16.3592 10.6397 16.0001C10.6397 15.6411 10.3548 15.3486 9.9987 15.3365V15.3334C8.52092 15.3334 7.26259 14.8139 6.2237 13.775C5.18481 12.7362 4.66536 11.4778 4.66536 10C4.66536 9.44449 4.77925 8.85005 5.00703 8.21671C5.23481 7.58338 5.5737 6.99727 6.0237 6.45838C6.4737 5.91949 7.03481 5.47782 7.70703 5.13338C8.37925 4.78894 9.15981 4.62782 10.0487 4.65005C10.1931 5.5056 10.5709 6.23894 11.182 6.85005C11.5665 7.23452 12.1019 7.76019 12.6792 7.76019C13.0548 7.76019 13.3592 7.45575 13.3592 7.08019C13.3592 6.64734 12.6651 6.41643 12.1237 5.87505C11.6181 5.36949 11.3543 4.76116 11.332 4.05005C11.3209 3.85005 11.2709 3.69171 11.182 3.57505C11.0931 3.45838 10.9654 3.38894 10.7987 3.36671C9.70981 3.23338 8.70981 3.33338 7.7987 3.66671C6.88759 4.00005 6.10148 4.48894 5.44036 5.13338C4.77925 5.77782 4.26259 6.52505 3.89036 7.37505C3.51814 8.22505 3.33203 9.10005 3.33203 10C3.33203 10.9223 3.50703 11.7889 3.85703 12.6C4.20703 13.4112 4.68203 14.1167 5.28203 14.7167C5.88203 15.3167 6.58759 15.7917 7.3987 16.1417Z" fill="black"/>
<path d="M9.70703 8.37505C9.51259 8.56949 9.27648 8.66671 8.9987 8.66671C8.72092 8.66671 8.48481 8.56949 8.29036 8.37505C8.09592 8.1806 7.9987 7.94449 7.9987 7.66671C7.9987 7.38894 8.09592 7.15282 8.29036 6.95838C8.48481 6.76394 8.72092 6.66671 8.9987 6.66671C9.27648 6.66671 9.51259 6.76394 9.70703 6.95838C9.90148 7.15282 9.9987 7.38894 9.9987 7.66671C9.9987 7.94449 9.90148 8.1806 9.70703 8.37505Z" fill="black"/>
<path d="M7.66536 12C7.94314 12 8.17925 11.9028 8.3737 11.7084C8.56814 11.5139 8.66536 11.2778 8.66536 11C8.66536 10.7223 8.56814 10.4862 8.3737 10.2917C8.17925 10.0973 7.94314 10 7.66536 10C7.38759 10 7.15148 10.0973 6.95703 10.2917C6.76259 10.4862 6.66536 10.7223 6.66536 11C6.66536 11.2778 6.76259 11.5139 6.95703 11.7084C7.15148 11.9028 7.38759 12 7.66536 12Z" fill="black"/>
<path d="M14.4016 9.21076C14.2961 9.10174 14.1509 9.04019 13.9992 9.04019C13.8475 9.04019 13.7023 9.10174 13.5968 9.21076L11.1968 11.6908C10.9817 11.913 10.9875 12.2675 11.2098 12.4826C11.432 12.6977 11.7866 12.6919 12.0016 12.4696L13.4392 10.9841V16.4002C13.4392 16.7095 13.6899 16.9602 13.9992 16.9602C14.3085 16.9602 14.5592 16.7095 14.5592 16.4002V10.9841L15.9968 12.4696C16.2119 12.6919 16.5664 12.6977 16.7887 12.4826C17.0109 12.2675 17.0167 11.913 16.8016 11.6908L14.4016 9.21076Z" fill="black"/>
</g>
</svg>
