<svg width="33" height="32" viewBox="0 0 33 32" fill="none" xmlns="http://www.w3.org/2000/svg">
<rect x="0.599609" width="32" height="32" rx="8.91429" fill="url(#paint0_linear_1541_28854)"/>
<path d="M15.3049 9.62695C11.7088 9.62695 8.79297 12.5514 8.79297 16.1592C8.79297 18.9576 10.5475 21.3448 13.013 22.2747C14.4533 21.4857 15.9674 20.5122 17.4703 19.4038C16.6104 20.4015 15.2916 21.4957 13.6876 22.488C14.2046 22.6207 14.7464 22.6914 15.3049 22.6914C18.901 22.6914 21.8168 19.7669 21.8168 16.1592C21.8168 12.5514 18.901 9.62695 15.3049 9.62695Z" fill="white"/>
<path d="M25.839 8.49574C24.9696 7.34458 21.8652 8.13933 18.1086 10.2628C18.2919 10.3506 18.4706 10.447 18.6439 10.5514C21.1393 9.31335 23.1094 8.93366 23.7172 9.7388C24.6885 11.0251 21.8163 14.8491 17.3018 18.2801C12.787 21.7111 8.33972 23.4495 7.36834 22.1628C6.8128 21.4275 7.51428 19.8625 9.05986 18.016C8.99933 17.8114 8.94875 17.6022 8.90853 17.3897C6.19174 20.2318 4.81532 22.765 5.63454 23.8496C6.83974 25.4457 12.3401 23.3023 17.9192 19.0624C23.4987 14.8225 27.0442 10.0915 25.839 8.49574Z" fill="white"/>
<path d="M23.1938 19.4131C23.1947 20.5314 24.0981 21.4376 25.2129 21.4384C24.0981 21.4392 23.1947 22.3454 23.1938 23.4637C23.193 22.3454 22.2896 21.4392 21.1748 21.4384C22.2896 21.4376 23.193 20.5314 23.1938 19.4131Z" fill="white"/>
<path d="M9.88424 7.05811C9.88466 7.84495 10.5202 8.48249 11.3046 8.48291C10.5202 8.48332 9.88466 9.12086 9.88424 9.90771C9.88383 9.12086 9.24827 8.48332 8.46387 8.48291C9.24827 8.48249 9.88383 7.84495 9.88424 7.05811Z" fill="white"/>
<path d="M22.2139 22.3041C20.563 23.9901 18.2649 25.036 15.7227 25.036C14.0038 25.036 12.3964 24.5578 11.025 23.7268C10.775 23.8358 10.5287 23.9381 10.2874 24.0321C10.2547 24.045 10.2228 24.0566 10.1904 24.0691C11.979 25.5118 14.2509 26.3756 16.7247 26.3756C19.1986 26.3756 21.3892 25.543 23.1624 24.1465C23.0613 23.4249 22.7163 22.782 22.2139 22.3037V22.3041Z" fill="white"/>
<path d="M23.79 20.1327C24.2295 20.7411 24.8804 21.1857 25.635 21.3583C26.6022 19.7704 27.1598 17.9044 27.1598 15.9077C27.1598 14.1669 26.7357 12.5254 25.9861 11.0811C25.698 11.6733 25.2875 12.327 24.7552 13.0373C24.6648 13.158 24.5711 13.2798 24.4749 13.4021C24.7009 14.1985 24.8224 15.039 24.8224 15.9077C24.8224 17.4324 24.4492 18.8696 23.7905 20.1327H23.79Z" fill="white"/>
<path d="M23.2334 24.0887C24.126 23.3733 24.8992 22.5146 25.5174 21.5464C24.3354 21.8654 23.4295 22.8581 23.2334 24.0887Z" fill="white"/>
<path d="M9.3809 9.36182C9.25362 9.20129 9.10562 9.05782 8.94061 8.93555C7.29139 10.787 6.28809 13.2299 6.28809 15.9082C6.28809 17.0535 6.47216 18.1552 6.81088 19.1865C6.90292 19.0655 6.99786 18.9441 7.0957 18.8218C6.78849 17.9069 6.62224 16.9271 6.62224 15.9082C6.62224 13.3401 7.67985 11.0203 9.38132 9.36182H9.3809Z" fill="white"/>
<path d="M16.724 5.43994C14.3377 5.43994 12.1391 6.24384 10.3809 7.59586C10.5442 7.8038 10.742 7.98304 10.9658 8.12486C12.3497 7.27189 13.9786 6.7799 15.722 6.7799C17.6564 6.7799 19.4495 7.38584 20.9238 8.41805C21.0121 8.38228 21.0996 8.34693 21.1866 8.31325C21.9267 8.02504 22.5967 7.81877 23.1932 7.69442C21.4151 6.28293 19.168 5.43994 16.724 5.43994Z" fill="white"/>
<defs>
<linearGradient id="paint0_linear_1541_28854" x1="0.599609" y1="0" x2="32.5996" y2="32" gradientUnits="userSpaceOnUse">
<stop stop-color="#FF8A48"/>
<stop offset="1" stop-color="#FF4667"/>
</linearGradient>
</defs>
</svg>
