<svg xmlns="http://www.w3.org/2000/svg" width="32" height="32" viewBox="0 0 32 32" fill="none">
  <path d="M8 0.5H24C28.1421 0.5 31.5 3.85786 31.5 8V24C31.5 28.1421 28.1421 31.5 24 31.5H8C3.85786 31.5 0.5 28.1421 0.5 24V8C0.5 3.85786 3.85786 0.5 8 0.5Z" stroke="#EBEBEB"/>
  <mask id="mask0_2171_52722" style="mask-type:alpha" maskUnits="userSpaceOnUse" x="6" y="6" width="20" height="20">
    <rect x="6" y="6" width="20" height="20" fill="#D9D9D9"/>
  </mask>
  <g mask="url(#mask0_2171_52722)">
    <path d="M11.4956 22C11.0819 22 10.7292 21.8527 10.4375 21.5581C10.1458 21.2635 10 20.9094 10 20.4956C10 20.0819 10.1473 19.7292 10.4419 19.4375C10.7365 19.1458 11.0906 19 11.5044 19C11.9181 19 12.2708 19.1473 12.5625 19.4419C12.8542 19.7365 13 20.0906 13 20.5044C13 20.9181 12.8527 21.2708 12.5581 21.5625C12.2635 21.8542 11.9094 22 11.4956 22ZM11.4956 17.5C11.0819 17.5 10.7292 17.3527 10.4375 17.0581C10.1458 16.7635 10 16.4094 10 15.9956C10 15.5819 10.1473 15.2292 10.4419 14.9375C10.7365 14.6458 11.0906 14.5 11.5044 14.5C11.9181 14.5 12.2708 14.6473 12.5625 14.9419C12.8542 15.2365 13 15.5906 13 16.0044C13 16.4181 12.8527 16.7708 12.5581 17.0625C12.2635 17.3542 11.9094 17.5 11.4956 17.5ZM11.4956 13C11.0819 13 10.7292 12.8527 10.4375 12.5581C10.1458 12.2635 10 11.9094 10 11.4956C10 11.0819 10.1473 10.7292 10.4419 10.4375C10.7365 10.1458 11.0906 10 11.5044 10C11.9181 10 12.2708 10.1473 12.5625 10.4419C12.8542 10.7365 13 11.0906 13 11.5044C13 11.9181 12.8527 12.2708 12.5581 12.5625C12.2635 12.8542 11.9094 13 11.4956 13ZM15.9956 13C15.5819 13 15.2292 12.8527 14.9375 12.5581C14.6458 12.2635 14.5 11.9094 14.5 11.4956C14.5 11.0819 14.6473 10.7292 14.9419 10.4375C15.2365 10.1458 15.5906 10 16.0044 10C16.4181 10 16.7708 10.1473 17.0625 10.4419C17.3542 10.7365 17.5 11.0906 17.5 11.5044C17.5 11.9181 17.3527 12.2708 17.0581 12.5625C16.7635 12.8542 16.4094 13 15.9956 13ZM20.4956 13C20.0819 13 19.7292 12.8527 19.4375 12.5581C19.1458 12.2635 19 11.9094 19 11.4956C19 11.0819 19.1473 10.7292 19.4419 10.4375C19.7365 10.1458 20.0906 10 20.5044 10C20.9181 10 21.2708 10.1473 21.5625 10.4419C21.8542 10.7365 22 11.0906 22 11.5044C22 11.9181 21.8527 12.2708 21.5581 12.5625C21.2635 12.8542 20.9094 13 20.4956 13ZM15.9956 17.5C15.5819 17.5 15.2292 17.3527 14.9375 17.0581C14.6458 16.7635 14.5 16.4094 14.5 15.9956C14.5 15.5819 14.6473 15.2292 14.9419 14.9375C15.2365 14.6458 15.5906 14.5 16.0044 14.5C16.4181 14.5 16.7708 14.6473 17.0625 14.9419C17.3542 15.2365 17.5 15.5906 17.5 16.0044C17.5 16.4181 17.3527 16.7708 17.0581 17.0625C16.7635 17.3542 16.4094 17.5 15.9956 17.5ZM17 21.25V19.9494C17 19.8442 17.0208 19.7465 17.0625 19.6562C17.1042 19.566 17.1597 19.4861 17.2292 19.4167L21.375 15.2917C21.4758 15.1888 21.5878 15.1144 21.711 15.0685C21.8342 15.0228 21.9567 15 22.0783 15C22.211 15 22.3381 15.0243 22.4598 15.0729C22.5815 15.1215 22.6921 15.1944 22.7917 15.2917L23.7083 16.2292C23.7999 16.33 23.8713 16.442 23.9227 16.5652C23.9742 16.6884 24 16.8108 24 16.9325C24 17.0542 23.9772 17.1786 23.9315 17.3058C23.8856 17.4329 23.8113 17.5463 23.7083 17.6458L19.5833 21.7708C19.5139 21.8403 19.434 21.8958 19.3438 21.9375C19.2535 21.9792 19.1558 22 19.0506 22H17.75C17.5375 22 17.3594 21.9281 17.2156 21.7844C17.0719 21.6406 17 21.4625 17 21.25ZM18 21H18.9375L21.3333 18.6042L20.875 18.125L20.4167 17.6667L18 20.0625V21ZM20.875 18.125L20.4167 17.6667L21.3333 18.6042L20.875 18.125Z" fill="#1F1F1F"/>
  </g>
</svg>