<svg width="160" height="160" viewBox="0 0 160 160" fill="none" xmlns="http://www.w3.org/2000/svg">
<g clip-path="url(#clip0_3021_12566)">
<path d="M31.9998 83.9644C19.3933 96.489 13.7212 108.912 18.414 117.157C26.3838 131.16 61.2305 127.811 96.2461 109.676C131.262 91.5406 153.187 65.4878 145.217 51.4849C141.333 42.8 128.933 44.1333 123.6 45.3333" stroke="#5C5C5C"/>
<path d="M48.2767 62.3893C49.7762 50.6353 47.1731 26.7822 68.5716 24.0544C99.0468 20.1695 109.572 47.1202 122.166 57.637C134.761 68.1537 164.008 76.3363 155.204 101.994C146.399 127.651 109.523 107.869 89.2276 125.693C67.7556 144.551 32.0634 134.489 26.8668 117.738C19.0592 92.5707 45.3683 85.1882 48.2767 62.3893Z" fill="#F6F6F6"/>
<path d="M77.1106 40.2508C77.2723 43.3346 79.4892 44.9121 81.6718 46.3305C79.5746 48.5994 78.3769 51.7349 78.5605 55.2388C78.9382 62.4459 85.0167 68.5043 92.1523 68.7537C93.1529 68.7886 94.1208 68.7037 95.045 68.5179C97.1923 73.4678 102.559 76.9541 108.039 77.1456C109.238 77.1874 110.26 76.5147 111.053 75.7226C111.741 75.0365 112.319 74.1966 112.764 73.448C114.146 73.8356 116.018 73.8941 117.283 72.754C118.74 75.1099 121.112 76.8961 123.853 77.5907C123.997 80.8108 123.741 84.067 123.038 87.2938C118.585 107.74 97.9962 119.246 77.0516 112.995C56.1069 106.743 42.7377 85.1004 47.1904 64.6546C50.537 49.2888 62.1506 40.2365 77.0326 38.7616L77.1106 40.2508Z" fill="#ADADAD" stroke="#5C5C5C" stroke-width="1.18774"/>
<path d="M73.5989 38.9453C73.4502 39.6352 73.3896 40.3633 73.4291 41.1179C73.5869 44.128 75.2963 46.8252 77.7412 48.4126C75.4396 50.6053 74.0942 53.8032 74.2834 57.4133C74.6444 64.3004 80.4497 70.0759 87.2501 70.3136C88.3889 70.3533 89.4834 70.2346 90.5148 69.9781C92.3959 74.9323 97.1992 78.6273 102.645 78.8174C106.84 78.9637 110.432 76.9946 112.487 73.871C113.855 76.5917 116.486 78.6591 119.55 79.2767C119.748 82.7068 119.499 86.1808 118.749 89.6209C114.228 110.38 93.3237 122.063 72.0581 115.715C50.7925 109.368 37.218 87.3941 41.7388 66.635C45.1894 50.7908 58.1842 40.2342 73.5989 38.9453Z" fill="white"/>
<path d="M73.5989 38.9453L74.2103 39.1265L74.3997 38.2478L73.4932 38.3236L73.5989 38.9453ZM73.4291 41.1179L72.8051 41.096L72.8051 41.0961L73.4291 41.1179ZM77.7412 48.4126L78.1927 48.8816L78.7481 48.3525L78.0487 47.8983L77.7412 48.4126ZM74.2834 57.4133L73.6594 57.3915L73.6594 57.3915L74.2834 57.4133ZM87.2501 70.3136L87.2828 70.9371L87.2828 70.9371L87.2501 70.3136ZM90.5148 69.9781L91.0969 69.8027L90.8799 69.2314L90.315 69.3719L90.5148 69.9781ZM102.645 78.8174L102.678 79.441L102.678 79.441L102.645 78.8174ZM112.487 73.871L113.041 73.6311L112.533 72.6207L111.956 73.4976L112.487 73.871ZM119.55 79.2767L120.174 79.2953L120.144 78.7706L119.622 78.6654L119.55 79.2767ZM118.749 89.6209L119.361 89.8033L119.361 89.8033L118.749 89.6209ZM72.0581 115.715L71.9282 116.312V116.312L72.0581 115.715ZM41.7388 66.635L41.1276 66.4525L41.1276 66.4526L41.7388 66.635ZM73.5989 38.9453L72.9874 38.7642C72.8277 39.5052 72.7628 40.2868 72.8051 41.096L73.4291 41.1179L74.0531 41.1397C74.0165 40.4398 74.0727 39.7653 74.2103 39.1265L73.5989 38.9453ZM73.4291 41.1179L72.8051 41.0961C72.9745 44.3286 74.811 47.224 77.4337 48.927L77.7412 48.4126L78.0487 47.8983C75.7816 46.4263 74.1992 43.9275 74.0531 41.1397L73.4291 41.1179ZM77.7412 48.4126L77.2897 47.9437C74.8731 50.2459 73.4609 53.6036 73.6594 57.3915L74.2834 57.4133L74.9074 57.4351C74.7275 54.0027 76.0061 50.9648 78.1927 48.8816L77.7412 48.4126ZM74.2834 57.4133L73.6594 57.3915C74.0381 64.615 80.1299 70.6871 87.2828 70.9371L87.2501 70.3136L87.2174 69.69C80.7695 69.4647 75.2508 63.9857 74.9074 57.4351L74.2834 57.4133ZM87.2501 70.3136L87.2828 70.9371C88.4793 70.9788 89.63 70.8541 90.7146 70.5844L90.5148 69.9781L90.315 69.3719C89.3368 69.6151 88.2985 69.7278 87.2174 69.69L87.2501 70.3136ZM90.5148 69.9781L89.9328 70.1536C91.9089 75.3579 96.9548 79.2411 102.678 79.441L102.645 78.8174L102.613 78.1939C97.4437 78.0134 92.8829 74.5066 91.0969 69.8027L90.5148 69.9781ZM102.645 78.8174L102.678 79.441C107.086 79.5947 110.86 77.5245 113.019 74.2443L112.487 73.871L111.956 73.4976C110.004 76.4648 106.594 78.3327 102.613 78.1939L102.645 78.8174ZM112.487 73.871L111.934 74.1108C113.397 77.0219 116.208 79.2288 119.479 79.8879L119.55 79.2767L119.622 78.6654C116.763 78.0895 114.313 76.1616 113.041 73.6311L112.487 73.871ZM119.55 79.2767L118.927 79.2581C119.121 82.6336 118.876 86.0524 118.138 89.4385L118.749 89.6209L119.361 89.8033C120.121 86.3092 120.375 82.7801 120.174 79.2953L119.55 79.2767ZM118.749 89.6209L118.138 89.4385C113.689 109.868 93.1161 121.365 72.188 115.119L72.0581 115.715L71.9282 116.312C93.5313 122.76 114.767 110.892 119.361 89.8033L118.749 89.6209ZM72.0581 115.715L72.188 115.119C51.26 108.872 37.9009 87.247 42.35 66.8174L41.7388 66.635L41.1276 66.4526C36.535 87.5412 50.325 109.864 71.9282 116.312L72.0581 115.715ZM41.7388 66.635L42.35 66.8174C45.7456 51.2256 58.5333 40.8356 73.7045 39.5671L73.5989 38.9453L73.4932 38.3236C57.8351 39.6328 44.6332 50.3559 41.1276 66.4525L41.7388 66.635Z" fill="#5C5C5C"/>
<ellipse cx="5.92307" cy="6.71206" rx="5.92307" ry="6.71206" transform="matrix(-0.063985 0.987834 -0.998713 -0.150543 90.5449 100.42)" fill="#EBEBEB"/>
<ellipse cx="7.23081" cy="7.17358" rx="7.23081" ry="7.17358" transform="matrix(-0.171481 0.965795 -0.985959 -0.256357 65.6035 64.9995)" fill="#EBEBEB"/>
<ellipse cx="8.29279" cy="8.18736" rx="8.29279" ry="8.18736" transform="matrix(0.719752 0.754254 -0.695326 0.655424 81.752 73.3333)" fill="#EBEBEB"/>
<ellipse cx="4.05845" cy="3.85798" rx="4.05845" ry="3.85798" transform="matrix(0.612757 -0.733709 0.791233 0.678344 102.912 88.7952)" fill="#EBEBEB"/>
<ellipse cx="2.70413" cy="2.40047" rx="2.70413" ry="2.40047" transform="matrix(0.880246 -0.396995 0.476117 0.916992 61.5547 49.0503)" fill="#EBEBEB"/>
<ellipse cx="4.14852" cy="4.4339" rx="4.14852" ry="4.4339" transform="matrix(0.880246 -0.396995 0.476117 0.916992 51.7461 90.1077)" fill="#EBEBEB"/>
<path d="M119.278 79.2908C120.23 79.49 122.423 79.0687 123.999 77.464" stroke="#5C5C5C" stroke-width="1.24875"/>
<path d="M98.0721 32.0054C107.97 33.943 112.518 41.5997 113.705 45.5764C111.151 46.9129 109.21 47.4645 107.401 47.3215C105.497 47.1708 103.635 46.244 101.275 44.4039C100.035 43.4361 98.0994 41.2068 96.4447 38.8467C95.6225 37.6739 94.8832 36.488 94.3439 35.435C93.9358 34.6379 93.664 33.9577 93.5393 33.4341C93.5425 33.4333 93.546 33.4336 93.5492 33.4328C93.8942 33.3538 94.3734 33.2396 94.9101 33.0956C95.9028 32.8292 97.1317 32.45 98.0721 32.0054Z" fill="#ADADAD" stroke="#5C5C5C" stroke-width="1.18774"/>
<path d="M117.027 53.6024C122.275 57.4633 121.903 63.4123 121.388 66.2742C118.922 66.4944 117.716 66.242 116.925 65.6692C116.502 65.3625 116.155 64.9335 115.796 64.3318C115.432 63.7209 115.085 62.9831 114.629 62.061C114.179 61.1526 113.667 59.2336 113.358 57.2942C113.206 56.3343 113.107 55.3937 113.089 54.5991C113.075 54.0066 113.109 53.5405 113.175 53.2156C113.246 53.2141 113.327 53.214 113.417 53.2143C113.813 53.216 114.346 53.2353 114.892 53.273C115.438 53.3109 115.983 53.3664 116.407 53.4361C116.62 53.4712 116.788 53.5075 116.903 53.5425C116.941 53.554 116.968 53.5649 116.986 53.5719L117.027 53.6024Z" fill="#ADADAD" stroke="#5C5C5C" stroke-width="1.18774"/>
<path d="M97.2452 46.7316C92.193 43.3634 92.5338 36.5067 93.3357 33.4994C104.162 34.7023 109.475 42.822 110.778 46.7316C108.372 48.135 102.298 50.0997 97.2452 46.7316Z" fill="white" stroke="#5C5C5C" stroke-width="1.24875"/>
<path d="M111.364 62.3799C109.31 58.9041 111.493 54.8959 112.842 53.3262C118.979 57.1721 119.817 63.569 119.469 66.2867C117.623 66.4327 113.417 65.8558 111.364 62.3799Z" fill="white" stroke="#5C5C5C" stroke-width="1.24875"/>
<path d="M145.217 51.4851C153.187 65.488 131.262 91.5408 96.2462 109.676C61.2305 127.811 26.3839 131.16 18.4141 117.158" stroke="#5C5C5C"/>
<path d="M30 130.462C37.3638 132.332 47.38 131.98 58.75 129.53" stroke="#5C5C5C" stroke-width="0.571274"/>
<circle cx="4" cy="4" r="5.42818" transform="matrix(0.998833 -0.0483049 0.0411211 0.999154 13.25 108.768)" fill="#ADADAD" stroke="white" stroke-width="2.85637"/>
<circle cx="2.34375" cy="2.34375" r="3.77193" transform="matrix(0.998833 -0.0483049 0.0411211 0.999154 144 55.7264)" fill="#ADADAD" stroke="white" stroke-width="2.85637"/>
<path d="M106.209 132.533L107.526 136.092L111.084 137.408L107.526 138.725L106.209 142.283L104.892 138.725L101.334 137.408L104.892 136.092L106.209 132.533Z" fill="#5C5C5C"/>
<path d="M117.258 12L118.102 14.281L120.383 15.125L118.102 15.969L117.258 18.25L116.414 15.969L114.133 15.125L116.414 14.281L117.258 12Z" fill="#5C5C5C"/>
<circle cx="29.2849" cy="38.6621" r="5.06226" fill="#ADADAD"/>
<path d="M32.8456 35.0648C33.5768 34.8736 34.2075 34.7754 34.7027 34.7706C35.0226 34.7675 35.2644 34.8038 35.4334 34.8642C35.5993 34.9235 35.6686 34.9955 35.6991 35.0528C35.7475 35.1436 35.7692 35.3468 35.5631 35.7351C35.3652 36.108 35.002 36.5607 34.4811 37.0633C33.4435 38.0645 31.8498 39.1975 29.9447 40.2134C28.0396 41.2293 26.2107 41.9213 24.8012 42.2249C24.0936 42.3774 23.5153 42.4267 23.0954 42.3833C22.6581 42.338 22.5014 42.2068 22.453 42.116C22.4213 42.0566 22.3995 41.953 22.4499 41.7695C22.5011 41.5833 22.6188 41.3477 22.8183 41.0679C23.141 40.6154 23.6432 40.0943 24.2978 39.5418C24.2477 39.2561 24.2216 38.9621 24.2216 38.662C24.2216 38.6229 24.222 38.5839 24.2229 38.545C23.3229 39.2526 22.6034 39.956 22.1503 40.5915C21.9195 40.9153 21.7446 41.2395 21.6588 41.5521C21.5721 41.8674 21.5688 42.2017 21.729 42.5021C21.9738 42.9611 22.4873 43.1452 23.0109 43.1994C23.552 43.2554 24.2254 43.1883 24.974 43.027C26.4768 42.7032 28.3781 41.9786 30.3308 40.9374C32.2834 39.8962 33.9445 38.7212 35.0508 37.6538C35.6019 37.1221 36.0328 36.6003 36.2878 36.1198C36.5346 35.6548 36.6679 35.1258 36.4231 34.6668C36.2693 34.3782 36.005 34.1972 35.7096 34.0916C35.4172 33.987 35.07 33.9465 34.6947 33.9502C33.9737 33.9572 33.0692 34.1286 32.0666 34.4325C32.347 34.6174 32.6079 34.8294 32.8456 35.0648Z" fill="#F6F6F6"/>
</g>
<defs>
<clipPath id="clip0_3021_12566">
<rect width="160" height="160" fill="white"/>
</clipPath>
</defs>
</svg>
