<svg width="160" height="160" viewBox="0 0 160 160" fill="none" xmlns="http://www.w3.org/2000/svg">
<g clip-path="url(#clip0_2995_34565)">
<path d="M31.9998 83.9644C19.3933 96.489 13.7212 108.912 18.414 117.157C26.3838 131.16 61.2305 127.811 96.2461 109.676C131.262 91.5406 153.187 65.4878 145.217 51.4849C144.312 49.8943 143.06 48.5276 141.5 47.381" stroke="#5C5C5C"/>
<path d="M149.251 47.298C150.811 48.4446 152.063 49.8113 152.968 51.4018C155.924 56.5947 154.768 63.4446 150.358 70.9334" stroke="#5C5C5C" stroke-width="0.733333"/>
<path d="M35.357 89.3333C28.7759 95.8715 24.0846 102.382 21.7711 108.285" stroke="#5C5C5C" stroke-width="0.733333"/>
<path d="M51.9359 136.334C67.1117 148.966 91.7898 145.951 102.756 121.743C111.043 103.449 140.925 108.236 144.511 81.9041C146.516 67.1786 137.121 45.8201 100.603 44.7344C72.1135 43.8874 71.3034 25.3904 44.1034 30.3237C16.3842 35.3512 16.1892 66.4194 36.6379 90.1022C55.4242 111.86 33.0265 120.595 51.9359 136.334Z" fill="#F6F6F6"/>
<path d="M145.217 51.4851C153.187 65.488 131.262 91.5408 96.2462 109.676C61.2305 127.811 26.3839 131.16 18.4141 117.158" stroke="#5C5C5C"/>
<circle cx="2.44358" cy="2.44358" r="3.87177" transform="matrix(0.998833 -0.0483049 0.0411211 0.999154 15.7324 99.436)" fill="#ADADAD" stroke="white" stroke-width="2.85637"/>
<path d="M12.4004 49.3334L14.0209 53.7128L18.4004 55.3334L14.0209 56.9539L12.4004 61.3334L10.7798 56.9539L6.40039 55.3334L10.7798 53.7128L12.4004 49.3334Z" fill="#5C5C5C"/>
<path d="M51.9258 14.1333L52.7698 16.4143L55.0508 17.2583L52.7698 18.1023L51.9258 20.3833L51.0817 18.1023L48.8008 17.2583L51.0817 16.4143L51.9258 14.1333Z" fill="#5C5C5C"/>
<circle cx="129.019" cy="126.929" r="5.06226" fill="#ADADAD"/>
<path d="M132.58 123.331C133.311 123.14 133.942 123.042 134.437 123.037C134.757 123.034 134.999 123.071 135.168 123.131C135.334 123.19 135.403 123.262 135.434 123.32C135.482 123.41 135.504 123.614 135.297 124.002C135.1 124.375 134.736 124.827 134.215 125.33C133.178 126.331 131.584 127.464 129.679 128.48C127.774 129.496 125.945 130.188 124.536 130.492C123.828 130.644 123.25 130.693 122.83 130.65C122.392 130.605 122.236 130.474 122.187 130.383C122.156 130.323 122.134 130.22 122.184 130.036C122.235 129.85 122.353 129.614 122.553 129.335C122.875 128.882 123.378 128.361 124.032 127.809C123.982 127.523 123.956 127.229 123.956 126.929C123.956 126.89 123.956 126.851 123.957 126.812C123.057 127.519 122.338 128.223 121.885 128.858C121.654 129.182 121.479 129.506 121.393 129.819C121.307 130.134 121.303 130.468 121.463 130.769C121.708 131.228 122.222 131.412 122.745 131.466C123.286 131.522 123.96 131.455 124.708 131.294C126.211 130.97 128.113 130.245 130.065 129.204C132.018 128.163 133.679 126.988 134.785 125.92C135.336 125.389 135.767 124.867 136.022 124.387C136.269 123.921 136.402 123.392 136.158 122.933C136.004 122.645 135.739 122.464 135.444 122.358C135.152 122.254 134.804 122.213 134.429 122.217C133.708 122.224 132.804 122.395 131.801 122.699C132.081 122.884 132.342 123.096 132.58 123.331Z" fill="#F6F6F6"/>
<path d="M40.1304 55.7333H33.6726C31.1141 55.7333 29.2817 58.2033 30.0237 60.6518L43.0525 103.647C43.8645 106.326 46.3343 108.159 49.134 108.159H93.3502" stroke="#5C5C5C" stroke-width="1.13328"/>
<path d="M44.8779 43.3004L67.5449 45.0074L67.5635 45.0084H92.7334C95.3236 45.0085 97.6082 46.7044 98.3594 49.1832L104.936 70.8844L104.942 70.9069L104.952 70.9283L112.914 90.1139C113.403 91.2928 113.178 92.6479 112.332 93.6041L110.782 95.3571C110.149 96.0732 109.238 96.483 108.282 96.483H58.3145C55.7246 96.4829 53.4398 94.7877 52.6885 92.3092L39.8076 49.817C39.5034 48.8133 39.6894 47.725 40.3086 46.8785L41.9336 44.6569C42.6145 43.7264 43.7281 43.2138 44.8779 43.3004Z" fill="#ADADAD" stroke="#5C5C5C" stroke-width="0.951142"/>
<path d="M45.5205 42.1664H95.3994C97.9494 42.1664 100.2 43.8354 100.939 46.2758L113.968 89.2709C114.599 91.3555 113.04 93.4594 110.861 93.4594H60.9814C58.4315 93.4592 56.1819 91.7894 55.4424 89.349L42.4141 46.3539C41.7824 44.2693 43.3423 42.1664 45.5205 42.1664Z" fill="white" stroke="#5C5C5C" stroke-width="1.13328"/>
<path d="M55.0735 58.3543C55.0313 57.1477 55.9977 56.1382 57.205 56.1381L80.5146 56.1357C81.5792 56.1355 82.4703 56.943 82.5748 58.0025C82.6944 59.2151 81.7461 60.2682 80.5277 60.2758L57.2191 60.4209C56.0648 60.4281 55.1138 59.508 55.0735 58.3543Z" fill="#EBEBEB"/>
<path d="M58.1578 67.2245C58.0919 66.0004 59.0686 64.9674 60.2945 64.9713L73.621 65.0137C74.652 65.017 75.5242 65.7769 75.6687 66.7977C75.8448 68.0416 74.8838 69.1553 73.6276 69.1633L60.3018 69.2479C59.1629 69.2551 58.219 68.3618 58.1578 67.2245Z" fill="#EBEBEB"/>
<mask id="path-16-inside-1_2995_34565" fill="white">
<path d="M95.3994 41.6C98.1991 41.6 100.67 43.4323 101.481 46.1117L102.04 47.9545H42.3066L41.8711 46.5179C41.1295 44.0696 42.9622 41.6 45.5205 41.6H95.3994Z"/>
</mask>
<path d="M101.481 46.1117L100.397 46.4404L100.397 46.4404L101.481 46.1117ZM102.04 47.9545V49.0877H103.568L103.125 47.6257L102.04 47.9545ZM42.3066 47.9545L41.2221 48.2833L41.466 49.0877H42.3066V47.9545ZM41.8711 46.5179L40.7865 46.8465L40.7866 46.8468L41.8711 46.5179ZM95.3994 41.6V42.7333C97.6999 42.7333 99.7298 44.2389 100.397 46.4404L101.481 46.1117L102.566 45.783C101.609 42.6257 98.6983 40.4667 95.3994 40.4667V41.6ZM101.481 46.1117L100.397 46.4404L100.955 48.2832L102.04 47.9545L103.125 47.6257L102.566 45.7829L101.481 46.1117ZM102.04 47.9545V46.8212H42.3066V47.9545V49.0877H102.04V47.9545ZM42.3066 47.9545L43.3912 47.6256L42.9556 46.1891L41.8711 46.5179L40.7866 46.8468L41.2221 48.2833L42.3066 47.9545ZM41.8711 46.5179L42.9557 46.1894C42.4346 44.469 43.7224 42.7333 45.5205 42.7333V41.6V40.4667C42.202 40.4667 39.8244 43.6702 40.7865 46.8465L41.8711 46.5179ZM45.5205 41.6V42.7333H95.3994V41.6V40.4667H45.5205V41.6Z" fill="#5C5C5C" mask="url(#path-16-inside-1_2995_34565)"/>
<path d="M100.7 29.3952C100.402 25.9064 96.7343 25.7166 95.3906 29.5793L86.0416 62.0487C85.7966 63.7927 88.3789 66.0714 90.6897 66.1503L130.985 67.5267C134.564 67.649 138.055 63.5004 133.167 61.422C132.363 61.0803 131.581 60.6599 130.967 60.0388L100.7 29.3952Z" fill="#5C5C5C"/>
<path d="M99.1675 27.0059C98.3258 27.0613 97.7069 27.477 97.4563 28.0998L88.1296 60.4901C88.0529 61.119 88.4849 61.9673 89.3403 62.722C90.1838 63.4664 91.3055 63.9947 92.3239 64.0296L132.619 65.4061C133.51 65.4365 134.156 65.2476 134.586 64.9512C135.007 64.6605 135.255 64.2438 135.326 63.7339C135.473 62.6865 134.869 61.165 133.207 59.6983L133.195 59.6874L133.183 59.6755L101.989 28.0931C101.043 27.2648 100.008 26.9506 99.1675 27.0059Z" fill="white" stroke="#5C5C5C" stroke-width="0.951142"/>
<path d="M103.118 37.6318C104.862 37.5097 106.767 38.8153 107.234 40.4516L110.278 51.1363C110.544 52.0731 109.984 52.844 108.986 52.9139C107.987 52.9838 106.88 52.3297 106.433 51.4055L101.327 40.8652C100.545 39.251 101.374 37.7539 103.118 37.6318Z" fill="#ADADAD"/>
<path d="M110.012 55.3386C111.242 55.2525 112.597 56.1157 113.039 57.2666C113.481 58.4175 112.842 59.4203 111.612 59.5064C110.383 59.5925 109.027 58.7293 108.586 57.5784C108.144 56.4275 108.782 55.4247 110.012 55.3386Z" fill="#ADADAD"/>
</g>
<defs>
<clipPath id="clip0_2995_34565">
<rect width="160" height="160" fill="white"/>
</clipPath>
</defs>
</svg>
