<svg width="160" height="160" viewBox="0 0 160 160" fill="none" xmlns="http://www.w3.org/2000/svg">
<g clip-path="url(#clip0_2995_35359)">
<path d="M31.9998 83.9644C19.3933 96.489 13.7212 108.912 18.414 117.157C26.3838 131.16 61.2305 127.811 96.2461 109.676C131.262 91.5406 153.187 65.4878 145.217 51.4849C144.312 49.8943 143.06 48.5276 141.5 47.381" stroke="#5C5C5C"/>
<path d="M149.251 47.298C150.811 48.4446 152.063 49.8113 152.968 51.4018C155.924 56.5947 154.768 63.4446 150.358 70.9334" stroke="#5C5C5C" stroke-width="0.733333"/>
<path d="M35.357 89.3333C28.7759 95.8715 24.0846 102.382 21.7711 108.285" stroke="#5C5C5C" stroke-width="0.733333"/>
<path d="M51.9359 136.334C67.1117 148.966 91.7898 145.951 102.756 121.743C111.043 103.449 140.925 108.236 144.511 81.9041C146.516 67.1786 137.121 45.8201 100.603 44.7344C72.1135 43.8874 71.3034 25.3904 44.1034 30.3237C16.3842 35.3512 16.1892 66.4194 36.6379 90.1022C55.4242 111.86 33.0265 120.595 51.9359 136.334Z" fill="#F6F6F6"/>
<path d="M80.9358 109.203L50.6425 111.645C48.9452 111.782 47.438 110.565 47.2134 108.877L39.9086 53.9733C39.6688 52.1712 40.9766 50.5316 42.7869 50.3647L46.2692 50.0438" stroke="#5C5C5C" stroke-width="0.952"/>
<path d="M53.6523 36.9278L84.6562 34.2397L100.285 46.4687L107.868 95.2576C108.112 96.8245 106.97 98.2677 105.389 98.3921L62.081 101.799C60.6389 101.913 59.3592 100.88 59.1667 99.4459L51.1869 40.0042C50.98 38.4631 52.1032 37.0621 53.6523 36.9278Z" fill="white" stroke="#5C5C5C" stroke-width="0.951142"/>
<path d="M64.2887 87.0607C64.1339 85.8357 65.0482 84.7356 66.2808 84.6636L92.6941 83.1217C93.7831 83.0581 94.7446 83.8263 94.9231 84.9024L95.4834 88.2824C95.69 89.5282 94.7751 90.6798 93.5148 90.7603L66.9874 92.4546C65.8627 92.5264 64.8762 91.7111 64.7349 90.593L64.2887 87.0607Z" fill="#ADADAD"/>
<path d="M61.3112 64.8386C61.1892 63.6311 62.0969 62.5562 63.3084 62.4854L89.8487 60.9361C90.8995 60.8747 91.8289 61.6119 92.0085 62.649C92.2184 63.8619 91.3297 64.9888 90.1012 65.0673L63.5705 66.7618C62.4252 66.8349 61.4265 65.9804 61.3112 64.8386Z" fill="#EBEBEB"/>
<path d="M62.3772 73.096C62.2553 71.8893 63.1624 70.8213 64.3731 70.7495L74.374 70.156C75.4292 70.0933 76.3632 70.8333 76.5435 71.875C76.7532 73.0863 75.8707 74.2137 74.6444 74.301L64.6514 75.0119C63.5007 75.0938 62.4931 74.2437 62.3772 73.096Z" fill="#EBEBEB"/>
<path d="M73.3568 48.1532C73.8902 48.1056 74.371 48.4763 74.4606 49.0043L75.3556 54.2747C75.4553 54.8628 75.0341 55.4121 74.4402 55.4687L67.7847 56.1022C67.2336 56.1547 66.7395 55.7611 66.6685 55.2121L65.9819 49.8824C65.9075 49.3045 66.3285 48.7804 66.9088 48.7286L73.3568 48.1532Z" fill="#ADADAD" stroke="#5C5C5C" stroke-width="0.986667"/>
<circle cx="64.2669" cy="48.538" r="4.85776" stroke="#5C5C5C" stroke-width="0.951142"/>
<path d="M86.2556 45.464L84.668 34.8L100.268 46.9334L88.4285 47.2823C87.3482 47.3141 86.4148 46.533 86.2556 45.464Z" fill="#EBEBEB"/>
<mask id="path-13-inside-1_2995_35359" fill="white">
<path d="M96.5225 59.946C89.4411 63.2636 84.5361 70.4539 84.5361 78.7908C84.5364 90.2781 93.8486 99.5906 105.336 99.5906C115.633 99.5905 124.181 92.1069 125.842 82.282C125.301 94.1727 115.491 103.647 103.467 103.647C91.0956 103.647 81.0664 93.618 81.0664 81.2468C81.0665 71.2999 87.5509 62.8689 96.5225 59.946Z"/>
</mask>
<path d="M96.5225 59.946C89.4411 63.2636 84.5361 70.4539 84.5361 78.7908C84.5364 90.2781 93.8486 99.5906 105.336 99.5906C115.633 99.5905 124.181 92.1069 125.842 82.282C125.301 94.1727 115.491 103.647 103.467 103.647C91.0956 103.647 81.0664 93.618 81.0664 81.2468C81.0665 71.2999 87.5509 62.8689 96.5225 59.946Z" fill="#ADADAD"/>
<path d="M96.5225 59.946L96.926 60.8074L96.2278 59.0417L96.5225 59.946ZM84.5361 78.7908H83.585V78.7908L84.5361 78.7908ZM105.336 99.5906V100.542H105.336L105.336 99.5906ZM125.842 82.282L126.792 82.3252L124.904 82.1234L125.842 82.282ZM103.467 103.647V104.598H103.467L103.467 103.647ZM81.0664 81.2468L80.1153 81.2468V81.2468H81.0664ZM96.5225 59.946L96.1189 59.0847C88.716 62.553 83.585 70.0712 83.585 78.7908H84.5361H85.4873C85.4873 70.8366 90.1662 63.9743 96.926 60.8074L96.5225 59.946ZM84.5361 78.7908L83.585 78.7908C83.5852 90.8034 93.3232 100.542 105.336 100.542V99.5906V98.6394C94.3739 98.6394 85.4875 89.7528 85.4873 78.7908L84.5361 78.7908ZM105.336 99.5906L105.336 100.542C116.105 100.542 125.043 92.7152 126.78 82.4405L125.842 82.282L124.904 82.1234C123.319 91.4985 115.161 98.6393 105.336 98.6394L105.336 99.5906ZM125.842 82.282L124.892 82.2388C124.374 93.6239 114.98 102.696 103.467 102.696L103.467 103.647L103.467 104.598C116.002 104.598 126.228 94.7214 126.792 82.3252L125.842 82.282ZM103.467 103.647V102.696C91.6209 102.696 82.0175 93.0927 82.0175 81.2468H81.0664H80.1153C80.1153 94.1433 90.5703 104.598 103.467 104.598V103.647ZM81.0664 81.2468L82.0175 81.2468C82.0176 71.7238 88.2253 63.6495 96.8171 60.8504L96.5225 59.946L96.2278 59.0417C86.8764 62.0883 80.1154 70.8759 80.1153 81.2468L81.0664 81.2468Z" fill="#5C5C5C" mask="url(#path-13-inside-1_2995_35359)"/>
<rect x="113.707" y="96.983" width="7.92" height="21.2533" rx="3.69333" transform="rotate(-38.8016 113.707 96.983)" fill="#ADADAD" stroke="#5C5C5C" stroke-width="0.986667"/>
<circle cx="105.47" cy="78.8" r="21.2578" fill="white" stroke="#5C5C5C" stroke-width="0.951142"/>
<circle cx="105.466" cy="78.7183" r="18.2667" fill="#EBEBEB"/>
<mask id="mask0_2995_35359" style="mask-type:alpha" maskUnits="userSpaceOnUse" x="87" y="60" width="37" height="37">
<circle cx="105.466" cy="78.7183" r="18.2667" fill="#EBEBEB"/>
</mask>
<g mask="url(#mask0_2995_35359)">
<path d="M113.183 97.3631C110.491 96.5544 85.5682 73.0972 73.4432 61.4698L75.8237 58.6352L120.475 99.1261L113.183 97.3631Z" fill="white" fill-opacity="0.8"/>
<path d="M129.459 97.8933L83.4681 55.9721L103.183 59.5264L138.247 92.0779L129.459 97.8933Z" fill="white" fill-opacity="0.8"/>
<path d="M80.3842 71.8883L107.601 97.3631L96.8011 106.585L76.9289 82.1763L80.3842 71.8883Z" fill="white" fill-opacity="0.8"/>
</g>
<path d="M84.8008 34.6714L86.2718 45.4212C86.4206 46.5088 87.3705 47.3059 88.4674 47.2637L100.401 46.8047" stroke="#5C5C5C" stroke-width="0.951142"/>
<path d="M92.4798 30.7312L92.1326 24.8047" stroke="#5C5C5C" stroke-width="0.5"/>
<path d="M102.126 38.2569L108.267 37.338" stroke="#5C5C5C" stroke-width="0.5"/>
<path d="M98.1758 33.3889L103.599 27.8715" stroke="#5C5C5C" stroke-width="0.5"/>
<path d="M145.217 51.4851C153.187 65.488 131.262 91.5408 96.2462 109.676C61.2305 127.811 26.3839 131.16 18.4141 117.158" stroke="#5C5C5C"/>
<circle cx="2.44358" cy="2.44358" r="3.87177" transform="matrix(0.998833 -0.0483049 0.0411211 0.999154 15.7324 99.436)" fill="#ADADAD" stroke="white" stroke-width="2.85637"/>
<path d="M103.867 130.4L105.488 134.779L109.867 136.4L105.488 138.021L103.867 142.4L102.247 138.021L97.8672 136.4L102.247 134.779L103.867 130.4Z" fill="#5C5C5C"/>
<path d="M31.6582 24.5333L32.5022 26.8143L34.7832 27.6583L32.5022 28.5024L31.6582 30.7833L30.8142 28.5024L28.5332 27.6583L30.8142 26.8143L31.6582 24.5333Z" fill="#5C5C5C"/>
<circle cx="131.15" cy="37.8623" r="5.06226" fill="#ADADAD"/>
<path d="M134.713 34.2648C135.444 34.0737 136.075 33.9755 136.57 33.9707C136.89 33.9676 137.132 34.0039 137.301 34.0642C137.466 34.1236 137.536 34.1956 137.566 34.2529C137.615 34.3437 137.636 34.5469 137.43 34.9352C137.232 35.3081 136.869 35.7608 136.348 36.2634C135.311 37.2646 133.717 38.3976 131.812 39.4135C129.907 40.4293 128.078 41.1213 126.668 41.425C125.961 41.5774 125.382 41.6268 124.963 41.5833C124.525 41.5381 124.369 41.4069 124.32 41.3161C124.289 41.2567 124.267 41.1531 124.317 40.9695C124.368 40.7833 124.486 40.5478 124.686 40.2679C125.008 39.8155 125.51 39.2944 126.165 38.7419C126.115 38.4562 126.089 38.1622 126.089 37.8621C126.089 37.823 126.089 37.784 126.09 37.7451C125.19 38.4527 124.471 39.156 124.017 39.7916C123.787 40.1154 123.612 40.4395 123.526 40.7522C123.439 41.0675 123.436 41.4018 123.596 41.7021C123.841 42.1612 124.354 42.3453 124.878 42.3995C125.419 42.4555 126.093 42.3884 126.841 42.2271C128.344 41.9033 130.245 41.1787 132.198 40.1375C134.151 39.0963 135.812 37.9213 136.918 36.8538C137.469 36.3221 137.9 35.8004 138.155 35.3199C138.402 34.8548 138.535 34.3258 138.29 33.8668C138.136 33.5783 137.872 33.3972 137.577 33.2916C137.284 33.1871 136.937 33.1466 136.562 33.1502C135.841 33.1572 134.936 33.3287 133.934 33.6326C134.214 33.8175 134.475 34.0294 134.713 34.2648Z" fill="#F6F6F6"/>
</g>
<defs>
<clipPath id="clip0_2995_35359">
<rect width="160" height="160" fill="white"/>
</clipPath>
</defs>
</svg>
