<svg width="160" height="160" viewBox="0 0 160 160" fill="none" xmlns="http://www.w3.org/2000/svg">
<g clip-path="url(#clip0_1750_50930)">
<path d="M89.8087 119.652C100.826 124.014 119.15 121.874 135.2 106.533C153.333 89.1993 128.27 74.8062 128.266 55.5993C128.263 35.8068 121.907 22.2198 100.91 21.3833C75.7193 20.3798 74.3146 51.9171 48.9064 61.0848C22.0256 70.7837 15.055 96.7737 27.2155 109.412C45.4857 128.401 68.4389 111.191 89.8087 119.652Z" fill="#F6F6F6"/>
<path d="M136.307 119.479L137.623 123.037L141.182 124.354L137.623 125.67L136.307 129.229L134.99 125.67L131.432 124.354L134.99 123.037L136.307 119.479Z" fill="#5C5C5C"/>
<path d="M19.9053 53.4014L20.7493 55.6823L23.0303 56.5264L20.7493 57.3704L19.9053 59.6514L19.0612 57.3704L16.7803 56.5264L19.0612 55.6823L19.9053 53.4014Z" fill="#5C5C5C"/>
<circle cx="136.875" cy="27.4669" r="5.06226" transform="rotate(-4.4892 136.875 27.4669)" fill="#ADADAD"/>
<path d="M140.144 23.6013C140.858 23.3535 141.48 23.2062 141.973 23.1627C142.292 23.1345 142.535 23.1518 142.709 23.1988C142.879 23.2449 142.953 23.3113 142.988 23.366C143.044 23.4527 143.081 23.6536 142.906 24.0569C142.738 24.4441 142.411 24.9239 141.931 25.4657C140.975 26.545 139.475 27.7993 137.655 28.9612C135.836 30.123 134.067 30.956 132.685 31.3691C131.992 31.5765 131.419 31.6709 130.997 31.6605C130.558 31.6496 130.391 31.531 130.336 31.4443C130.299 31.3876 130.27 31.286 130.305 31.0991C130.342 30.9095 130.441 30.6654 130.618 30.3708C130.904 29.8945 131.364 29.3357 131.973 28.7337C131.901 28.4527 131.852 28.1617 131.828 27.8625C131.825 27.8235 131.823 27.7846 131.821 27.7457C130.979 28.5217 130.317 29.2791 129.915 29.9482C129.71 30.289 129.561 30.6259 129.5 30.9443C129.438 31.2654 129.461 31.5989 129.644 31.8859C129.924 32.3243 130.45 32.4677 130.977 32.4807C131.52 32.4942 132.187 32.3746 132.92 32.1552C134.393 31.7148 136.232 30.8436 138.097 29.6527C139.962 28.4619 141.526 27.1605 142.546 26.0097C143.053 25.4365 143.442 24.8826 143.659 24.3836C143.868 23.9007 143.96 23.3629 143.68 22.9245C143.504 22.6489 143.226 22.4891 142.923 22.4069C142.624 22.3256 142.275 22.3124 141.901 22.3454C141.182 22.4088 140.294 22.6505 139.318 23.0319C139.612 23.1943 139.889 23.3852 140.144 23.6013Z" fill="#F6F6F6"/>
<mask id="mask0_1750_50930" style="mask-type:alpha" maskUnits="userSpaceOnUse" x="-10" y="25" width="161" height="113">
<ellipse cx="70.6675" cy="81.5879" rx="81.9914" ry="53.0771" transform="rotate(-15.7976 70.6675 81.5879)" fill="#D9D9D9"/>
</mask>
<g mask="url(#mask0_1750_50930)">
<path d="M80.0953 77.8807C102.002 76.7253 120.697 93.547 121.853 115.453C123.008 137.36 106.186 156.055 84.2793 157.211C82.093 157.326 79.9391 157.259 77.8311 157.029C76.8205 157.547 74.8644 157.651 72.7117 157.215C70.16 156.698 68.1579 155.59 67.7735 154.569C53.6801 149.072 43.3712 135.726 42.5227 119.637C42.211 113.727 43.2093 108.051 45.2616 102.89C44.2823 102.291 44.6697 99.7004 46.1406 97.0648C47.6253 94.4044 49.6514 92.7063 50.6659 93.2723C50.6848 93.2829 50.7025 93.2956 50.7205 93.3076C57.5481 84.4521 68.0531 78.5159 80.0953 77.8807Z" fill="url(#paint0_linear_1750_50930)"/>
<path d="M80.0953 77.8807L80.0689 77.3813L80.0689 77.3813L80.0953 77.8807ZM121.853 115.453L122.352 115.427L122.352 115.427L121.853 115.453ZM84.2793 157.211L84.3056 157.71L84.3056 157.71L84.2793 157.211ZM77.8311 157.029L77.8853 156.532L77.7363 156.515L77.603 156.584L77.8311 157.029ZM72.7117 157.215L72.6124 157.705L72.6124 157.705L72.7117 157.215ZM67.7735 154.569L68.2415 154.393L68.163 154.184L67.9552 154.103L67.7735 154.569ZM42.5227 119.637L42.0234 119.664L42.0234 119.664L42.5227 119.637ZM45.2616 102.89L45.7262 103.074L45.8819 102.683L45.5223 102.463L45.2616 102.89ZM46.1406 97.0648L45.704 96.8211L45.704 96.8211L46.1406 97.0648ZM50.6659 93.2723L50.9095 92.8357L50.9095 92.8357L50.6659 93.2723ZM50.7205 93.3076L50.443 93.7235L50.8314 93.9827L51.1165 93.6129L50.7205 93.3076ZM80.0953 77.8807L80.1216 78.38C101.752 77.2391 120.212 93.8491 121.354 115.48L121.853 115.453L122.352 115.427C121.182 93.2449 102.251 76.2114 80.0689 77.3813L80.0953 77.8807ZM121.853 115.453L121.354 115.48C122.494 137.11 105.884 155.571 84.253 156.712L84.2793 157.211L84.3056 157.71C106.488 156.54 123.522 137.609 122.352 115.427L121.853 115.453ZM84.2793 157.211L84.253 156.712C82.0942 156.825 79.9673 156.759 77.8853 156.532L77.8311 157.029L77.7769 157.526C79.911 157.759 82.0918 157.827 84.3056 157.71L84.2793 157.211ZM77.8311 157.029L77.603 156.584C77.1887 156.796 76.5288 156.945 75.6793 156.98C74.8395 157.014 73.8527 156.936 72.811 156.725L72.7117 157.215L72.6124 157.705C73.7235 157.93 74.791 158.017 75.7202 157.979C76.6395 157.941 77.4629 157.779 78.0592 157.474L77.8311 157.029ZM72.7117 157.215L72.811 156.725C71.5748 156.474 70.4846 156.083 69.6677 155.641C68.8221 155.184 68.3667 154.725 68.2415 154.393L67.7735 154.569L67.3055 154.745C67.5647 155.434 68.3025 156.04 69.192 156.521C70.1102 157.017 71.2968 157.438 72.6124 157.705L72.7117 157.215ZM67.7735 154.569L67.9552 154.103C54.0381 148.675 43.8598 135.496 43.022 119.611L42.5227 119.637L42.0234 119.664C42.8826 135.955 53.3221 149.469 67.5918 155.035L67.7735 154.569ZM42.5227 119.637L43.022 119.611C42.7142 113.774 43.7 108.17 45.7262 103.074L45.2616 102.89L44.797 102.705C42.7186 107.932 41.7078 113.68 42.0234 119.664L42.5227 119.637ZM45.2616 102.89L45.5223 102.463C45.4365 102.411 45.3299 102.284 45.268 101.994C45.2064 101.704 45.2028 101.307 45.2767 100.816C45.424 99.8366 45.8635 98.5873 46.5772 97.3084L46.1406 97.0648L45.704 96.8211C44.9468 98.1779 44.4571 99.5418 44.2879 100.667C44.2035 101.228 44.1947 101.755 44.2899 102.202C44.3848 102.647 44.597 103.069 45.0008 103.316L45.2616 102.89ZM46.1406 97.0648L46.5772 97.3084C47.2977 96.0174 48.1393 94.98 48.9007 94.3419C49.2828 94.0216 49.6238 93.8196 49.9008 93.7253C50.1778 93.631 50.3355 93.6606 50.4223 93.709L50.6659 93.2723L50.9095 92.8357C50.489 92.6011 50.0129 92.6307 49.5784 92.7787C49.1437 92.9267 48.6952 93.2094 48.2584 93.5754C47.382 94.3099 46.4682 95.4517 45.704 96.8211L46.1406 97.0648ZM50.6659 93.2723L50.4222 93.709C50.416 93.7055 50.4134 93.7036 50.4175 93.7063C50.4195 93.7077 50.422 93.7094 50.4265 93.7124C50.4304 93.715 50.4366 93.7193 50.443 93.7235L50.7205 93.3076L50.998 92.8917C50.9954 92.8899 50.9927 92.8881 50.9876 92.8846C50.9831 92.8816 50.9766 92.8772 50.9696 92.8725C50.9556 92.8633 50.9347 92.8498 50.9095 92.8357L50.6659 93.2723ZM50.7205 93.3076L51.1165 93.6129C57.8589 84.8679 68.2311 79.0072 80.1216 78.38L80.0953 77.8807L80.0689 77.3813C67.875 78.0246 57.2373 84.0362 50.3246 93.0023L50.7205 93.3076Z" fill="url(#paint1_linear_1750_50930)"/>
<path d="M87.3504 80.2598C94.007 81.0701 100.517 83.7345 106.064 88.3303C121.482 101.104 123.625 123.957 110.851 139.375C98.4854 154.301 76.6734 156.785 61.3056 145.339C73.1503 146.781 85.4597 142.352 93.6376 132.482C106.411 117.064 104.268 94.2105 88.8507 81.4369C88.3584 81.029 87.8573 80.6373 87.3504 80.2598Z" fill="url(#paint2_linear_1750_50930)"/>
<ellipse cx="90.1563" cy="142.303" rx="4.57097" ry="6.77765" transform="rotate(73.0648 90.1563 142.303)" fill="#EBEBEB"/>
<ellipse cx="64.813" cy="114.816" rx="8.98433" ry="8.20515" transform="rotate(84.845 64.813 114.816)" fill="#EBEBEB"/>
<ellipse cx="62.8271" cy="97.4027" rx="2.73056" ry="2.42393" transform="rotate(-43.4299 62.8271 97.4027)" fill="#EBEBEB"/>
<ellipse cx="48.7393" cy="98.5576" rx="4.09811" ry="1.70518" transform="rotate(-61.5366 48.7393 98.5576)" fill="#EBEBEB"/>
</g>
<path d="M62.7083 25.1892C51.7099 29.3018 45.3272 40.2813 48.6815 49.8083C52.0362 59.3354 63.7665 63.5429 74.765 59.4303C85.7635 55.3177 92.1461 44.3374 88.7914 34.8103C85.4366 25.2834 73.7066 21.0767 62.7083 25.1892Z" fill="white" stroke="#5C5C5C"/>
<mask id="mask1_1750_50930" style="mask-type:alpha" maskUnits="userSpaceOnUse" x="48" y="24" width="42" height="39">
<ellipse cx="20.8976" cy="18.7073" rx="20.8976" ry="18.7073" transform="matrix(-0.937264 0.350466 0.331922 0.942655 82.4609 18.3359)" fill="white"/>
</mask>
<g mask="url(#mask1_1750_50930)">
<path d="M77.9342 36.9993C77.2766 30.5557 71.6009 25.9327 59.2676 27.666C76.3342 19.7327 85.1189 29.2442 88.2293 35.4778C83.1085 38.9076 78.5919 43.443 77.9342 36.9993Z" fill="#F6F6F6"/>
</g>
<ellipse cx="39.0163" cy="14.2641" rx="39.0163" ry="14.2641" transform="matrix(-0.924549 0.381062 0.361823 0.932247 101.703 20.2412)" fill="#EBEBEB" stroke="#5C5C5C"/>
<path d="M69.9731 42.7661C65.0895 44.6152 60.9075 47.0259 58.0953 49.4453C56.6908 50.6537 55.6064 51.8826 54.9545 53.065C54.3035 54.2457 54.0539 55.4404 54.4389 56.5207C54.8241 57.6011 55.7652 58.3457 57.0032 58.8113C58.243 59.2775 59.8415 59.4906 61.6711 59.4744C65.3344 59.4421 70.0361 58.4891 74.9197 56.6401C79.8035 54.791 83.9862 52.38 86.7984 49.9605C88.2029 48.7522 89.2873 47.5233 89.9392 46.3409C90.5903 45.16 90.8397 43.9647 90.4545 42.8842C90.0692 41.8041 89.1283 41.0601 87.8905 40.5946C86.6508 40.1284 85.0521 39.9153 83.2226 39.9315C79.5592 39.9638 74.8568 40.917 69.9731 42.7661Z" fill="#EBEBEB" stroke="#5C5C5C"/>
<mask id="mask2_1750_50930" style="mask-type:alpha" maskUnits="userSpaceOnUse" x="54" y="40" width="37" height="19">
<path d="M70.3083 43.7076C65.505 45.5262 61.4333 47.8835 58.7318 50.2077C57.3794 51.3713 56.391 52.5085 55.8194 53.5453C55.2471 54.5835 55.1221 55.4617 55.3736 56.1671C55.6252 56.8724 56.2721 57.4584 57.3605 57.8677C58.4475 58.2765 59.9153 58.4839 61.677 58.4683C65.1961 58.4371 69.7804 57.5172 74.5835 55.6985C79.3867 53.8799 83.4585 51.5226 86.16 49.1984C87.5122 48.035 88.4998 46.8978 89.0715 45.8611C89.6439 44.8229 89.7696 43.9445 89.5182 43.239C89.2667 42.5336 88.619 41.9481 87.5304 41.5387C86.4434 41.13 84.9764 40.9223 83.2148 40.9378C79.6956 40.9689 75.1115 41.8889 70.3083 43.7076Z" fill="white" stroke="#5C5C5C"/>
</mask>
<g mask="url(#mask2_1750_50930)">
<ellipse cx="18.7432" cy="6.86893" rx="18.7432" ry="6.86893" transform="matrix(-0.93582 0.354326 0.335625 0.941335 86.1318 34.1338)" fill="white" stroke="#5C5C5C"/>
<ellipse cx="14.87" cy="12.0771" rx="14.87" ry="12.0771" transform="matrix(-0.93582 0.354326 0.335625 0.941335 78.6875 22.3672)" fill="#ADADAD" stroke="#5C5C5C"/>
</g>
<path d="M92.7546 66.7421C92.8493 66.4151 92.7275 66.053 92.4512 65.8405L90.0771 64.0142C89.6154 63.659 88.969 63.8582 88.8107 64.4046L82.2172 87.1521C81.879 88.3192 82.5453 89.5894 83.7056 89.9892C84.8659 90.3889 86.0808 89.7668 86.4191 88.5997L92.7546 66.7421Z" fill="#5C5C5C"/>
<rect width="27.7148" height="18.0594" rx="2.09008" transform="matrix(-0.982187 -0.167606 -0.269673 0.958178 105.077 69.4043)" fill="#5C5C5C"/>
<rect x="-0.471315" y="0.297644" width="26.9618" height="17.3064" rx="1.71358" transform="matrix(-0.982187 -0.167606 -0.269673 0.958178 103.052 68.5096)" fill="white" stroke="#5C5C5C" stroke-width="0.752983"/>
<g clip-path="url(#clip1_1750_50930)">
<path d="M81.2276 71.4974C86.1559 68.6491 92.2795 69.6954 95.225 73.886C95.3358 74.0436 95.2756 74.2682 95.0939 74.381L94.1275 74.9809C93.9542 75.0887 93.7338 75.054 93.6274 74.9041C91.1926 71.479 86.1839 70.6236 82.1318 72.9425C81.9547 73.0439 81.7359 73.0034 81.6363 72.8493L81.0807 71.9897C80.9764 71.8281 81.0424 71.6045 81.2276 71.4974ZM87.0345 76.9263C87.8202 77.0603 88.2837 77.7845 88.07 78.5438C87.8562 79.3032 87.0463 79.81 86.2607 79.676C85.475 79.5419 85.0115 78.8178 85.2252 78.0584C85.439 77.299 86.2489 76.7922 87.0345 76.9263ZM83.0357 74.362C86.2136 72.6094 90.1011 73.2753 92.0442 75.8992C92.1606 76.0564 92.1015 76.2848 91.9169 76.3987L90.9459 76.9982C90.7768 77.1027 90.5597 77.0746 90.4511 76.9318C89.0241 75.0545 86.2275 74.5809 83.9284 75.8187C83.753 75.9131 83.5407 75.8681 83.4432 75.7179L82.8833 74.8572C82.7766 74.6935 82.8458 74.4667 83.0357 74.362Z" fill="#ADADAD"/>
</g>
<path d="M140.801 88.6659L89.6851 42.5055C88.2605 39.6994 80.3286 38.4941 69.7604 42.5642C58.4991 46.9011 54.5519 51.9159 54.6936 55.9816L54.6936 120.544L140.801 88.6659Z" fill="url(#paint3_linear_1750_50930)"/>
<path d="M54.423 56.527C53.0392 52.6456 59.9932 46.4414 69.9553 42.6695C79.9173 38.8976 88.7804 39.0597 90.2955 42.7324" stroke="#5C5C5C"/>
<line y1="-0.25" x2="19.3184" y2="-0.25" transform="matrix(-0.751136 -0.660148 -0.603951 0.797022 109.002 59.9014)" stroke="#5C5C5C" stroke-width="0.5"/>
<line y1="-0.25" x2="5.84989" y2="-0.25" transform="matrix(-0.757214 -0.653167 -0.596813 0.802381 115.79 65.8779)" stroke="#5C5C5C" stroke-width="0.5"/>
<line y1="-0.25" x2="14.4574" y2="-0.25" transform="matrix(-0.0016335 -0.999999 -0.999998 0.00173468 54.4355 75.2432)" stroke="#5C5C5C" stroke-width="0.5"/>
<line y1="-0.25" x2="4.02624" y2="-0.25" transform="matrix(0.016316 -0.999867 -0.99985 -0.0173263 54.3691 81.4854)" stroke="#5C5C5C" stroke-width="0.5"/>
<path d="M37.8667 77.3341C21.8667 92.2676 13.7213 108.913 18.4142 117.158C26.384 131.161 61.2306 127.811 96.2463 109.676C131.262 91.5415 153.187 65.4886 145.217 51.4857C142.019 45.8676 131.733 41.7337 118.133 45.7337" stroke="#5C5C5C"/>
<path d="M145.217 51.4857C153.187 65.4886 131.262 91.5414 96.2462 109.676C61.2305 127.811 26.3839 131.161 18.4141 117.158" stroke="#5C5C5C"/>
<path d="M85.9092 120.263C93.5663 116.827 103.036 112.528 111.374 106.884" stroke="#5C5C5C" stroke-width="0.571274"/>
<circle cx="4" cy="4" r="5.42818" transform="matrix(0.998833 -0.0483049 0.0411211 0.999154 122.362 85.6055)" fill="#ADADAD" stroke="#F6F6F6" stroke-width="2.85637"/>
<circle cx="2.34375" cy="2.34375" r="3.77193" transform="matrix(0.998833 -0.0483049 0.0411211 0.999154 14.3428 104.207)" fill="#ADADAD" stroke="white" stroke-width="2.85637"/>
</g>
<defs>
<linearGradient id="paint0_linear_1750_50930" x1="75.3968" y1="79.8186" x2="98.6932" y2="127.357" gradientUnits="userSpaceOnUse">
<stop offset="0.701923" stop-color="white"/>
<stop offset="1" stop-color="white" stop-opacity="0"/>
</linearGradient>
<linearGradient id="paint1_linear_1750_50930" x1="76.6146" y1="77.7678" x2="89.0687" y2="123.867" gradientUnits="userSpaceOnUse">
<stop offset="0.673077" stop-color="#5C5C5C"/>
<stop offset="1" stop-color="#C2C2C2" stop-opacity="0"/>
</linearGradient>
<linearGradient id="paint2_linear_1750_50930" x1="92.1467" y1="83.3017" x2="110.136" y2="121.232" gradientUnits="userSpaceOnUse">
<stop offset="0.730769" stop-color="#D8D8D8"/>
<stop offset="1" stop-color="#E5E5E5" stop-opacity="0"/>
</linearGradient>
<linearGradient id="paint3_linear_1750_50930" x1="70.6679" y1="44.3992" x2="100.079" y2="103.429" gradientUnits="userSpaceOnUse">
<stop stop-color="white" stop-opacity="0.8"/>
<stop offset="1" stop-color="white" stop-opacity="0"/>
</linearGradient>
<clipPath id="clip0_1750_50930">
<rect width="160" height="160" fill="white"/>
</clipPath>
<clipPath id="clip1_1750_50930">
<rect width="14.4816" height="14.3486" fill="white" transform="matrix(-0.982187 -0.167606 -0.269673 0.958178 96.6621 69.2031)"/>
</clipPath>
</defs>
</svg>
