<svg width="20" height="20" viewBox="0 0 20 20" fill="none" xmlns="http://www.w3.org/2000/svg">
<circle cx="10" cy="10" r="10" fill="#FF4D4D"/>
<mask id="mask0_3018_4835" style="mask-type:alpha" maskUnits="userSpaceOnUse" x="2" y="2" width="16" height="16">
<rect x="2.5" y="2.5" width="15" height="15" fill="#D9D9D9"/>
</mask>
<g mask="url(#mask0_3018_4835)">
<path d="M10.0033 11.5C9.84484 11.5 9.71094 11.4461 9.60156 11.3383C9.49219 11.2305 9.4375 11.0969 9.4375 10.9375V6.8125C9.4375 6.65312 9.49109 6.51953 9.59828 6.41172C9.70547 6.30391 9.83828 6.25 9.99672 6.25C10.1552 6.25 10.2891 6.30391 10.3984 6.41172C10.5078 6.51953 10.5625 6.65312 10.5625 6.8125V10.9375C10.5625 11.0969 10.5089 11.2305 10.4017 11.3383C10.2945 11.4461 10.1617 11.5 10.0033 11.5ZM10.0033 13.75C9.84484 13.75 9.71094 13.6964 9.60156 13.5892C9.49219 13.482 9.4375 13.3492 9.4375 13.1908C9.4375 13.0323 9.49109 12.8984 9.59828 12.7891C9.70547 12.6797 9.83828 12.625 9.99672 12.625C10.1552 12.625 10.2891 12.6786 10.3984 12.7858C10.5078 12.893 10.5625 13.0258 10.5625 13.1842C10.5625 13.3427 10.5089 13.4766 10.4017 13.5859C10.2945 13.6953 10.1617 13.75 10.0033 13.75Z" fill="white"/>
</g>
</svg>
