<svg width="10" height="10" viewBox="0 0 10 10" fill="none" xmlns="http://www.w3.org/2000/svg">
<path d="M3.9 4.2H4.2C4.37 4.2 4.5125 4.1425 4.6275 4.0275C4.7425 3.9125 4.8 3.77 4.8 3.6V3.3C4.8 3.13 4.7425 2.9875 4.6275 2.8725C4.5125 2.7575 4.37 2.7 4.2 2.7H3.6C3.52 2.7 3.45 2.73 3.39 2.79C3.33 2.85 3.3 2.92 3.3 3V4.8C3.3 4.88 3.33 4.95 3.39 5.01C3.45 5.07 3.52 5.1 3.6 5.1C3.68 5.1 3.75 5.07 3.81 5.01C3.87 4.95 3.9 4.88 3.9 4.8V4.2ZM3.9 3.6V3.3H4.2V3.6H3.9ZM6 5.1C6.17 5.1 6.3125 5.0425 6.4275 4.9275C6.5425 4.8125 6.6 4.67 6.6 4.5V3.3C6.6 3.13 6.5425 2.9875 6.4275 2.8725C6.3125 2.7575 6.17 2.7 6 2.7H5.4C5.32 2.7 5.25 2.73 5.19 2.79C5.13 2.85 5.1 2.92 5.1 3V4.8C5.1 4.88 5.13 4.95 5.19 5.01C5.25 5.07 5.32 5.1 5.4 5.1H6ZM5.7 4.5V3.3H6V4.5H5.7ZM7.5 4.2H7.80363C7.88454 4.2 7.95417 4.17 8.0125 4.11C8.07083 4.05 8.1 3.98 8.1 3.9C8.1 3.82 8.07 3.75 8.01 3.69C7.95 3.63 7.88 3.6 7.8 3.6H7.5V3.3H7.80363C7.88454 3.3 7.95417 3.27 8.0125 3.21C8.07083 3.15 8.1 3.08 8.1 3C8.1 2.92 8.06983 2.85 8.0095 2.79C7.94925 2.73 7.87892 2.7 7.7985 2.7H7.19563C7.11521 2.7 7.04583 2.73 6.9875 2.79C6.92917 2.85 6.9 2.92 6.9 3V4.8C6.9 4.88 6.93 4.95 6.99 5.01C7.05 5.07 7.12 5.1 7.2 5.1C7.28 5.1 7.35 5.07 7.41 5.01C7.47 4.95 7.5 4.88 7.5 4.8V4.2ZM2.7 7.8C2.4525 7.8 2.24063 7.71188 2.06438 7.53562C1.88813 7.35938 1.8 7.1475 1.8 6.9V0.9C1.8 0.6525 1.88813 0.440625 2.06438 0.264375C2.24063 0.0881253 2.4525 0 2.7 0H8.7C8.9475 0 9.15938 0.0881253 9.33563 0.264375C9.51188 0.440625 9.6 0.6525 9.6 0.9V6.9C9.6 7.1475 9.51188 7.35938 9.33563 7.53562C9.15938 7.71188 8.9475 7.8 8.7 7.8H2.7ZM2.7 6.9H8.7V0.9H2.7V6.9ZM0.9 9.6C0.6525 9.6 0.440625 9.51188 0.264375 9.33563C0.088125 9.15938 0 8.9475 0 8.7V2.25C0 2.1225 0.042875 2.01562 0.128625 1.92937C0.214375 1.84312 0.320625 1.8 0.447375 1.8C0.574125 1.8 0.68125 1.84312 0.76875 1.92937C0.85625 2.01562 0.9 2.1225 0.9 2.25V8.7H7.35C7.4775 8.7 7.58438 8.74288 7.67063 8.82862C7.75688 8.91438 7.8 9.02063 7.8 9.14738C7.8 9.27413 7.75688 9.38125 7.67063 9.46875C7.58438 9.55625 7.4775 9.6 7.35 9.6H0.9Z" fill="#5C5C5C"/>
</svg>
