<svg width="9" height="9" viewBox="0 0 9 9" fill="none" xmlns="http://www.w3.org/2000/svg">
<path d="M4.6 6.73412C4.70833 6.62346 4.7625 6.48804 4.7625 6.32788C4.7625 6.16762 4.70804 6.03542 4.59912 5.93125C4.49021 5.82708 4.35687 5.775 4.19912 5.775C4.04137 5.775 3.90625 5.82708 3.79375 5.93125C3.68125 6.03542 3.625 6.16762 3.625 6.32788C3.625 6.48804 3.68029 6.62346 3.79087 6.73412C3.90154 6.84471 4.03696 6.9 4.19712 6.9C4.35737 6.9 4.49167 6.84471 4.6 6.73412ZM5.7375 2.9C5.7375 2.49167 5.59375 2.15625 5.30625 1.89375C5.01875 1.63125 4.65 1.5 4.2 1.5C3.90833 1.5 3.64167 1.56875 3.4 1.70625C3.15833 1.84375 2.9625 2.03333 2.8125 2.275C2.75417 2.36667 2.74792 2.4625 2.79375 2.5625C2.83958 2.6625 2.91633 2.73521 3.024 2.78063C3.11633 2.81854 3.21079 2.82029 3.30737 2.78587C3.40387 2.75154 3.48558 2.68854 3.5525 2.59687C3.63417 2.48229 3.72917 2.39792 3.8375 2.34375C3.94583 2.28958 4.06667 2.2625 4.2 2.2625C4.4185 2.2625 4.59604 2.32383 4.73262 2.4465C4.86921 2.56908 4.9375 2.72442 4.9375 2.9125C4.9375 3.04583 4.89583 3.175 4.8125 3.3C4.72917 3.425 4.575 3.59583 4.35 3.8125C4.14167 4.0125 4.00208 4.17708 3.93125 4.30625C3.86042 4.43542 3.81667 4.59583 3.8 4.7875C3.79167 4.89583 3.82696 4.98958 3.90587 5.06875C3.98479 5.14792 4.08437 5.1875 4.20462 5.1875C4.30988 5.1875 4.40417 5.15 4.4875 5.075C4.57083 5 4.62083 4.90417 4.6375 4.7875C4.65417 4.67083 4.68958 4.56875 4.74375 4.48125C4.79792 4.39375 4.90833 4.275 5.075 4.125C5.31667 3.89167 5.4875 3.68433 5.5875 3.503C5.6875 3.32175 5.7375 3.12075 5.7375 2.9ZM0.9 8.4C0.6525 8.4 0.440625 8.31187 0.264375 8.13562C0.0881249 7.95937 0 7.7475 0 7.5V0.9C0 0.6525 0.0881249 0.440625 0.264375 0.264375C0.440625 0.0881253 0.6525 0 0.9 0H7.5C7.7475 0 7.95937 0.0881253 8.13562 0.264375C8.31187 0.440625 8.4 0.6525 8.4 0.9V7.5C8.4 7.7475 8.31187 7.95937 8.13562 8.13562C7.95937 8.31187 7.7475 8.4 7.5 8.4H0.9ZM0.9 7.5H7.5V0.9H0.9V7.5Z" fill="#FF7733"/>
</svg>
