<svg width="10" height="8" viewBox="0 0 10 8" fill="none" xmlns="http://www.w3.org/2000/svg">
<path d="M3.95 5.475L6.6 3.7875C6.66667 3.74283 6.7 3.67958 6.7 3.59775C6.7 3.51592 6.66667 3.45417 6.6 3.4125L3.95 1.725C3.875 1.675 3.79792 1.67188 3.71875 1.71563C3.63958 1.75938 3.6 1.825 3.6 1.9125V5.2835C3.6 5.37783 3.63958 5.44583 3.71875 5.4875C3.79792 5.52917 3.875 5.525 3.95 5.475ZM0.9 7.2C0.6525 7.2 0.440625 7.11183 0.264375 6.9355C0.088125 6.75917 0 6.54717 0 6.2995V0.8965C0 0.648833 0.088125 0.4375 0.264375 0.2625C0.440625 0.0875 0.6525 0 0.9 0H8.7C8.9475 0 9.15938 0.0881663 9.33563 0.2645C9.51188 0.440833 9.6 0.652833 9.6 0.9005V6.3035C9.6 6.55117 9.51188 6.7625 9.33563 6.9375C9.15938 7.1125 8.9475 7.2 8.7 7.2H0.9ZM0.9 6.3H8.7V0.9H0.9V6.3Z" fill="#5C5C5C"/>
</svg>
