<svg width="10" height="8" viewBox="0 0 10 8" fill="none" xmlns="http://www.w3.org/2000/svg">
<path d="M5.47647 7.07687C5.04522 7.07687 4.6791 6.92633 4.3781 6.62525C4.07701 6.32425 3.92647 5.95813 3.92647 5.52688C3.92647 5.09563 4.07701 4.7295 4.3781 4.4285C4.6791 4.12742 5.04522 3.97688 5.47647 3.97688C5.64314 3.97688 5.80389 4.00542 5.95872 4.0625C6.11356 4.1195 6.25281 4.19675 6.37647 4.29425V0.401875C6.37647 0.290542 6.41581 0.195709 6.49447 0.117375C6.57314 0.0391252 6.66843 0 6.78035 0H8.6961C8.80801 0 8.90293 0.0391252 8.98085 0.117375C9.05868 0.195709 9.0976 0.290542 9.0976 0.401875V0.925C9.0976 1.03633 9.05847 1.13117 8.98022 1.2095C8.90189 1.28775 8.80706 1.32688 8.69572 1.32688H7.02647V5.52688C7.02647 5.95813 6.87597 6.32425 6.57497 6.62525C6.27389 6.92633 5.90772 7.07687 5.47647 7.07687ZM2.0361 2.0865C1.66685 2.45575 1.36076 2.8785 1.11785 3.35475C0.874847 3.83108 0.719722 4.34104 0.652472 4.88463C0.642222 4.98588 0.601139 5.06821 0.529222 5.13163C0.457389 5.19513 0.37668 5.22688 0.287097 5.22688C0.194097 5.22688 0.120847 5.19096 0.0673471 5.11913C0.0138471 5.04738 -0.00777794 4.96504 0.00247206 4.87212C0.0813054 4.23879 0.255805 3.64629 0.525972 3.09463C0.796222 2.54304 1.14639 2.05221 1.57647 1.62213C2.00664 1.19196 2.49672 0.842584 3.04672 0.574001C3.59672 0.305417 4.18839 0.131709 4.82172 0.0528755C4.91464 0.0426255 4.99701 0.0642505 5.06885 0.117751C5.1406 0.171251 5.17647 0.243667 5.17647 0.335001C5.17647 0.426417 5.14476 0.508 5.08135 0.57975C5.01785 0.651583 4.93547 0.692625 4.83422 0.702875C4.29064 0.770125 3.78068 0.92525 3.30435 1.16825C2.8281 1.41117 2.40535 1.71725 2.0361 2.0865ZM3.3476 3.39037C3.13993 3.59804 2.96785 3.82767 2.83135 4.07925C2.69476 4.33092 2.59793 4.6045 2.54085 4.9C2.51376 4.99283 2.46431 5.07054 2.39247 5.13313C2.32064 5.19563 2.23576 5.22688 2.13785 5.22688C2.04826 5.22688 1.97301 5.19304 1.9121 5.12538C1.85118 5.05779 1.83001 4.98329 1.8486 4.90188C1.91076 4.51346 2.03239 4.15208 2.21347 3.81775C2.39456 3.48342 2.61526 3.18612 2.8756 2.92588C3.13585 2.66563 3.4331 2.44496 3.76735 2.26388C4.10168 2.08279 4.46306 1.96117 4.85147 1.899C4.93289 1.88042 5.00743 1.89938 5.0751 1.95588C5.14268 2.01238 5.17647 2.08563 5.17647 2.17563C5.17647 2.26554 5.14522 2.34846 5.08272 2.42438C5.02014 2.50029 4.94243 2.55175 4.8496 2.57875C4.5541 2.63583 4.28181 2.73346 4.03272 2.87163C3.78372 3.00971 3.55535 3.18262 3.3476 3.39037Z" fill="#5C5C5C"/>
</svg>
