<svg width="9" height="9" viewBox="0 0 9 9" fill="none" xmlns="http://www.w3.org/2000/svg">
<path d="M0.9 8.4C0.6525 8.4 0.440625 8.31042 0.264375 8.13125C0.0881249 7.95208 0 7.74167 0 7.5V0.9C0 0.658333 0.0881249 0.447917 0.264375 0.26875C0.440625 0.0895833 0.6525 0 0.9 0H7.5C7.7475 0 7.95937 0.0895833 8.13562 0.26875C8.31187 0.447917 8.4 0.658333 8.4 0.9V7.5C8.4 7.74167 8.31187 7.95208 8.13562 8.13125C7.95937 8.31042 7.7475 8.4 7.5 8.4H0.9ZM0.9 7.5H7.5V0.9H0.9V7.5ZM1.95 6.6H6.45237C6.54246 6.6 6.60833 6.55833 6.65 6.475C6.69167 6.39167 6.68333 6.3125 6.625 6.2375L5.275 4.4375C5.23125 4.37083 5.17292 4.3375 5.1 4.3375C5.02708 4.3375 4.96875 4.37083 4.925 4.4375L3.75 6L3.025 5.0375C2.98125 4.97083 2.92292 4.9375 2.85 4.9375C2.77708 4.9375 2.71875 4.97083 2.675 5.0375L1.77725 6.23787C1.71742 6.31262 1.70937 6.39167 1.75312 6.475C1.79687 6.55833 1.8625 6.6 1.95 6.6ZM2.4 3C2.56667 3 2.70833 2.94167 2.825 2.825C2.94167 2.70833 3 2.56667 3 2.4C3 2.23333 2.94167 2.09167 2.825 1.975C2.70833 1.85833 2.56667 1.8 2.4 1.8C2.23333 1.8 2.09167 1.85833 1.975 1.975C1.85833 2.09167 1.8 2.23333 1.8 2.4C1.8 2.56667 1.85833 2.70833 1.975 2.825C2.09167 2.94167 2.23333 3 2.4 3Z" fill="#5C5C5C"/>
</svg>
