<svg width="20" height="20" viewBox="0 0 20 20" fill="none" xmlns="http://www.w3.org/2000/svg">
<rect width="20" height="20" rx="6" transform="matrix(-1 0 0 1 20 0)" fill="white" fill-opacity="0.06"/>
<mask id="mask0_2171_46689" style="mask-type:alpha" maskUnits="userSpaceOnUse" x="0" y="0" width="20" height="20">
<rect width="20" height="20" transform="matrix(-1 0 0 1 20 0)" fill="#D9D9D9"/>
</mask>
<g mask="url(#mask0_2171_46689)">
<path d="M10.836 9.99967L13.3971 7.43884C13.5123 7.32342 13.5714 7.19572 13.5741 7.05572C13.5768 6.91586 13.5177 6.78551 13.3971 6.66467C13.2762 6.54398 13.1472 6.48363 13.01 6.48363C12.8727 6.48363 12.7437 6.54398 12.6229 6.66467L9.75268 9.53488C9.68865 9.60461 9.64059 9.67822 9.60851 9.75572C9.57643 9.83322 9.56038 9.91627 9.56038 10.0049C9.56038 10.0935 9.57643 10.1762 9.60851 10.253C9.64059 10.3298 9.68865 10.4003 9.75268 10.4645L12.6229 13.3347C12.7383 13.45 12.8625 13.5055 12.9956 13.5013C13.1285 13.497 13.2554 13.4345 13.3762 13.3138C13.4969 13.193 13.5573 13.064 13.5573 12.9268C13.5573 12.7895 13.4969 12.6605 13.3762 12.5397L10.836 9.99967ZM5.75372 6.20801C5.60136 6.20801 5.47233 6.25995 5.36663 6.36384C5.2608 6.46759 5.20788 6.5962 5.20788 6.74967V13.2497C5.20788 13.4031 5.25941 13.5318 5.36247 13.6355C5.46552 13.7394 5.59316 13.7913 5.74538 13.7913C5.89774 13.7913 6.02677 13.7394 6.13247 13.6355C6.2383 13.5318 6.29122 13.4031 6.29122 13.2497V6.74967C6.29122 6.5962 6.23969 6.46759 6.13663 6.36384C6.03358 6.25995 5.90594 6.20801 5.75372 6.20801Z" fill="#DBDBDB"/>
</g>
</svg>
