<svg width="16" height="16" viewBox="0 0 16 16" fill="none" xmlns="http://www.w3.org/2000/svg">
<mask id="mask0_3140_4726" style="mask-type:alpha" maskUnits="userSpaceOnUse" x="0" y="0" width="16" height="16">
<rect width="16" height="16" fill="#D9D9D9"/>
</mask>
<g mask="url(#mask0_3140_4726)">
<path d="M9.99922 12.8C9.66922 12.8 9.38672 12.6825 9.15172 12.4475C8.91672 12.2125 8.79922 11.93 8.79922 11.6V4.4C8.79922 4.07 8.91672 3.7875 9.15172 3.5525C9.38672 3.3175 9.66922 3.2 9.99922 3.2H11.5992C11.9292 3.2 12.2117 3.3175 12.4467 3.5525C12.6817 3.7875 12.7992 4.07 12.7992 4.4V11.6C12.7992 11.93 12.6817 12.2125 12.4467 12.4475C12.2117 12.6825 11.9292 12.8 11.5992 12.8H9.99922ZM4.39922 12.8C4.06922 12.8 3.78672 12.6825 3.55172 12.4475C3.31672 12.2125 3.19922 11.93 3.19922 11.6V4.4C3.19922 4.07 3.31672 3.7875 3.55172 3.5525C3.78672 3.3175 4.06922 3.2 4.39922 3.2H5.99922C6.32922 3.2 6.61172 3.3175 6.84672 3.5525C7.08172 3.7875 7.19922 4.07 7.19922 4.4V11.6C7.19922 11.93 7.08172 12.2125 6.84672 12.4475C6.61172 12.6825 6.32922 12.8 5.99922 12.8H4.39922ZM9.99922 11.6H11.5992V4.4H9.99922V11.6ZM4.39922 11.6H5.99922V4.4H4.39922V11.6Z" fill="white"/>
</g>
</svg>
