<svg width="13" height="13" viewBox="0 0 13 13" fill="none" xmlns="http://www.w3.org/2000/svg">
<path d="M4 12.8H1.2C0.87 12.8 0.5875 12.6825 0.3525 12.4475C0.1175 12.2125 0 11.93 0 11.6V8.8C0.444444 8.77778 0.822222 8.61389 1.13333 8.30833C1.44444 8.00278 1.6 7.63333 1.6 7.2C1.6 6.76667 1.44444 6.39722 1.13333 6.09167C0.822222 5.78611 0.444444 5.62222 0 5.6V2.8C0 2.47 0.1175 2.1875 0.3525 1.9525C0.5875 1.7175 0.87 1.6 1.2 1.6H4C4 1.15556 4.15428 0.777778 4.46283 0.466667C4.7715 0.155556 5.14928 0 5.59617 0C6.04317 0 6.42222 0.154667 6.73333 0.464C7.04445 0.773334 7.2 1.152 7.2 1.6H10C10.33 1.6 10.6125 1.7175 10.8475 1.9525C11.0825 2.1875 11.2 2.47 11.2 2.8V5.6C11.6444 5.6 12.0222 5.75428 12.3333 6.06283C12.6444 6.3715 12.8 6.74928 12.8 7.19617C12.8 7.64317 12.6453 8.02222 12.336 8.33333C12.0267 8.64444 11.648 8.8 11.2 8.8V11.6C11.2 11.93 11.0825 12.2125 10.8475 12.4475C10.6125 12.6825 10.33 12.8 10 12.8H7.2C7.17778 12.3556 7.01456 11.9778 6.71033 11.6667C6.40611 11.3556 6.03667 11.2 5.602 11.2C5.16733 11.2 4.79722 11.3556 4.49167 11.6667C4.18611 11.9778 4.02222 12.3556 4 12.8ZM1.2 11.6H3.06667C3.28889 11.1 3.63056 10.7083 4.09167 10.425C4.55278 10.1417 5.05556 10 5.6 10C6.14444 10 6.64722 10.1417 7.10833 10.425C7.56944 10.7083 7.91111 11.1 8.13333 11.6H10V7.6H11.2C11.3067 7.6 11.4 7.56 11.48 7.48C11.56 7.4 11.6 7.30667 11.6 7.2C11.6 7.09333 11.56 7 11.48 6.92C11.4 6.84 11.3067 6.8 11.2 6.8H10V2.8H6V1.6C6 1.49333 5.96 1.4 5.88 1.32C5.8 1.24 5.70667 1.2 5.6 1.2C5.49333 1.2 5.4 1.24 5.32 1.32C5.24 1.4 5.2 1.49333 5.2 1.6V2.8H1.2V4.66667C1.7 4.88889 2.09167 5.23056 2.375 5.69167C2.65833 6.15278 2.8 6.65556 2.8 7.2C2.8 7.75789 2.65833 8.26678 2.375 8.72667C2.09167 9.18667 1.7 9.52222 1.2 9.73333V11.6Z" fill="#ADADAD"/>
</svg>
