<svg width="16" height="16" viewBox="0 0 16 16" fill="none" xmlns="http://www.w3.org/2000/svg">
<mask id="mask0_1559_26516" style="mask-type:alpha" maskUnits="userSpaceOnUse" x="0" y="0" width="16" height="16">
<rect width="16" height="16" fill="#D9D9D9"/>
</mask>
<g mask="url(#mask0_1559_26516)">
<path d="M10.1341 12.4496L9.58228 14.0064C9.53906 14.1241 9.46539 14.2191 9.36128 14.2913C9.25706 14.3635 9.14245 14.3996 9.01745 14.3996C8.79523 14.3996 8.62578 14.3107 8.50911 14.1329C8.39245 13.9552 8.373 13.7663 8.45078 13.5663L10.8341 7.21628C10.8876 7.09405 10.9677 6.99405 11.0744 6.91628C11.1813 6.8385 11.2989 6.79961 11.4271 6.79961H11.9078C12.036 6.79961 12.1536 6.8385 12.2604 6.91628C12.3672 6.99405 12.4473 7.09405 12.5008 7.21628L14.9008 13.5829C14.9786 13.7829 14.9543 13.9691 14.8279 14.1413C14.7016 14.3135 14.5332 14.3996 14.3228 14.3996C14.1859 14.3996 14.0647 14.3607 13.9591 14.2829C13.8536 14.2052 13.7786 14.1052 13.7341 13.9829L13.1973 12.4496H10.1341ZM6.00078 9.24961L3.23411 11.9829C3.11189 12.1052 2.973 12.1635 2.81745 12.1579C2.66189 12.1524 2.523 12.0885 2.40078 11.9663C2.27856 11.8441 2.21745 11.7052 2.21745 11.5496C2.21745 11.3941 2.27856 11.2552 2.40078 11.1329L5.18411 8.38294C4.78411 7.96072 4.41189 7.52183 4.06745 7.06628C3.723 6.61072 3.423 6.11628 3.16745 5.58294H4.53411C4.73411 5.9385 4.93411 6.24128 5.13411 6.49128C5.33412 6.74128 5.623 7.07739 6.00078 7.49961C6.423 7.03294 6.81189 6.54683 7.16745 6.04128C7.523 5.53572 7.81189 4.9885 8.03411 4.39961H1.40078C1.23078 4.39961 1.08828 4.34244 0.973281 4.22811C0.858281 4.11378 0.800781 3.97211 0.800781 3.80311C0.800781 3.63411 0.858281 3.49128 0.973281 3.37461C1.08828 3.25794 1.23078 3.19961 1.40078 3.19961H5.40078V2.19961C5.40078 2.02961 5.45795 1.88711 5.57228 1.77211C5.68661 1.65711 5.82828 1.59961 5.99728 1.59961C6.16628 1.59961 6.30911 1.65711 6.42578 1.77211C6.54245 1.88711 6.60078 2.02961 6.60078 2.19961V3.19961H10.6008C10.7708 3.19961 10.9133 3.25678 11.0283 3.37111C11.1433 3.48544 11.2008 3.62711 11.2008 3.79611C11.2008 3.96511 11.1433 4.10794 11.0283 4.22461C10.9133 4.34128 10.7708 4.39961 10.6008 4.39961H9.30795C9.06984 5.16628 8.72856 5.87461 8.28411 6.52461C7.83967 7.17461 7.35078 7.79405 6.81745 8.38294L8.33412 9.88294L7.86745 11.1163L6.00078 9.24961ZM10.5341 11.3496H12.8008L11.7008 8.19961L10.5341 11.3496Z" fill="#1F1F1F"/>
</g>
</svg>
