<svg width="16" height="16" viewBox="0 0 16 16" fill="none" xmlns="http://www.w3.org/2000/svg">
<g clip-path="url(#clip0_241_2926)">
<path fill-rule="evenodd" clip-rule="evenodd" d="M8 2C4.68629 2 2 4.68629 2 8C2 11.3137 4.68629 14 8 14C11.3137 14 14 11.3137 14 8C14 4.68629 11.3137 2 8 2ZM1 8C1 4.13401 4.13401 1 8 1C11.866 1 15 4.13401 15 8C15 11.866 11.866 15 8 15C4.13401 15 1 11.866 1 8ZM11.1569 5.89645C11.3521 6.09171 11.3521 6.40829 11.1569 6.60355L7.7981 9.9623C7.5052 10.2552 7.03033 10.2552 6.73744 9.9623L5.14645 8.37131C4.95118 8.17605 4.95118 7.85947 5.14645 7.6642C5.34171 7.46894 5.65829 7.46894 5.85355 7.6642L7.26777 9.07842L10.4498 5.89645C10.645 5.70118 10.9616 5.70118 11.1569 5.89645Z" fill="#51AEFF"/>
</g>
<defs>
<clipPath id="clip0_241_2926">
<rect width="16" height="16" fill="white"/>
</clipPath>
</defs>
</svg>
