<svg width="16" height="16" viewBox="0 0 16 16" fill="none" xmlns="http://www.w3.org/2000/svg">
<path fill-rule="evenodd" clip-rule="evenodd" d="M2.7 0.5C2.3134 0.5 2 0.813401 2 1.2V14.8C2 15.1866 2.3134 15.5 2.7 15.5H13.3C13.6866 15.5 14 15.1866 14 14.8V4.5H11C10.4477 4.5 10 4.05228 10 3.5V0.5H2.7Z" fill="#FF7C67"/>
<path fill-rule="evenodd" clip-rule="evenodd" d="M10.64 8.2382H5.35042L6.07777 7.53891H9.9135L10.64 8.2382ZM6.10942 6.94995C6.02339 6.94995 5.94096 6.96486 5.86248 6.99483C5.78316 7.02512 5.7127 7.07178 5.65134 7.13421L4.44995 8.26662V10.3952C4.44995 10.5753 4.51612 10.7304 4.64664 10.8581C4.77711 10.9857 4.93524 11.05 5.1183 11.05H10.8816C11.0647 11.05 11.2228 10.9857 11.3533 10.8581C11.4838 10.7304 11.55 10.5753 11.55 10.3952V8.26662L10.3483 7.13397C10.2878 7.07407 10.2168 7.02839 10.1357 6.99696C10.0547 6.96558 9.96968 6.94995 9.88087 6.94995H6.10942ZM5.04994 10.3952V8.87417H10.95V10.3952C10.95 10.4169 10.9434 10.4313 10.9317 10.4427C10.9199 10.4542 10.9047 10.461 10.8816 10.461H5.1183C5.09525 10.461 5.07996 10.4542 5.06819 10.4427C5.05651 10.4313 5.04994 10.4169 5.04994 10.3952ZM10.0995 9.22265C9.98538 9.22265 9.88647 9.26224 9.80569 9.34093C9.72481 9.4197 9.6837 9.51687 9.6837 9.62954C9.6837 9.74215 9.72461 9.8394 9.80511 9.91845C9.88561 9.99751 9.98444 10.0373 10.0986 10.0373C10.2128 10.0373 10.3117 9.9977 10.3925 9.91902C10.4733 9.84024 10.5144 9.74307 10.5144 9.6304C10.5144 9.5178 10.4735 9.42054 10.393 9.34149C10.3125 9.26243 10.2137 9.22265 10.0995 9.22265Z" fill="white"/>
<path d="M10.7 4.5H14L10 0.5V3.8C10 4.1866 10.3134 4.5 10.7 4.5Z" fill="#FF9E8F"/>
</svg>
