<svg width="20" height="14" viewBox="0 0 20 14" fill="none" xmlns="http://www.w3.org/2000/svg">
<path d="M2.50777 13.7C2.06927 13.7 1.69169 13.5417 1.37502 13.225C1.05836 12.9083 0.900024 12.5307 0.900024 12.0922V1.90774C0.900024 1.45757 1.05836 1.07707 1.37502 0.766238C1.69169 0.455405 2.06927 0.299988 2.50777 0.299988H6.71603C6.92953 0.299988 7.13502 0.338488 7.33252 0.415488C7.53002 0.492321 7.71086 0.612822 7.87502 0.776988L9.79803 2.69999H17.4923C17.9424 2.69999 18.3229 2.85541 18.6338 3.16624C18.9446 3.47707 19.1 3.85757 19.1 4.30774V12.0922C19.1 12.5307 18.9446 12.9083 18.6338 13.225C18.3229 13.5417 17.9424 13.7 17.4923 13.7H2.50777ZM2.50777 12.4H17.4923C17.5821 12.4 17.6559 12.3712 17.7135 12.3135C17.7712 12.2558 17.8 12.1821 17.8 12.0922V4.30774C17.8 4.2179 17.7712 4.14416 17.7135 4.08649C17.6559 4.02882 17.5821 3.99999 17.4923 3.99999H9.25953L6.94627 1.68649C6.91411 1.65449 6.88044 1.63207 6.84527 1.61924C6.80994 1.60641 6.77302 1.59999 6.73452 1.59999H2.50777C2.41794 1.59999 2.34419 1.62882 2.28652 1.68649C2.22886 1.74416 2.20002 1.8179 2.20002 1.90774V12.0922C2.20002 12.1821 2.22886 12.2558 2.28652 12.3135C2.34419 12.3712 2.41794 12.4 2.50777 12.4Z" fill="#5C5C5C"/>
</svg>
