<svg width="24" height="24" viewBox="0 0 24 24" fill="none" xmlns="http://www.w3.org/2000/svg">
<g clip-path="url(#clip0_1537_10016)">
<rect width="24" height="24" rx="12" fill="#FF4D4D"/>
<mask id="mask0_1537_10016" style="mask-type:alpha" maskUnits="userSpaceOnUse" x="0" y="0" width="24" height="24">
<rect width="24" height="24" fill="#D9D9D9"/>
</mask>
<g mask="url(#mask0_1537_10016)">
<path d="M11.9946 16.5311C12.1936 16.5311 12.3622 16.4638 12.5004 16.3292C12.6385 16.1945 12.7076 16.0277 12.7076 15.8287C12.7076 15.6297 12.6402 15.4611 12.5056 15.323C12.371 15.1848 12.2042 15.1158 12.0052 15.1158C11.8061 15.1158 11.6375 15.1831 11.4994 15.3177C11.3613 15.4523 11.2922 15.6192 11.2922 15.8182C11.2922 16.0172 11.3595 16.1858 11.4942 16.3239C11.6288 16.4621 11.7956 16.5311 11.9946 16.5311ZM11.995 13.2773C12.1777 13.2773 12.3326 13.215 12.4595 13.0904C12.5864 12.9658 12.6499 12.8115 12.6499 12.6273V7.92727C12.6499 7.74312 12.588 7.58875 12.4644 7.46417C12.3408 7.33958 12.1876 7.27729 12.0048 7.27729C11.822 7.27729 11.6672 7.33958 11.5403 7.46417C11.4134 7.58875 11.3499 7.74312 11.3499 7.92727V12.6273C11.3499 12.8115 11.4117 12.9658 11.5354 13.0904C11.659 13.215 11.8122 13.2773 11.995 13.2773ZM12.0085 21.1003C10.7566 21.1003 9.57759 20.8635 8.47145 20.3898C7.3653 19.9162 6.39712 19.2644 5.5669 18.4346C4.73667 17.6047 4.08461 16.6374 3.61073 15.5324C3.13684 14.4275 2.8999 13.2469 2.8999 11.9906C2.8999 10.7343 3.13674 9.55724 3.6104 8.45944C4.08407 7.36162 4.73582 6.39761 5.56565 5.56739C6.3955 4.73716 7.36289 4.0851 8.46783 3.61122C9.57276 3.13733 10.7534 2.90039 12.0097 2.90039C13.266 2.90039 14.443 3.13723 15.5408 3.61089C16.6386 4.08456 17.6026 4.73631 18.4329 5.56614C19.2631 6.39599 19.9151 7.36143 20.389 8.46247C20.8629 9.5635 21.0999 10.7399 21.0999 11.9918C21.0999 13.2437 20.863 14.4227 20.3894 15.5288C19.9157 16.6349 19.2639 17.6031 18.4341 18.4333C17.6043 19.2636 16.6388 19.9156 15.5378 20.3895C14.4367 20.8634 13.2603 21.1003 12.0085 21.1003ZM11.9999 19.8004C14.1665 19.8004 16.0082 19.042 17.5249 17.5254C19.0415 16.0087 19.7999 14.167 19.7999 12.0004C19.7999 9.8337 19.0415 7.99203 17.5249 6.47537C16.0082 4.9587 14.1665 4.20037 11.9999 4.20037C9.83321 4.20037 7.99154 4.9587 6.47488 6.47537C4.95821 7.99203 4.19988 9.8337 4.19988 12.0004C4.19988 14.167 4.95821 16.0087 6.47488 17.5254C7.99154 19.042 9.83321 19.8004 11.9999 19.8004Z" fill="white"/>
</g>
</g>
<defs>
<clipPath id="clip0_1537_10016">
<rect width="24" height="24" rx="12" fill="white"/>
</clipPath>
</defs>
</svg>
