<svg width="24" height="24" viewBox="0 0 24 24" fill="none" xmlns="http://www.w3.org/2000/svg">
<g clip-path="url(#clip0_1537_10007)">
<rect width="24" height="24" rx="12" fill="#3377FF"/>
<mask id="mask0_1537_10007" style="mask-type:alpha" maskUnits="userSpaceOnUse" x="0" y="0" width="24" height="24">
<rect width="24" height="24" fill="#D9D9D9"/>
</mask>
<g mask="url(#mask0_1537_10007)">
<path d="M11.9968 21.1003C10.751 21.1003 9.57494 20.8617 8.46875 20.3843C7.36257 19.907 6.39654 19.2554 5.57068 18.4296C4.74483 17.6037 4.09324 16.6377 3.6159 15.5315C3.13857 14.4253 2.8999 13.2493 2.8999 12.0034C2.8999 10.7424 3.13889 9.56105 3.61685 8.45952C4.0948 7.358 4.74539 6.39527 5.5686 5.57134C6.39184 4.74742 7.35722 4.09629 8.46475 3.61794C9.5723 3.13957 10.7481 2.90039 11.9922 2.90039C12.1932 2.90039 12.353 2.9598 12.4717 3.07862C12.5905 3.19743 12.6499 3.35071 12.6499 3.53844C12.6499 3.72617 12.5905 3.88343 12.4717 4.01022C12.353 4.13698 12.1957 4.20037 11.9999 4.20037C9.83863 4.20037 7.99832 4.95453 6.47895 6.46287C4.95957 7.9712 4.19988 9.81287 4.19988 11.9879C4.19988 14.1629 4.95957 16.0087 6.47895 17.5254C7.99832 19.042 9.83863 19.8004 11.9999 19.8004C14.1832 19.8004 16.029 19.0407 17.5374 17.5213C19.0457 16.0019 19.7999 14.1616 19.7999 12.0004C19.7999 11.8042 19.8634 11.6469 19.9904 11.5283C20.1174 11.4097 20.2747 11.3504 20.4625 11.3504C20.6502 11.3504 20.8034 11.4098 20.922 11.5285C21.0406 11.6473 21.0999 11.8071 21.0999 12.008C21.0999 13.2521 20.8607 14.4279 20.3823 15.5355C19.904 16.643 19.2528 17.6084 18.4289 18.4316C17.605 19.2549 16.6422 19.9054 15.5407 20.3834C14.4392 20.8614 13.2579 21.1003 11.9968 21.1003Z" fill="white"/>
</g>
</g>
<defs>
<clipPath id="clip0_1537_10007">
<rect width="24" height="24" rx="12" fill="white"/>
</clipPath>
</defs>
</svg>
