<svg width="24" height="24" viewBox="0 0 24 24" fill="none" xmlns="http://www.w3.org/2000/svg">
<g clip-path="url(#clip0_1537_10003)">
<rect width="24" height="24" rx="12" fill="#29CC5F"/>
<mask id="mask0_1537_10003" style="mask-type:alpha" maskUnits="userSpaceOnUse" x="0" y="0" width="24" height="24">
<rect width="24" height="24" fill="#D9D9D9"/>
</mask>
<g mask="url(#mask0_1537_10003)">
<path d="M9.87508 14.6909L16.6386 7.95241C16.7706 7.82036 16.918 7.75689 17.0809 7.76201C17.2437 7.76714 17.3943 7.83894 17.5328 7.97741C17.6712 8.11586 17.7405 8.26489 17.7405 8.4245C17.7405 8.5841 17.6712 8.73314 17.5328 8.87161L10.4578 15.9466C10.2937 16.1107 10.1036 16.1927 9.88758 16.1927C9.67156 16.1927 9.4815 16.1107 9.3174 15.9466L6.4674 13.0966C6.33535 12.9646 6.26612 12.8171 6.2597 12.6543C6.2533 12.4915 6.31933 12.3409 6.45778 12.2024C6.59624 12.0639 6.74528 11.9947 6.90488 11.9947C7.06449 11.9947 7.21353 12.0639 7.35198 12.2024L9.87508 14.6909Z" fill="white"/>
</g>
</g>
<defs>
<clipPath id="clip0_1537_10003">
<rect width="24" height="24" rx="12" fill="white"/>
</clipPath>
</defs>
</svg>
