<svg width="24" height="24" viewBox="0 0 24 24" fill="none" xmlns="http://www.w3.org/2000/svg">
<g clip-path="url(#clip0_1537_10012)">
<rect width="24" height="24" rx="12" fill="#FEBE01"/>
<mask id="mask0_1537_10012" style="mask-type:alpha" maskUnits="userSpaceOnUse" x="0" y="0" width="24" height="24">
<rect width="24" height="24" fill="#D9D9D9"/>
</mask>
<g mask="url(#mask0_1537_10012)">
<path d="M12.6499 11.3465V6.65034C12.6499 6.46619 12.588 6.31182 12.4644 6.18724C12.3408 6.06266 12.1876 6.00037 12.0048 6.00037C11.822 6.00037 11.6672 6.06266 11.5403 6.18724C11.4134 6.31182 11.3499 6.46619 11.3499 6.65034V11.5773C11.3499 11.695 11.3717 11.8007 11.4153 11.8944C11.4589 11.9881 11.5191 12.0734 11.5961 12.1504L15.0672 15.6215C15.2082 15.7625 15.3627 15.8305 15.5307 15.8254C15.6986 15.8202 15.855 15.7452 15.9999 15.6004C16.1447 15.4555 16.2172 15.3007 16.2172 15.136C16.2172 14.9712 16.1419 14.8143 15.9915 14.6652L12.6499 11.3465ZM12.0016 21.1003C10.748 21.1003 9.56977 20.8635 8.46675 20.3898C7.36374 19.9162 6.39712 19.2644 5.5669 18.4346C4.73667 17.6047 4.08461 16.6374 3.61073 15.5324C3.13684 14.4275 2.8999 13.2469 2.8999 11.9906C2.8999 10.7343 3.13674 9.55307 3.6104 8.44694C4.08407 7.34079 4.73582 6.37678 5.56565 5.55489C6.3955 4.73299 7.36289 4.0851 8.46783 3.61122C9.57276 3.13733 10.7534 2.90039 12.0097 2.90039C13.266 2.90039 14.4472 3.13922 15.5535 3.61689C16.6597 4.09456 17.622 4.74281 18.4403 5.56164C19.2586 6.38049 19.9065 7.3434 20.3838 8.45037C20.8612 9.55732 21.0999 10.7401 21.0999 11.9987C21.0999 13.2522 20.863 14.4305 20.3894 15.5335C19.9157 16.6365 19.2681 17.6031 18.4466 18.4333C17.6251 19.2636 16.6604 19.9156 15.5526 20.3895C14.4448 20.8634 13.2611 21.1003 12.0016 21.1003ZM12.0118 19.8004C14.1698 19.8004 16.0073 19.0379 17.5243 17.5129C19.0414 15.9879 19.7999 14.1464 19.7999 11.9884C19.7999 9.83049 19.0414 7.99299 17.5243 6.47594C16.0073 4.95889 14.1698 4.20037 12.0118 4.20037C9.85385 4.20037 8.01238 4.95889 6.48738 6.47594C4.96238 7.99299 4.19988 9.83049 4.19988 11.9884C4.19988 14.1464 4.96238 15.9879 6.48738 17.5129C8.01238 19.0379 9.85385 19.8004 12.0118 19.8004Z" fill="white"/>
</g>
</g>
<defs>
<clipPath id="clip0_1537_10012">
<rect width="24" height="24" rx="12" fill="white"/>
</clipPath>
</defs>
</svg>
