<svg width="99" height="92" viewBox="0 0 99 92" fill="none" xmlns="http://www.w3.org/2000/svg">
<path opacity="0.4" d="M87.8781 18.5C82.4083 11.1767 74.8084 5.53732 65.9966 2.5L50.5 46L87.8781 18.5Z" fill="url(#paint0_linear_958_799)"/>
<circle cx="51" cy="46" r="11" fill="url(#paint1_linear_958_799)" stroke="white"/>
<circle cx="51" cy="46" r="23.5" stroke="#1F1F1F"/>
<circle cx="51" cy="46" r="45.5" stroke="#1F1F1F"/>
<path d="M10.001 35.9994C15.5238 35.9994 20.001 31.5225 20.001 26C20.001 20.4776 15.5238 16.0007 10.001 16.0007C4.47813 16.0007 0.000980143 20.4776 0.00098456 26C0.000988977 31.5225 4.47814 35.9994 10.001 35.9994Z" fill="#21D97D"/>
<path d="M11.6795 30.8819H5.68164V21.1421H11.6795V30.8819ZM6.43164 30.1319H10.9295V21.8921H6.43164V30.1319Z" fill="white"/>
<path d="M7.93848 23.7622C7.93848 23.9673 8.01996 24.1641 8.16501 24.3091C8.31006 24.4542 8.50679 24.5356 8.71191 24.5356C8.91704 24.5356 9.11377 24.4542 9.25882 24.3091C9.40386 24.1641 9.48535 23.9673 9.48535 23.7622C9.48535 23.5571 9.40386 23.3604 9.25882 23.2153C9.11377 23.0703 8.91704 22.9888 8.71191 22.9888C8.50679 22.9888 8.31006 23.0703 8.16501 23.2153C8.01996 23.3604 7.93848 23.5571 7.93848 23.7622Z" fill="white"/>
<path d="M7.2417 28.2447H10.2576V28.9947H7.2417V28.2447ZM12.7146 30.7883L12.168 30.2747L13.5353 28.8197L13.5865 23.1831L12.1727 21.7319L12.71 21.2085L14.3392 22.881L14.2826 29.1197L12.7146 30.7883Z" fill="white"/>
<path d="M89 76.9986C94.5228 76.9986 99 72.5218 99 66.9993C99 61.4768 94.5228 57 89 57C83.4771 57 79 61.4768 79 66.9993C79 72.5218 83.4772 76.9986 89 76.9986Z" fill="#3377FF"/>
<path d="M90.6786 71.8812H84.6807V62.1414H90.6786V71.8812ZM85.4307 71.1312H89.9286V62.8914H85.4307V71.1312Z" fill="white"/>
<path d="M86.9375 64.7615C86.9375 64.9666 87.019 65.1633 87.164 65.3084C87.3091 65.4534 87.5058 65.5349 87.7109 65.5349C87.9161 65.5349 88.1128 65.4534 88.2578 65.3084C88.4029 65.1633 88.4844 64.9666 88.4844 64.7615C88.4844 64.5563 88.4029 64.3596 88.2578 64.2146C88.1128 64.0695 87.9161 63.988 87.7109 63.988C87.5058 63.988 87.3091 64.0695 87.164 64.2146C87.019 64.3596 86.9375 64.5563 86.9375 64.7615Z" fill="white"/>
<path d="M86.2407 69.2439H89.2567V69.9939H86.2407V69.2439ZM91.7136 71.7876L91.1671 71.274L92.5343 69.819L92.5855 64.1824L91.1717 62.7311L91.709 62.2078L93.3382 63.8803L93.2816 70.119L91.7136 71.7876Z" fill="white"/>
<defs>
<linearGradient id="paint0_linear_958_799" x1="50.5" y1="24.25" x2="87.8781" y2="24.25" gradientUnits="userSpaceOnUse">
<stop stop-color="#70BCFF"/>
<stop offset="1" stop-color="#91F2E2"/>
</linearGradient>
<linearGradient id="paint1_linear_958_799" x1="40" y1="46" x2="62" y2="46" gradientUnits="userSpaceOnUse">
<stop stop-color="#70BCFF"/>
<stop offset="1" stop-color="#91F2E2"/>
</linearGradient>
</defs>
</svg>
