<svg width="124" height="124" viewBox="0 0 124 124" fill="none" xmlns="http://www.w3.org/2000/svg">
<g clip-path="url(#clip0_1024_13692)">
<circle cx="62" cy="62" r="45" fill="url(#paint0_linear_1024_13692)"/>
<circle cx="62" cy="62" r="44.5571" stroke="url(#paint1_linear_1024_13692)" stroke-opacity="0.3" stroke-width="0.885714"/>
<mask id="mask0_1024_13692" style="mask-type:alpha" maskUnits="userSpaceOnUse" x="38" y="38" width="48" height="48">
<rect x="38" y="38" width="48" height="48" fill="#D9D9D9"/>
</mask>
<g mask="url(#mask0_1024_13692)">
<path d="M61.9892 71.0617C62.3873 71.0617 62.7244 70.9271 63.0007 70.6578C63.277 70.3886 63.4151 70.0549 63.4151 69.6569C63.4151 69.2589 63.2805 68.9217 63.0112 68.6454C62.742 68.3692 62.4083 68.231 62.0103 68.231C61.6122 68.231 61.2751 68.3657 60.9988 68.6349C60.7225 68.9042 60.5844 69.2378 60.5844 69.6358C60.5844 70.0339 60.719 70.371 60.9883 70.6473C61.2575 70.9236 61.5912 71.0617 61.9892 71.0617ZM61.9899 64.5541C62.3554 64.5541 62.6651 64.4295 62.919 64.1803C63.1728 63.9312 63.2997 63.6225 63.2997 63.2541V53.854C63.2997 53.4857 63.1761 53.177 62.9288 52.9278C62.6815 52.6787 62.3751 52.5541 62.0096 52.5541C61.6441 52.5541 61.3344 52.6787 61.0806 52.9278C60.8267 53.177 60.6998 53.4857 60.6998 53.854V63.2541C60.6998 63.6225 60.8234 63.9312 61.0707 64.1803C61.318 64.4295 61.6244 64.5541 61.9899 64.5541ZM62.0169 80.2002C59.5132 80.2002 57.1552 79.7265 54.9429 78.7792C52.7306 77.8319 50.7942 76.5284 49.1338 74.8687C47.4733 73.209 46.1692 71.2742 45.2215 69.0643C44.2737 66.8545 43.7998 64.4933 43.7998 61.9807C43.7998 59.4681 44.2735 57.114 45.2208 54.9184C46.1681 52.7228 47.4716 50.7947 49.1313 49.1343C50.791 47.4738 52.7258 46.1697 54.9357 45.2219C57.1455 44.2742 59.5067 43.8003 62.0193 43.8003C64.5319 43.8003 66.886 44.274 69.0816 45.2213C71.2772 46.1686 73.2053 47.4721 74.8657 49.1318C76.5262 50.7915 77.8303 52.7224 78.7781 54.9244C79.7258 57.1265 80.1997 59.4794 80.1997 61.9831C80.1997 64.4868 79.726 66.8448 78.7787 69.0571C77.8314 71.2694 76.5279 73.2058 74.8682 74.8662C73.2085 76.5267 71.2776 77.8308 69.0756 78.7785C66.8735 79.7263 64.5206 80.2002 62.0169 80.2002ZM61.9998 77.6002C66.3331 77.6002 70.0164 76.0836 73.0498 73.0502C76.0831 70.0169 77.5998 66.3336 77.5998 62.0002C77.5998 57.6669 76.0831 53.9836 73.0498 50.9502C70.0164 47.9169 66.3331 46.4002 61.9998 46.4002C57.6664 46.4002 53.9831 47.9169 50.9498 50.9502C47.9164 53.9836 46.3998 57.6669 46.3998 62.0002C46.3998 66.3336 47.9164 70.0169 50.9498 73.0502C53.9831 76.0836 57.6664 77.6002 61.9998 77.6002Z" fill="#FEBE01"/>
</g>
</g>
<defs>
<linearGradient id="paint0_linear_1024_13692" x1="62" y1="17" x2="62" y2="107" gradientUnits="userSpaceOnUse">
<stop stop-color="#FFFBF2"/>
<stop offset="1" stop-color="#FFECCA"/>
</linearGradient>
<linearGradient id="paint1_linear_1024_13692" x1="62" y1="107" x2="62" y2="17" gradientUnits="userSpaceOnUse">
<stop stop-color="#FFCE8B"/>
<stop offset="1" stop-color="#FFF3D6"/>
</linearGradient>
<clipPath id="clip0_1024_13692">
<rect width="124" height="124" fill="white"/>
</clipPath>
</defs>
</svg>
