<svg width="124" height="124" viewBox="0 0 124 124" fill="none" xmlns="http://www.w3.org/2000/svg">
<g clip-path="url(#clip0_1021_13658)">
<circle cx="62" cy="62" r="45" fill="url(#paint0_linear_1021_13658)"/>
<circle cx="62" cy="62" r="44.5571" stroke="url(#paint1_linear_1021_13658)" stroke-opacity="0.3" stroke-width="0.885714"/>
<mask id="mask0_1021_13658" style="mask-type:alpha" maskUnits="userSpaceOnUse" x="38" y="38" width="48" height="48">
<rect x="38" y="38" width="48" height="48" fill="#D9D9D9"/>
</mask>
<g mask="url(#mask0_1021_13658)">
<path d="M57.2398 68.4306C54.1232 68.4306 51.472 67.3377 49.2862 65.1518C47.1003 62.9659 46.0073 60.3153 46.0073 57.1999C46.0073 54.0846 47.1003 51.4339 49.2862 49.248C51.472 47.0622 54.1227 45.9692 57.238 45.9692C60.3534 45.9692 63.004 47.0622 65.1899 49.248C67.3758 51.4339 68.4688 54.0852 68.4688 57.2017C68.4688 58.5093 68.254 59.7596 67.8245 60.9526C67.395 62.1457 66.8136 63.223 66.0803 64.1845L77.088 75.1922C77.3649 75.4692 77.5066 75.7673 77.513 76.0865C77.5194 76.4057 77.3778 76.7102 77.088 76.9999C76.7983 77.2896 76.4886 77.4345 76.1592 77.4345C75.8297 77.4345 75.5201 77.2896 75.2304 76.9999L64.2226 66.0422C63.2226 66.8012 62.1261 67.389 60.933 67.8056C59.74 68.2223 58.5089 68.4306 57.2398 68.4306ZM57.238 65.8307C59.6483 65.8307 61.6893 64.9948 63.3611 63.323C65.0329 61.6512 65.8688 59.6102 65.8688 57.1999C65.8688 54.7897 65.0329 52.7486 63.3611 51.0768C61.6893 49.405 59.6483 48.5691 57.238 48.5691C54.8278 48.5691 52.7867 49.405 51.1149 51.0768C49.4432 52.7486 48.6073 54.7897 48.6073 57.1999C48.6073 59.6102 49.4432 61.6512 51.1149 63.323C52.7867 64.9948 54.8278 65.8307 57.238 65.8307Z" fill="#51AEFF"/>
</g>
</g>
<defs>
<linearGradient id="paint0_linear_1021_13658" x1="62" y1="17" x2="62" y2="107" gradientUnits="userSpaceOnUse">
<stop stop-color="#F5FAFF"/>
<stop offset="1" stop-color="#E6EDFF"/>
</linearGradient>
<linearGradient id="paint1_linear_1021_13658" x1="62" y1="107" x2="62" y2="17" gradientUnits="userSpaceOnUse">
<stop stop-color="#2698FE"/>
<stop offset="1" stop-color="#2698FE" stop-opacity="0.3"/>
</linearGradient>
<clipPath id="clip0_1021_13658">
<rect width="124" height="124" fill="white"/>
</clipPath>
</defs>
</svg>
