<svg width="100" height="94" viewBox="0 0 100 94" fill="none" xmlns="http://www.w3.org/2000/svg">
<path d="M71.5 93H84C90.6274 93 96 87.6274 96 81V69M96 25V13C96 6.37259 90.6274 1 84 1H71.5M27.5 1H16C9.37259 1 4 6.37259 4 13V25M27.5 93H16C9.37259 93 4 87.6274 4 81V69" stroke="black"/>
<path d="M44.6667 15H18V41.6667H44.6667V15ZM23.3333 20.3333H39.3333V36.3333H23.3333V20.3333ZM34 63H28.6667V68.3333H34V63Z" fill="#252525"/>
<g clip-path="url(#clip0_842_15963)">
<path d="M30.5522 24.9138C28.8995 24.9138 27.5596 26.2505 27.5596 27.8996C27.5596 29.1787 28.3659 30.2698 29.4989 30.6949C30.1608 30.3343 30.8566 29.8893 31.5473 29.3827C31.1521 29.8387 30.5461 30.3388 29.8089 30.7924C30.0465 30.853 30.2955 30.8853 30.5522 30.8853C32.2048 30.8853 33.5448 29.5486 33.5448 27.8996C33.5448 26.2505 32.2048 24.9138 30.5522 24.9138Z" fill="url(#paint0_linear_842_15963)"/>
<path d="M35.3932 24.3968C34.9937 23.8707 33.567 24.2339 31.8406 25.2045C31.9248 25.2446 32.007 25.2887 32.0866 25.3365C33.2334 24.7706 34.1388 24.597 34.4181 24.965C34.8645 25.553 33.5445 27.3009 31.4699 28.8691C29.395 30.4374 27.3512 31.2319 26.9048 30.6438C26.6495 30.3077 26.9719 29.5924 27.6822 28.7484C27.6544 28.6549 27.6311 28.5593 27.6126 28.4621C26.3641 29.7612 25.7316 30.9191 26.1081 31.4148C26.6619 32.1444 29.1896 31.1647 31.7536 29.2267C34.3177 27.2887 35.9471 25.1262 35.3932 24.3968Z" fill="url(#paint1_linear_842_15963)"/>
<path d="M34.1774 29.387C34.1778 29.8981 34.5929 30.3123 35.1052 30.3127C34.5929 30.3131 34.1778 30.7273 34.1774 31.2385C34.177 30.7273 33.7618 30.3131 33.2495 30.3127C33.7618 30.3123 34.177 29.8981 34.1774 29.387Z" fill="#FF4751"/>
<path d="M28.0609 23.7397C28.0611 24.0994 28.3532 24.3908 28.7137 24.391C28.3532 24.3912 28.0611 24.6826 28.0609 25.0423C28.0608 24.6826 27.7687 24.3912 27.4082 24.391C27.7687 24.3908 28.0608 24.0994 28.0609 23.7397Z" fill="#FF4852"/>
<path d="M33.7271 30.7084C32.9685 31.4791 31.9124 31.9572 30.7441 31.9572C29.9541 31.9572 29.2155 31.7385 28.5852 31.3587C28.4703 31.4085 28.3571 31.4553 28.2462 31.4983C28.2312 31.5042 28.2165 31.5095 28.2017 31.5152C29.0236 32.1746 30.0677 32.5694 31.2046 32.5694C32.3414 32.5694 33.3482 32.1889 34.1631 31.5505C34.1166 31.2207 33.9581 30.9269 33.7271 30.7083V30.7084Z" fill="#FBB13F"/>
<path d="M34.4517 29.7159C34.6536 29.994 34.9527 30.1973 35.2995 30.2761C35.744 29.5504 36.0003 28.6974 36.0003 27.7848C36.0003 26.9891 35.8054 26.2388 35.4609 25.5786C35.3285 25.8493 35.1398 26.1481 34.8952 26.4728C34.8537 26.5279 34.8106 26.5836 34.7664 26.6395C34.8702 27.0035 34.9261 27.3877 34.9261 27.7848C34.9261 28.4817 34.7546 29.1386 34.4519 29.7159H34.4517Z" fill="#FBB13F"/>
<path d="M34.1958 31.5243C34.606 31.1974 34.9613 30.8048 35.2454 30.3623C34.7022 30.5081 34.2859 30.9619 34.1958 31.5243Z" fill="#FBB13F"/>
<path d="M27.83 24.7925C27.7715 24.7191 27.7035 24.6535 27.6277 24.5977C26.8698 25.4439 26.4087 26.5605 26.4087 27.7847C26.4087 28.3082 26.4933 28.8118 26.6489 29.2832C26.6912 29.2279 26.7349 29.1724 26.7798 29.1165C26.6387 28.6983 26.5623 28.2504 26.5623 27.7847C26.5623 26.6109 27.0483 25.5506 27.8302 24.7925H27.83Z" fill="#FBB13F"/>
<path d="M31.2046 23C30.1079 23 29.0976 23.3674 28.2896 23.9854C28.3646 24.0805 28.4555 24.1624 28.5584 24.2272C29.1944 23.8374 29.9429 23.6125 30.7441 23.6125C31.6331 23.6125 32.4571 23.8894 33.1347 24.3612C33.1752 24.3449 33.2154 24.3287 33.2554 24.3133C33.5955 24.1816 33.9034 24.0873 34.1776 24.0305C33.3604 23.3853 32.3278 23 31.2046 23Z" fill="#FBB13F"/>
</g>
<path d="M44.6667 52.3334H18V79.0001H44.6667V52.3334ZM23.3333 57.6667H39.3333V73.6667H23.3333V57.6667ZM66 25.6667H71.3333V31.0001H66V25.6667Z" fill="#252525"/>
<path d="M55.3333 15H82V41.6667H55.3333V15ZM60.6667 20.3333V36.3333H76.6667V20.3333H60.6667ZM50 47V57.6667H55.3333V63H50V68.3333H60.6667V57.6667H66V68.3333H71.3333V63H82V57.6667H66V47H50ZM60.6667 57.6667H55.3333V52.3333H60.6667V57.6667ZM82 68.3333H76.6667V73.6667H66V79H82V68.3333ZM60.6667 79V73.6667H50V79H60.6667Z" fill="#252525"/>
<path d="M71.3335 52.3333H82.0002V47H71.3335V52.3333Z" fill="#252525"/>
<line y1="46.5" x2="100" y2="46.5" stroke="#FF7733"/>
<path opacity="0.1" d="M0 47H100V82C100 88.6274 94.6274 94 88 94H12C5.37258 94 0 88.6274 0 82V47Z" fill="url(#paint2_linear_842_15963)"/>
<defs>
<linearGradient id="paint0_linear_842_15963" x1="27.5596" y1="27.8996" x2="33.5446" y2="27.8996" gradientUnits="userSpaceOnUse">
<stop stop-color="#FBB13F"/>
<stop offset="0.16" stop-color="#FBA740"/>
<stop offset="0.43" stop-color="#FC8E44"/>
<stop offset="0.78" stop-color="#FD654B"/>
<stop offset="0.99" stop-color="#FF4751"/>
</linearGradient>
<linearGradient id="paint1_linear_842_15963" x1="26" y1="27.9057" x2="35.5014" y2="27.9057" gradientUnits="userSpaceOnUse">
<stop stop-color="#FBB13F"/>
<stop offset="0.1" stop-color="#FBA740"/>
<stop offset="0.28" stop-color="#FC8E44"/>
<stop offset="0.5" stop-color="#FD654B"/>
<stop offset="0.64" stop-color="#FF4751"/>
</linearGradient>
<linearGradient id="paint2_linear_842_15963" x1="50" y1="47" x2="50" y2="95" gradientUnits="userSpaceOnUse">
<stop stop-color="#FF7733"/>
<stop offset="1" stop-color="#FF7733" stop-opacity="0"/>
</linearGradient>
<clipPath id="clip0_842_15963">
<rect width="10" height="9.56938" fill="white" transform="translate(26 23)"/>
</clipPath>
</defs>
</svg>
