<svg width="84" height="84" viewBox="0 0 84 84" fill="none" xmlns="http://www.w3.org/2000/svg">
<path d="M61.1111 0H22.2222C9.94922 0 0 9.94922 0 22.2222V61.1111C0 73.3841 9.94922 83.3333 22.2222 83.3333H61.1111C73.3841 83.3333 83.3333 73.3841 83.3333 61.1111V22.2222C83.3333 9.94922 73.3841 0 61.1111 0Z" fill="url(#paint0_linear_5920_7517)"/>
<path d="M47.5917 34.8672C50.8645 31.5944 50.8645 26.2895 47.5917 23.0193C44.3215 19.7465 39.0139 19.7465 35.7437 23.0193C32.4709 26.2895 32.4709 31.5944 35.7437 34.8672C39.0139 38.1402 44.3215 38.1402 47.5917 34.8672ZM55.632 45.7005C55.632 45.7005 58.4248 48.4934 58.4248 54.0791V59.6649H64.0106V54.0791C64.0106 49.4507 60.2605 45.7005 55.632 45.7005ZM19.3247 54.0791V59.6649H24.9104V54.0791C24.9104 48.4934 27.7033 45.7005 27.7033 45.7005C23.0748 45.7005 19.3247 49.4507 19.3247 54.0791ZM64.0106 37.3219C64.0106 34.24 61.5068 31.7362 58.4248 31.7362C55.3428 31.7362 52.8391 34.24 52.8391 37.3219C52.8391 40.4038 55.3428 42.9076 58.4248 42.9076C61.5068 42.9076 64.0106 40.4038 64.0106 37.3219ZM24.9104 31.7362C21.8285 31.7362 19.3247 34.24 19.3247 37.3219C19.3247 40.4038 21.8285 42.9076 24.9104 42.9076C27.9924 42.9076 30.4962 40.4038 30.4962 37.3219C30.4962 34.24 27.9924 31.7362 24.9104 31.7362ZM41.7795 42.9076H41.5558C35.4437 42.9076 30.4961 47.8606 30.4961 53.9673V59.6649H52.8392V53.9673C52.8392 47.8606 47.8889 42.9076 41.7795 42.9076Z" fill="white"/>
<defs>
<linearGradient id="paint0_linear_5920_7517" x1="41.6667" y1="0" x2="41.6667" y2="83.3333" gradientUnits="userSpaceOnUse">
<stop stop-color="#FF9549"/>
<stop offset="1" stop-color="#FF660F"/>
</linearGradient>
</defs>
</svg>
