<svg width="20" height="20" viewBox="0 0 20 20" fill="none" xmlns="http://www.w3.org/2000/svg">
<g clip-path="url(#clip0_4160_78898)">
<path d="M14.6667 0H5.33333C2.38781 0 0 2.38781 0 5.33333V14.6667C0 17.6122 2.38781 20 5.33333 20H14.6667C17.6122 20 20 17.6122 20 14.6667V5.33333C20 2.38781 17.6122 0 14.6667 0Z" fill="url(#paint0_linear_4160_78898)"/>
<path d="M7.02896 7.97587C7.65183 7.4076 8.51934 7 9.5 7C11.3495 7 12.8848 8.45414 13.0514 10.3302C14.1462 10.4939 15 11.463 15 12.6529C15 13.9596 13.9704 15 12.7227 15H6.59961C5.17393 15 4 13.8116 4 12.3223C4 11.0401 4.87028 9.97827 6.02278 9.70909C6.1208 9.08124 6.5024 8.45627 7.02896 7.97587Z" fill="white"/>
<path d="M11.5 5.59961C13.0967 5.59961 14.4684 6.6834 14.7607 8.16504C15.6891 8.42012 16.4002 9.23193 16.4004 10.2393C16.4004 10.8502 16.1398 11.3893 15.7275 11.7764C15.612 11.5194 15.4611 11.2856 15.2852 11.0781C15.482 10.8447 15.5996 10.5528 15.5996 10.2393C15.5994 9.56861 15.0713 8.99228 14.3516 8.89355L14.0381 8.85059L14.0078 8.53613C13.8931 7.35222 12.8259 6.40039 11.5 6.40039C11.4141 6.40039 11.3294 6.4034 11.2461 6.41113C10.8107 6.19516 10.336 6.05777 9.83789 6.01465C10.3185 5.76104 10.8844 5.59961 11.5 5.59961Z" fill="white"/>
</g>
<defs>
<linearGradient id="paint0_linear_4160_78898" x1="10" y1="0" x2="10" y2="20" gradientUnits="userSpaceOnUse">
<stop stop-color="#49B0FF"/>
<stop offset="1" stop-color="#257CFF"/>
</linearGradient>
<clipPath id="clip0_4160_78898">
<rect width="20" height="20" fill="white"/>
</clipPath>
</defs>
</svg>
