<svg width="34" height="34" viewBox="0 0 34 34" fill="none" xmlns="http://www.w3.org/2000/svg">
<g clip-path="url(#clip0_5167_18199)">
<path d="M24.7777 0.333496H9.22214C4.31294 0.333496 0.333252 4.31318 0.333252 9.22238V24.7779C0.333252 29.6871 4.31294 33.6668 9.22214 33.6668H24.7777C29.6869 33.6668 33.6666 29.6871 33.6666 24.7779V9.22238C33.6666 4.31318 29.6869 0.333496 24.7777 0.333496Z" fill="url(#paint0_linear_5167_18199)"/>
<path d="M25.2917 16.2074C23.8001 16.1824 22.2084 14.5823 23.0584 12.6907C20.5751 13.524 18.2501 11.3657 18.7334 8.89068C12.7917 7.64068 8.66675 12.5323 8.66675 17.049C8.66675 21.649 12.4001 25.3824 17.0001 25.3824C21.9084 25.3824 25.7834 21.149 25.2917 16.2074ZM14.0834 19.549C13.3917 19.549 12.8334 18.9907 12.8334 18.299C12.8334 17.6074 13.3917 17.049 14.0834 17.049C14.7751 17.049 15.3334 17.6074 15.3334 18.299C15.3334 18.9907 14.7751 19.549 14.0834 19.549ZM15.7501 15.3823C15.0584 15.3823 14.5001 14.824 14.5001 14.1323C14.5001 13.4407 15.0584 12.8823 15.7501 12.8823C16.4417 12.8823 17.0001 13.4407 17.0001 14.1323C17.0001 14.824 16.4417 15.3823 15.7501 15.3823ZM19.5001 20.3824C19.0417 20.3824 18.6667 20.0073 18.6667 19.549C18.6667 19.0907 19.0417 18.7157 19.5001 18.7157C19.9584 18.7157 20.3334 19.0907 20.3334 19.549C20.3334 20.0073 19.9584 20.3824 19.5001 20.3824Z" fill="white"/>
</g>
<defs>
<linearGradient id="paint0_linear_5167_18199" x1="16.9999" y1="0.333496" x2="16.9999" y2="33.6668" gradientUnits="userSpaceOnUse">
<stop stop-color="#80DB32"/>
<stop offset="1" stop-color="#34C011"/>
</linearGradient>
<clipPath id="clip0_5167_18199">
<rect width="33.3333" height="33.3333" fill="white" transform="translate(0.333252 0.333496)"/>
</clipPath>
</defs>
</svg>
