<svg width="20" height="20" viewBox="0 0 20 20" fill="none" xmlns="http://www.w3.org/2000/svg">
<g clip-path="url(#clip0_4283_50597)">
<path d="M14.6667 0H5.33333C2.38781 0 0 2.38781 0 5.33333V14.6667C0 17.6122 2.38781 20 5.33333 20H14.6667C17.6122 20 20 17.6122 20 14.6667V5.33333C20 2.38781 17.6122 0 14.6667 0Z" fill="url(#paint0_linear_4283_50597)"/>
<g clip-path="url(#clip1_4283_50597)">
<path d="M10.3143 12.3161C10.3143 12.5002 10.4635 12.6495 10.6476 12.6495H13.103C13.2871 12.6495 13.4364 12.5002 13.4364 12.3161V11.7309C13.4364 11.5468 13.2871 11.3975 13.103 11.3975H10.6476C10.4635 11.3975 10.3143 11.5468 10.3143 11.7309V12.3161ZM6.85553 8.19813C6.72535 8.3283 6.72535 8.53935 6.85553 8.66953L8.06559 9.87959C8.13068 9.94468 8.13068 10.0502 8.06559 10.1153L6.85553 11.3254C6.72535 11.4555 6.72535 11.6666 6.85553 11.7968L7.26788 12.2091C7.39815 12.3394 7.6094 12.3393 7.73953 12.2089L9.71138 10.2329C9.84123 10.1028 9.84123 9.89211 9.71138 9.76199L7.73953 7.78602C7.6094 7.65561 7.39815 7.6555 7.26788 7.78577L6.85553 8.19813ZM6.25192 5H13.7481C14.4379 5 15 5.56208 15 6.25192V13.7481C15 14.4379 14.4379 15 13.7481 15H6.25192C5.56208 15 5 14.4379 5 13.7481V6.25192C5.00511 5.55697 5.56208 5 6.25192 5Z" fill="white"/>
</g>
</g>
<defs>
<linearGradient id="paint0_linear_4283_50597" x1="10" y1="0" x2="10" y2="20" gradientUnits="userSpaceOnUse">
<stop stop-color="#32DBA8"/>
<stop offset="1" stop-color="#00A9A6"/>
</linearGradient>
<clipPath id="clip0_4283_50597">
<rect width="20" height="20" fill="white"/>
</clipPath>
<clipPath id="clip1_4283_50597">
<rect width="12" height="12" fill="white" transform="translate(4 4)"/>
</clipPath>
</defs>
</svg>
