<svg width="40" height="40" viewBox="0 0 40 40" fill="none" xmlns="http://www.w3.org/2000/svg">
<g clip-path="url(#clip0_5489_83965)">
<path d="M29.3333 0H10.6667C4.77563 0 0 4.77563 0 10.6667V29.3333C0 35.2244 4.77563 40 10.6667 40H29.3333C35.2244 40 40 35.2244 40 29.3333V10.6667C40 4.77563 35.2244 0 29.3333 0Z" fill="url(#paint0_linear_5489_83965)"/>
<path d="M21.0267 17.8008H18.9734C18.3254 17.8008 17.8 18.3261 17.8 18.9741V21.0274C17.8 21.6755 18.3254 22.2008 18.9734 22.2008H21.0267C21.6747 22.2008 22.2 21.6755 22.2 21.0274V18.9741C22.2 18.3261 21.6747 17.8008 21.0267 17.8008Z" fill="url(#paint1_linear_5489_83965)"/>
<path d="M28.129 24.1328H28.1812C28.6735 24.1631 29.0475 24.5852 29.02 25.0761L28.9375 26.4937C28.9003 27.1322 28.6204 27.7323 28.1552 28.1712C27.6899 28.6101 27.0745 28.8546 26.435 28.8546H13.565C12.9254 28.8546 12.31 28.6101 11.8447 28.1712C11.3795 27.7323 11.0996 27.1322 11.0625 26.4937L10.9786 25.0238C10.9786 24.5316 11.3773 24.1328 11.8696 24.1328C12.3921 24.1328 12.8156 24.5563 12.8156 25.0774V25.5986C12.8156 25.9632 12.9604 26.313 13.2183 26.5708C13.4762 26.8287 13.8259 26.9736 14.1906 26.9736H25.8093C26.174 26.9736 26.5237 26.8287 26.7816 26.5708C27.0395 26.313 27.1843 25.9632 27.1843 25.5986V25.0788C27.1843 24.5563 27.6065 24.1328 28.129 24.1328ZM15.2205 15.8457L15.4267 16.0519V17.2482L15.2205 17.4544H11.7747V18.6548H14.6787L14.885 18.8611V20.0587L14.6787 20.2649H11.7747V21.5231H15.2205L15.4267 21.7293V22.9269L15.2205 23.1332H10.0312L9.82495 22.9269V16.0519L10.0312 15.8457H15.2205ZM18.097 15.8457L18.262 15.9282L21.0106 19.6379V16.0519L21.2168 15.8457H22.7555L22.9617 16.0519V22.9269L22.7555 23.1332H21.3832L21.2182 23.0507L18.4682 19.3313V22.9269L18.262 23.1332H16.7261L16.5198 22.9269V16.0519L16.7261 15.8457H18.0983H18.097ZM25.3776 15.8457L25.5591 15.9557L26.8461 20.2113L28.1152 15.9557L28.2981 15.8457H30.3276L27.8072 22.9269L27.601 23.1332H26.0747L25.8685 22.9269L23.3467 15.8457H25.3776ZM26.435 10.3828C27.7632 10.3828 28.8605 11.4182 28.9375 12.7437L29.02 14.1599C29.0324 14.3736 28.9678 14.5847 28.8379 14.7547C28.7079 14.9248 28.5213 15.0426 28.3118 15.0867L28.1551 15.1046H28.129C27.8783 15.1046 27.6379 15.0051 27.4605 14.828C27.2831 14.6509 27.1833 14.4106 27.183 14.1599V13.6388C27.183 13.2741 27.0381 12.9244 26.7802 12.6665C26.5224 12.4087 26.1726 12.2638 25.808 12.2638H14.1892C13.8245 12.2638 13.4748 12.4087 13.2169 12.6665C12.9591 12.9244 12.8142 13.2741 12.8142 13.6388V14.1613C12.8142 14.6824 12.3921 15.1046 11.8696 15.1046C11.6333 15.1046 11.4066 15.0107 11.2395 14.8436C11.0724 14.6765 10.9786 14.4499 10.9786 14.2136L11.0625 12.7437C11.0996 12.1052 11.3795 11.505 11.8447 11.0661C12.31 10.6272 12.9254 10.3828 13.565 10.3828H26.435Z" fill="white"/>
</g>
<defs>
<linearGradient id="paint0_linear_5489_83965" x1="20" y1="0" x2="20" y2="40" gradientUnits="userSpaceOnUse">
<stop stop-color="#77C4FF"/>
<stop offset="1" stop-color="#2B9EFF"/>
</linearGradient>
<linearGradient id="paint1_linear_5489_83965" x1="20" y1="17.8008" x2="20" y2="22.2008" gradientUnits="userSpaceOnUse">
<stop stop-color="#77C4FF"/>
<stop offset="1" stop-color="#2B9EFF"/>
</linearGradient>
<clipPath id="clip0_5489_83965">
<rect width="40" height="40" fill="white"/>
</clipPath>
</defs>
</svg>
