<svg width="84" height="84" viewBox="0 0 84 84" fill="none" xmlns="http://www.w3.org/2000/svg">
<path d="M61.1109 0H22.222C9.94898 0 -0.000244141 9.94922 -0.000244141 22.2222V61.1111C-0.000244141 73.3841 9.94898 83.3333 22.222 83.3333H61.1109C73.3839 83.3333 83.3331 73.3841 83.3331 61.1111V22.2222C83.3331 9.94922 73.3839 0 61.1109 0Z" fill="url(#paint0_linear_5673_7861)"/>
<path d="M49.271 31.2518H54.7086C55.375 31.2518 55.711 30.4342 55.235 29.9638L48.8398 23.563C48.3694 23.0926 47.5686 23.4286 47.5686 24.1006V29.527C47.563 31.1678 49.271 31.2518 49.271 31.2518Z" fill="white"/>
<path d="M55.5039 34.0681H48.9631C48.9631 34.0681 44.7799 33.7433 44.7799 29.8401V23.1929C44.7799 22.5097 44.2311 21.9609 43.5591 21.9609H28.0023C28.0023 21.9609 26.6079 22.0561 26.6079 23.3721V59.9681C26.6079 59.9681 26.7031 61.3793 28.0023 61.3793H55.3303C55.3303 61.3793 56.7247 61.3849 56.7247 59.9681V35.3001C56.7247 34.6169 56.1759 34.0681 55.5039 34.0681ZM48.2855 53.4553H35.1031C34.4311 53.4553 33.8823 52.9009 33.8823 52.2233C33.8823 51.5457 34.4311 50.9913 35.1031 50.9913H48.2855C48.9575 50.9913 49.5063 51.5457 49.5063 52.2233C49.5063 52.9009 48.9575 53.4553 48.2855 53.4553ZM48.2855 47.2393H35.1031C34.4311 47.2393 33.8823 46.6849 33.8823 46.0073C33.8823 45.3297 34.4311 44.7753 35.1031 44.7753H48.2855C48.9575 44.7753 49.5063 45.3297 49.5063 46.0073C49.5063 46.6849 48.9575 47.2393 48.2855 47.2393ZM48.2855 41.0177H35.1031C34.4311 41.0177 33.8823 40.4633 33.8823 39.7857C33.8823 39.1081 34.4311 38.5537 35.1031 38.5537H48.2855C48.9575 38.5537 49.5063 39.1081 49.5063 39.7857C49.5063 40.4633 48.9575 41.0177 48.2855 41.0177Z" fill="white"/>
<defs>
<linearGradient id="paint0_linear_5673_7861" x1="41.6664" y1="0" x2="41.6664" y2="83.3333" gradientUnits="userSpaceOnUse">
<stop stop-color="#49B0FF"/>
<stop offset="1" stop-color="#1694FF"/>
</linearGradient>
</defs>
</svg>
