<svg width="20" height="20" viewBox="0 0 20 20" fill="none" xmlns="http://www.w3.org/2000/svg">
<g clip-path="url(#clip0_4283_50531)">
<path d="M14.6667 0H5.33333C2.38781 0 0 2.38781 0 5.33333V14.6667C0 17.6122 2.38781 20 5.33333 20H14.6667C17.6122 20 20 17.6122 20 14.6667V5.33333C20 2.38781 17.6122 0 14.6667 0Z" fill="url(#paint0_linear_4283_50531)"/>
<path d="M15.251 5.43164C15.6651 5.43164 16.0017 5.76762 16.002 6.18164V12.9951C16.0018 13.2617 15.7861 13.4774 15.5195 13.4775H14.5557V14.0928C14.5557 14.3594 14.3398 14.575 14.0732 14.5752H11.416C11.1492 14.5752 10.9336 14.3595 10.9336 14.0928V13.4775H9.38184V14.0928C9.38184 14.3595 9.16619 14.5752 8.89941 14.5752H6.05371C5.78694 14.5752 5.57129 14.3595 5.57129 14.0928V13.4775H4.48535C4.21866 13.4775 4.00208 13.2618 4.00195 12.9951V7.58008C4.00202 7.44477 4.0587 7.31474 4.15918 7.22363L5.97852 5.55762C6.06687 5.47729 6.18323 5.43176 6.30371 5.43164H15.251ZM12.2529 7.45117C11.0643 7.45118 10.0958 8.41876 10.0957 9.60742C10.0957 10.7961 11.0628 11.7646 12.2529 11.7646C13.4431 11.7646 14.4102 10.7962 14.4102 9.60742C14.4101 8.41875 13.4416 7.45117 12.2529 7.45117ZM6.10742 10.293C5.82009 10.293 5.58496 10.5266 5.58496 10.8154C5.58511 11.1041 5.81873 11.3378 6.10742 11.3379H8.77246C9.06117 11.3379 9.29477 11.1041 9.29492 10.8154C9.29492 10.5266 9.06126 10.293 8.77246 10.293H6.10742ZM12.2529 8.49414C12.8669 8.49414 13.3652 8.99394 13.3652 9.60645C13.365 10.2188 12.8653 10.7178 12.2529 10.7178C11.6405 10.7178 11.1418 10.2188 11.1416 9.60645C11.1416 8.99394 11.639 8.49415 12.2529 8.49414ZM6.10742 8.58984C5.82019 8.58991 5.58513 8.82365 5.58496 9.1123C5.58496 9.4011 5.81864 9.6347 6.10742 9.63477H7.73633C8.02504 9.63462 8.25879 9.40105 8.25879 9.1123C8.25862 8.8237 8.02494 8.58999 7.73633 8.58984H6.10742Z" fill="white"/>
</g>
<defs>
<linearGradient id="paint0_linear_4283_50531" x1="10" y1="0" x2="10" y2="20" gradientUnits="userSpaceOnUse">
<stop stop-color="#FF8C85"/>
<stop offset="1" stop-color="#FA5032"/>
</linearGradient>
<clipPath id="clip0_4283_50531">
<rect width="20" height="20" fill="white"/>
</clipPath>
</defs>
</svg>
