<svg width="84" height="84" viewBox="0 0 84 84" fill="none" xmlns="http://www.w3.org/2000/svg">
<path d="M61.1106 0H22.2217C9.94873 0 -0.000488281 9.94922 -0.000488281 22.2222V61.1111C-0.000488281 73.3841 9.94873 83.3333 22.2217 83.3333H61.1106C73.3836 83.3333 83.3329 73.3841 83.3329 61.1111V22.2222C83.3329 9.94922 73.3836 0 61.1106 0Z" fill="url(#paint0_linear_5488_53842)"/>
<path d="M25.2236 35.6337C24.3826 37.6927 23.8896 39.9837 23.8896 42.2747C23.8896 44.2177 24.2376 46.1317 24.8466 47.8427C25.9486 46.0447 27.3986 43.9857 29.1966 41.8107C28.9646 41.3177 28.7036 40.7087 28.7036 40.1287C28.7036 39.6357 28.8196 39.2877 28.9356 38.9107C27.2826 37.6637 26.0646 36.5907 25.2236 35.6337ZM31.5166 56.7747C32.1256 56.2817 32.6186 55.8177 33.1986 55.4407C38.1576 51.6997 42.6236 49.5247 46.1326 48.3067C46.1326 48.0747 46.0166 47.8137 46.0166 47.5817V47.2047C44.7986 46.8277 43.4646 46.4797 42.2756 45.9867C39.1436 44.8847 36.4756 43.5797 34.1846 42.3617C33.5756 42.9707 32.7346 43.3187 31.8936 43.3187C31.4006 43.3187 31.0526 43.2027 30.6756 43.0867C28.3846 45.7547 26.8186 48.2777 25.7166 50.2207C27.1666 52.9177 29.1096 55.0637 31.5166 56.7747ZM43.0006 44.2177C44.3346 44.7107 45.6686 45.0587 47.0026 45.4357C47.3506 45.0877 47.7276 44.8267 48.1046 44.7107C47.7276 43.3767 47.2636 42.0427 46.6546 40.7087C45.8137 38.7657 44.8566 36.9677 43.8706 35.4017C43.5226 35.5177 43.2616 35.5177 42.9136 35.5177C42.1886 35.5177 41.4636 35.2857 40.8546 34.7927C39.5206 35.6337 38.1866 36.4747 36.7366 37.5767L34.9386 39.0267C35.0546 39.3747 35.1706 39.8677 35.1706 40.2447V40.7377C37.3166 41.7817 39.9846 43.1157 43.0006 44.2177ZM59.9076 42.2747C59.9076 37.1997 57.7326 32.5017 54.1076 29.3407C52.3096 29.6887 49.5256 30.4427 46.1326 31.8637V32.2117C46.1326 32.9367 45.9006 33.5457 45.5236 34.1547C46.6256 35.8367 47.5826 37.7797 48.5396 39.9547C49.1486 41.5207 49.7576 43.0867 50.2216 44.5367C51.1786 44.7687 52.0196 45.4937 52.5126 46.4797C53.2376 46.5957 53.9626 46.5957 54.6876 46.5957C56.4856 46.7117 58.1966 46.5957 59.5306 46.5957C59.6756 45.0587 59.9076 43.7247 59.9076 42.2747ZM41.8986 29.1087C42.2466 28.9927 42.5076 28.9927 42.8556 28.9927C43.8126 28.9927 44.6536 29.3407 45.2626 30.0947C47.9306 28.8767 50.2216 28.1517 52.0196 27.6877C49.1196 25.7447 45.6106 24.5557 41.8696 24.5557C40.5356 24.5557 39.0856 24.6717 37.8676 25.0487C38.9986 26.0637 40.4486 27.3977 41.8986 29.1087ZM50.1346 57.9637C50.2506 56.1657 50.1346 53.7297 49.5256 50.7137H49.2936C48.4526 50.7137 47.7276 50.4817 47.2346 49.9887C43.8417 51.2067 39.3756 53.2367 34.5326 57.0067C34.1846 57.2387 33.8076 57.6157 33.3146 57.8477C35.8666 59.1817 38.7666 59.9067 41.7826 59.9067C44.7986 60.0227 47.6987 59.2977 50.1346 57.9637ZM26.2096 33.6907C27.0506 34.6477 28.3846 35.9817 30.3276 37.4317C30.8206 37.1997 31.4296 36.9387 32.0096 36.9387C32.6186 36.9387 33.2276 37.0547 33.6916 37.4317L35.4896 35.9817C36.9396 34.8797 38.3896 33.9227 39.7236 33.0817C39.6076 32.8497 39.6076 32.5887 39.6076 32.2407C39.6076 31.5157 39.8396 30.9067 40.2166 30.2977C38.4186 28.2677 36.8236 26.6727 35.5186 25.7157C31.5166 27.1657 28.2686 30.0657 26.2096 33.6907ZM54.2236 48.5387C53.8756 48.5387 53.2666 48.5387 52.4256 48.7707C52.1936 49.2637 51.9326 49.6117 51.5846 49.9887C52.0776 52.6567 52.3096 54.9477 52.3096 56.7457C55.2096 54.6867 57.5006 51.9027 58.8346 48.5387H54.2236Z" fill="white"/>
<path d="M50.1348 17.6252C49.6418 16.1752 48.3368 15.0732 46.6258 15.0732C44.6828 15.0732 43.0008 16.6392 43.0008 18.5822C43.0008 20.5252 44.5668 22.0912 46.6258 22.0912C47.5828 22.0912 48.5688 21.7432 49.1778 20.9892C58.2258 24.1212 64.6348 32.4732 64.6348 42.2462C64.6348 44.6532 64.2868 46.9732 63.5328 49.1482L66.6648 50.9462C67.6218 48.2782 68.2308 45.2622 68.2308 42.2462C68.2598 30.7912 60.6328 21.0182 50.1348 17.6252ZM60.4008 54.6002C58.4578 54.6002 56.7758 56.1662 56.7758 58.1092C56.7758 58.4862 56.8918 58.7182 56.8918 59.0662C52.8898 62.5752 47.5828 64.7502 41.7828 64.7502C35.1418 64.7502 29.0808 61.8502 24.8758 57.3842L21.6278 59.1822C26.4708 64.7502 33.7208 68.2302 41.6958 68.2302C48.4528 68.2302 54.7458 65.6782 59.3278 61.4732C59.5598 61.5892 59.8208 61.5892 60.1688 61.5892C62.1118 61.5892 63.7938 60.0232 63.7938 58.0802C63.7938 56.1372 62.3438 54.6002 60.4008 54.6002ZM19.5688 46.6252C19.3368 45.1752 19.0758 43.8412 19.0758 42.2752C19.0758 31.5162 26.8188 22.5842 37.0848 20.4092V16.7842C24.7598 18.9592 15.4508 29.5732 15.4508 42.2752C15.4508 44.0732 15.6828 45.9002 16.0598 47.5822C15.4508 48.1912 15.1028 49.0322 15.1028 49.9892C15.1028 51.9322 16.6688 53.4982 18.7278 53.4982C20.6708 53.4982 22.3528 51.9322 22.3528 49.9892C22.3238 48.3072 21.1348 46.9732 19.5688 46.6252Z" fill="white"/>
<defs>
<linearGradient id="paint0_linear_5488_53842" x1="41.6662" y1="0" x2="41.6662" y2="83.3333" gradientUnits="userSpaceOnUse">
<stop stop-color="#32DBA8"/>
<stop offset="1" stop-color="#00A9A6"/>
</linearGradient>
</defs>
</svg>
