<svg width="20" height="20" viewBox="0 0 20 20" fill="none" xmlns="http://www.w3.org/2000/svg">
<g clip-path="url(#clip0_4283_50501)">
<path d="M14.6667 0H5.33333C2.38781 0 0 2.38781 0 5.33333V14.6667C0 17.6122 2.38781 20 5.33333 20H14.6667C17.6122 20 20 17.6122 20 14.6667V5.33333C20 2.38781 17.6122 0 14.6667 0Z" fill="url(#paint0_linear_4283_50501)"/>
<path d="M13.8118 8.7736C14.1136 8.7592 14.4238 8.7364 14.7412 8.7046C14.635 8.2846 14.4748 7.8862 14.269 7.5166C14.1466 7.8832 13.9948 8.308 13.8118 8.7736Z" fill="white"/>
<path d="M7.25929 7.68285C7.00789 7.10445 6.82669 6.59265 6.70009 6.18945C6.41809 6.43485 6.16429 6.71205 5.94409 7.01505C6.28129 7.21665 6.71989 7.45125 7.25929 7.68285Z" fill="white"/>
<path d="M8.29416 7.68039C8.60496 7.73739 8.85516 7.96779 8.94036 8.26779C9.87816 8.52399 11.0332 8.73219 12.385 8.78139C12.5032 8.59299 12.6988 8.45799 12.9274 8.42199C13.2286 7.65939 13.4434 7.00839 13.5784 6.56679C12.6748 5.58939 11.3824 4.97559 9.94596 4.97559C9.06156 4.97559 8.23236 5.20839 7.51416 5.61459C7.64856 6.08379 7.89396 6.82419 8.29416 7.68039ZM9.18396 9.30339C9.79296 10.2592 10.489 11.0914 11.2696 11.7958C11.6938 11.1004 12.0592 10.3942 12.3694 9.72459C11.1574 9.68199 10.0906 9.51819 9.18396 9.30339Z" fill="white"/>
<path d="M10.7559 12.589C9.72929 11.6848 8.83169 10.5874 8.08949 9.32021C7.74209 9.29741 7.45469 9.06101 7.35569 8.74061C6.55889 8.43401 5.92709 8.10521 5.46329 7.82861C5.16509 8.46461 4.99829 9.17441 4.99829 9.92321C4.99829 12.2914 6.66209 14.2702 8.88449 14.7556C9.59129 14.1208 10.2135 13.3744 10.7559 12.589ZM11.4939 13.189C11.0829 13.7764 10.6275 14.3446 10.1253 14.8672C11.0949 14.8324 11.9937 14.5192 12.7431 14.0044C12.3111 13.7602 11.8941 13.4884 11.4939 13.189ZM13.6347 9.72401C13.5495 9.81881 13.4415 9.89201 13.3197 9.93641C12.9621 10.7272 12.5283 11.5732 12.0099 12.4066C12.4833 12.7636 12.9843 13.078 13.5111 13.351C14.3667 12.4618 14.8935 11.254 14.8935 9.92321C14.8935 9.82721 14.8899 9.73241 14.8839 9.63821C14.4543 9.68201 14.0379 9.71021 13.6347 9.72401Z" fill="white"/>
<path d="M8.08949 9.32021C7.74209 9.29741 7.45469 9.06101 7.35569 8.74061C6.55889 8.43401 5.92709 8.10521 5.46329 7.82861C5.16509 8.46461 4.99829 9.17441 4.99829 9.92321C4.99829 12.1042 6.41009 13.9534 8.36909 14.6122C8.69309 14.545 9.00869 14.4556 9.31409 14.3452C9.84629 13.8082 10.3269 13.2118 10.7565 12.589C9.72929 11.6848 8.83169 10.5874 8.08949 9.32021ZM13.3197 9.93641C12.9621 10.7272 12.5283 11.5732 12.0099 12.4066C12.0393 12.4288 12.0693 12.4486 12.0987 12.4708C12.7953 11.6992 13.3203 10.771 13.6143 9.74441C13.5327 9.82841 13.4325 9.89561 13.3197 9.93641Z" fill="white"/>
<path d="M5.59483 12.2776C6.93703 12.1762 8.17183 11.692 9.19123 10.9342C8.79403 10.4326 8.42623 9.89379 8.09023 9.32019C7.74283 9.29739 7.45543 9.06099 7.35643 8.74059C6.55963 8.43399 5.92783 8.10519 5.46403 7.82859C5.16583 8.46459 4.99903 9.17439 4.99903 9.92319C4.99757 10.7455 5.20243 11.555 5.59483 12.2776ZM9.18403 9.30339C9.41203 9.66099 9.65203 10.0018 9.90403 10.3246C10.1458 10.0882 10.3696 9.83499 10.5748 9.56559C10.0774 9.49419 9.61243 9.40479 9.18403 9.30339ZM11.9878 5.41659C11.3656 5.13339 10.6744 4.97559 9.94603 4.97559C9.06163 4.97559 8.23243 5.20839 7.51423 5.61459C7.64923 6.08379 7.89463 6.82419 8.29483 7.68039C8.60563 7.73739 8.85583 7.96779 8.94103 8.26779C9.57763 8.44179 10.315 8.59359 11.1454 8.68839C11.6758 7.71579 11.9806 6.60159 11.9878 5.41659Z" fill="white"/>
<path d="M7.1841 8.67219C6.4689 8.38539 5.8929 8.08479 5.4633 7.82859C5.19641 8.39821 5.0412 9.01372 5.0061 9.64179C5.7945 9.44439 6.5289 9.11319 7.1841 8.67219ZM7.5135 5.61459C7.6485 6.08379 7.8939 6.82419 8.2941 7.68039C8.3109 7.68339 8.3265 7.68879 8.3427 7.69299C9.0669 6.93099 9.6189 6.00459 9.9375 4.97559C9.0567 4.97679 8.2299 5.20899 7.5135 5.61459Z" fill="white"/>
</g>
<defs>
<linearGradient id="paint0_linear_4283_50501" x1="10" y1="0" x2="10" y2="20" gradientUnits="userSpaceOnUse">
<stop stop-color="#49B0FF"/>
<stop offset="1" stop-color="#1388EC"/>
</linearGradient>
<clipPath id="clip0_4283_50501">
<rect width="20" height="20" fill="white"/>
</clipPath>
</defs>
</svg>
