<svg width="20" height="20" viewBox="0 0 20 20" fill="none" xmlns="http://www.w3.org/2000/svg">
<g clip-path="url(#clip0_4283_50569)">
<path d="M14.6667 0H5.33333C2.38781 0 0 2.38781 0 5.33333V14.6667C0 17.6122 2.38781 20 5.33333 20H14.6667C17.6122 20 20 17.6122 20 14.6667V5.33333C20 2.38781 17.6122 0 14.6667 0Z" fill="url(#paint0_linear_4283_50569)"/>
<path d="M10.0002 5.5C12.0178 5.50013 13.6925 7.13662 13.8743 9.24707C15.0684 9.43127 16.0001 10.5209 16.0002 11.8594C16.0002 13.3294 14.8769 14.4999 13.5159 14.5H6.83618C5.28103 14.5 4.00047 13.1636 4.00024 11.4883C4.00024 10.0459 4.94919 8.8508 6.2063 8.54785C6.31324 7.84154 6.72954 7.13809 7.30396 6.59766C7.98345 5.95837 8.93045 5.5 10.0002 5.5ZM10.3059 8.00391C10.2637 8.00342 10.2226 8.01917 10.1917 8.04785L8.15356 9.92969L8.13403 9.95117C8.11549 9.97564 8.10369 10.0046 8.10083 10.0352C8.09797 10.0657 8.10376 10.0965 8.11743 10.124C8.13103 10.1514 8.15208 10.1743 8.17798 10.1904C8.20397 10.2065 8.23433 10.2158 8.26489 10.2158H9.37036L9.38208 10.334C9.4045 10.6366 9.38068 10.9535 9.31079 11.2832C9.22594 11.6817 8.85051 12.1616 8.17993 12.7109C8.15258 12.7334 8.13285 12.7645 8.12427 12.7988C8.11574 12.8331 8.11854 12.8697 8.13208 12.9023C8.14564 12.9348 8.16929 12.9624 8.19946 12.9805C8.22983 12.9986 8.26582 13.0065 8.30103 13.0029C9.12263 12.9199 9.81239 12.6046 10.3655 12.0586L10.4436 11.9795C10.8985 11.4983 11.1525 10.9277 11.2034 10.2734L11.2073 10.2158H12.2356C12.2682 10.2157 12.3003 10.2057 12.3274 10.1875C12.3546 10.1692 12.3756 10.1427 12.3879 10.1123C12.4002 10.082 12.4034 10.0486 12.3967 10.0166C12.39 9.98458 12.3733 9.95546 12.3499 9.93262L10.4182 8.0498C10.3881 8.02065 10.3478 8.0045 10.3059 8.00391Z" fill="white"/>
</g>
<defs>
<linearGradient id="paint0_linear_4283_50569" x1="10" y1="0" x2="10" y2="20" gradientUnits="userSpaceOnUse">
<stop stop-color="#80DB32"/>
<stop offset="1" stop-color="#34C011"/>
</linearGradient>
<clipPath id="clip0_4283_50569">
<rect width="20" height="20" fill="white"/>
</clipPath>
</defs>
</svg>
