<svg width="20" height="20" viewBox="0 0 20 20" fill="none" xmlns="http://www.w3.org/2000/svg">
<g clip-path="url(#clip0_5367_60673)">
<path d="M14.6667 0H5.33333C2.38781 0 0 2.38781 0 5.33333V14.6667C0 17.6122 2.38781 20 5.33333 20H14.6667C17.6122 20 20 17.6122 20 14.6667V5.33333C20 2.38781 17.6122 0 14.6667 0Z" fill="url(#paint0_linear_5367_60673)"/>
<g clip-path="url(#clip1_5367_60673)">
<path d="M14.8442 13.8761L13.6861 12.718C14.2782 11.917 14.6352 10.9244 14.6352 9.85344C14.6352 7.20653 12.4846 5.05591 9.83766 5.05591C7.19074 5.05591 5.04883 7.21523 5.04883 9.86215C5.04883 12.5091 7.19945 14.6597 9.84636 14.6597C10.9173 14.6597 11.9099 14.3027 12.711 13.7106L13.869 14.8687C14.0083 15.008 14.1824 15.0689 14.3653 15.0689C14.5481 15.0689 14.7223 14.9993 14.8616 14.8687C15.1141 14.59 15.1141 14.146 14.8442 13.8761ZM9.84636 13.2579C7.97437 13.2579 6.44194 11.7341 6.44194 9.85344C6.44194 7.98145 7.96566 6.44902 9.84636 6.44902C11.7184 6.44902 13.2508 7.97274 13.2508 9.85344C13.2421 11.7341 11.7184 13.2579 9.84636 13.2579Z" fill="white"/>
</g>
</g>
<defs>
<linearGradient id="paint0_linear_5367_60673" x1="10" y1="0" x2="10" y2="20" gradientUnits="userSpaceOnUse">
<stop stop-color="#77C4FF"/>
<stop offset="1" stop-color="#2B9EFF"/>
</linearGradient>
<clipPath id="clip0_5367_60673">
<rect width="20" height="20" fill="white"/>
</clipPath>
<clipPath id="clip1_5367_60673">
<rect width="10" height="10" fill="white" transform="translate(5 5)"/>
</clipPath>
</defs>
</svg>
