<svg width="34" height="34" viewBox="0 0 34 34" fill="none" xmlns="http://www.w3.org/2000/svg">
<g clip-path="url(#clip0_5822_31214)">
<path d="M24.4444 0H8.88888C3.97969 0 0 3.97969 0 8.88888V24.4444C0 29.3536 3.97969 33.3333 8.88888 33.3333H24.4444C29.3536 33.3333 33.3333 29.3536 33.3333 24.4444V8.88888C33.3333 3.97969 29.3536 0 24.4444 0Z" fill="url(#paint0_linear_5822_31214)"/>
<path d="M15.5238 9.66699C16.1271 9.66699 16.3915 10.1191 16.6081 10.6249L16.7238 10.9037C16.9527 11.463 17.1882 12.0006 17.8097 12.0006H23.0659C23.9816 12.0006 24.6667 12.6227 24.6667 13.5555L24.6659 22.1113C24.6659 22.967 23.98 23.667 23.142 23.667H10.1915C9.78602 23.6646 9.39795 23.4995 9.11221 23.208C8.82647 22.9164 8.6663 22.5221 8.66675 22.1113V11.2227C8.66675 10.367 9.3527 9.66699 10.1907 9.66699H15.5238ZM15.7692 16.1043C15.2717 16.1043 14.8353 16.2902 14.4601 16.6628L12.5874 18.551C12.2312 18.942 12.0527 19.3908 12.0527 19.8965C12.0527 20.4023 12.2312 20.8511 12.5874 21.2421C12.9725 21.5946 13.4139 21.7713 13.9114 21.7713C14.4089 21.7713 14.8494 21.5955 15.2345 21.2421L16.9659 19.4528C16.5527 19.6537 16.1353 19.6487 15.713 19.4385L14.6006 20.599C14.4157 20.7806 14.1688 20.8828 13.9114 20.8846C13.6577 20.8846 13.432 20.7841 13.2353 20.5848C13.1419 20.4955 13.0674 20.3878 13.0165 20.2683C12.9656 20.1488 12.9394 20.02 12.9395 19.8898C12.9395 19.6278 13.0337 19.3958 13.2205 19.1957L15.08 17.2925C15.2948 17.1108 15.5304 17.0178 15.7833 17.0136C16.037 17.0086 16.2626 17.1057 16.4593 17.3067L16.6568 17.4641C16.8535 17.5788 17.0296 17.5571 17.1841 17.3996C17.3395 17.2422 17.3601 17.063 17.2477 16.8638V16.8487L17.1775 16.7482C17.165 16.7366 17.1508 16.727 17.1353 16.7197L17.0932 16.6628C16.7081 16.2902 16.2667 16.1043 15.7692 16.1043ZM18.4444 13.3989C17.9469 13.3989 17.5056 13.5806 17.1213 13.9432L15.3891 15.7032C15.8023 15.5031 16.2205 15.5132 16.6428 15.7325L17.7544 14.5871C17.9393 14.4051 18.1866 14.3025 18.4444 14.3007C18.6982 14.3007 18.9238 14.3987 19.1205 14.5938C19.3172 14.7897 19.4163 15.0191 19.4163 15.2812C19.4163 15.5441 19.3221 15.7752 19.1345 15.9762L17.2758 17.8794C17.0909 18.0615 16.8436 18.1641 16.5858 18.1658C16.3282 18.1638 16.0813 18.0613 15.8965 17.8794L15.7692 17.7505C15.7411 17.712 15.718 17.6935 15.699 17.6935C15.5023 17.5981 15.3263 17.6291 15.1709 17.7857C15.0163 17.9439 14.9948 18.1223 15.1081 18.3232L15.1783 18.4237C15.1783 18.4321 15.1874 18.4421 15.2064 18.4522L15.2626 18.5233C15.6477 18.8859 16.0891 19.0676 16.5858 19.0676C17.0833 19.0676 17.5196 18.8859 17.8957 18.5233L19.7684 16.6193C20.1337 16.2567 20.3172 15.8113 20.3172 15.2812C20.3172 14.752 20.1296 14.3057 19.7544 13.9432C19.3783 13.5806 18.942 13.3989 18.4444 13.3989Z" fill="white"/>
</g>
<defs>
<linearGradient id="paint0_linear_5822_31214" x1="16.6667" y1="0" x2="16.6667" y2="33.3333" gradientUnits="userSpaceOnUse">
<stop stop-color="#FF9549"/>
<stop offset="1" stop-color="#FF660F"/>
</linearGradient>
<clipPath id="clip0_5822_31214">
<rect width="33.3333" height="33.3333" fill="white"/>
</clipPath>
</defs>
</svg>
