<svg width="20" height="12" viewBox="0 0 20 12" fill="none" xmlns="http://www.w3.org/2000/svg">
<path d="M5.63778 4.34616C5.61528 5.0532 5.96903 5.3663 5.97778 5.56514C5.97361 5.60561 5.95981 5.6445 5.93752 5.67855C5.91523 5.7126 5.8851 5.74083 5.84965 5.76087L5.44966 6.04056C5.3979 6.07681 5.33688 6.0976 5.27373 6.1005C5.26029 6.09987 5.01779 6.15762 4.63374 5.30106C4.39942 5.59323 4.10129 5.82797 3.76217 5.98731C3.42305 6.14665 3.05192 6.22637 2.67721 6.22037C2.16846 6.24815 0.789738 5.93193 0.860674 4.46572C0.810987 3.27077 1.92503 2.52846 3.0772 2.5912C3.29907 2.59183 3.75219 2.60275 4.54561 2.78693V2.29933C4.62967 1.47336 4.08625 0.832498 3.14532 0.928643C3.07033 0.928955 2.53908 0.913035 1.71285 1.24424C1.48285 1.34975 1.45348 1.33226 1.37692 1.33226C1.14536 1.33226 1.24067 0.661747 1.28504 0.57684C1.44785 0.377058 2.40565 0.0040273 3.34563 0.00933401C3.97414 -0.0461906 4.59927 0.147574 5.08592 0.548745C5.28374 0.76978 5.43465 1.02857 5.52956 1.30949C5.62446 1.59042 5.66139 1.88764 5.6381 2.18321L5.63778 4.34616ZM2.9372 5.35725C3.95062 5.34257 4.37968 4.73386 4.47749 4.4061C4.55436 4.09238 4.54155 3.89384 4.54155 3.55078C4.23937 3.47836 3.80438 3.39938 3.30532 3.39876C2.83189 3.36317 1.96722 3.5745 2.00097 4.40578C1.96222 4.9299 2.34846 5.38596 2.9372 5.35725ZM8.27836 6.07677C8.03274 6.09925 7.91837 5.92506 7.88212 5.75306L6.3259 0.613362C6.29558 0.526582 6.27558 0.436992 6.2659 0.345529C6.26016 0.307822 6.26964 0.269379 6.29225 0.23865C6.31487 0.207921 6.34878 0.187417 6.38652 0.181646C6.39402 0.180397 6.31996 0.181646 7.08182 0.181646C7.35619 0.154176 7.44557 0.369878 7.474 0.505355L8.59023 4.90149L9.62647 0.505355C9.64303 0.40484 9.71834 0.159795 10.0265 0.185704H10.5627C10.6305 0.180085 10.9099 0.170096 10.9589 0.509413L12.0033 4.96174L13.1555 0.509413C13.1705 0.441362 13.2405 0.154488 13.5517 0.185704H14.168C14.1945 0.181646 14.3601 0.160419 14.332 0.453536C14.3186 0.511286 14.4386 0.120775 12.6836 5.75712C12.6477 5.92912 12.533 6.10331 12.2874 6.08083H11.7033C11.3614 6.11673 11.3124 5.77928 11.3071 5.74526L10.2708 1.46462L9.24647 5.74089C9.24147 5.77491 9.19241 6.11236 8.85023 6.07646H8.27836V6.07677ZM16.8245 6.25252C16.6407 6.25283 15.7645 6.24315 15.032 5.86887C14.959 5.83801 14.8969 5.7862 14.8534 5.72002C14.81 5.65383 14.7872 5.57624 14.7879 5.49709V5.16152C14.7879 4.89775 14.9817 4.94613 15.0639 4.97766C15.3776 5.1044 15.5789 5.20054 15.9642 5.27733C17.1095 5.51239 17.6132 5.20554 17.7366 5.13749C18.1476 4.89369 18.1801 4.33586 17.9007 4.04649C17.5732 3.7721 17.417 3.7618 16.2404 3.39095C16.0954 3.35069 14.8748 2.96611 14.872 1.75649C14.8529 0.874952 15.6548 0.00277856 17.0445 0.00995822C17.4404 0.00964606 18.4954 0.13888 18.781 0.497551C18.8232 0.562792 18.8441 0.639583 18.841 0.717311V1.0329C18.841 1.1715 18.7904 1.2408 18.6888 1.2408C18.4479 1.21396 18.0204 0.89212 17.1526 0.905231C16.9373 0.893993 15.9061 0.933637 15.9523 1.68469C15.9389 2.27655 16.7838 2.49849 16.8804 2.52409C18.0198 2.86653 18.4007 2.92334 18.8529 3.44746C19.3885 4.14201 19.0997 4.95518 18.9888 5.17807C18.3926 6.34835 16.8507 6.25314 16.8245 6.25252ZM18.0807 9.52582C15.8923 11.1403 12.7155 11.9997 10.003 11.9997C6.3431 12.0238 2.80652 10.6795 0.0884992 8.23098C-0.11556 8.04712 0.0644371 7.79521 0.312558 7.93537C3.32765 9.65822 6.74137 10.5635 10.2149 10.5613C12.8088 10.5474 15.3745 10.0217 17.7645 9.0145C18.1326 8.85842 18.4448 9.25799 18.0807 9.52582ZM18.9929 8.48664C18.7129 8.12703 17.1404 8.3187 16.4364 8.40267C16.2242 8.42671 16.1882 8.24285 16.3804 8.10706C17.6326 7.2277 19.6891 7.47962 19.9254 7.77523C20.1613 8.07084 19.8613 10.1292 18.6891 11.1125C18.5091 11.2645 18.3369 11.1843 18.4169 10.9845C18.6807 10.3212 19.2729 8.84656 18.9929 8.48664Z" fill="#5C5C5C"/>
</svg>
