<svg width="40" height="40" viewBox="0 0 40 40" fill="none" xmlns="http://www.w3.org/2000/svg">
<rect width="30" height="6" transform="translate(5 28)" fill="white"/>
<path d="M37.3125 29.7109L34.2871 6.4918C34.0563 4.97617 32.5 3.74805 31.2117 3.74805H8.78555C7.5 3.75003 5.89297 5.01133 5.69492 6.56406L2.68047 29.7129C2.51992 30.2027 2.41211 30.7168 2.41211 31.2594C2.41211 34.0227 4.66289 36.2613 7.43477 36.2613H32.5574C35.3293 36.2613 37.5824 34.023 37.5824 31.2594C37.5828 30.7148 37.4727 30.2031 37.3125 29.7109ZM32.5578 33.7617H7.43516C6.05234 33.7617 4.925 32.6414 4.925 31.2598C4.925 29.8824 6.05273 28.7598 7.43516 28.7598H32.5578C33.9426 28.7598 35.0703 29.8824 35.0703 31.2598C35.0703 32.6414 33.9426 33.7617 32.5578 33.7617Z" fill="#1B87F4"/>
<rect x="25" y="30" width="7.5" height="2.5" rx="1.25" fill="#1B87F4"/>
</svg>
