<svg width="40" height="40" viewBox="0 0 40 40" fill="none" xmlns="http://www.w3.org/2000/svg">
<g clip-path="url(#clip0_4124_11689)">
<g clip-path="url(#clip1_4124_11689)">
<path d="M37.833 35.5556H2.16676C1.21421 35.5556 0.444336 34.8726 0.444336 34.0275V9.07503C0.444336 8.22992 1.21421 7.54688 2.16676 7.54688H37.833C38.7856 7.54688 39.5554 8.22992 39.5554 9.07503V34.0275C39.5554 34.8687 38.7812 35.5556 37.833 35.5556Z" fill="#85C6FF"/>
<path d="M20.0218 14.9312H0.444336V6.16462C0.444336 5.21324 1.21508 4.44434 2.16868 4.44434H15.5672C16.3293 4.44434 16.9998 4.93958 17.2175 5.66938L20.0218 14.9312Z" fill="#4093E5"/>
<path d="M37.833 35.5554H2.16676C1.21421 35.5554 0.444336 34.7873 0.444336 33.8368V11.6249C0.444336 10.6744 1.21421 9.90625 2.16676 9.90625H37.833C38.7856 9.90625 39.5554 10.6744 39.5554 11.6249V33.8368C39.5554 34.7829 38.7812 35.5554 37.833 35.5554Z" fill="#51AEFF"/>
</g>
<path d="M15.3338 18.9162C15.3338 18.9162 15.3311 18.9057 15.3539 18.869C15.4001 18.8014 15.4575 18.7423 15.5236 18.694C15.7161 18.5417 16.0311 18.379 16.4721 18.2329C17.3489 17.9406 18.5958 17.7499 20.0001 17.7499C21.4045 17.7499 22.6514 17.9406 23.5281 18.2329C23.9691 18.3799 24.2841 18.5417 24.4766 18.694C24.5427 18.7423 24.6001 18.8014 24.6464 18.869C24.6691 18.9066 24.6665 18.9162 24.6665 18.9171C24.6665 18.918 24.6683 18.9285 24.6464 18.9644C24.6001 19.0319 24.5427 19.0911 24.4766 19.1394C24.2841 19.2916 23.9691 19.4544 23.5281 19.6005C22.6523 19.8927 21.4045 20.0835 20.0001 20.0835C18.5958 20.0835 17.3489 19.8927 16.4721 19.6005C16.0311 19.4535 15.7161 19.2916 15.5236 19.1394C15.4575 19.0911 15.4001 19.0319 15.3539 18.9644C15.332 18.9294 15.3338 18.918 15.3338 18.9162ZM24.6665 20.3906V22.9999L24.6648 23.0086C24.6602 23.0222 24.6541 23.0351 24.6464 23.0471C24.6002 23.115 24.5428 23.1745 24.4766 23.223C24.2841 23.3744 23.9691 23.5371 23.5281 23.6841C22.6523 23.9764 21.4045 24.1662 20.0001 24.1662C18.5958 24.1662 17.3489 23.9764 16.4721 23.6841C16.0311 23.5371 15.7161 23.3744 15.5236 23.223C15.4575 23.1747 15.4001 23.1155 15.3539 23.048C15.3461 23.0357 15.3399 23.0225 15.3355 23.0086C15.3345 23.0058 15.3339 23.0029 15.3338 22.9999V20.3906C15.5674 20.5105 15.8273 20.6155 16.1038 20.7074C17.1275 21.0486 18.5039 21.2499 20.0001 21.2499C21.4964 21.2499 22.8728 21.0486 23.8974 20.7074C24.173 20.6155 24.4329 20.5105 24.6674 20.3906H24.6665ZM24.6665 24.4734V27.0835L24.6648 27.0922C24.6603 27.1058 24.6541 27.1187 24.6464 27.1307C24.6001 27.1983 24.5427 27.2575 24.4766 27.3057C24.2841 27.458 23.9691 27.6207 23.5281 27.7669C22.6514 28.0591 21.4045 28.2499 20.0001 28.2499C18.5958 28.2499 17.3489 28.0591 16.4721 27.7669C16.0311 27.6199 15.7161 27.458 15.5236 27.3066C15.4574 27.2581 15.4 27.1986 15.3539 27.1307C15.3462 27.1187 15.34 27.1058 15.3355 27.0922L15.3338 27.0835V24.4734C15.5674 24.5932 15.8273 24.6991 16.1038 24.791C17.1275 25.1322 18.5048 25.3335 20.0001 25.3335C21.4955 25.3335 22.8728 25.1322 23.8974 24.791C24.1616 24.7045 24.419 24.5983 24.6674 24.4734H24.6665ZM14.1665 27.0835C14.1665 27.5805 14.4693 27.9611 14.8018 28.2227C15.1404 28.4896 15.5945 28.704 16.1038 28.8737C17.1275 29.215 18.5048 29.4162 20.0001 29.4162C21.4955 29.4162 22.8728 29.215 23.8974 28.8737C24.4058 28.7049 24.8599 28.4887 25.1985 28.2227C25.531 27.9602 25.8338 27.5805 25.8338 27.0835V18.9162C25.8338 18.4192 25.531 18.0386 25.1985 17.777C24.8599 17.5101 24.4058 17.2957 23.8965 17.126C22.8736 16.7847 21.4964 16.5835 20.0001 16.5835C18.5039 16.5835 17.1275 16.7847 16.1038 17.126C15.5945 17.2957 15.1404 17.511 14.8018 17.777C14.4693 18.0395 14.1665 18.4192 14.1665 18.9162V27.0835Z" fill="white"/>
</g>
<defs>
<clipPath id="clip0_4124_11689">
<rect width="40" height="40" fill="white"/>
</clipPath>
<clipPath id="clip1_4124_11689">
<rect width="40" height="40" fill="white"/>
</clipPath>
</defs>
</svg>
