<svg width="40" height="40" viewBox="0 0 40 40" fill="none" xmlns="http://www.w3.org/2000/svg">
<g clip-path="url(#clip0_4124_11705)">
<g clip-path="url(#clip1_4124_11705)">
<path d="M37.8331 35.5556H2.16688C1.21433 35.5556 0.444458 34.8726 0.444458 34.0275V9.07503C0.444458 8.22992 1.21433 7.54688 2.16688 7.54688H37.8331C38.7857 7.54688 39.5556 8.22992 39.5556 9.07503V34.0275C39.5556 34.8687 38.7814 35.5556 37.8331 35.5556Z" fill="#85C6FF"/>
<path d="M20.0219 14.9312H0.444458V6.16462C0.444458 5.21324 1.21521 4.44434 2.16881 4.44434H15.5673C16.3294 4.44434 16.9999 4.93958 17.2176 5.66938L20.0219 14.9312Z" fill="#4093E5"/>
<path d="M37.8331 35.5554H2.16688C1.21433 35.5554 0.444458 34.7873 0.444458 33.8368V11.6249C0.444458 10.6744 1.21433 9.90625 2.16688 9.90625H37.8331C38.7857 9.90625 39.5556 10.6744 39.5556 11.6249V33.8368C39.5556 34.7829 38.7814 35.5554 37.8331 35.5554Z" fill="#51AEFF"/>
</g>
<g clip-path="url(#clip2_4124_11705)">
<path d="M20 17.2727C23.15 17.2727 25.7273 19.85 25.7273 23C25.7273 26.15 23.15 28.7273 20 28.7273C16.85 28.7273 14.2727 26.15 14.2727 23C14.2727 19.85 16.85 17.2727 20 17.2727ZM20 16C16.1182 16 13 19.1182 13 23C13 26.8818 16.1182 30 20 30C23.8818 30 27 26.8818 27 23C27 19.1182 23.8818 16 20 16Z" fill="white"/>
<path d="M22.2273 26.1819C22.0364 26.1819 21.8773 26.1182 21.75 25.9592L19.5227 23.4137C19.4273 23.3182 19.3636 23.1592 19.3636 23.0001V19.8182C19.3636 19.4682 19.65 19.1819 20 19.1819C20.35 19.1819 20.6364 19.4682 20.6364 19.8182V22.7455L22.7046 25.1001C22.9273 25.3546 22.8955 25.7682 22.6409 25.991C22.5136 26.1182 22.3864 26.1819 22.2273 26.1819Z" fill="white"/>
</g>
</g>
<defs>
<clipPath id="clip0_4124_11705">
<rect width="40" height="40" fill="white"/>
</clipPath>
<clipPath id="clip1_4124_11705">
<rect width="40" height="40" fill="white"/>
</clipPath>
<clipPath id="clip2_4124_11705">
<rect width="14" height="14" fill="white" transform="translate(13 16)"/>
</clipPath>
</defs>
</svg>
