<svg width="40" height="40" viewBox="0 0 40 40" fill="none" xmlns="http://www.w3.org/2000/svg">
<g clip-path="url(#clip0_4125_11723)">
<circle cx="20" cy="20" r="18" fill="#1B87F4"/>
<circle cx="20" cy="20" r="15.25" fill="white"/>
<path d="M20 35.25C15.9554 35.25 12.0766 33.6433 9.21662 30.7834C6.35669 27.9234 4.75 24.0446 4.75 20C4.75 15.9554 6.35669 12.0766 9.21662 9.21662C12.0766 6.35669 15.9554 4.75 20 4.75C24.0446 4.75 27.9234 6.35669 30.7834 9.21662C33.6433 12.0766 35.25 15.9554 35.25 20C35.25 24.0446 33.6433 27.9234 30.7834 30.7834C27.9234 33.6433 24.0446 35.25 20 35.25ZM20 31.4375C20.6673 31.4377 21.3115 31.1929 21.8103 30.7496C22.309 30.3062 22.6276 29.6951 22.7055 29.0323C22.7835 28.3696 22.6153 27.7013 22.2331 27.1543C21.8508 26.6073 21.281 26.2197 20.6318 26.0651L20.6296 22.7276C20.6296 22.0588 21.7124 21.5751 22.7646 21.1154C24.1219 20.5054 25.6665 19.8257 25.6665 18.3203V17.3748H26.6098C26.6512 17.3754 26.6924 17.3677 26.7309 17.3522C26.7693 17.3366 26.8043 17.3136 26.8337 17.2844C26.8631 17.2551 26.8864 17.2204 26.9022 17.182C26.918 17.1437 26.926 17.1026 26.9257 17.0611V13.9131C26.9257 13.7366 26.7863 13.5994 26.6098 13.5994H23.4639C23.4227 13.5991 23.3817 13.607 23.3435 13.6226C23.3053 13.6383 23.2706 13.6614 23.2415 13.6906C23.2123 13.7198 23.1892 13.7545 23.1735 13.7927C23.1578 13.8309 23.1499 13.8718 23.1502 13.9131V17.0611C23.1499 17.1024 23.1578 17.1433 23.1735 17.1815C23.1892 17.2197 23.2123 17.2544 23.2415 17.2836C23.2706 17.3128 23.3053 17.3359 23.3435 17.3515C23.3817 17.3672 23.4227 17.3751 23.4639 17.3748H24.4094V18.3225C24.4094 19.0109 23.3158 19.4924 22.2526 19.9651C21.7036 20.2004 21.1241 20.4662 20.6318 20.7821V12.3423H21.891C22.0043 12.3423 22.1089 12.2835 22.1655 12.1855C22.1933 12.1371 22.2076 12.0822 22.2069 12.0264C22.2069 11.972 22.1873 11.9175 22.1568 11.8696L20.268 8.72153C20.2423 8.67292 20.2037 8.63234 20.1564 8.60427C20.1091 8.57621 20.055 8.56175 20 8.5625C19.8911 8.5625 19.7821 8.62132 19.7342 8.71936L17.8454 11.8674C17.7866 11.9545 17.7757 12.0853 17.8367 12.1833C17.8646 12.2312 17.9047 12.271 17.9529 12.2985C18.0011 12.3261 18.0557 12.3404 18.1112 12.3401H19.3704V23.2984C18.878 22.9825 18.2985 22.7167 17.7474 22.4814C16.6842 22.0086 15.5928 21.5272 15.5928 20.8387V19.7865C15.9616 19.6568 16.2809 19.4156 16.5065 19.0963C16.7321 18.777 16.8529 18.3954 16.852 18.0044C16.852 17.5035 16.653 17.0231 16.2987 16.6688C15.9445 16.3146 15.4641 16.1156 14.9631 16.1156C14.4622 16.1156 13.9818 16.3146 13.6275 16.6688C13.2733 17.0231 13.0743 17.5035 13.0743 18.0044C13.0734 18.3954 13.1941 18.777 13.4198 19.0963C13.6454 19.4156 13.9647 19.6568 14.3335 19.7865V20.8387C14.3335 22.342 15.8803 23.0217 17.2354 23.6317C18.2876 24.0935 19.3704 24.5772 19.3704 25.2438V26.0651C18.7214 26.2197 18.1517 26.6071 17.7694 27.1538C17.3871 27.7006 17.2189 28.3687 17.2965 29.0313C17.3742 29.6939 17.6924 30.3049 18.1907 30.7485C18.689 31.192 19.3329 31.4372 20 31.4375Z" fill="#1B87F4"/>
</g>
<defs>
<clipPath id="clip0_4125_11723">
<rect width="36" height="36" fill="white" transform="translate(2 2)"/>
</clipPath>
</defs>
</svg>
