<svg width="40" height="40" viewBox="0 0 40 40" fill="none" xmlns="http://www.w3.org/2000/svg">
<rect width="30" height="6" transform="translate(5 28)" fill="white"/>
<path d="M37.3125 29.7109L34.2871 6.4918C34.0563 4.97617 32.5 3.74805 31.2117 3.74805H8.78555C7.5 3.75003 5.89297 5.01133 5.69492 6.56406L2.68047 29.7129C2.51992 30.2027 2.41211 30.7168 2.41211 31.2594C2.41211 34.0227 4.66289 36.2613 7.43477 36.2613H32.5574C35.3293 36.2613 37.5824 34.023 37.5824 31.2594C37.5828 30.7148 37.4727 30.2031 37.3125 29.7109ZM32.5578 33.7617H7.43516C6.05234 33.7617 4.925 32.6414 4.925 31.2598C4.925 29.8824 6.05273 28.7598 7.43516 28.7598H32.5578C33.9426 28.7598 35.0703 29.8824 35.0703 31.2598C35.0703 32.6414 33.9426 33.7617 32.5578 33.7617Z" fill="#1B87F4"/>
<rect x="25" y="30" width="7.5" height="2.5" rx="1.25" fill="#1B87F4"/>
<mask id="mask0_4125_11742" style="mask-type:alpha" maskUnits="userSpaceOnUse" x="11" y="8" width="17" height="17">
<rect x="11.9973" y="8.74805" width="16" height="16" fill="#D9D9D9"/>
</mask>
<g mask="url(#mask0_4125_11742)">
<path d="M16.3306 22.0815C15.3084 22.0815 14.4417 21.7259 13.7306 21.0148C13.0195 20.3037 12.6639 19.437 12.6639 18.4148C12.6639 17.5481 12.9334 16.7842 13.4723 16.1231C14.0112 15.462 14.6862 15.037 15.4973 14.8481C15.7751 13.8481 16.3251 13.0259 17.1473 12.3815C17.9695 11.737 18.9195 11.4148 19.9973 11.4148C21.3195 11.4148 22.4278 11.8731 23.3223 12.7898C24.2167 13.7065 24.6639 14.8037 24.6639 16.0815C25.4973 16.1704 26.1501 16.5148 26.6223 17.1148C27.0945 17.7148 27.3306 18.3648 27.3306 19.0648C27.3306 19.8981 27.0389 20.6092 26.4556 21.1981C25.8723 21.787 25.1639 22.0815 24.3306 22.0815H16.3306ZM16.3306 20.7481H24.3306C24.7973 20.7481 25.1917 20.587 25.5139 20.2648C25.8362 19.9426 25.9973 19.5481 25.9973 19.0815C25.9973 18.6148 25.8362 18.2204 25.5139 17.8981C25.1917 17.5759 24.7973 17.4148 24.3306 17.4148H23.3306V16.0815C23.3306 15.1592 23.0056 14.3731 22.3556 13.7231C21.7056 13.0731 20.9195 12.7481 19.9973 12.7481C19.2973 12.7481 18.6751 12.9398 18.1306 13.3231C17.5862 13.7065 17.1862 14.1981 16.9306 14.7981C17.6862 14.9204 18.3362 15.2454 18.8806 15.7731C19.4251 16.3009 19.7751 16.937 19.9306 17.6815C19.9751 17.8704 19.9278 18.0398 19.7889 18.1898C19.6501 18.3398 19.4695 18.4148 19.2473 18.4148C19.0917 18.4148 18.9556 18.362 18.8389 18.2565C18.7223 18.1509 18.6417 18.0148 18.5973 17.8481C18.4751 17.3481 18.2028 16.9287 17.7806 16.5898C17.3584 16.2509 16.8751 16.0815 16.3306 16.0815C15.6862 16.0815 15.1362 16.3092 14.6806 16.7648C14.2251 17.2204 13.9973 17.7704 13.9973 18.4148C13.9973 19.0592 14.2251 19.6092 14.6806 20.0648C15.1362 20.5204 15.6862 20.7481 16.3306 20.7481Z" fill="white"/>
</g>
</svg>
