<svg width="32" height="32" viewBox="0 0 32 32" fill="none" xmlns="http://www.w3.org/2000/svg">
<g clip-path="url(#clip0_1417_9889)">
<g clip-path="url(#clip1_1417_9889)">
<path d="M30.2665 28.4445H1.73347C0.971427 28.4445 0.35553 27.898 0.35553 27.2219V7.26C0.35553 6.58391 0.971427 6.03748 1.73347 6.03748H30.2665C31.0285 6.03748 31.6444 6.58391 31.6444 7.26V27.2219C31.6444 27.895 31.0251 28.4445 30.2665 28.4445Z" fill="#85C6FF"/>
<path d="M16.0175 11.9451H0.35553V4.93177C0.35553 4.17067 0.972128 3.55554 1.73501 3.55554H12.4538C13.0635 3.55554 13.5999 3.95174 13.7741 4.53558L16.0175 11.9451Z" fill="#4093E5"/>
<path d="M30.2665 28.4444H1.73347C0.971427 28.4444 0.35553 27.8299 0.35553 27.0695V9.29995C0.35553 8.53958 0.971427 7.92505 1.73347 7.92505H30.2665C31.0285 7.92505 31.6444 8.53958 31.6444 9.29995V27.0695C31.6444 27.8264 31.0251 28.4444 30.2665 28.4444Z" fill="#51AEFF"/>
</g>
<path d="M16 13C18.4408 13 20.4789 14.6681 20.9916 16.9C21.0435 17.1244 20.8463 17.3294 20.6153 17.2838L18.387 16.8425C18.1642 16.7981 18.058 16.5475 18.1841 16.3631L18.8082 15.4488C18.1079 14.7131 17.1106 14.25 16 14.25C14.3312 14.25 12.9204 15.2931 12.3929 16.7456C12.286 17.0394 11.9775 17.2119 11.6645 17.15C11.2849 17.075 11.0506 16.6875 11.1799 16.3312C11.8821 14.3912 13.7717 13 16 13ZM16 23C13.5592 23 11.5211 21.3319 11.0084 19.1C10.9565 18.8756 11.1537 18.6706 11.3847 18.7162L13.613 19.1575C13.8358 19.2019 13.942 19.4525 13.8159 19.6369L13.1918 20.5513C13.8921 21.2869 14.8894 21.75 16 21.75C17.6688 21.75 19.0796 20.7069 19.6071 19.2544C19.714 18.9606 20.0225 18.7881 20.3355 18.85C20.7151 18.925 20.9494 19.3125 20.8201 19.6687C20.1179 21.6088 18.2283 23 16 23Z" fill="white"/>
</g>
<defs>
<clipPath id="clip0_1417_9889">
<rect width="32" height="32" fill="white"/>
</clipPath>
<clipPath id="clip1_1417_9889">
<rect width="32" height="32" fill="white"/>
</clipPath>
</defs>
</svg>
