<svg width="18" height="20" viewBox="0 0 18 20" fill="none" xmlns="http://www.w3.org/2000/svg">
<path d="M3.5988 19.3499C4.36237 19.3499 5.01178 19.0825 5.54703 18.5478C6.08228 18.0131 6.3499 17.3638 6.3499 16.5999C6.3499 16.4584 6.33997 16.3291 6.3201 16.212C6.30023 16.0949 6.27043 15.9633 6.23068 15.8172L12.5269 11.9614C12.7576 12.2409 13.0362 12.4422 13.3626 12.5653C13.689 12.6883 14.0348 12.7499 14.3999 12.7499C15.1638 12.7499 15.8131 12.4826 16.3478 11.9481C16.8825 11.4136 17.1499 10.7646 17.1499 10.001C17.1499 9.23744 16.8825 8.58803 16.3478 8.05278C15.8131 7.51753 15.1638 7.2499 14.3999 7.2499C14.0397 7.2499 13.6951 7.3156 13.3663 7.447C13.0374 7.57842 12.7576 7.77554 12.5269 8.03835L6.23068 4.18258C6.27043 4.03643 6.30023 3.90481 6.3201 3.78773C6.33997 3.67066 6.3499 3.54138 6.3499 3.39988C6.3499 2.63599 6.08265 1.98669 5.54815 1.45198C5.01365 0.917261 4.36462 0.649902 3.60105 0.649902C2.83749 0.649902 2.18808 0.917153 1.65283 1.45165C1.11758 1.98615 0.849951 2.63519 0.849951 3.39875C0.849951 4.16232 1.11731 4.81173 1.65203 5.34698C2.18674 5.88223 2.83604 6.14985 3.59993 6.14985C3.96506 6.14985 4.31083 6.08832 4.63723 5.96525C4.96364 5.84217 5.24223 5.64089 5.473 5.3614L11.7692 9.21718C11.7294 9.36333 11.6996 9.49472 11.6798 9.61135C11.6599 9.72797 11.65 9.85681 11.65 9.99788C11.65 10.139 11.6599 10.2685 11.6798 10.3864C11.6996 10.5044 11.7294 10.6364 11.7692 10.7826L5.473 14.6384C5.24223 14.3422 4.96364 14.1368 4.63723 14.022C4.31083 13.9073 3.96506 13.8499 3.59993 13.8499C2.83604 13.8499 2.18674 14.1172 1.65203 14.6517C1.11731 15.1862 0.849951 15.8352 0.849951 16.5988C0.849951 17.3623 1.1172 18.0117 1.6517 18.547C2.1862 19.0822 2.83524 19.3499 3.5988 19.3499ZM3.59993 4.8499C3.19583 4.8499 2.85312 4.70926 2.57183 4.42798C2.29054 4.14668 2.1499 3.80398 2.1499 3.39988C2.1499 2.99578 2.29054 2.65308 2.57183 2.37178C2.85312 2.09049 3.19583 1.94985 3.59993 1.94985C4.00403 1.94985 4.34673 2.09049 4.62803 2.37178C4.90931 2.65308 5.04995 2.99578 5.04995 3.39988C5.04995 3.80398 4.90931 4.14668 4.62803 4.42798C4.34673 4.70926 4.00403 4.8499 3.59993 4.8499ZM14.3999 11.4499C13.9958 11.4499 13.6531 11.3093 13.3718 11.028C13.0905 10.7467 12.9499 10.404 12.9499 9.99988C12.9499 9.59578 13.0905 9.25308 13.3718 8.97178C13.6531 8.69049 13.9958 8.54985 14.3999 8.54985C14.804 8.54985 15.1467 8.69049 15.428 8.97178C15.7093 9.25308 15.85 9.59578 15.85 9.99988C15.85 10.404 15.7093 10.7467 15.428 11.028C15.1467 11.3093 14.804 11.4499 14.3999 11.4499ZM3.59993 18.0499C3.19583 18.0499 2.85312 17.9093 2.57183 17.628C2.29054 17.3467 2.1499 17.004 2.1499 16.5999C2.1499 16.1958 2.29054 15.8531 2.57183 15.5718C2.85312 15.2905 3.19583 15.1499 3.59993 15.1499C4.00403 15.1499 4.34673 15.2905 4.62803 15.5718C4.90931 15.8531 5.04995 16.1958 5.04995 16.5999C5.04995 17.004 4.90931 17.3467 4.62803 17.628C4.34673 17.9093 4.00403 18.0499 3.59993 18.0499Z" fill="#5C5C5C"/>
</svg>
