<svg width="18" height="20" viewBox="0 0 18 20" fill="none" xmlns="http://www.w3.org/2000/svg">
<path d="M14.4012 19.3499C13.6376 19.3499 12.9882 19.0825 12.453 18.5478C11.9177 18.0131 11.6501 17.3638 11.6501 16.5999C11.6501 16.4584 11.66 16.3291 11.6799 16.212C11.6998 16.0949 11.7296 15.9633 11.7693 15.8172L5.47315 11.9614C5.24238 12.2409 4.96379 12.4422 4.63737 12.5653C4.31097 12.6883 3.96521 12.7499 3.60007 12.7499C2.83619 12.7499 2.18689 12.4826 1.65217 11.9481C1.11746 11.4136 0.850098 10.7646 0.850098 10.001C0.850098 9.23744 1.11746 8.58803 1.65217 8.05278C2.18689 7.51753 2.83619 7.2499 3.60007 7.2499C3.96032 7.2499 4.30487 7.3156 4.63372 7.447C4.96257 7.57842 5.24238 7.77554 5.47315 8.03835L11.7693 4.18258C11.7296 4.03643 11.6998 3.90481 11.6799 3.78773C11.66 3.67066 11.6501 3.54138 11.6501 3.39988C11.6501 2.63599 11.9173 1.98669 12.4518 1.45198C12.9863 0.917261 13.6354 0.649902 14.3989 0.649902C15.1625 0.649902 15.8119 0.917153 16.3472 1.45165C16.8824 1.98615 17.15 2.63519 17.15 3.39875C17.15 4.16232 16.8827 4.81173 16.348 5.34698C15.8133 5.88223 15.164 6.14985 14.4001 6.14985C14.0349 6.14985 13.6892 6.08832 13.3628 5.96525C13.0364 5.84217 12.7578 5.64089 12.527 5.3614L6.23082 9.21718C6.27057 9.36333 6.30038 9.49472 6.32025 9.61135C6.34011 9.72797 6.35005 9.85681 6.35005 9.99788C6.35005 10.139 6.34011 10.2685 6.32025 10.3864C6.30038 10.5044 6.27057 10.6364 6.23082 10.7826L12.527 14.6384C12.7578 14.3422 13.0364 14.1368 13.3628 14.022C13.6892 13.9073 14.0349 13.8499 14.4001 13.8499C15.164 13.8499 15.8133 14.1172 16.348 14.6517C16.8827 15.1862 17.15 15.8352 17.15 16.5988C17.15 17.3623 16.8828 18.0117 16.3483 18.547C15.8138 19.0822 15.1648 19.3499 14.4012 19.3499ZM14.4001 4.8499C14.8042 4.8499 15.1469 4.70926 15.4282 4.42798C15.7095 4.14668 15.8501 3.80398 15.8501 3.39988C15.8501 2.99578 15.7095 2.65308 15.4282 2.37178C15.1469 2.09049 14.8042 1.94985 14.4001 1.94985C13.996 1.94985 13.6533 2.09049 13.372 2.37178C13.0907 2.65308 12.95 2.99578 12.95 3.39988C12.95 3.80398 13.0907 4.14668 13.372 4.42798C13.6533 4.70926 13.996 4.8499 14.4001 4.8499ZM3.60007 11.4499C4.00417 11.4499 4.34687 11.3093 4.62817 11.028C4.90946 10.7467 5.0501 10.404 5.0501 9.99988C5.0501 9.59578 4.90946 9.25308 4.62817 8.97178C4.34687 8.69049 4.00417 8.54985 3.60007 8.54985C3.19597 8.54985 2.85327 8.69049 2.57197 8.97178C2.29069 9.25308 2.15005 9.59578 2.15005 9.99988C2.15005 10.404 2.29069 10.7467 2.57197 11.028C2.85327 11.3093 3.19597 11.4499 3.60007 11.4499ZM14.4001 18.0499C14.8042 18.0499 15.1469 17.9093 15.4282 17.628C15.7095 17.3467 15.8501 17.004 15.8501 16.5999C15.8501 16.1958 15.7095 15.8531 15.4282 15.5718C15.1469 15.2905 14.8042 15.1499 14.4001 15.1499C13.996 15.1499 13.6533 15.2905 13.372 15.5718C13.0907 15.8531 12.95 16.1958 12.95 16.5999C12.95 17.004 13.0907 17.3467 13.372 17.628C13.6533 17.9093 13.996 18.0499 14.4001 18.0499Z" fill="#1F1F1F"/>
</svg>
