<svg width="24" height="24" viewBox="0 0 24 24" fill="none" xmlns="http://www.w3.org/2000/svg">
<path d="M18.5214 10.1335C19.082 10.1687 19.6032 10.3107 20.085 10.5596C20.5668 10.8084 20.9874 11.132 21.3468 11.5302C21.7055 11.929 21.9872 12.3879 22.192 12.9069C22.3973 13.4265 22.5 13.9776 22.5 14.5604C22.5 15.1722 22.3871 15.7467 22.1614 16.2839C21.9362 16.8211 21.6302 17.2907 21.2435 17.6925C20.8573 18.0943 20.4064 18.4127 19.8908 18.6476C19.3745 18.8825 18.8224 19 18.2344 19H6.75C6.0255 19 5.34533 18.8558 4.7095 18.5675C4.07367 18.2792 3.51833 17.8877 3.0435 17.393C2.56808 16.8988 2.19183 16.3213 1.91475 15.6602C1.63825 14.9986 1.5 14.2908 1.5 13.5369C1.5 12.939 1.59042 12.3663 1.77125 11.8188C1.95267 11.2707 2.20408 10.7675 2.5255 10.3092C2.84633 9.85029 3.2325 9.44814 3.684 9.10276C4.1355 8.75798 4.63454 8.49666 5.18113 8.31881C5.43429 8.2405 5.68221 8.18375 5.92488 8.14854C6.16754 8.11212 6.41867 8.08724 6.67825 8.07388H6.68875C6.98917 7.59677 7.34121 7.16792 7.74487 6.78733C8.14796 6.40674 8.58546 6.0832 9.05737 5.81673C9.52871 5.54964 10.026 5.3469 10.5492 5.20851C11.0719 5.0695 11.61 5 12.1636 5C12.9091 5 13.6255 5.12656 14.3126 5.37968C14.9992 5.6322 15.6245 5.98426 16.1886 6.43587C16.7527 6.88749 17.2363 7.42772 17.6394 8.05658C18.043 8.68665 18.337 9.37864 18.5214 10.1325V10.1335ZM12.1645 6.36668C11.3916 6.36668 10.6566 6.53178 9.9595 6.86199C9.26242 7.19281 8.66742 7.66779 8.1745 8.28694C8.43467 8.35796 8.68258 8.44871 8.91825 8.55918C9.1545 8.66905 9.3855 8.79531 9.61125 8.93795L13.7937 11.542L16.1834 10.4949C16.3409 10.4239 16.4998 10.362 16.6602 10.3092C16.8212 10.2558 16.9904 10.2112 17.1677 10.1753C16.9968 9.60657 16.7475 9.0891 16.4196 8.62292C16.0912 8.15674 15.7065 7.75672 15.2655 7.42287C14.8251 7.08841 14.3415 6.82861 13.8147 6.64347C13.2886 6.45894 12.7385 6.36668 12.1645 6.36668ZM3.61225 16.0017L12.287 12.1921L8.934 10.1007C8.59217 9.88762 8.23342 9.72403 7.85775 9.60991C7.4815 9.49579 7.09504 9.43874 6.69837 9.43874C6.16521 9.43874 5.66296 9.54921 5.19162 9.77016C4.71971 9.9905 4.30788 10.2873 3.95613 10.6606C3.60379 11.0346 3.32525 11.4704 3.1205 11.9681C2.91517 12.4659 2.8125 12.9888 2.8125 13.5369C2.8125 13.9637 2.88075 14.3956 3.01725 14.8326C3.15433 15.2702 3.35267 15.6599 3.61225 16.0017ZM18.2344 17.6342C18.5628 17.6342 18.8772 17.5808 19.1776 17.474C19.4786 17.3672 19.7589 17.2105 20.0185 17.0042L13.6923 13.0671L4.67887 17.0151C4.98629 17.2142 5.31587 17.3672 5.66762 17.474C6.01996 17.5802 6.38075 17.6333 6.75 17.6333L18.2344 17.6342ZM20.8699 15.948C21.0816 15.5067 21.1875 15.0444 21.1875 14.5613C21.1875 14.0914 21.102 13.6644 20.9311 13.2802C20.7602 12.8959 20.5295 12.5706 20.239 12.3041C19.9485 12.037 19.6084 11.8306 19.2188 11.685C18.8291 11.5393 18.419 11.4664 17.9885 11.4664C17.7423 11.4664 17.4979 11.4968 17.2552 11.5575C17.0126 11.6182 16.7749 11.6947 16.5421 11.7869C16.31 11.8792 16.081 11.9806 15.8552 12.0911C15.6301 12.2009 15.4081 12.3056 15.1894 12.4052L20.8699 15.948Z" fill="#5C5C5C"/>
</svg>
