<svg width="168" height="45" viewBox="0 0 168 45" fill="none" xmlns="http://www.w3.org/2000/svg">
<rect width="45" height="45" rx="22.5" fill="white"/>
<rect width="45" height="45" rx="22.5" fill="#FFF035"/>
<path d="M31.9931 11.4819C31.286 11.706 28.7201 15.0734 27.9872 15.691L27.4844 15.3137C27.3982 15.2491 27.3075 15.1908 27.2129 15.1393L21.8957 12.2438C21.5827 11.7743 20.3845 9.53161 19.4735 9.73394C18.5624 9.93628 18.1551 14.8967 18.0145 16.3018C17.5225 16.7374 16.5991 17.9238 17.004 18.8005C15.2834 18.3922 12.7093 18.9561 11.3585 21.4998C9.49734 25.0046 12.5523 29.9709 17.4545 28.6637C16.6055 29.3576 16.0514 30.8697 17.0445 32.2582C15.9963 32.9874 15.9592 35.1153 16.9701 35.886H32.1895C33.6974 33.5038 32.581 30.3124 31.2188 29.2152C31.0258 29.0598 30.9842 28.769 31.1296 28.5683C32.2043 27.0848 32.0049 25.2672 31.0982 23.9966C30.983 23.8352 30.9881 23.6136 31.1116 23.4584C32.3691 21.8799 32.0561 20.0781 31.5369 19.1247C31.4782 19.0169 31.4633 18.8906 31.5039 18.7748C32.51 15.9086 32.8584 11.2077 31.9931 11.4819Z" fill="white"/>
<path fill-rule="evenodd" clip-rule="evenodd" d="M31.7669 12.5447C31.7362 12.5749 31.7046 12.6066 31.672 12.6397C31.3373 12.9796 30.9398 13.4264 30.5301 13.8988C30.3494 14.1071 30.1621 14.3253 29.9787 14.539C29.7581 14.7961 29.543 15.0468 29.3515 15.266C29.242 15.3914 29.1334 15.5145 29.0288 15.6303L29.851 16.2949C30.1525 16.5387 30.1994 16.9807 29.9556 17.2822C29.7119 17.5837 29.2699 17.6306 28.9683 17.3868L27.5556 16.2448L26.9335 15.778C26.6234 15.5453 26.5607 15.1053 26.7934 14.7951C27.0261 14.485 27.4662 14.4223 27.7763 14.655L27.9199 14.7627C28.0282 14.6441 28.1534 14.5034 28.294 14.3424C28.4877 14.1206 28.6914 13.8832 28.9045 13.6347C29.0862 13.423 29.2746 13.2034 29.4694 12.9788C29.8811 12.5041 30.3035 12.0284 30.6716 11.6545C30.8552 11.4681 31.0355 11.2966 31.2015 11.1598C31.3464 11.0405 31.5533 10.8847 31.7809 10.8126C31.9804 10.7493 32.2092 10.7481 32.4285 10.8465C32.6322 10.9379 32.7649 11.087 32.8473 11.2118C33.0025 11.4466 33.0749 11.7392 33.1158 11.9889C33.2023 12.516 33.2041 13.2312 33.1505 13.9995C33.0452 15.5071 32.7121 17.4023 32.2066 18.8904C32.7726 20.0106 33.0789 21.9802 31.7764 23.7449C32.7068 25.1649 32.9174 27.1371 31.8196 28.8041C33.2978 30.1125 34.5506 32.886 32.8539 35.5666C32.6466 35.8942 32.2129 35.9917 31.8853 35.7843C31.5577 35.5769 31.4602 35.1432 31.6676 34.8156C32.9254 32.8284 31.9582 30.7121 30.7783 29.7619C30.3 29.3766 30.192 28.6657 30.5609 28.1563C31.4327 26.9531 31.2855 25.4676 30.5267 24.4043C30.2308 23.9897 30.2421 23.423 30.5624 23.0209C31.5985 21.7203 31.3433 20.2371 30.9202 19.4603C30.7763 19.1961 30.7285 18.8639 30.8414 18.5422C31.3193 17.1806 31.6485 15.3528 31.7498 13.9017C31.7876 13.3603 31.7917 12.8974 31.7669 12.5447Z" fill="black"/>
<path fill-rule="evenodd" clip-rule="evenodd" d="M22.354 11.6516C22.4122 11.7472 22.4555 11.8183 22.4795 11.8544C22.6946 12.177 22.6074 12.6128 22.2848 12.8279C21.9622 13.043 21.5264 12.9558 21.3113 12.6332C21.2452 12.534 21.1696 12.4096 21.0833 12.2676C20.8942 11.9566 20.654 11.5612 20.3501 11.1623C20.1381 10.8841 19.9369 10.6645 19.7633 10.5307C19.7389 10.5119 19.7171 10.4963 19.6979 10.4835C19.6531 10.5743 19.6021 10.7003 19.5479 10.866C19.3966 11.3289 19.2627 11.969 19.1478 12.679C18.9524 13.8859 18.8259 15.2008 18.7484 16.0056C18.7351 16.1437 18.7233 16.2667 18.7128 16.3716C18.6952 16.5475 18.6119 16.7103 18.4795 16.8274C18.2887 16.9963 17.9914 17.3362 17.7942 17.7119C17.5838 18.1128 17.5786 18.3711 17.641 18.5062C17.7537 18.7501 17.7172 19.037 17.547 19.245C17.3769 19.453 17.103 19.5456 16.8415 19.4836C15.3762 19.1358 13.154 19.6149 11.9782 21.829C11.1901 23.3132 11.4313 25.1392 12.4303 26.4634C13.4087 27.7603 15.1086 28.5626 17.2733 27.9854C19.3318 27.4365 20.0959 27.1642 21.0434 26.8266C21.1735 26.7802 21.307 26.7327 21.4478 26.683C21.8134 26.5539 22.2144 26.7457 22.3434 27.1113C22.4725 27.477 22.2807 27.878 21.9151 28.007C21.7758 28.0562 21.6431 28.1034 21.5133 28.1497C20.5741 28.4843 19.7887 28.7641 17.7952 29.2992C17.2384 29.8377 16.9187 30.8761 17.6152 31.8498C17.7244 32.0025 17.7679 32.1926 17.7359 32.3777C17.704 32.5627 17.5992 32.7273 17.445 32.8345C16.7823 33.2955 16.7675 34.1542 17.3945 34.6322C17.7028 34.8672 17.7622 35.3077 17.5272 35.6161C17.2921 35.9244 16.8516 35.9838 16.5433 35.7488C15.3321 34.8254 15.2187 33.1913 16.1483 32.124C15.7155 31.2372 15.7331 30.3378 16.0022 29.5787C13.9977 29.6175 12.3484 28.6863 11.3095 27.309C10.0207 25.6007 9.66512 23.1912 10.7381 21.1705C12.0371 18.7244 14.3507 17.8906 16.229 17.986C16.2846 17.6381 16.4154 17.3177 16.551 17.0595C16.7754 16.6318 17.076 16.2499 17.3406 15.9763C17.3436 15.9453 17.3467 15.9133 17.3499 15.8803C17.4267 15.0804 17.5583 13.7116 17.7618 12.4546C17.8801 11.7236 18.0276 10.9978 18.2133 10.4298C18.3053 10.1485 18.4174 9.87164 18.5593 9.64449C18.6856 9.44256 18.9233 9.1369 19.3209 9.04858C19.8591 8.92906 20.3236 9.18974 20.6206 9.4187C20.9377 9.66316 21.2263 9.9956 21.467 10.3115C21.8204 10.7754 22.1654 11.3419 22.354 11.6516ZM19.787 10.3378C19.787 10.3381 19.7847 10.3409 19.7799 10.3454C19.7845 10.3397 19.7869 10.3375 19.787 10.3378Z" fill="black"/>
<path fill-rule="evenodd" clip-rule="evenodd" d="M17.4182 24.7011C17.1779 25.0055 17.2297 25.4469 17.534 25.6871C17.8066 25.9023 18.151 26.0017 18.457 26.0412C18.7763 26.0824 19.1255 26.068 19.4647 25.9971C20.1178 25.8606 20.8999 25.4703 21.2288 24.6486C21.3728 24.2886 21.1978 23.8801 20.8378 23.7362C20.4779 23.5923 20.0692 23.7675 19.9252 24.1275C19.8405 24.3391 19.5898 24.5367 19.1779 24.6229C18.9845 24.6633 18.7932 24.6689 18.6373 24.6488C18.4786 24.6283 18.4112 24.5889 18.4048 24.5852C18.4044 24.585 18.4042 24.5849 18.4043 24.585C18.1001 24.3448 17.6586 24.3968 17.4182 24.7011Z" fill="black"/>
<ellipse cx="13.8044" cy="21.282" rx="1.95618" ry="2.18571" transform="rotate(32.8118 13.8044 21.282)" fill="black"/>
<path d="M26.174 11.9248C27.3102 12.1022 27.4405 14.1219 27.3571 15.2042L25.4811 16.7757C25.024 16.9568 23.9672 17.2281 23.3968 16.8648C22.8263 16.5014 23.1031 15.8006 23.3129 15.4957C22.3496 15.6928 20.4678 15.8452 20.6468 14.8779C20.8259 13.9105 21.7234 13.6931 22.1498 13.7054C21.7863 13.3305 21.3115 12.4662 22.3202 12.008C23.3289 11.5498 24.4113 12.434 24.8264 12.9334C24.9302 12.4858 25.0378 11.7475 26.174 11.9248Z" fill="white"/>
<path fill-rule="evenodd" clip-rule="evenodd" d="M27.9041 13.0562C28.0926 13.8164 28.1019 14.6731 28.0569 15.2579C28.0271 15.6444 27.6896 15.9337 27.303 15.904C26.9164 15.8743 26.6271 15.5368 26.6569 15.1503C26.6952 14.6528 26.6811 13.9585 26.5412 13.394C26.3854 12.7655 26.1718 12.6349 26.0654 12.6183C25.853 12.5852 25.7439 12.6039 25.6995 12.6171C25.6662 12.6271 25.6586 12.6363 25.6527 12.6433L25.6522 12.6439C25.6387 12.6601 25.6149 12.698 25.5878 12.7806C25.5648 12.8509 25.5499 12.9167 25.5294 13.0071C25.5235 13.0331 25.5172 13.0611 25.5101 13.0918C25.4498 13.3516 25.2476 13.5548 24.988 13.6163C24.7285 13.6779 24.4566 13.5871 24.2861 13.382C24.1265 13.1899 23.8247 12.9124 23.4794 12.7383C23.1356 12.5649 22.8483 12.5389 22.6103 12.647C22.4524 12.7187 22.4181 12.7757 22.4172 12.7772L22.4172 12.7773C22.417 12.7776 22.4168 12.7778 22.4167 12.7781C22.4164 12.7799 22.4154 12.7882 22.4173 12.8049C22.4222 12.8462 22.4428 12.9137 22.4918 13.0002C22.5396 13.0845 22.6003 13.1616 22.6537 13.2167C22.8525 13.4217 22.9072 13.7268 22.7921 13.9882C22.6769 14.2496 22.4148 14.4152 22.1293 14.407C22.0241 14.404 21.8264 14.4336 21.6571 14.5316C21.5379 14.6007 21.4301 14.7024 21.3691 14.8808C21.434 14.8987 21.5184 14.9144 21.6228 14.9251C22.0898 14.9729 22.7217 14.9 23.1719 14.8079C23.4524 14.7505 23.7397 14.8691 23.8979 15.1078C24.0561 15.3465 24.0534 15.6573 23.8911 15.8932C23.8667 15.9287 23.8344 15.9852 23.8073 16.0517C23.7799 16.1188 23.7652 16.1783 23.7611 16.2233C23.7592 16.2429 23.7597 16.2558 23.7605 16.2634C23.7635 16.2657 23.7678 16.2688 23.7738 16.2726C23.8487 16.3203 24.0503 16.3672 24.4012 16.3269C24.7227 16.29 25.0409 16.1948 25.2222 16.123C25.5827 15.9802 25.9907 16.1566 26.1336 16.517C26.2764 16.8774 26.0999 17.2853 25.7394 17.4282C25.4636 17.5374 25.0249 17.6685 24.5612 17.7217C24.1268 17.7715 23.5148 17.7724 23.0192 17.4567C22.555 17.1611 22.3798 16.7287 22.3582 16.3302C22.0637 16.3492 21.761 16.3505 21.4796 16.3217C21.1563 16.2886 20.7603 16.2071 20.4442 15.9815C20.2746 15.8605 20.1163 15.6893 20.0208 15.4572C19.925 15.2241 19.9135 14.9806 19.9562 14.7501C20.0874 14.041 20.498 13.5805 20.9535 13.3167C20.9955 13.2925 21.0377 13.2699 21.0801 13.2488C21.0541 13.1595 21.0343 13.0665 21.023 12.9707C20.9887 12.6822 21.0303 12.3569 21.2161 12.0501C21.3989 11.7484 21.684 11.5258 22.0296 11.3688C22.8003 11.0187 23.5585 11.2057 24.1119 11.4848C24.2724 11.5657 24.424 11.6581 24.5646 11.7561C24.5675 11.7525 24.5704 11.749 24.5733 11.7455C24.9585 11.2831 25.5493 11.1168 26.2821 11.2312C27.3119 11.3919 27.7316 12.3599 27.9041 13.0562ZM23.7542 16.2578C23.7542 16.2578 23.7545 16.2581 23.7549 16.2587C23.7544 16.2581 23.7542 16.2578 23.7542 16.2578Z" fill="black"/>
<ellipse cx="20.151" cy="19.5521" rx="0.904415" ry="1.12793" fill="black"/>
<ellipse cx="24.6505" cy="20.3204" rx="0.980576" ry="1.21372" fill="black"/>
<path d="M166.492 22.8621L162.892 23.0837C162.83 22.7759 162.698 22.499 162.495 22.2527C162.292 22.0004 162.024 21.8003 161.691 21.6526C161.365 21.4987 160.974 21.4218 160.519 21.4218C159.909 21.4218 159.395 21.551 158.977 21.8096C158.558 22.0619 158.349 22.4005 158.349 22.8252C158.349 23.1637 158.484 23.4499 158.755 23.6838C159.026 23.9177 159.491 24.1055 160.149 24.2471L162.716 24.7641C164.095 25.0472 165.123 25.5027 165.8 26.1306C166.477 26.7584 166.816 27.5832 166.816 28.605C166.816 29.5345 166.542 30.35 165.994 31.0517C165.452 31.7535 164.707 32.3013 163.76 32.6952C162.818 33.083 161.731 33.2769 160.5 33.2769C158.623 33.2769 157.127 32.886 156.013 32.1043C154.905 31.3164 154.256 30.2454 154.065 28.8912L157.934 28.6881C158.05 29.2606 158.334 29.6976 158.783 29.9992C159.232 30.2946 159.808 30.4424 160.51 30.4424C161.199 30.4424 161.753 30.31 162.171 30.0454C162.596 29.7745 162.812 29.4267 162.818 29.002C162.812 28.645 162.661 28.3526 162.365 28.1249C162.07 27.891 161.614 27.7125 160.999 27.5894L158.543 27.1C157.158 26.8231 156.127 26.3429 155.45 25.6597C154.779 24.9765 154.443 24.1055 154.443 23.0468C154.443 22.1358 154.69 21.351 155.182 20.6924C155.681 20.0338 156.379 19.5259 157.278 19.1689C158.183 18.8119 159.242 18.6334 160.454 18.6334C162.245 18.6334 163.655 19.012 164.683 19.7691C165.717 20.5262 166.32 21.5572 166.492 22.8621Z" fill="#1F1F1F"/>
<path d="M152.413 22.8621L148.812 23.0837C148.75 22.7759 148.618 22.499 148.415 22.2527C148.212 22.0004 147.944 21.8003 147.612 21.6526C147.286 21.4987 146.895 21.4218 146.439 21.4218C145.83 21.4218 145.316 21.551 144.897 21.8096C144.479 22.0619 144.269 22.4005 144.269 22.8252C144.269 23.1637 144.405 23.4499 144.676 23.6838C144.947 23.9177 145.411 24.1055 146.07 24.2471L148.637 24.7641C150.015 25.0472 151.043 25.5027 151.72 26.1306C152.398 26.7584 152.736 27.5832 152.736 28.605C152.736 29.5345 152.462 30.35 151.914 31.0517C151.373 31.7535 150.628 32.3013 149.68 32.6952C148.738 33.083 147.652 33.2769 146.421 33.2769C144.543 33.2769 143.048 32.886 141.934 32.1043C140.826 31.3164 140.176 30.2454 139.985 28.8912L143.854 28.6881C143.971 29.2606 144.254 29.6976 144.703 29.9992C145.153 30.2946 145.728 30.4424 146.43 30.4424C147.119 30.4424 147.673 30.31 148.092 30.0454C148.517 29.7745 148.732 29.4267 148.738 29.002C148.732 28.645 148.581 28.3526 148.286 28.1249C147.99 27.891 147.535 27.7125 146.919 27.5894L144.463 27.1C143.078 26.8231 142.047 26.3429 141.37 25.6597C140.699 24.9765 140.364 24.1055 140.364 23.0468C140.364 22.1358 140.61 21.351 141.103 20.6924C141.601 20.0338 142.3 19.5259 143.198 19.1689C144.103 18.8119 145.162 18.6334 146.375 18.6334C148.166 18.6334 149.575 19.012 150.603 19.7691C151.637 20.5262 152.241 21.5572 152.413 22.8621Z" fill="#1F1F1F"/>
<path d="M130.095 33.2677C129.19 33.2677 128.384 33.1107 127.676 32.7968C126.968 32.4767 126.408 32.0058 125.996 31.3841C125.589 30.7563 125.386 29.9746 125.386 29.039C125.386 28.2511 125.531 27.5894 125.82 27.0539C126.109 26.5184 126.503 26.0875 127.002 25.7613C127.501 25.435 128.067 25.1888 128.701 25.0226C129.341 24.8564 130.012 24.7395 130.714 24.6718C131.538 24.5856 132.203 24.5056 132.708 24.4317C133.213 24.3517 133.579 24.2347 133.807 24.0809C134.034 23.927 134.148 23.6992 134.148 23.3976V23.3422C134.148 22.7575 133.964 22.3051 133.594 21.985C133.231 21.6649 132.714 21.5049 132.043 21.5049C131.335 21.5049 130.772 21.6618 130.354 21.9758C129.935 22.2835 129.658 22.6713 129.523 23.1391L125.885 22.8436C126.069 21.9819 126.433 21.2371 126.974 20.6093C127.516 19.9753 128.215 19.489 129.07 19.1505C129.932 18.8058 130.929 18.6334 132.062 18.6334C132.85 18.6334 133.604 18.7258 134.324 18.9104C135.05 19.0951 135.693 19.3813 136.253 19.7691C136.82 20.1569 137.266 20.6554 137.592 21.2648C137.918 21.868 138.082 22.5913 138.082 23.4346V32.9999H134.351V31.0333H134.241C134.013 31.4765 133.708 31.8673 133.327 32.2059C132.945 32.5383 132.486 32.7999 131.951 32.9907C131.415 33.1753 130.797 33.2677 130.095 33.2677ZM131.221 30.5532C131.8 30.5532 132.311 30.4393 132.754 30.2115C133.197 29.9776 133.545 29.6637 133.797 29.2698C134.05 28.8758 134.176 28.4296 134.176 27.931V26.426C134.053 26.5061 133.884 26.5799 133.668 26.6476C133.459 26.7092 133.222 26.7677 132.957 26.8231C132.693 26.8723 132.428 26.9185 132.163 26.9615C131.899 26.9985 131.658 27.0323 131.443 27.0631C130.981 27.1308 130.578 27.2385 130.234 27.3863C129.889 27.534 129.621 27.734 129.43 27.9864C129.239 28.2326 129.144 28.5404 129.144 28.9097C129.144 29.4452 129.338 29.8545 129.726 30.1377C130.12 30.4147 130.618 30.5532 131.221 30.5532Z" fill="#1F1F1F"/>
<path d="M110.192 32.9999V14.0908H117.652C119.086 14.0908 120.308 14.3647 121.318 14.9126C122.327 15.4542 123.096 16.2082 123.626 17.1746C124.161 18.1349 124.429 19.2428 124.429 20.4985C124.429 21.7542 124.158 22.8621 123.617 23.8224C123.075 24.7826 122.29 25.5305 121.262 26.066C120.24 26.6015 119.003 26.8692 117.551 26.8692H112.796V23.6654H116.904C117.674 23.6654 118.308 23.5331 118.806 23.2684C119.311 22.9975 119.686 22.6251 119.933 22.1512C120.185 21.6711 120.311 21.1202 120.311 20.4985C120.311 19.8706 120.185 19.3228 119.933 18.855C119.686 18.3811 119.311 18.0148 118.806 17.7563C118.302 17.4916 117.661 17.3593 116.886 17.3593H114.19V32.9999H110.192Z" fill="#1F1F1F"/>
<path d="M101.562 33.2769C100.103 33.2769 98.8474 32.9814 97.7948 32.3905C96.7484 31.7935 95.9421 30.9502 95.3758 29.8607C94.8095 28.7651 94.5264 27.4694 94.5264 25.9736C94.5264 24.5148 94.8095 23.2345 95.3758 22.1327C95.9421 21.0309 96.7392 20.1722 97.7671 19.5567C98.8012 18.9412 100.014 18.6334 101.405 18.6334C102.341 18.6334 103.212 18.7842 104.018 19.0858C104.83 19.3813 105.538 19.8276 106.141 20.4246C106.751 21.0217 107.225 21.7726 107.563 22.6775C107.902 23.5761 108.071 24.6287 108.071 25.8351V26.9154H96.096V24.4779H104.369C104.369 23.9116 104.246 23.4099 103.999 22.9729C103.753 22.5359 103.412 22.1943 102.975 21.9481C102.544 21.6957 102.042 21.5695 101.47 21.5695C100.872 21.5695 100.343 21.708 99.8815 21.985C99.426 22.2558 99.069 22.6221 98.8105 23.0837C98.5519 23.5392 98.4196 24.047 98.4134 24.6071V26.9246C98.4134 27.6263 98.5427 28.2326 98.8012 28.7435C99.0659 29.2544 99.4383 29.6483 99.9184 29.9253C100.399 30.2023 100.968 30.3408 101.627 30.3408C102.064 30.3408 102.464 30.2793 102.827 30.1561C103.19 30.033 103.501 29.8484 103.759 29.6022C104.018 29.356 104.215 29.0543 104.35 28.6973L107.988 28.9374C107.803 29.8115 107.425 30.5747 106.852 31.2272C106.286 31.8735 105.554 32.3782 104.655 32.7414C103.762 33.0984 102.731 33.2769 101.562 33.2769Z" fill="#1F1F1F"/>
<path d="M85.6406 32.9999V18.8181H89.4538V21.2925H89.6016C89.8601 20.4123 90.294 19.7476 90.9034 19.2982C91.5128 18.8427 92.2145 18.615 93.0085 18.615C93.2055 18.615 93.4178 18.6273 93.6456 18.6519C93.8733 18.6765 94.0734 18.7104 94.2457 18.7535V22.2435C94.0611 22.1881 93.8056 22.1389 93.4794 22.0958C93.1532 22.0527 92.8546 22.0312 92.5838 22.0312C92.0052 22.0312 91.4882 22.1574 91.0327 22.4097C90.5833 22.6559 90.2263 23.0006 89.9616 23.4438C89.7031 23.887 89.5739 24.3979 89.5739 24.9765V32.9999H85.6406Z" fill="#1F1F1F"/>
<path d="M75.1224 33.2677C74.2176 33.2677 73.4112 33.1107 72.7033 32.7968C71.9955 32.4767 71.4354 32.0058 71.0229 31.3841C70.6167 30.7563 70.4136 29.9746 70.4136 29.039C70.4136 28.2511 70.5582 27.5894 70.8475 27.0539C71.1368 26.5184 71.5308 26.0875 72.0293 25.7613C72.5279 25.435 73.0942 25.1888 73.7282 25.0226C74.3684 24.8564 75.0393 24.7395 75.741 24.6718C76.5658 24.5856 77.2306 24.5056 77.7353 24.4317C78.24 24.3517 78.6063 24.2347 78.834 24.0809C79.0618 23.927 79.1756 23.6992 79.1756 23.3976V23.3422C79.1756 22.7575 78.991 22.3051 78.6217 21.985C78.2585 21.6649 77.7415 21.5049 77.0705 21.5049C76.3627 21.5049 75.7995 21.6618 75.3809 21.9758C74.9623 22.2835 74.6854 22.6713 74.5499 23.1391L70.9122 22.8436C71.0968 21.9819 71.46 21.2371 72.0016 20.6093C72.5433 19.9753 73.2419 19.489 74.0975 19.1505C74.9593 18.8058 75.9564 18.6334 77.089 18.6334C77.8769 18.6334 78.6309 18.7258 79.3511 18.9104C80.0774 19.0951 80.7206 19.3813 81.2808 19.7691C81.8471 20.1569 82.2933 20.6554 82.6195 21.2648C82.9458 21.868 83.1089 22.5913 83.1089 23.4346V32.9999H79.3788V31.0333H79.268C79.0402 31.4765 78.7355 31.8673 78.3539 32.2059C77.9723 32.5383 77.5137 32.7999 76.9782 32.9907C76.4427 33.1753 75.8241 33.2677 75.1224 33.2677ZM76.2488 30.5532C76.8274 30.5532 77.3383 30.4393 77.7815 30.2115C78.2247 29.9776 78.5724 29.6637 78.8248 29.2698C79.0772 28.8758 79.2033 28.4296 79.2033 27.931V26.426C79.0802 26.5061 78.911 26.5799 78.6955 26.6476C78.4863 26.7092 78.2493 26.7677 77.9846 26.8231C77.7199 26.8723 77.4552 26.9185 77.1906 26.9615C76.9259 26.9985 76.6858 27.0323 76.4704 27.0631C76.0087 27.1308 75.6056 27.2385 75.2609 27.3863C74.9162 27.534 74.6484 27.734 74.4576 27.9864C74.2668 28.2326 74.1714 28.5404 74.1714 28.9097C74.1714 29.4452 74.3653 29.8545 74.7531 30.1377C75.147 30.4147 75.6456 30.5532 76.2488 30.5532Z" fill="#1F1F1F"/>
<path d="M56.9204 32.9999V14.0908H60.9183V29.7037H69.0248V32.9999H56.9204Z" fill="#1F1F1F"/>
</svg>
