<svg width="92" height="100" viewBox="0 0 92 100" fill="none" xmlns="http://www.w3.org/2000/svg">
<rect x="10" width="72" height="72" rx="36" fill="white"/>
<rect x="10" width="72" height="72" rx="36" fill="#FFF035"/>
<path d="M61.189 18.3711C60.0576 18.7296 55.9523 24.1174 54.7796 25.1057L53.9751 24.502C53.8373 24.3985 53.6921 24.3052 53.5408 24.2228L45.0333 19.5901C44.5324 18.8388 42.6153 15.2506 41.1576 15.5743C39.7 15.898 39.0483 23.8347 38.8234 26.0829C38.0361 26.7798 36.5586 28.678 37.2065 30.0809C34.4535 29.4275 30.335 30.3297 28.1737 34.3997C25.1958 40.0074 30.0837 47.9534 37.9273 45.862C36.5689 46.9721 35.6823 49.3915 37.2713 51.6131C35.5941 52.7798 35.5348 56.1845 37.1523 57.4176H61.5033C63.9159 53.6061 62.1298 48.4999 59.9501 46.7444C59.6414 46.4957 59.5748 46.0304 59.8074 45.7093C61.527 43.3357 61.208 40.4275 59.7572 38.3946C59.5729 38.1363 59.581 37.7817 59.7787 37.5335C61.7906 35.0079 61.2899 32.125 60.4591 30.5995C60.3652 30.427 60.3413 30.225 60.4064 30.0397C62.0161 25.4537 62.5735 17.9323 61.189 18.3711Z" fill="white"/>
<path fill-rule="evenodd" clip-rule="evenodd" d="M60.827 20.0717C60.778 20.1201 60.7274 20.1708 60.6752 20.2238C60.1397 20.7676 59.5036 21.4824 58.8481 22.2382C58.559 22.5715 58.2594 22.9206 57.9659 23.2626C57.6129 23.674 57.2688 24.0751 56.9624 24.4258C56.7872 24.6264 56.6135 24.8233 56.4461 25.0087L57.7616 26.0721C58.244 26.462 58.319 27.1693 57.929 27.6517C57.539 28.1342 56.8318 28.2091 56.3493 27.8191L54.0889 25.9919L53.0936 25.245C52.5975 24.8727 52.4971 24.1686 52.8694 23.6724C53.2418 23.1762 53.9459 23.0759 54.442 23.4482L54.6718 23.6206C54.8452 23.4308 55.0454 23.2056 55.2705 22.948C55.5803 22.5932 55.9063 22.2132 56.2473 21.8158C56.5378 21.477 56.8393 21.1256 57.151 20.7662C57.8098 20.0067 58.4855 19.2456 59.0746 18.6475C59.3684 18.3492 59.6569 18.0747 59.9224 17.8559C60.1543 17.6649 60.4853 17.4157 60.8495 17.3003C61.1687 17.1991 61.5348 17.1972 61.8856 17.3546C62.2116 17.5008 62.4238 17.7394 62.5557 17.939C62.804 18.3147 62.9198 18.7829 62.9854 19.1825C63.1237 20.0258 63.1266 21.17 63.0408 22.3994C62.8723 24.8115 62.3394 27.8439 61.5305 30.2248C62.4362 32.0171 62.9263 35.1686 60.8422 37.992C62.3309 40.264 62.6678 43.4195 60.9114 46.0867C63.2765 48.1802 65.281 52.6179 62.5663 56.9067C62.2345 57.4309 61.5406 57.5869 61.0165 57.2551C60.4923 56.9233 60.3363 56.2294 60.6681 55.7052C62.6807 52.5257 61.1331 49.1396 59.2453 47.6192C58.48 47.0028 58.3071 45.8653 58.8975 45.0503C60.2923 43.1251 60.0568 40.7484 58.8427 39.0471C58.3692 38.3837 58.3874 37.4771 58.8999 36.8336C60.5575 34.7527 60.1492 32.3796 59.4724 31.1367C59.2421 30.7139 59.1656 30.1824 59.3463 29.6677C60.111 27.4892 60.6376 24.5646 60.7997 22.2429C60.8602 21.3766 60.8668 20.636 60.827 20.0717Z" fill="black"/>
<path fill-rule="evenodd" clip-rule="evenodd" d="M45.7666 18.6426C45.8598 18.7955 45.929 18.9092 45.9676 18.967C46.3117 19.4832 46.1722 20.1806 45.656 20.5247C45.1399 20.8688 44.4425 20.7293 44.0984 20.2131C43.9926 20.0544 43.8716 19.8554 43.7335 19.6282C43.4311 19.1305 43.0467 18.498 42.5604 17.8597C42.2213 17.4146 41.8993 17.0632 41.6216 16.8491C41.5825 16.819 41.5477 16.7941 41.517 16.7736C41.4453 16.9189 41.3636 17.1205 41.2769 17.3857C41.0349 18.1262 40.8206 19.1503 40.6367 20.2864C40.3241 22.2174 40.1217 24.3213 39.9977 25.6089C39.9765 25.8299 39.9575 26.0268 39.9407 26.1946C39.9126 26.476 39.7793 26.7364 39.5676 26.9239C39.2623 27.1941 38.7865 27.7378 38.471 28.3391C38.1344 28.9805 38.1261 29.3938 38.2259 29.6099C38.4061 30.0002 38.3478 30.4592 38.0756 30.792C37.8034 31.1248 37.3651 31.273 36.9467 31.1737C34.6022 30.6173 31.0466 31.3839 29.1654 34.9265C27.9044 37.3011 28.2904 40.2227 29.8888 42.3415C31.4542 44.4165 34.1741 45.7001 37.6376 44.7766C40.9312 43.8984 42.1537 43.4628 43.6698 42.9225C43.8779 42.8484 44.0915 42.7723 44.3167 42.6928C44.9017 42.4863 45.5433 42.7932 45.7497 43.3782C45.9562 43.9631 45.6494 44.6047 45.0644 44.8112C44.8416 44.8898 44.6292 44.9655 44.4215 45.0395C42.9188 45.5748 41.6622 46.0225 38.4726 46.8787C37.5817 47.7403 37.0703 49.4017 38.1846 50.9596C38.3593 51.204 38.4289 51.5082 38.3778 51.8043C38.3266 52.1004 38.159 52.3636 37.9124 52.5352C36.852 53.2728 36.8283 54.6467 37.8315 55.4115C38.3248 55.7876 38.4199 56.4924 38.0438 56.9857C37.6677 57.4791 36.9629 57.5741 36.4695 57.198C34.5317 55.7207 34.3502 53.1062 35.8377 51.3984C35.145 49.9795 35.1732 48.5404 35.6039 47.3259C32.3966 47.388 29.7578 45.898 28.0954 43.6944C26.0335 40.9612 25.4645 37.1059 27.1813 33.8728C29.2597 29.959 32.9614 28.625 35.9668 28.7777C36.0557 28.2209 36.265 27.7083 36.4818 27.2951C36.8409 26.6109 37.3219 25.9999 37.7453 25.5622C37.7501 25.5125 37.755 25.4613 37.7601 25.4085C37.8831 24.1287 38.0935 21.9386 38.4191 19.9274C38.6085 18.7578 38.8445 17.5965 39.1416 16.6876C39.2888 16.2376 39.4681 15.7946 39.6952 15.4312C39.8972 15.1081 40.2775 14.619 40.9138 14.4777C41.7748 14.2865 42.518 14.7036 42.9932 15.0699C43.5006 15.4611 43.9624 15.993 44.3474 16.4983C44.9129 17.2407 45.4649 18.147 45.7666 18.6426ZM41.6594 16.5404C41.6595 16.5409 41.6558 16.5455 41.6481 16.5527C41.6555 16.5436 41.6594 16.54 41.6594 16.5404Z" fill="black"/>
<path fill-rule="evenodd" clip-rule="evenodd" d="M37.8692 39.5214C37.4846 40.0084 37.5675 40.7147 38.0543 41.099C38.4906 41.4434 39.0416 41.6024 39.5312 41.6656C40.0421 41.7315 40.6009 41.7085 41.1435 41.595C42.1885 41.3766 43.4399 40.752 43.966 39.4374C44.1965 38.8614 43.9165 38.2078 43.3405 37.9775C42.7646 37.7473 42.1108 38.0276 41.8803 38.6036C41.7448 38.9422 41.3436 39.2584 40.6846 39.3962C40.3752 39.4609 40.0692 39.4698 39.8197 39.4377C39.5657 39.4049 39.4579 39.3419 39.4477 39.336C39.447 39.3356 39.4468 39.3354 39.4469 39.3356C38.9601 38.9513 38.2537 39.0345 37.8692 39.5214Z" fill="black"/>
<ellipse cx="32.0871" cy="34.0512" rx="3.12989" ry="3.49714" transform="rotate(32.8118 32.0871 34.0512)" fill="black"/>
<path d="M51.8785 19.0799C53.6964 19.3637 53.9049 22.5953 53.7715 24.3268L50.7698 26.8413C50.0385 27.131 48.3477 27.5652 47.4349 26.9838C46.5222 26.4024 46.9651 25.2812 47.3007 24.7932C45.7594 25.1087 42.7485 25.3526 43.035 23.8048C43.3215 22.257 44.7575 21.9092 45.4398 21.9288C44.8582 21.329 44.0985 19.946 45.7124 19.213C47.3263 18.4799 49.0581 19.8946 49.7223 20.6936C49.8884 19.9775 50.0606 18.7962 51.8785 19.0799Z" fill="white"/>
<path fill-rule="evenodd" clip-rule="evenodd" d="M54.647 20.8904C54.9485 22.1069 54.9635 23.4776 54.8914 24.4132C54.8438 25.0317 54.3037 25.4945 53.6851 25.447C53.0666 25.3994 52.6037 24.8595 52.6514 24.241C52.7127 23.4451 52.6901 22.3342 52.4663 21.431C52.217 20.4254 51.8753 20.2165 51.705 20.1899C51.3652 20.1369 51.1907 20.1668 51.1196 20.188C51.0663 20.2039 51.0541 20.2186 51.0447 20.2299L51.044 20.2309C51.0223 20.2568 50.9843 20.3174 50.9409 20.4496C50.904 20.5621 50.8802 20.6672 50.8474 20.812C50.838 20.8535 50.8279 20.8983 50.8165 20.9474C50.7201 21.3631 50.3965 21.6882 49.9813 21.7867C49.566 21.8852 49.1309 21.7399 48.8582 21.4118C48.6027 21.1045 48.1199 20.6605 47.5674 20.3818C47.0174 20.1045 46.5577 20.0628 46.1768 20.2358C45.9242 20.3505 45.8694 20.4417 45.8679 20.4442L45.8679 20.4442C45.8676 20.4447 45.8673 20.4451 45.8671 20.4455C45.8667 20.4485 45.865 20.4617 45.8681 20.4885C45.876 20.5544 45.9088 20.6626 45.9873 20.8009C46.0638 20.9359 46.1609 21.0592 46.2463 21.1473C46.5644 21.4754 46.6519 21.9635 46.4677 22.3817C46.2834 22.7999 45.8641 23.0649 45.4072 23.0518C45.239 23.0469 44.9226 23.0944 44.6517 23.2512C44.461 23.3616 44.2885 23.5245 44.191 23.8098C44.2948 23.8386 44.4298 23.8636 44.5968 23.8807C45.3441 23.9572 46.3552 23.8406 47.0754 23.6932C47.5243 23.6013 47.984 23.7912 48.237 24.1731C48.4901 24.555 48.4858 25.0522 48.2262 25.4298C48.1871 25.4865 48.1354 25.5769 48.092 25.6833C48.0483 25.7907 48.0248 25.8859 48.0181 25.9578C48.0151 25.9892 48.0159 26.0099 48.0171 26.022C48.022 26.0258 48.0289 26.0307 48.0385 26.0368C48.1583 26.1131 48.4809 26.1881 49.0423 26.1237C49.5567 26.0646 50.0659 25.9123 50.356 25.7974C50.9328 25.5689 51.5856 25.8511 51.8141 26.4277C52.0426 27.0044 51.7602 27.6571 51.1834 27.8857C50.7422 28.0605 50.0403 28.2702 49.2982 28.3553C48.6032 28.4351 47.6241 28.4364 46.8311 27.9313C46.0884 27.4583 45.8081 26.7664 45.7735 26.129C45.3024 26.1593 44.818 26.1614 44.3678 26.1153C43.8505 26.0624 43.2168 25.9319 42.7111 25.571C42.4398 25.3774 42.1865 25.1034 42.0337 24.7321C41.8804 24.3592 41.862 23.9696 41.9303 23.6008C42.1403 22.4661 42.7971 21.7294 43.526 21.3074C43.5931 21.2685 43.6607 21.2324 43.7286 21.1987C43.6869 21.0557 43.6553 20.907 43.6371 20.7538C43.5823 20.2921 43.6489 19.7716 43.9461 19.2808C44.2386 18.798 44.6948 18.4418 45.2478 18.1907C46.4808 17.6306 47.694 17.9297 48.5794 18.3762C48.8362 18.5057 49.0788 18.6536 49.3037 18.8103C49.3084 18.8046 49.313 18.799 49.3177 18.7933C49.9341 18.0536 50.8793 17.7875 52.0518 17.9705C53.6994 18.2277 54.3709 19.7765 54.647 20.8904ZM48.0071 26.0131C48.0071 26.0131 48.0076 26.0135 48.0083 26.0144C48.0074 26.0135 48.0071 26.0131 48.0071 26.0131Z" fill="black"/>
<ellipse cx="42.242" cy="31.2832" rx="1.44706" ry="1.80469" fill="black"/>
<ellipse cx="49.441" cy="32.5123" rx="1.56892" ry="1.94196" fill="black"/>
<path d="M91.7295 91.3145L88.715 91.4993C88.6635 91.2426 88.5527 91.0117 88.3827 90.8063C88.2126 90.5959 87.9885 90.429 87.7102 90.3059C87.4371 90.1775 87.1099 90.1134 86.7286 90.1134C86.2184 90.1134 85.7882 90.2212 85.4378 90.4367C85.0874 90.6472 84.9122 90.9295 84.9122 91.2837C84.9122 91.566 85.0255 91.8047 85.2522 91.9998C85.479 92.1948 85.868 92.3514 86.4194 92.4694L88.5682 92.9006C89.7225 93.1367 90.583 93.5166 91.1498 94.0402C91.7167 94.5637 92.0001 95.2516 92.0001 96.1037C92.0001 96.8788 91.7708 97.5589 91.3122 98.1441C90.8587 98.7292 90.2352 99.1861 89.4416 99.5146C88.6532 99.838 87.7437 99.9997 86.7131 99.9997C85.1415 99.9997 83.8893 99.6737 82.9566 99.0218C82.0291 98.3648 81.4854 97.4716 81.3257 96.3423L84.5643 96.173C84.6622 96.6503 84.8993 97.0148 85.2754 97.2663C85.6516 97.5127 86.1334 97.6359 86.7208 97.6359C87.298 97.6359 87.7617 97.5255 88.1121 97.3048C88.4677 97.0789 88.6481 96.7889 88.6532 96.4347C88.6481 96.137 88.5218 95.8932 88.2745 95.7033C88.0271 95.5082 87.6458 95.3594 87.1305 95.2567L85.0745 94.8486C83.9151 94.6176 83.0519 94.2173 82.4851 93.6475C81.9234 93.0777 81.6426 92.3514 81.6426 91.4685C81.6426 90.7088 81.8487 90.0543 82.2609 89.5051C82.6783 88.9559 83.2632 88.5324 84.0155 88.2347C84.773 87.9369 85.6593 87.7881 86.6745 87.7881C88.174 87.7881 89.354 88.1038 90.2146 88.7351C91.0803 89.3665 91.5853 90.2263 91.7295 91.3145Z" fill="#DBDBDB"/>
<path d="M79.9424 91.3145L76.9279 91.4993C76.8764 91.2426 76.7656 91.0117 76.5956 90.8063C76.4255 90.5959 76.2014 90.429 75.9231 90.3059C75.65 90.1775 75.3228 90.1134 74.9415 90.1134C74.4313 90.1134 74.001 90.2212 73.6506 90.4367C73.3002 90.6472 73.125 90.9295 73.125 91.2837C73.125 91.566 73.2384 91.8047 73.4651 91.9998C73.6919 92.1948 74.0809 92.3514 74.6323 92.4694L76.7811 92.9006C77.9353 93.1367 78.7959 93.5166 79.3627 94.0402C79.9296 94.5637 80.213 95.2516 80.213 96.1037C80.213 96.8788 79.9837 97.5589 79.525 98.1441C79.0716 98.7292 78.4481 99.1861 77.6545 99.5146C76.8661 99.838 75.9566 99.9997 74.926 99.9997C73.3543 99.9997 72.1022 99.6737 71.1695 99.0218C70.242 98.3648 69.6983 97.4716 69.5386 96.3423L72.7772 96.173C72.8751 96.6503 73.1122 97.0148 73.4883 97.2663C73.8645 97.5127 74.3463 97.6359 74.9337 97.6359C75.5109 97.6359 75.9746 97.5255 76.325 97.3048C76.6806 97.0789 76.861 96.7889 76.8661 96.4347C76.861 96.137 76.7347 95.8932 76.4874 95.7033C76.24 95.5082 75.8587 95.3594 75.3434 95.2567L73.2874 94.8486C72.1279 94.6176 71.2648 94.2173 70.698 93.6475C70.1363 93.0777 69.8555 92.3514 69.8555 91.4685C69.8555 90.7088 70.0616 90.0543 70.4738 89.5051C70.8912 88.9559 71.4761 88.5324 72.2284 88.2347C72.9859 87.9369 73.8722 87.7881 74.8874 87.7881C76.3869 87.7881 77.5669 88.1038 78.4275 88.7351C79.2932 89.3665 79.7981 90.2263 79.9424 91.3145Z" fill="#DBDBDB"/>
<path d="M61.2589 99.992C60.5014 99.992 59.8264 99.8611 59.2338 99.5993C58.6412 99.3324 58.1723 98.9397 57.827 98.4212C57.4869 97.8977 57.3169 97.2458 57.3169 96.4655C57.3169 95.8085 57.438 95.2567 57.6802 94.8101C57.9224 94.3635 58.2522 94.0042 58.6696 93.7322C59.0869 93.4601 59.561 93.2548 60.0918 93.1162C60.6277 92.9776 61.1894 92.8801 61.7768 92.8236C62.4673 92.7518 63.0238 92.685 63.4464 92.6234C63.8689 92.5567 64.1755 92.4592 64.3662 92.3309C64.5568 92.2025 64.6522 92.0126 64.6522 91.7611V91.7149C64.6522 91.2272 64.4976 90.85 64.1884 90.583C63.8844 90.3161 63.4515 90.1827 62.8898 90.1827C62.2972 90.1827 61.8257 90.3136 61.4753 90.5753C61.1249 90.832 60.8931 91.1554 60.7797 91.5455L57.7343 91.2991C57.8889 90.5805 58.1929 89.9594 58.6464 89.4358C59.0998 88.9071 59.6847 88.5016 60.4009 88.2193C61.1224 87.9318 61.9571 87.7881 62.9053 87.7881C63.5649 87.7881 64.1961 87.8651 64.799 88.0191C65.4071 88.1731 65.9456 88.4118 66.4145 88.7351C66.8885 89.0585 67.2621 89.4743 67.5352 89.9825C67.8084 90.4855 67.9449 91.0886 67.9449 91.7919V99.7687H64.8222V98.1287H64.7294C64.5388 98.4982 64.2837 98.8242 63.9642 99.1065C63.6447 99.3837 63.2609 99.6018 62.8125 99.761C62.3642 99.915 61.8464 99.992 61.2589 99.992ZM62.2019 97.7283C62.6863 97.7283 63.114 97.6333 63.485 97.4434C63.856 97.2483 64.1472 96.9865 64.3584 96.658C64.5697 96.3295 64.6753 95.9574 64.6753 95.5416V94.2866C64.5723 94.3533 64.4306 94.4149 64.2502 94.4713C64.075 94.5227 63.8766 94.5714 63.6551 94.6176C63.4335 94.6587 63.2119 94.6972 62.9903 94.7331C62.7687 94.7639 62.5678 94.7922 62.3874 94.8178C62.0009 94.8743 61.6634 94.9641 61.3749 95.0873C61.0863 95.2105 60.8621 95.3773 60.7024 95.5878C60.5427 95.7931 60.4628 96.0498 60.4628 96.3577C60.4628 96.8043 60.6251 97.1457 60.9497 97.3818C61.2795 97.6128 61.6969 97.7283 62.2019 97.7283Z" fill="#DBDBDB"/>
<path d="M44.5967 99.7688V84H50.8421C52.0427 84 53.0656 84.2284 53.9107 84.6853C54.7558 85.137 55.3999 85.7658 55.843 86.5717C56.2914 87.3724 56.5155 88.2964 56.5155 89.3435C56.5155 90.3907 56.2888 91.3146 55.8353 92.1154C55.3819 92.9161 54.7249 93.5398 53.8643 93.9864C53.0089 94.433 51.9732 94.6563 50.7571 94.6563H46.7764V91.9845H50.216C50.8601 91.9845 51.3909 91.8741 51.8083 91.6534C52.2308 91.4276 52.5451 91.117 52.7513 90.7218C52.9625 90.3214 53.0682 89.862 53.0682 89.3435C53.0682 88.82 52.9625 88.3631 52.7513 87.973C52.5451 87.5777 52.2308 87.2723 51.8083 87.0567C51.3857 86.836 50.8498 86.7257 50.2005 86.7257H47.9435V99.7688H44.5967Z" fill="#DBDBDB"/>
<path d="M37.3723 99.9997C36.151 99.9997 35.0998 99.7533 34.2187 99.2605C33.3426 98.7626 32.6676 98.0594 32.1935 97.1508C31.7195 96.2371 31.4824 95.1566 31.4824 93.9093C31.4824 92.6927 31.7195 91.6251 32.1935 90.7062C32.6676 89.7874 33.3349 89.0714 34.1955 88.558C35.0612 88.0447 36.0763 87.7881 37.2409 87.7881C38.0241 87.7881 38.7533 87.9138 39.4283 88.1654C40.1085 88.4118 40.7011 88.7839 41.2061 89.2818C41.7162 89.7797 42.113 90.406 42.3964 91.1605C42.6798 91.9099 42.8215 92.7877 42.8215 93.7938V94.6946H32.7964V92.6619H39.722C39.722 92.1897 39.619 91.7713 39.4129 91.4069C39.2067 91.0425 38.9207 90.7576 38.5549 90.5522C38.1942 90.3418 37.7742 90.2366 37.295 90.2366C36.7951 90.2366 36.352 90.3521 35.9655 90.583C35.5842 90.8089 35.2853 91.1143 35.0689 91.4993C34.8525 91.8791 34.7417 92.3026 34.7365 92.7697V94.7023C34.7365 95.2875 34.8447 95.7931 35.0612 96.2192C35.2827 96.6452 35.5945 96.9737 35.9964 97.2047C36.3984 97.4357 36.875 97.5512 37.4264 97.5512C37.7922 97.5512 38.1272 97.4999 38.4312 97.3972C38.7352 97.2945 38.9955 97.1405 39.2119 96.9352C39.4283 96.7299 39.5932 96.4784 39.7066 96.1807L42.752 96.3808C42.5974 97.1097 42.2805 97.7462 41.8013 98.2903C41.3272 98.8293 40.714 99.2502 39.9616 99.5531C39.2145 99.8508 38.3513 99.9997 37.3723 99.9997Z" fill="#DBDBDB"/>
<path d="M24.0435 99.7694V87.9428H27.2357V90.0063H27.3594C27.5758 89.2723 27.9391 88.7179 28.4493 88.3432C28.9594 87.9634 29.5468 87.7734 30.2116 87.7734C30.3765 87.7734 30.5542 87.7837 30.7449 87.8042C30.9356 87.8248 31.103 87.853 31.2473 87.8889V90.7994C31.0927 90.7532 30.8789 90.7121 30.6058 90.6762C30.3327 90.6403 30.0827 90.6223 29.856 90.6223C29.3716 90.6223 28.9388 90.7275 28.5575 90.938C28.1813 91.1433 27.8824 91.4307 27.6608 91.8003C27.4444 92.1699 27.3362 92.596 27.3362 93.0785V99.7694H24.0435Z" fill="#DBDBDB"/>
<path d="M15.2379 99.992C14.4804 99.992 13.8054 99.8611 13.2128 99.5993C12.6202 99.3324 12.1513 98.9397 11.806 98.4212C11.4659 97.8977 11.2959 97.2458 11.2959 96.4655C11.2959 95.8085 11.417 95.2567 11.6592 94.8101C11.9014 94.3635 12.2312 94.0042 12.6486 93.7322C13.0659 93.4601 13.54 93.2548 14.0708 93.1162C14.6067 92.9776 15.1684 92.8801 15.7558 92.8236C16.4463 92.7518 17.0028 92.685 17.4254 92.6234C17.8479 92.5567 18.1545 92.4592 18.3452 92.3309C18.5358 92.2025 18.6312 92.0126 18.6312 91.7611V91.7149C18.6312 91.2272 18.4766 90.85 18.1674 90.583C17.8634 90.3161 17.4305 90.1827 16.8688 90.1827C16.2763 90.1827 15.8048 90.3136 15.4544 90.5753C15.1039 90.832 14.8721 91.1554 14.7587 91.5455L11.7133 91.2991C11.8679 90.5805 12.1719 89.9594 12.6254 89.4358C13.0788 88.9071 13.6637 88.5016 14.38 88.2193C15.1014 87.9318 15.9362 87.7881 16.8843 87.7881C17.5439 87.7881 18.1751 87.8651 18.778 88.0191C19.3861 88.1731 19.9246 88.4118 20.3935 88.7351C20.8676 89.0585 21.2411 89.4743 21.5143 89.9825C21.7874 90.4855 21.9239 91.0886 21.9239 91.7919V99.7687H18.8012V98.1287H18.7085C18.5178 98.4982 18.2627 98.8242 17.9432 99.1065C17.6238 99.3837 17.2399 99.6018 16.7915 99.761C16.3432 99.915 15.8254 99.992 15.2379 99.992ZM16.1809 97.7283C16.6653 97.7283 17.093 97.6333 17.464 97.4434C17.835 97.2483 18.1262 96.9865 18.3374 96.658C18.5487 96.3295 18.6543 95.9574 18.6543 95.5416V94.2866C18.5513 94.3533 18.4096 94.4149 18.2292 94.4713C18.054 94.5227 17.8556 94.5714 17.6341 94.6176C17.4125 94.6587 17.1909 94.6972 16.9693 94.7331C16.7477 94.7639 16.5468 94.7922 16.3664 94.8178C15.98 94.8743 15.6424 94.9641 15.3539 95.0873C15.0653 95.2105 14.8411 95.3773 14.6814 95.5878C14.5217 95.7931 14.4418 96.0498 14.4418 96.3577C14.4418 96.8043 14.6041 97.1457 14.9287 97.3818C15.2585 97.6128 15.6759 97.7283 16.1809 97.7283Z" fill="#DBDBDB"/>
<path d="M0 99.7688V84H3.34686V97.02H10.1333V99.7688H0Z" fill="#DBDBDB"/>
</svg>
