<svg width="45" height="45" viewBox="0 0 45 45" fill="none" xmlns="http://www.w3.org/2000/svg">
<rect width="45" height="45" rx="22.5" fill="white"/>
<rect width="45" height="45" rx="22.5" fill="#FFF035"/>
<path d="M31.9928 11.4816C31.2857 11.7056 28.7199 15.073 27.9869 15.6907L27.4841 15.3134C27.398 15.2487 27.3073 15.1904 27.2127 15.1389L21.8955 12.2435C21.5824 11.7739 20.3842 9.53124 19.4732 9.73358C18.5622 9.93591 18.1549 14.8963 18.0143 16.3014C17.5222 16.737 16.5988 17.9234 17.0037 18.8002C15.2831 18.3918 12.7091 18.9557 11.3583 21.4994C9.49709 25.0043 12.552 29.9705 17.4542 28.6634C16.6053 29.3572 16.0511 30.8693 17.0442 32.2578C15.996 32.987 15.9589 35.115 16.9699 35.8856H32.1893C33.6971 33.5035 32.5808 30.312 31.2185 29.2149C31.0255 29.0594 30.9839 28.7686 31.1293 28.568C32.2041 27.0844 32.0047 25.2668 31.098 23.9963C30.9827 23.8348 30.9878 23.6132 31.1114 23.4581C32.3688 21.8796 32.0559 20.0777 31.5366 19.1243C31.4779 19.0165 31.463 18.8903 31.5037 18.7745C32.5098 15.9082 32.8581 11.2074 31.9928 11.4816Z" fill="white"/>
<path fill-rule="evenodd" clip-rule="evenodd" d="M31.7666 12.5449C31.736 12.5752 31.7044 12.6069 31.6718 12.64C31.3371 12.9798 30.9395 13.4267 30.5298 13.899C30.3491 14.1073 30.1619 14.3255 29.9785 14.5393C29.7578 14.7964 29.5427 15.047 29.3513 15.2663C29.2418 15.3916 29.1332 15.5147 29.0286 15.6305L29.8508 16.2952C30.1523 16.5389 30.1991 16.9809 29.9554 17.2825C29.7116 17.584 29.2696 17.6308 28.9681 17.3871L27.5553 16.2451L26.9333 15.7783C26.6232 15.5455 26.5604 15.1055 26.7932 14.7954C27.0259 14.4853 27.4659 14.4225 27.776 14.6553L27.9196 14.763C28.028 14.6444 28.1531 14.5036 28.2938 14.3426C28.4875 14.1209 28.6912 13.8834 28.9043 13.635C29.0859 13.4233 29.2743 13.2036 29.4692 12.979C29.8809 12.5043 30.3032 12.0286 30.6714 11.6548C30.855 11.4684 31.0353 11.2968 31.2013 11.1601C31.3462 11.0407 31.5531 10.8849 31.7807 10.8128C31.9802 10.7496 32.209 10.7484 32.4282 10.8467C32.632 10.9381 32.7646 11.0873 32.8471 11.212C33.0023 11.4468 33.0746 11.7394 33.1156 11.9892C33.202 12.5163 33.2039 13.2314 33.1502 13.9997C33.045 15.5073 32.7119 17.4026 32.2063 18.8906C32.7724 20.0108 33.0787 21.9805 31.7761 23.7451C32.7066 25.1651 32.9172 27.1373 31.8194 28.8043C33.2976 30.1127 34.5504 32.8863 32.8537 35.5668C32.6463 35.8944 32.2126 35.9919 31.885 35.7845C31.5574 35.5772 31.46 35.1435 31.6673 34.8159C32.9252 32.8287 31.958 30.7124 30.7781 29.7621C30.2997 29.3769 30.1917 28.6659 30.5607 28.1566C31.4324 26.9533 31.2852 25.4679 30.5264 24.4046C30.2305 23.9899 30.2419 23.4233 30.5622 23.0211C31.5982 21.7206 31.343 20.2373 30.92 19.4605C30.7761 19.1963 30.7283 18.8641 30.8412 18.5425C31.3191 17.1809 31.6483 15.353 31.7496 13.9019C31.7874 13.3605 31.7915 12.8976 31.7666 12.5449Z" fill="black"/>
<path fill-rule="evenodd" clip-rule="evenodd" d="M22.354 11.6516C22.4122 11.7472 22.4555 11.8183 22.4795 11.8544C22.6946 12.177 22.6074 12.6128 22.2848 12.8279C21.9622 13.043 21.5264 12.9558 21.3113 12.6332C21.2452 12.534 21.1696 12.4096 21.0833 12.2676C20.8942 11.9566 20.654 11.5612 20.3501 11.1623C20.1381 10.8841 19.9369 10.6645 19.7633 10.5307C19.7389 10.5119 19.7171 10.4963 19.6979 10.4835C19.6531 10.5743 19.6021 10.7003 19.5479 10.866C19.3966 11.3289 19.2627 11.969 19.1478 12.679C18.9524 13.8859 18.8259 15.2008 18.7484 16.0056C18.7351 16.1437 18.7233 16.2667 18.7128 16.3716C18.6952 16.5475 18.6119 16.7103 18.4795 16.8274C18.2887 16.9963 17.9914 17.3362 17.7942 17.7119C17.5838 18.1128 17.5786 18.3711 17.641 18.5062C17.7537 18.7501 17.7172 19.037 17.547 19.245C17.3769 19.453 17.103 19.5456 16.8415 19.4836C15.3762 19.1358 13.154 19.6149 11.9782 21.829C11.1901 23.3132 11.4313 25.1392 12.4303 26.4634C13.4087 27.7603 15.1086 28.5626 17.2733 27.9854C19.3318 27.4365 20.0959 27.1642 21.0434 26.8266C21.1735 26.7802 21.307 26.7327 21.4478 26.683C21.8134 26.5539 22.2144 26.7457 22.3434 27.1113C22.4725 27.477 22.2807 27.878 21.9151 28.007C21.7758 28.0562 21.6431 28.1034 21.5133 28.1497C20.5741 28.4843 19.7887 28.7641 17.7952 29.2992C17.2384 29.8377 16.9187 30.8761 17.6152 31.8498C17.7244 32.0025 17.7679 32.1926 17.7359 32.3777C17.704 32.5627 17.5992 32.7273 17.445 32.8345C16.7823 33.2955 16.7675 34.1542 17.3945 34.6322C17.7028 34.8672 17.7622 35.3077 17.5272 35.6161C17.2921 35.9244 16.8516 35.9838 16.5433 35.7488C15.3321 34.8254 15.2187 33.1913 16.1483 32.124C15.7155 31.2372 15.7331 30.3378 16.0022 29.5787C13.9977 29.6175 12.3484 28.6863 11.3095 27.309C10.0207 25.6007 9.66512 23.1912 10.7381 21.1705C12.0371 18.7244 14.3507 17.8906 16.229 17.986C16.2846 17.6381 16.4154 17.3177 16.551 17.0595C16.7754 16.6318 17.076 16.2499 17.3406 15.9763C17.3436 15.9453 17.3467 15.9133 17.3499 15.8803C17.4267 15.0804 17.5583 13.7116 17.7618 12.4546C17.8801 11.7236 18.0276 10.9978 18.2133 10.4298C18.3053 10.1485 18.4174 9.87164 18.5593 9.64449C18.6856 9.44256 18.9233 9.1369 19.3209 9.04858C19.8591 8.92906 20.3236 9.18974 20.6206 9.4187C20.9377 9.66316 21.2263 9.9956 21.467 10.3115C21.8204 10.7754 22.1654 11.3419 22.354 11.6516ZM19.787 10.3378C19.787 10.3381 19.7847 10.3409 19.7799 10.3454C19.7845 10.3397 19.7869 10.3375 19.787 10.3378Z" fill="black"/>
<path fill-rule="evenodd" clip-rule="evenodd" d="M17.4182 24.7008C17.1779 25.0051 17.2297 25.4465 17.534 25.6867C17.8066 25.902 18.151 26.0014 18.457 26.0409C18.7763 26.0821 19.1255 26.0677 19.4647 25.9968C20.1178 25.8602 20.8999 25.4699 21.2288 24.6483C21.3728 24.2882 21.1978 23.8797 20.8378 23.7358C20.4779 23.5919 20.0692 23.7671 19.9252 24.1271C19.8405 24.3387 19.5898 24.5364 19.1779 24.6225C18.9845 24.6629 18.7932 24.6685 18.6373 24.6484C18.4786 24.6279 18.4112 24.5886 18.4048 24.5849C18.4044 24.5846 18.4042 24.5845 18.4043 24.5846C18.1001 24.3444 17.6586 24.3964 17.4182 24.7008Z" fill="black"/>
<ellipse cx="13.8042" cy="21.2818" rx="1.95618" ry="2.18571" transform="rotate(32.8118 13.8042 21.2818)" fill="black"/>
<path d="M26.1738 11.9247C27.31 12.1021 27.4402 14.1218 27.3569 15.204L25.4808 16.7755C25.0238 16.9566 23.967 17.228 23.3965 16.8646C22.8261 16.5013 23.1029 15.8005 23.3126 15.4955C22.3493 15.6927 20.4675 15.8451 20.6466 14.8777C20.8256 13.9104 21.7232 13.693 22.1495 13.7053C21.786 13.3304 21.3112 12.466 22.3199 12.0079C23.3287 11.5497 24.411 12.4339 24.8261 12.9333C24.9299 12.4857 25.0376 11.7474 26.1738 11.9247Z" fill="white"/>
<path fill-rule="evenodd" clip-rule="evenodd" d="M27.9041 13.0565C28.0926 13.8168 28.1019 14.6735 28.0569 15.2583C28.0271 15.6448 27.6896 15.9341 27.303 15.9043C26.9164 15.8746 26.6271 15.5372 26.6569 15.1506C26.6952 14.6532 26.6811 13.9589 26.5412 13.3944C26.3854 12.7659 26.1718 12.6353 26.0654 12.6187C25.853 12.5856 25.7439 12.6042 25.6995 12.6175C25.6662 12.6275 25.6586 12.6366 25.6527 12.6437L25.6522 12.6443C25.6387 12.6605 25.6149 12.6984 25.5878 12.781C25.5648 12.8513 25.5499 12.917 25.5294 13.0075C25.5235 13.0334 25.5172 13.0614 25.5101 13.0921C25.4498 13.3519 25.2476 13.5551 24.988 13.6167C24.7285 13.6782 24.4566 13.5874 24.2861 13.3824C24.1265 13.1903 23.8247 12.9128 23.4794 12.7387C23.1356 12.5653 22.8483 12.5392 22.6103 12.6474C22.4524 12.7191 22.4181 12.7761 22.4172 12.7776L22.4172 12.7776C22.417 12.7779 22.4168 12.7782 22.4167 12.7784C22.4164 12.7803 22.4154 12.7886 22.4173 12.8053C22.4222 12.8465 22.4428 12.9141 22.4918 13.0006C22.5396 13.0849 22.6003 13.162 22.6537 13.217C22.8525 13.4221 22.9072 13.7272 22.7921 13.9886C22.6769 14.25 22.4148 14.4156 22.1293 14.4074C22.0241 14.4043 21.8264 14.434 21.6571 14.532C21.5379 14.601 21.4301 14.7028 21.3691 14.8811C21.434 14.8991 21.5184 14.9147 21.6228 14.9254C22.0898 14.9732 22.7217 14.9004 23.1719 14.8082C23.4524 14.7508 23.7397 14.8695 23.8979 15.1082C24.0561 15.3468 24.0534 15.6577 23.8911 15.8936C23.8667 15.9291 23.8344 15.9856 23.8073 16.0521C23.7799 16.1192 23.7652 16.1787 23.7611 16.2236C23.7592 16.2433 23.7597 16.2562 23.7605 16.2637C23.7635 16.2661 23.7678 16.2692 23.7738 16.273C23.8487 16.3207 24.0503 16.3676 24.4012 16.3273C24.7227 16.2904 25.0409 16.1952 25.2222 16.1234C25.5827 15.9805 25.9907 16.1569 26.1336 16.5173C26.2764 16.8777 26.0999 17.2857 25.7394 17.4285C25.4636 17.5378 25.0249 17.6688 24.5612 17.7221C24.1268 17.7719 23.5148 17.7728 23.0192 17.4571C22.555 17.1614 22.3798 16.729 22.3582 16.3306C22.0637 16.3496 21.761 16.3509 21.4796 16.3221C21.1563 16.289 20.7603 16.2075 20.4442 15.9819C20.2746 15.8609 20.1163 15.6897 20.0208 15.4576C19.925 15.2245 19.9135 14.981 19.9562 14.7505C20.0874 14.0413 20.498 13.5809 20.9535 13.3171C20.9955 13.2928 21.0377 13.2702 21.0801 13.2492C21.0541 13.1598 21.0343 13.0669 21.023 12.9711C20.9887 12.6825 21.0303 12.3572 21.2161 12.0505C21.3989 11.7487 21.684 11.5261 22.0296 11.3692C22.8003 11.0191 23.5585 11.2061 24.1119 11.4851C24.2724 11.5661 24.424 11.6585 24.5646 11.7564C24.5675 11.7529 24.5704 11.7494 24.5733 11.7458C24.9585 11.2835 25.5493 11.1172 26.2821 11.2316C27.3119 11.3923 27.7316 12.3603 27.9041 13.0565ZM23.7542 16.2582C23.7542 16.2582 23.7545 16.2585 23.7549 16.259C23.7544 16.2585 23.7542 16.2582 23.7542 16.2582Z" fill="black"/>
<ellipse cx="20.151" cy="19.5518" rx="0.904415" ry="1.12793" fill="black"/>
<ellipse cx="24.6505" cy="20.3202" rx="0.980576" ry="1.21372" fill="black"/>
</svg>