<svg width="32" height="32" viewBox="0 0 32 32" fill="none" xmlns="http://www.w3.org/2000/svg">
<circle cx="16" cy="16" r="16" fill="#29CC5F"/>
<mask id="mask0_4715_85053" style="mask-type:alpha" maskUnits="userSpaceOnUse" x="4" y="4" width="24" height="24">
<rect x="4" y="4" width="24" height="24" fill="#D9D9D9"/>
</mask>
<g mask="url(#mask0_4715_85053)">
<path d="M13.875 18.3244L20.475 11.7494C20.6583 11.566 20.8667 11.4785 21.1 11.4869C21.3333 11.4952 21.5417 11.591 21.725 11.7744C21.9083 11.9577 22 12.166 22 12.3994C22 12.6327 21.9083 12.841 21.725 13.0244L14.525 20.2244C14.3417 20.4077 14.1292 20.4994 13.8875 20.4994C13.6458 20.4994 13.4333 20.4077 13.25 20.2244L10.275 17.2494C10.0917 17.066 10 16.8577 10 16.6244C10 16.391 10.0917 16.1827 10.275 15.9994C10.4583 15.816 10.6667 15.7244 10.9 15.7244C11.1333 15.7244 11.3417 15.816 11.525 15.9994L13.875 18.3244Z" fill="white"/>
</g>
</svg>
