<svg width="32" height="32" viewBox="0 0 32 32" fill="none" xmlns="http://www.w3.org/2000/svg">
<circle cx="16" cy="16" r="16" fill="#FF4D4D"/>
<mask id="mask0_4715_85242" style="mask-type:alpha" maskUnits="userSpaceOnUse" x="4" y="4" width="24" height="24">
<rect x="4" y="4" width="24" height="24" fill="#D9D9D9"/>
</mask>
<g mask="url(#mask0_4715_85242)">
<path d="M15.9999 17.2746L11.8999 21.3746C11.7165 21.5579 11.5082 21.6454 11.2749 21.6371C11.0415 21.6288 10.8332 21.5329 10.6499 21.3496C10.4665 21.1663 10.3749 20.9538 10.3749 20.7121C10.3749 20.4704 10.4665 20.2579 10.6499 20.0746L14.7249 15.9996L10.6249 11.8996C10.4415 11.7163 10.354 11.5038 10.3624 11.2621C10.3707 11.0204 10.4665 10.8079 10.6499 10.6246C10.8332 10.4413 11.0457 10.3496 11.2874 10.3496C11.529 10.3496 11.7415 10.4413 11.9249 10.6246L15.9999 14.7246L20.0999 10.6246C20.2832 10.4413 20.4957 10.3496 20.7374 10.3496C20.979 10.3496 21.1915 10.4413 21.3749 10.6246C21.5582 10.8079 21.6499 11.0204 21.6499 11.2621C21.6499 11.5038 21.5582 11.7163 21.3749 11.8996L17.2749 15.9996L21.3749 20.0996C21.5582 20.2829 21.6499 20.4913 21.6499 20.7246C21.6499 20.9579 21.5582 21.1663 21.3749 21.3496C21.1915 21.5329 20.979 21.6246 20.7374 21.6246C20.4957 21.6246 20.2832 21.5329 20.0999 21.3496L15.9999 17.2746Z" fill="white"/>
</g>
</svg>
