<svg width="24" height="24" viewBox="0 0 24 24" fill="none" xmlns="http://www.w3.org/2000/svg">
<path d="M12 2C17.5228 2 22 6.47715 22 12C22 17.5228 17.5228 22 12 22C6.47715 22 2 17.5228 2 12C2 6.47715 6.47715 2 12 2ZM7.83301 9.90234C7.73779 9.90234 7.66016 9.9799 7.66016 10.0752V16.5186C7.66026 16.6137 7.73785 16.6904 7.83301 16.6904H9.83398C9.92918 16.6904 10.0067 16.6137 10.0068 16.5186V10.0752C10.0069 9.97986 9.92924 9.90234 9.83398 9.90234H7.83301ZM14.9512 9.82715C14.2189 9.82719 13.5755 10.0496 13.1826 10.4131V10.0752C13.1826 9.97991 13.105 9.90237 13.0098 9.90234H11.0898C10.9946 9.90234 10.917 9.9799 10.917 10.0752V16.5186C10.9172 16.6137 10.9947 16.6904 11.0898 16.6904H13.0898C13.1848 16.6902 13.2615 16.6135 13.2617 16.5186V13.3301C13.2618 12.4157 13.4302 11.8487 14.2695 11.8486C15.0966 11.8496 15.1592 12.4577 15.1592 13.3848V16.5186C15.1594 16.6136 15.236 16.6903 15.3311 16.6904H17.332C17.4271 16.6904 17.5047 16.6136 17.5049 16.5186V12.9834C17.5048 11.5136 17.2139 9.82715 14.9512 9.82715ZM8.83398 6.69922C8.09922 6.69922 7.50054 7.29787 7.5 8.0332C7.50013 8.76843 8.09877 9.36621 8.83398 9.36621C9.56872 9.36596 10.1659 8.76828 10.166 8.0332C10.166 7.2981 9.56877 6.69947 8.83398 6.69922Z" fill="#ADADAD"/>
</svg>
