<svg width="22" height="23" viewBox="0 0 22 23" fill="none" xmlns="http://www.w3.org/2000/svg">
<path fill-rule="evenodd" clip-rule="evenodd" d="M7.87513 2C7.87513 1.44772 8.32285 1 8.87513 1H12.5419C13.0942 1 13.5419 1.44772 13.5419 2V7.66675H19.417C19.9693 7.66675 20.417 8.11447 20.417 8.66675V11.3335C20.417 11.8858 19.9693 12.3335 19.417 12.3335H2C1.44772 12.3335 1 11.8858 1 11.3335V8.66675C1 8.11447 1.44772 7.66675 2 7.66675H7.87513V2Z" stroke="#070707" stroke-width="2" stroke-linecap="round" stroke-linejoin="round"/>
<path d="M2.375 20.6232C2.375 21.1755 2.82272 21.6232 3.375 21.6232H18.0419C18.5942 21.6232 19.0419 21.1755 19.0419 20.6232V12.373H2.375V20.6232Z" stroke="#070707" stroke-width="2" stroke-linejoin="round"/>
<path d="M7.04199 21.5765V18.834" stroke="#070707" stroke-width="2" stroke-linecap="round" stroke-linejoin="round"/>
<path d="M10.709 21.5762V18.8262" stroke="#070707" stroke-width="2" stroke-linecap="round" stroke-linejoin="round"/>
<path d="M14.375 21.5765V18.834" stroke="#070707" stroke-width="2" stroke-linecap="round" stroke-linejoin="round"/>
</svg>
