<svg width="72" height="72" viewBox="0 0 72 72" fill="none" xmlns="http://www.w3.org/2000/svg">
<path d="M45 2.25V15.75C45 18.2353 47.0147 20.25 49.5 20.25H63V66.5996C63 68.3393 61.5893 69.75 59.8496 69.75H12.1504C10.4107 69.75 9 68.3393 9 66.5996V5.40039C9 3.66069 10.4107 2.25 12.1504 2.25H45Z" fill="#B3B3B3"/>
<path d="M48.15 20.25H63L45 2.25V17.1C45 18.8397 46.4103 20.25 48.15 20.25Z" fill="#CACACA"/>
<path fill-rule="evenodd" clip-rule="evenodd" d="M25.3129 9V12.375H21.9379V15.75H25.3129V19.125H21.9379V22.5H25.3129V25.875H30.3754V22.5H27.0004V19.125H30.3754V15.75H27.0004V12.375H30.3754V9H27.0004L27.0004 5.625H21.9379L21.9379 9H25.3129ZM21.9379 30.9375C21.9379 29.0735 23.449 27.5625 25.3129 27.5625H28.6879C30.5519 27.5625 32.0629 29.0735 32.0629 30.9375V34.1048L33.4116 39.4995C33.7576 40.8832 33.1963 42.3351 32.0095 43.1262L28.8726 45.2175C27.7389 45.9733 26.262 45.9733 25.1283 45.2175L21.9914 43.1262C20.8046 42.3351 20.2433 40.8833 20.5893 39.4995L21.9379 34.1048V30.9375ZM25.3127 30.9375V34.1048C25.3127 34.3807 25.2789 34.6556 25.212 34.9233L23.8633 40.3181L27.0002 42.4094L30.1372 40.3181L28.7885 34.9233C28.7216 34.6556 28.6877 34.3807 28.6877 34.1048V30.9375H25.3127Z" fill="white"/>
</svg>
