<svg width="25" height="24" viewBox="0 0 25 24" fill="none" xmlns="http://www.w3.org/2000/svg">
<path fill-rule="evenodd" clip-rule="evenodd" d="M6.24984 4.66667C5.74358 4.66667 5.33317 5.07707 5.33317 5.58333V10.1667C5.33317 10.6729 5.74358 11.0833 6.24984 11.0833H17.2498C17.7561 11.0833 18.1665 10.6729 18.1665 10.1667V5.58333C18.1665 5.07707 17.7561 4.66667 17.2498 4.66667H6.24984ZM14.0415 6.04167C13.5352 6.04167 13.1248 6.45207 13.1248 6.95833V8.79167C13.1248 9.29793 13.5352 9.70833 14.0415 9.70833H15.8748C16.3811 9.70833 16.7915 9.29793 16.7915 8.79167V6.95833C16.7915 6.45207 16.3811 6.04167 15.8748 6.04167H14.0415Z" fill="#8F8F8F"/>
<path d="M5.33317 13.8333C5.33317 13.3271 5.74358 12.9167 6.24984 12.9167H19.0832C19.5894 12.9167 19.9998 13.3271 19.9998 13.8333V18.4167C19.9998 18.9229 19.5894 19.3333 19.0832 19.3333H6.24984C5.74358 19.3333 5.33317 18.9229 5.33317 18.4167V13.8333Z" fill="#8F8F8F"/>
<path fill-rule="evenodd" clip-rule="evenodd" d="M1.6665 4.66667C1.6665 2.64162 3.30813 1 5.33317 1H16.6477C17.6202 1 18.5528 1.38631 19.2404 2.07394L22.5926 5.42606C23.2802 6.11369 23.6665 7.04632 23.6665 8.01878V19.3333C23.6665 21.3584 22.0249 23 19.9998 23H5.33317C3.30813 23 1.6665 21.3584 1.6665 19.3333V4.66667ZM2.58317 19.3333V4.66667C2.58317 3.14788 3.81439 1.91667 5.33317 1.91667H16.6477C17.3771 1.91667 18.0765 2.2064 18.5923 2.72212L21.9444 6.07424C22.4601 6.58996 22.7498 7.28944 22.7498 8.01878V19.3333C22.7498 20.8521 21.5186 22.0833 19.9998 22.0833H5.33317C3.81439 22.0833 2.58317 20.8521 2.58317 19.3333Z" fill="#8F8F8F"/>
</svg>
