<svg width="25" height="24" viewBox="0 0 25 24" fill="none" xmlns="http://www.w3.org/2000/svg">
<path fill-rule="evenodd" clip-rule="evenodd" d="M3.24396 15.9445C2.86509 15.5656 2.86509 14.9514 3.24396 14.5725L14.906 2.91046C15.2849 2.53159 15.8991 2.53159 16.278 2.91046L21.423 8.05548C21.8019 8.43435 21.8019 9.04862 21.423 9.42749L9.76099 21.0895C9.38212 21.4684 8.76785 21.4684 8.38898 21.0895L3.24396 15.9445ZM7.91473 13.5342C7.6702 13.2892 7.22941 13.3329 6.93019 13.6317L5.84662 14.7139C5.5474 15.0127 5.50306 15.4536 5.74759 15.6986L8.62549 18.582C8.87001 18.827 9.31081 18.7834 9.61003 18.4846L10.6936 17.4024C10.9928 17.1036 11.0372 16.6627 10.7926 16.4177L7.91473 13.5342ZM10.6237 10.8288C10.3791 10.5838 9.93833 10.6274 9.63911 10.9263L8.55554 12.0084C8.25632 12.3073 8.21198 12.7481 8.45651 12.9931L11.3344 15.8766C11.5789 16.1216 12.0197 16.078 12.319 15.7791L13.4025 14.697C13.7017 14.3981 13.7461 13.9573 13.5016 13.7123L10.6237 10.8288ZM11.2645 9.30303C10.9652 9.60186 10.9209 10.0427 11.1654 10.2877L14.0433 13.1712C14.2879 13.4162 14.7287 13.3726 15.0279 13.0737L16.1115 11.9916C16.4107 11.6927 16.455 11.2519 16.2105 11.0069L13.3326 8.12339C13.0881 7.87839 12.6473 7.92203 12.348 8.22086L11.2645 9.30303ZM16.0415 5.41797C15.797 5.17297 15.3562 5.21661 15.057 5.51544L13.9734 6.59761C13.6742 6.89644 13.6298 7.3373 13.8744 7.5823L16.7523 10.4658C16.9968 10.7108 17.4376 10.6671 17.7368 10.3683L18.8204 9.28613C19.1196 8.9873 19.1639 8.54644 18.9194 8.30144L16.0415 5.41797Z" fill="#8F8F8F"/>
<path fill-rule="evenodd" clip-rule="evenodd" d="M7.01697 23.1475C8.15358 24.2842 9.99639 24.2842 11.133 23.1475L11.819 22.4615L12.848 23.4905C13.2269 23.8694 13.8411 23.8694 14.22 23.4905L23.824 13.8865C24.2029 13.5076 24.2029 12.8934 23.824 12.5145L22.795 11.4855L23.481 10.7995C24.6176 9.66289 24.6176 7.82009 23.481 6.68348L17.65 0.852455C16.5134 -0.284152 14.6706 -0.284152 13.534 0.852455L1.18595 13.2005C0.0493445 14.3371 0.0493444 16.1799 1.18595 17.3165L7.01697 23.1475ZM14.22 1.53846L1.87195 13.8865C1.11422 14.6442 1.11422 15.8728 1.87195 16.6305L7.70298 22.4615C8.46072 23.2193 9.68925 23.2193 10.447 22.4615L22.795 10.1135C23.5528 9.35575 23.5528 8.12722 22.795 7.36948L16.964 1.53846C16.2063 0.78072 14.9777 0.780719 14.22 1.53846Z" fill="#8F8F8F"/>
</svg>
