<svg width="16" height="16" viewBox="0 0 16 16" fill="none" xmlns="http://www.w3.org/2000/svg">
<path d="M7.13335 8.86668H1.53335C1.2878 8.86668 1.08196 8.78426 0.915854 8.61942C0.749743 8.45457 0.666687 8.2503 0.666687 8.00662C0.666687 7.76293 0.749743 7.55647 0.915854 7.38725C1.08196 7.21803 1.2878 7.13342 1.53335 7.13342H7.13335V1.53341C7.13335 1.28786 7.21578 1.08203 7.38062 0.915916C7.54547 0.749805 7.74973 0.666748 7.99342 0.666748C8.23711 0.666748 8.44356 0.749805 8.61279 0.915916C8.78201 1.08203 8.86662 1.28786 8.86662 1.53341V7.13342H14.4666C14.7122 7.13342 14.918 7.21584 15.0841 7.38068C15.2502 7.54553 15.3333 7.74979 15.3333 7.99348C15.3333 8.23717 15.2502 8.44363 15.0841 8.61285C14.918 8.78207 14.7122 8.86668 14.4666 8.86668H8.86662V14.4667C8.86662 14.7122 8.7842 14.9181 8.61935 15.0842C8.45451 15.2503 8.25024 15.3333 8.00655 15.3333C7.76286 15.3333 7.55641 15.2503 7.38719 15.0842C7.21797 14.9181 7.13335 14.7122 7.13335 14.4667V8.86668Z" fill="#1C1B1F"/>
</svg>
