<svg width="216" height="120" viewBox="0 0 216 120" fill="none" xmlns="http://www.w3.org/2000/svg">
<rect x="0.5" y="0.5" width="215" height="119" rx="7.5" stroke="#EBEBEB" stroke-dasharray="4 4"/>
<rect x="92" y="20" width="32" height="32" rx="16" fill="#FFF1EB"/>
<mask id="mask0_1500_52637" style="mask-type:alpha" maskUnits="userSpaceOnUse" x="96" y="24" width="24" height="24">
<rect x="96" y="24" width="24" height="24" fill="#D9D9D9"/>
</mask>
<g mask="url(#mask0_1500_52637)">
<path d="M107.35 36.65H103.15C102.966 36.65 102.811 36.5881 102.687 36.4645C102.562 36.3409 102.5 36.1877 102.5 36.0049C102.5 35.8221 102.562 35.6673 102.687 35.5404C102.811 35.4135 102.966 35.35 103.15 35.35H107.35V31.15C107.35 30.9658 107.412 30.8115 107.535 30.6869C107.659 30.5623 107.812 30.5 107.995 30.5C108.178 30.5 108.333 30.5623 108.46 30.6869C108.586 30.8115 108.65 30.9658 108.65 31.15V35.35H112.85C113.034 35.35 113.188 35.4118 113.313 35.5355C113.438 35.6591 113.5 35.8123 113.5 35.9951C113.5 36.1778 113.438 36.3327 113.313 36.4596C113.188 36.5865 113.034 36.65 112.85 36.65H108.65V40.8499C108.65 41.0341 108.588 41.1885 108.465 41.3131C108.341 41.4377 108.188 41.5 108.005 41.5C107.822 41.5 107.667 41.4377 107.54 41.3131C107.413 41.1885 107.35 41.0341 107.35 40.8499V36.65Z" fill="#FF7733"/>
</g>
<path d="M18.5039 70.0439V73.6875C18.3809 73.8698 18.1849 74.0749 17.916 74.3027C17.6471 74.526 17.2757 74.722 16.8018 74.8906C16.3324 75.0547 15.7262 75.1367 14.9834 75.1367C14.3773 75.1367 13.819 75.0319 13.3086 74.8223C12.8027 74.6081 12.363 74.2982 11.9893 73.8926C11.6201 73.4824 11.333 72.9857 11.1279 72.4023C10.9274 71.8145 10.8271 71.1491 10.8271 70.4062V69.6338C10.8271 68.891 10.9137 68.2279 11.0869 67.6445C11.2646 67.0612 11.5244 66.5667 11.8662 66.1611C12.208 65.751 12.6273 65.4411 13.124 65.2314C13.6208 65.0173 14.1904 64.9102 14.833 64.9102C15.5941 64.9102 16.2298 65.0423 16.7402 65.3066C17.2552 65.5664 17.6562 65.9264 17.9434 66.3867C18.235 66.847 18.4219 67.3711 18.5039 67.959H17.1846C17.1253 67.599 17.0068 67.2708 16.8291 66.9746C16.6559 66.6784 16.4076 66.4414 16.084 66.2637C15.7604 66.0814 15.3434 65.9902 14.833 65.9902C14.3727 65.9902 13.974 66.0745 13.6367 66.2432C13.2995 66.4118 13.0215 66.6533 12.8027 66.9678C12.584 67.2822 12.4199 67.6628 12.3105 68.1094C12.2057 68.556 12.1533 69.0596 12.1533 69.6201V70.4062C12.1533 70.9805 12.2194 71.4932 12.3516 71.9443C12.4883 72.3955 12.682 72.7806 12.9326 73.0996C13.1833 73.4141 13.4818 73.6533 13.8281 73.8174C14.179 73.9814 14.5664 74.0635 14.9902 74.0635C15.4596 74.0635 15.8402 74.0247 16.1318 73.9473C16.4235 73.8652 16.6514 73.7695 16.8154 73.6602C16.9795 73.5462 17.1048 73.4391 17.1914 73.3389V71.1104H14.8877V70.0439H18.5039ZM23.5693 75.1367C23.0544 75.1367 22.5872 75.0501 22.168 74.877C21.7533 74.6992 21.3955 74.4508 21.0947 74.1318C20.7985 73.8128 20.5706 73.4346 20.4111 72.9971C20.2516 72.5596 20.1719 72.0811 20.1719 71.5615V71.2744C20.1719 70.6729 20.2607 70.1374 20.4385 69.668C20.6162 69.194 20.8577 68.793 21.1631 68.4648C21.4684 68.1367 21.8148 67.8883 22.2021 67.7197C22.5895 67.5511 22.9906 67.4668 23.4053 67.4668C23.9339 67.4668 24.3896 67.5579 24.7725 67.7402C25.1598 67.9225 25.4766 68.1777 25.7227 68.5059C25.9688 68.8294 26.151 69.2122 26.2695 69.6543C26.388 70.0918 26.4473 70.5703 26.4473 71.0898V71.6572H20.9238V70.625H25.1826V70.5293C25.1644 70.2012 25.096 69.8822 24.9775 69.5723C24.8636 69.2624 24.6813 69.0072 24.4307 68.8066C24.18 68.6061 23.8382 68.5059 23.4053 68.5059C23.1182 68.5059 22.8538 68.5674 22.6123 68.6904C22.3708 68.8089 22.1634 68.9867 21.9902 69.2236C21.8171 69.4606 21.6826 69.75 21.5869 70.0918C21.4912 70.4336 21.4434 70.8278 21.4434 71.2744V71.5615C21.4434 71.9124 21.4912 72.2428 21.5869 72.5527C21.6872 72.8581 21.8307 73.127 22.0176 73.3594C22.209 73.5918 22.4391 73.7741 22.708 73.9062C22.9814 74.0384 23.2913 74.1045 23.6377 74.1045C24.0843 74.1045 24.4626 74.0133 24.7725 73.8311C25.0824 73.6488 25.3535 73.4049 25.5859 73.0996L26.3516 73.708C26.1921 73.9495 25.9893 74.1797 25.7432 74.3984C25.4971 74.6172 25.194 74.7949 24.834 74.9316C24.4785 75.0684 24.057 75.1367 23.5693 75.1367ZM31.0205 67.6035V68.5742H27.0215V67.6035H31.0205ZM28.375 65.8057H29.6396V73.168C29.6396 73.4186 29.6784 73.6077 29.7559 73.7354C29.8333 73.863 29.9336 73.9473 30.0566 73.9883C30.1797 74.0293 30.3118 74.0498 30.4531 74.0498C30.5579 74.0498 30.6673 74.0407 30.7812 74.0225C30.8997 73.9997 30.9886 73.9814 31.0479 73.9678L31.0547 75C30.9544 75.0319 30.8223 75.0615 30.6582 75.0889C30.4987 75.1208 30.305 75.1367 30.0771 75.1367C29.7673 75.1367 29.4824 75.0752 29.2227 74.9521C28.9629 74.8291 28.7555 74.624 28.6006 74.3369C28.4502 74.0452 28.375 73.6533 28.375 73.1611V65.8057ZM37.2412 69.0254V77.8438H35.9697V67.6035H37.1318L37.2412 69.0254ZM42.2246 71.2402V71.3838C42.2246 71.9215 42.1608 72.4206 42.0332 72.8809C41.9056 73.3366 41.7188 73.7331 41.4727 74.0703C41.2311 74.4076 40.9326 74.6696 40.5771 74.8564C40.2217 75.0433 39.8138 75.1367 39.3535 75.1367C38.8841 75.1367 38.4694 75.0592 38.1094 74.9043C37.7493 74.7493 37.444 74.5238 37.1934 74.2275C36.9427 73.9313 36.7422 73.5758 36.5918 73.1611C36.446 72.7464 36.3457 72.2793 36.291 71.7598V70.9941C36.3457 70.4473 36.4482 69.9574 36.5986 69.5244C36.749 69.0915 36.9473 68.7223 37.1934 68.417C37.444 68.1071 37.7471 67.8724 38.1025 67.7129C38.458 67.5488 38.8682 67.4668 39.333 67.4668C39.7979 67.4668 40.2103 67.5579 40.5703 67.7402C40.9303 67.918 41.2334 68.1732 41.4795 68.5059C41.7256 68.8385 41.9102 69.2373 42.0332 69.7021C42.1608 70.1624 42.2246 70.6751 42.2246 71.2402ZM40.9531 71.3838V71.2402C40.9531 70.8711 40.9144 70.5247 40.8369 70.2012C40.7594 69.873 40.6387 69.5859 40.4746 69.3398C40.3151 69.0892 40.11 68.8932 39.8594 68.752C39.6087 68.6061 39.3102 68.5332 38.9639 68.5332C38.6449 68.5332 38.3669 68.5879 38.1299 68.6973C37.8975 68.8066 37.6992 68.9548 37.5352 69.1416C37.3711 69.3239 37.2367 69.5335 37.1318 69.7705C37.0316 70.0029 36.9564 70.2445 36.9062 70.4951V72.2656C36.9974 72.5846 37.125 72.8854 37.2891 73.168C37.4531 73.446 37.6719 73.6715 37.9453 73.8447C38.2188 74.0133 38.5628 74.0977 38.9775 74.0977C39.3193 74.0977 39.6133 74.027 39.8594 73.8857C40.11 73.7399 40.3151 73.5417 40.4746 73.291C40.6387 73.0404 40.7594 72.7533 40.8369 72.4297C40.9144 72.1016 40.9531 71.7529 40.9531 71.3838ZM46.9072 75.1367C46.3923 75.1367 45.9251 75.0501 45.5059 74.877C45.0911 74.6992 44.7334 74.4508 44.4326 74.1318C44.1364 73.8128 43.9085 73.4346 43.749 72.9971C43.5895 72.5596 43.5098 72.0811 43.5098 71.5615V71.2744C43.5098 70.6729 43.5986 70.1374 43.7764 69.668C43.9541 69.194 44.1956 68.793 44.501 68.4648C44.8063 68.1367 45.1527 67.8883 45.54 67.7197C45.9274 67.5511 46.3285 67.4668 46.7432 67.4668C47.2718 67.4668 47.7275 67.5579 48.1104 67.7402C48.4977 67.9225 48.8145 68.1777 49.0605 68.5059C49.3066 68.8294 49.4889 69.2122 49.6074 69.6543C49.7259 70.0918 49.7852 70.5703 49.7852 71.0898V71.6572H44.2617V70.625H48.5205V70.5293C48.5023 70.2012 48.4339 69.8822 48.3154 69.5723C48.2015 69.2624 48.0192 69.0072 47.7686 68.8066C47.5179 68.6061 47.1761 68.5059 46.7432 68.5059C46.4561 68.5059 46.1917 68.5674 45.9502 68.6904C45.7087 68.8089 45.5013 68.9867 45.3281 69.2236C45.1549 69.4606 45.0205 69.75 44.9248 70.0918C44.8291 70.4336 44.7812 70.8278 44.7812 71.2744V71.5615C44.7812 71.9124 44.8291 72.2428 44.9248 72.5527C45.0251 72.8581 45.1686 73.127 45.3555 73.3594C45.5469 73.5918 45.777 73.7741 46.0459 73.9062C46.3193 74.0384 46.6292 74.1045 46.9756 74.1045C47.4222 74.1045 47.8005 74.0133 48.1104 73.8311C48.4202 73.6488 48.6914 73.4049 48.9238 73.0996L49.6895 73.708C49.5299 73.9495 49.3271 74.1797 49.0811 74.3984C48.835 74.6172 48.5319 74.7949 48.1719 74.9316C47.8164 75.0684 47.3949 75.1367 46.9072 75.1367ZM52.5264 68.7656V75H51.2617V67.6035H52.4922L52.5264 68.7656ZM54.8369 67.5625L54.8301 68.7383C54.7253 68.7155 54.625 68.7018 54.5293 68.6973C54.4382 68.6882 54.3333 68.6836 54.2148 68.6836C53.9232 68.6836 53.6657 68.7292 53.4424 68.8203C53.2191 68.9115 53.0299 69.0391 52.875 69.2031C52.7201 69.3672 52.597 69.5632 52.5059 69.791C52.4193 70.0143 52.3623 70.2604 52.335 70.5293L51.9795 70.7344C51.9795 70.2878 52.0228 69.8685 52.1094 69.4766C52.2005 69.0846 52.3395 68.7383 52.5264 68.4375C52.7132 68.1322 52.9502 67.8952 53.2373 67.7266C53.529 67.5534 53.8753 67.4668 54.2764 67.4668C54.3675 67.4668 54.4723 67.4782 54.5908 67.501C54.7093 67.5192 54.7913 67.5397 54.8369 67.5625ZM60.3125 73.0381C60.3125 72.8558 60.2715 72.6872 60.1895 72.5322C60.112 72.3727 59.9502 72.2292 59.7041 72.1016C59.4626 71.9694 59.098 71.8555 58.6104 71.7598C58.2002 71.6732 57.8288 71.5706 57.4961 71.4521C57.168 71.3337 56.8877 71.1901 56.6553 71.0215C56.4274 70.8529 56.252 70.6546 56.1289 70.4268C56.0059 70.1989 55.9443 69.9323 55.9443 69.627C55.9443 69.3353 56.0081 69.0596 56.1357 68.7998C56.2679 68.54 56.4525 68.3099 56.6895 68.1094C56.931 67.9089 57.2204 67.7516 57.5576 67.6377C57.8949 67.5238 58.2708 67.4668 58.6855 67.4668C59.278 67.4668 59.7839 67.5716 60.2031 67.7812C60.6224 67.9909 60.9437 68.2712 61.167 68.6221C61.3903 68.9684 61.502 69.3535 61.502 69.7773H60.2373C60.2373 69.5723 60.1758 69.374 60.0527 69.1826C59.9342 68.9867 59.7588 68.8249 59.5264 68.6973C59.2985 68.5697 59.0182 68.5059 58.6855 68.5059C58.3346 68.5059 58.0498 68.5605 57.8311 68.6699C57.6169 68.7747 57.4596 68.9092 57.3594 69.0732C57.2637 69.2373 57.2158 69.4105 57.2158 69.5928C57.2158 69.7295 57.2386 69.8525 57.2842 69.9619C57.3343 70.0667 57.4209 70.1647 57.5439 70.2559C57.667 70.3424 57.8402 70.4245 58.0635 70.502C58.2868 70.5794 58.5716 70.6569 58.918 70.7344C59.5241 70.8711 60.0231 71.0352 60.415 71.2266C60.807 71.418 61.0986 71.6527 61.29 71.9307C61.4814 72.2087 61.5771 72.5459 61.5771 72.9424C61.5771 73.266 61.5088 73.5622 61.3721 73.8311C61.2399 74.0999 61.0462 74.3324 60.791 74.5283C60.5404 74.7197 60.2396 74.8701 59.8887 74.9795C59.5423 75.0843 59.1527 75.1367 58.7197 75.1367C58.068 75.1367 57.5166 75.0205 57.0654 74.7881C56.6143 74.5557 56.2725 74.2549 56.04 73.8857C55.8076 73.5166 55.6914 73.127 55.6914 72.7168H56.9629C56.9811 73.0632 57.0814 73.3389 57.2637 73.5439C57.446 73.7445 57.6693 73.888 57.9336 73.9746C58.1979 74.0566 58.46 74.0977 58.7197 74.0977C59.0661 74.0977 59.3555 74.0521 59.5879 73.9609C59.8249 73.8698 60.0049 73.7445 60.1279 73.585C60.251 73.4255 60.3125 73.2432 60.3125 73.0381ZM62.9033 71.3838V71.2266C62.9033 70.6934 62.9808 70.1989 63.1357 69.7432C63.2907 69.2829 63.514 68.8841 63.8057 68.5469C64.0973 68.2051 64.4505 67.9408 64.8652 67.7539C65.2799 67.5625 65.7448 67.4668 66.2598 67.4668C66.7793 67.4668 67.2464 67.5625 67.6611 67.7539C68.0804 67.9408 68.4359 68.2051 68.7275 68.5469C69.0238 68.8841 69.2493 69.2829 69.4043 69.7432C69.5592 70.1989 69.6367 70.6934 69.6367 71.2266V71.3838C69.6367 71.917 69.5592 72.4115 69.4043 72.8672C69.2493 73.3229 69.0238 73.7217 68.7275 74.0635C68.4359 74.4007 68.0827 74.665 67.668 74.8564C67.2578 75.0433 66.793 75.1367 66.2734 75.1367C65.7539 75.1367 65.2868 75.0433 64.8721 74.8564C64.4574 74.665 64.1019 74.4007 63.8057 74.0635C63.514 73.7217 63.2907 73.3229 63.1357 72.8672C62.9808 72.4115 62.9033 71.917 62.9033 71.3838ZM64.168 71.2266V71.3838C64.168 71.7529 64.2113 72.1016 64.2979 72.4297C64.3844 72.7533 64.5143 73.0404 64.6875 73.291C64.8652 73.5417 65.0863 73.7399 65.3506 73.8857C65.6149 74.027 65.9225 74.0977 66.2734 74.0977C66.6198 74.0977 66.9229 74.027 67.1826 73.8857C67.4469 73.7399 67.6657 73.5417 67.8389 73.291C68.012 73.0404 68.1419 72.7533 68.2285 72.4297C68.3197 72.1016 68.3652 71.7529 68.3652 71.3838V71.2266C68.3652 70.862 68.3197 70.5179 68.2285 70.1943C68.1419 69.8662 68.0098 69.5768 67.832 69.3262C67.6589 69.071 67.4401 68.8704 67.1758 68.7246C66.916 68.5788 66.6107 68.5059 66.2598 68.5059C65.9134 68.5059 65.6081 68.5788 65.3438 68.7246C65.084 68.8704 64.8652 69.071 64.6875 69.3262C64.5143 69.5768 64.3844 69.8662 64.2979 70.1943C64.2113 70.5179 64.168 70.862 64.168 71.2266ZM72.4873 69.1826V75H71.2227V67.6035H72.4189L72.4873 69.1826ZM72.1865 71.0215L71.6602 71.001C71.6647 70.4951 71.7399 70.028 71.8857 69.5996C72.0316 69.1667 72.2367 68.7907 72.501 68.4717C72.7653 68.1527 73.0798 67.9066 73.4443 67.7334C73.8135 67.5557 74.2214 67.4668 74.668 67.4668C75.0326 67.4668 75.3607 67.5169 75.6523 67.6172C75.944 67.7129 76.1924 67.8678 76.3975 68.082C76.6071 68.2962 76.7666 68.5742 76.876 68.916C76.9854 69.2533 77.04 69.6657 77.04 70.1533V75H75.7686V70.1396C75.7686 69.7523 75.7116 69.4424 75.5977 69.21C75.4837 68.973 75.3174 68.8021 75.0986 68.6973C74.8799 68.5879 74.611 68.5332 74.292 68.5332C73.9775 68.5332 73.6904 68.5993 73.4307 68.7314C73.1755 68.8636 72.9544 69.0459 72.7676 69.2783C72.5853 69.5107 72.4417 69.7773 72.3369 70.0781C72.2367 70.3743 72.1865 70.6888 72.1865 71.0215ZM83.3223 73.7354V69.9277C83.3223 69.6361 83.263 69.3831 83.1445 69.1689C83.0306 68.9502 82.8574 68.7816 82.625 68.6631C82.3926 68.5446 82.1055 68.4854 81.7637 68.4854C81.4447 68.4854 81.1644 68.54 80.9229 68.6494C80.6859 68.7588 80.499 68.9023 80.3623 69.0801C80.2301 69.2578 80.1641 69.4492 80.1641 69.6543H78.8994C78.8994 69.39 78.9678 69.1279 79.1045 68.8682C79.2412 68.6084 79.4372 68.3737 79.6924 68.1641C79.9521 67.9499 80.262 67.7812 80.6221 67.6582C80.9867 67.5306 81.3923 67.4668 81.8389 67.4668C82.3766 67.4668 82.8506 67.5579 83.2607 67.7402C83.6755 67.9225 83.999 68.1982 84.2314 68.5674C84.4684 68.932 84.5869 69.39 84.5869 69.9414V73.3867C84.5869 73.6328 84.6074 73.8949 84.6484 74.1729C84.694 74.4508 84.7601 74.6901 84.8467 74.8906V75H83.5273C83.4635 74.8542 83.4134 74.6605 83.377 74.4189C83.3405 74.1729 83.3223 73.945 83.3223 73.7354ZM83.541 70.5156L83.5547 71.4043H82.2764C81.9163 71.4043 81.5951 71.4339 81.3125 71.4932C81.0299 71.5479 80.793 71.6322 80.6016 71.7461C80.4102 71.86 80.2643 72.0036 80.1641 72.1768C80.0638 72.3454 80.0137 72.5436 80.0137 72.7715C80.0137 73.0039 80.0661 73.2158 80.1709 73.4072C80.2757 73.5986 80.4329 73.7513 80.6426 73.8652C80.8568 73.9746 81.1188 74.0293 81.4287 74.0293C81.8161 74.0293 82.1579 73.9473 82.4541 73.7832C82.7503 73.6191 82.985 73.4186 83.1582 73.1816C83.3359 72.9447 83.4316 72.7145 83.4453 72.4912L83.9854 73.0996C83.9535 73.291 83.8669 73.5029 83.7256 73.7354C83.5843 73.9678 83.3952 74.1911 83.1582 74.4053C82.9258 74.6149 82.6478 74.7904 82.3242 74.9316C82.0052 75.0684 81.6452 75.1367 81.2441 75.1367C80.7428 75.1367 80.3031 75.0387 79.9248 74.8428C79.5511 74.6468 79.2594 74.3848 79.0498 74.0566C78.8447 73.724 78.7422 73.3525 78.7422 72.9424C78.7422 72.5459 78.8197 72.1973 78.9746 71.8965C79.1296 71.5911 79.3529 71.3382 79.6445 71.1377C79.9362 70.9326 80.2871 70.7777 80.6973 70.6729C81.1074 70.568 81.5654 70.5156 82.0713 70.5156H83.541ZM87.9502 64.5V75H86.6787V64.5H87.9502ZM94.7178 68.7656V75H93.4531V67.6035H94.6836L94.7178 68.7656ZM97.0283 67.5625L97.0215 68.7383C96.9167 68.7155 96.8164 68.7018 96.7207 68.6973C96.6296 68.6882 96.5247 68.6836 96.4062 68.6836C96.1146 68.6836 95.8571 68.7292 95.6338 68.8203C95.4105 68.9115 95.2214 69.0391 95.0664 69.2031C94.9115 69.3672 94.7884 69.5632 94.6973 69.791C94.6107 70.0143 94.5537 70.2604 94.5264 70.5293L94.1709 70.7344C94.1709 70.2878 94.2142 69.8685 94.3008 69.4766C94.3919 69.0846 94.5309 68.7383 94.7178 68.4375C94.9046 68.1322 95.1416 67.8952 95.4287 67.7266C95.7204 67.5534 96.0667 67.4668 96.4678 67.4668C96.5589 67.4668 96.6637 67.4782 96.7822 67.501C96.9007 67.5192 96.9827 67.5397 97.0283 67.5625ZM101.13 75.1367C100.615 75.1367 100.148 75.0501 99.7285 74.877C99.3138 74.6992 98.9561 74.4508 98.6553 74.1318C98.359 73.8128 98.1312 73.4346 97.9717 72.9971C97.8122 72.5596 97.7324 72.0811 97.7324 71.5615V71.2744C97.7324 70.6729 97.8213 70.1374 97.999 69.668C98.1768 69.194 98.4183 68.793 98.7236 68.4648C99.029 68.1367 99.3753 67.8883 99.7627 67.7197C100.15 67.5511 100.551 67.4668 100.966 67.4668C101.494 67.4668 101.95 67.5579 102.333 67.7402C102.72 67.9225 103.037 68.1777 103.283 68.5059C103.529 68.8294 103.712 69.2122 103.83 69.6543C103.949 70.0918 104.008 70.5703 104.008 71.0898V71.6572H98.4844V70.625H102.743V70.5293C102.725 70.2012 102.657 69.8822 102.538 69.5723C102.424 69.2624 102.242 69.0072 101.991 68.8066C101.741 68.6061 101.399 68.5059 100.966 68.5059C100.679 68.5059 100.414 68.5674 100.173 68.6904C99.9313 68.8089 99.724 68.9867 99.5508 69.2236C99.3776 69.4606 99.2432 69.75 99.1475 70.0918C99.0518 70.4336 99.0039 70.8278 99.0039 71.2744V71.5615C99.0039 71.9124 99.0518 72.2428 99.1475 72.5527C99.2477 72.8581 99.3913 73.127 99.5781 73.3594C99.7695 73.5918 99.9997 73.7741 100.269 73.9062C100.542 74.0384 100.852 74.1045 101.198 74.1045C101.645 74.1045 102.023 74.0133 102.333 73.8311C102.643 73.6488 102.914 73.4049 103.146 73.0996L103.912 73.708C103.753 73.9495 103.55 74.1797 103.304 74.3984C103.058 74.6172 102.755 74.7949 102.395 74.9316C102.039 75.0684 101.618 75.1367 101.13 75.1367ZM108.444 74.0977C108.745 74.0977 109.023 74.0361 109.278 73.9131C109.534 73.79 109.743 73.6214 109.907 73.4072C110.071 73.1885 110.165 72.9401 110.188 72.6621H111.391C111.368 73.0996 111.22 73.5075 110.946 73.8857C110.677 74.2594 110.324 74.5625 109.887 74.7949C109.449 75.0228 108.968 75.1367 108.444 75.1367C107.888 75.1367 107.403 75.0387 106.988 74.8428C106.578 74.6468 106.236 74.3779 105.963 74.0361C105.694 73.6943 105.491 73.3024 105.354 72.8604C105.222 72.4137 105.156 71.9421 105.156 71.4453V71.1582C105.156 70.6615 105.222 70.1921 105.354 69.75C105.491 69.3034 105.694 68.9092 105.963 68.5674C106.236 68.2256 106.578 67.9567 106.988 67.7607C107.403 67.5648 107.888 67.4668 108.444 67.4668C109.023 67.4668 109.529 67.5853 109.962 67.8223C110.395 68.0547 110.734 68.3737 110.98 68.7793C111.231 69.1803 111.368 69.6361 111.391 70.1465H110.188C110.165 69.8411 110.078 69.5654 109.928 69.3193C109.782 69.0732 109.581 68.8773 109.326 68.7314C109.076 68.5811 108.782 68.5059 108.444 68.5059C108.057 68.5059 107.731 68.5833 107.467 68.7383C107.207 68.8887 107 69.0938 106.845 69.3535C106.694 69.6087 106.585 69.8936 106.517 70.208C106.453 70.5179 106.421 70.8346 106.421 71.1582V71.4453C106.421 71.7689 106.453 72.0879 106.517 72.4023C106.58 72.7168 106.688 73.0016 106.838 73.2568C106.993 73.512 107.2 73.7171 107.46 73.8721C107.724 74.0225 108.052 74.0977 108.444 74.0977ZM112.478 71.3838V71.2266C112.478 70.6934 112.555 70.1989 112.71 69.7432C112.865 69.2829 113.088 68.8841 113.38 68.5469C113.672 68.2051 114.025 67.9408 114.439 67.7539C114.854 67.5625 115.319 67.4668 115.834 67.4668C116.354 67.4668 116.821 67.5625 117.235 67.7539C117.655 67.9408 118.01 68.2051 118.302 68.5469C118.598 68.8841 118.824 69.2829 118.979 69.7432C119.133 70.1989 119.211 70.6934 119.211 71.2266V71.3838C119.211 71.917 119.133 72.4115 118.979 72.8672C118.824 73.3229 118.598 73.7217 118.302 74.0635C118.01 74.4007 117.657 74.665 117.242 74.8564C116.832 75.0433 116.367 75.1367 115.848 75.1367C115.328 75.1367 114.861 75.0433 114.446 74.8564C114.032 74.665 113.676 74.4007 113.38 74.0635C113.088 73.7217 112.865 73.3229 112.71 72.8672C112.555 72.4115 112.478 71.917 112.478 71.3838ZM113.742 71.2266V71.3838C113.742 71.7529 113.785 72.1016 113.872 72.4297C113.959 72.7533 114.089 73.0404 114.262 73.291C114.439 73.5417 114.66 73.7399 114.925 73.8857C115.189 74.027 115.497 74.0977 115.848 74.0977C116.194 74.0977 116.497 74.027 116.757 73.8857C117.021 73.7399 117.24 73.5417 117.413 73.291C117.586 73.0404 117.716 72.7533 117.803 72.4297C117.894 72.1016 117.939 71.7529 117.939 71.3838V71.2266C117.939 70.862 117.894 70.5179 117.803 70.1943C117.716 69.8662 117.584 69.5768 117.406 69.3262C117.233 69.071 117.014 68.8704 116.75 68.7246C116.49 68.5788 116.185 68.5059 115.834 68.5059C115.488 68.5059 115.182 68.5788 114.918 68.7246C114.658 68.8704 114.439 69.071 114.262 69.3262C114.089 69.5768 113.959 69.8662 113.872 70.1943C113.785 70.5179 113.742 70.862 113.742 71.2266ZM122.055 69.0732V75H120.783V67.6035H121.986L122.055 69.0732ZM121.795 71.0215L121.207 71.001C121.212 70.4951 121.278 70.028 121.405 69.5996C121.533 69.1667 121.722 68.7907 121.973 68.4717C122.223 68.1527 122.535 67.9066 122.909 67.7334C123.283 67.5557 123.716 67.4668 124.208 67.4668C124.554 67.4668 124.873 67.5169 125.165 67.6172C125.457 67.7129 125.71 67.8656 125.924 68.0752C126.138 68.2848 126.304 68.5537 126.423 68.8818C126.541 69.21 126.601 69.6064 126.601 70.0713V75H125.336V70.1328C125.336 69.7454 125.27 69.4355 125.138 69.2031C125.01 68.9707 124.828 68.8021 124.591 68.6973C124.354 68.5879 124.076 68.5332 123.757 68.5332C123.383 68.5332 123.071 68.5993 122.82 68.7314C122.57 68.8636 122.369 69.0459 122.219 69.2783C122.068 69.5107 121.959 69.7773 121.891 70.0781C121.827 70.3743 121.795 70.6888 121.795 71.0215ZM126.587 70.3242L125.739 70.584C125.744 70.1784 125.81 69.7887 125.938 69.415C126.07 69.0413 126.259 68.7087 126.505 68.417C126.756 68.1253 127.063 67.8952 127.428 67.7266C127.792 67.5534 128.209 67.4668 128.679 67.4668C129.075 67.4668 129.426 67.5192 129.731 67.624C130.041 67.7288 130.301 67.8906 130.511 68.1094C130.725 68.3236 130.887 68.5993 130.996 68.9365C131.105 69.2738 131.16 69.6748 131.16 70.1396V75H129.889V70.126C129.889 69.7113 129.823 69.39 129.69 69.1621C129.563 68.9297 129.381 68.7679 129.144 68.6768C128.911 68.5811 128.633 68.5332 128.31 68.5332C128.032 68.5332 127.785 68.5811 127.571 68.6768C127.357 68.7725 127.177 68.9046 127.031 69.0732C126.885 69.2373 126.774 69.4264 126.696 69.6406C126.623 69.8548 126.587 70.0827 126.587 70.3242ZM134.332 69.0732V75H133.061V67.6035H134.264L134.332 69.0732ZM134.072 71.0215L133.484 71.001C133.489 70.4951 133.555 70.028 133.683 69.5996C133.81 69.1667 133.999 68.7907 134.25 68.4717C134.501 68.1527 134.813 67.9066 135.187 67.7334C135.56 67.5557 135.993 67.4668 136.485 67.4668C136.832 67.4668 137.151 67.5169 137.442 67.6172C137.734 67.7129 137.987 67.8656 138.201 68.0752C138.415 68.2848 138.582 68.5537 138.7 68.8818C138.819 69.21 138.878 69.6064 138.878 70.0713V75H137.613V70.1328C137.613 69.7454 137.547 69.4355 137.415 69.2031C137.287 68.9707 137.105 68.8021 136.868 68.6973C136.631 68.5879 136.353 68.5332 136.034 68.5332C135.66 68.5332 135.348 68.5993 135.098 68.7314C134.847 68.8636 134.646 69.0459 134.496 69.2783C134.346 69.5107 134.236 69.7773 134.168 70.0781C134.104 70.3743 134.072 70.6888 134.072 71.0215ZM138.864 70.3242L138.017 70.584C138.021 70.1784 138.087 69.7887 138.215 69.415C138.347 69.0413 138.536 68.7087 138.782 68.417C139.033 68.1253 139.34 67.8952 139.705 67.7266C140.07 67.5534 140.487 67.4668 140.956 67.4668C141.353 67.4668 141.703 67.5192 142.009 67.624C142.319 67.7288 142.578 67.8906 142.788 68.1094C143.002 68.3236 143.164 68.5993 143.273 68.9365C143.383 69.2738 143.438 69.6748 143.438 70.1396V75H142.166V70.126C142.166 69.7113 142.1 69.39 141.968 69.1621C141.84 68.9297 141.658 68.7679 141.421 68.6768C141.188 68.5811 140.91 68.5332 140.587 68.5332C140.309 68.5332 140.063 68.5811 139.849 68.6768C139.634 68.7725 139.454 68.9046 139.309 69.0732C139.163 69.2373 139.051 69.4264 138.974 69.6406C138.901 69.8548 138.864 70.0827 138.864 70.3242ZM148.421 75.1367C147.906 75.1367 147.439 75.0501 147.02 74.877C146.605 74.6992 146.247 74.4508 145.946 74.1318C145.65 73.8128 145.422 73.4346 145.263 72.9971C145.103 72.5596 145.023 72.0811 145.023 71.5615V71.2744C145.023 70.6729 145.112 70.1374 145.29 69.668C145.468 69.194 145.709 68.793 146.015 68.4648C146.32 68.1367 146.666 67.8883 147.054 67.7197C147.441 67.5511 147.842 67.4668 148.257 67.4668C148.785 67.4668 149.241 67.5579 149.624 67.7402C150.011 67.9225 150.328 68.1777 150.574 68.5059C150.82 68.8294 151.003 69.2122 151.121 69.6543C151.24 70.0918 151.299 70.5703 151.299 71.0898V71.6572H145.775V70.625H150.034V70.5293C150.016 70.2012 149.948 69.8822 149.829 69.5723C149.715 69.2624 149.533 69.0072 149.282 68.8066C149.032 68.6061 148.69 68.5059 148.257 68.5059C147.97 68.5059 147.705 68.5674 147.464 68.6904C147.222 68.8089 147.015 68.9867 146.842 69.2236C146.669 69.4606 146.534 69.75 146.438 70.0918C146.343 70.4336 146.295 70.8278 146.295 71.2744V71.5615C146.295 71.9124 146.343 72.2428 146.438 72.5527C146.539 72.8581 146.682 73.127 146.869 73.3594C147.061 73.5918 147.291 73.7741 147.56 73.9062C147.833 74.0384 148.143 74.1045 148.489 74.1045C148.936 74.1045 149.314 74.0133 149.624 73.8311C149.934 73.6488 150.205 73.4049 150.438 73.0996L151.203 73.708C151.044 73.9495 150.841 74.1797 150.595 74.3984C150.349 74.6172 150.046 74.7949 149.686 74.9316C149.33 75.0684 148.909 75.1367 148.421 75.1367ZM154.04 69.1826V75H152.775V67.6035H153.972L154.04 69.1826ZM153.739 71.0215L153.213 71.001C153.217 70.4951 153.293 70.028 153.438 69.5996C153.584 69.1667 153.789 68.7907 154.054 68.4717C154.318 68.1527 154.632 67.9066 154.997 67.7334C155.366 67.5557 155.774 67.4668 156.221 67.4668C156.585 67.4668 156.913 67.5169 157.205 67.6172C157.497 67.7129 157.745 67.8678 157.95 68.082C158.16 68.2962 158.319 68.5742 158.429 68.916C158.538 69.2533 158.593 69.6657 158.593 70.1533V75H157.321V70.1396C157.321 69.7523 157.264 69.4424 157.15 69.21C157.036 68.973 156.87 68.8021 156.651 68.6973C156.433 68.5879 156.164 68.5332 155.845 68.5332C155.53 68.5332 155.243 68.5993 154.983 68.7314C154.728 68.8636 154.507 69.0459 154.32 69.2783C154.138 69.5107 153.994 69.7773 153.89 70.0781C153.789 70.3743 153.739 70.6888 153.739 71.0215ZM165.176 73.5645V64.5H166.447V75H165.285L165.176 73.5645ZM160.199 71.3838V71.2402C160.199 70.6751 160.268 70.1624 160.404 69.7021C160.546 69.2373 160.744 68.8385 160.999 68.5059C161.259 68.1732 161.566 67.918 161.922 67.7402C162.282 67.5579 162.683 67.4668 163.125 67.4668C163.59 67.4668 163.995 67.5488 164.342 67.7129C164.693 67.8724 164.989 68.1071 165.23 68.417C165.477 68.7223 165.67 69.0915 165.812 69.5244C165.953 69.9574 166.051 70.4473 166.105 70.9941V71.623C166.055 72.1654 165.957 72.653 165.812 73.0859C165.67 73.5189 165.477 73.888 165.23 74.1934C164.989 74.4987 164.693 74.7334 164.342 74.8975C163.991 75.057 163.581 75.1367 163.111 75.1367C162.678 75.1367 162.282 75.0433 161.922 74.8564C161.566 74.6696 161.259 74.4076 160.999 74.0703C160.744 73.7331 160.546 73.3366 160.404 72.8809C160.268 72.4206 160.199 71.9215 160.199 71.3838ZM161.471 71.2402V71.3838C161.471 71.7529 161.507 72.0993 161.58 72.4229C161.658 72.7464 161.776 73.0312 161.936 73.2773C162.095 73.5234 162.298 73.7171 162.544 73.8584C162.79 73.9951 163.084 74.0635 163.426 74.0635C163.845 74.0635 164.189 73.9746 164.458 73.7969C164.731 73.6191 164.95 73.3844 165.114 73.0928C165.278 72.8011 165.406 72.4844 165.497 72.1426V70.4951C165.442 70.2445 165.363 70.0029 165.258 69.7705C165.158 69.5335 165.025 69.3239 164.861 69.1416C164.702 68.9548 164.504 68.8066 164.267 68.6973C164.034 68.5879 163.758 68.5332 163.439 68.5332C163.093 68.5332 162.795 68.6061 162.544 68.752C162.298 68.8932 162.095 69.0892 161.936 69.3398C161.776 69.5859 161.658 69.873 161.58 70.2012C161.507 70.5247 161.471 70.8711 161.471 71.2402ZM172.777 73.7354V69.9277C172.777 69.6361 172.718 69.3831 172.6 69.1689C172.486 68.9502 172.312 68.7816 172.08 68.6631C171.848 68.5446 171.561 68.4854 171.219 68.4854C170.9 68.4854 170.619 68.54 170.378 68.6494C170.141 68.7588 169.954 68.9023 169.817 69.0801C169.685 69.2578 169.619 69.4492 169.619 69.6543H168.354C168.354 69.39 168.423 69.1279 168.56 68.8682C168.696 68.6084 168.892 68.3737 169.147 68.1641C169.407 67.9499 169.717 67.7812 170.077 67.6582C170.442 67.5306 170.847 67.4668 171.294 67.4668C171.832 67.4668 172.306 67.5579 172.716 67.7402C173.131 67.9225 173.454 68.1982 173.687 68.5674C173.924 68.932 174.042 69.39 174.042 69.9414V73.3867C174.042 73.6328 174.062 73.8949 174.104 74.1729C174.149 74.4508 174.215 74.6901 174.302 74.8906V75H172.982C172.919 74.8542 172.868 74.6605 172.832 74.4189C172.796 74.1729 172.777 73.945 172.777 73.7354ZM172.996 70.5156L173.01 71.4043H171.731C171.371 71.4043 171.05 71.4339 170.768 71.4932C170.485 71.5479 170.248 71.6322 170.057 71.7461C169.865 71.86 169.719 72.0036 169.619 72.1768C169.519 72.3454 169.469 72.5436 169.469 72.7715C169.469 73.0039 169.521 73.2158 169.626 73.4072C169.731 73.5986 169.888 73.7513 170.098 73.8652C170.312 73.9746 170.574 74.0293 170.884 74.0293C171.271 74.0293 171.613 73.9473 171.909 73.7832C172.205 73.6191 172.44 73.4186 172.613 73.1816C172.791 72.9447 172.887 72.7145 172.9 72.4912L173.44 73.0996C173.409 73.291 173.322 73.5029 173.181 73.7354C173.039 73.9678 172.85 74.1911 172.613 74.4053C172.381 74.6149 172.103 74.7904 171.779 74.9316C171.46 75.0684 171.1 75.1367 170.699 75.1367C170.198 75.1367 169.758 75.0387 169.38 74.8428C169.006 74.6468 168.715 74.3848 168.505 74.0566C168.3 73.724 168.197 73.3525 168.197 72.9424C168.197 72.5459 168.275 72.1973 168.43 71.8965C168.585 71.5911 168.808 71.3382 169.1 71.1377C169.391 70.9326 169.742 70.7777 170.152 70.6729C170.562 70.568 171.021 70.5156 171.526 70.5156H172.996ZM179.128 67.6035V68.5742H175.129V67.6035H179.128ZM176.482 65.8057H177.747V73.168C177.747 73.4186 177.786 73.6077 177.863 73.7354C177.941 73.863 178.041 73.9473 178.164 73.9883C178.287 74.0293 178.419 74.0498 178.561 74.0498C178.665 74.0498 178.775 74.0407 178.889 74.0225C179.007 73.9997 179.096 73.9814 179.155 73.9678L179.162 75C179.062 75.0319 178.93 75.0615 178.766 75.0889C178.606 75.1208 178.412 75.1367 178.185 75.1367C177.875 75.1367 177.59 75.0752 177.33 74.9521C177.07 74.8291 176.863 74.624 176.708 74.3369C176.558 74.0452 176.482 73.6533 176.482 73.1611V65.8057ZM181.985 67.6035V75H180.714V67.6035H181.985ZM180.618 65.6416C180.618 65.4365 180.68 65.2633 180.803 65.1221C180.93 64.9808 181.117 64.9102 181.363 64.9102C181.605 64.9102 181.789 64.9808 181.917 65.1221C182.049 65.2633 182.115 65.4365 182.115 65.6416C182.115 65.8376 182.049 66.0062 181.917 66.1475C181.789 66.2842 181.605 66.3525 181.363 66.3525C181.117 66.3525 180.93 66.2842 180.803 66.1475C180.68 66.0062 180.618 65.8376 180.618 65.6416ZM183.681 71.3838V71.2266C183.681 70.6934 183.758 70.1989 183.913 69.7432C184.068 69.2829 184.291 68.8841 184.583 68.5469C184.875 68.2051 185.228 67.9408 185.643 67.7539C186.057 67.5625 186.522 67.4668 187.037 67.4668C187.557 67.4668 188.024 67.5625 188.438 67.7539C188.858 67.9408 189.213 68.2051 189.505 68.5469C189.801 68.8841 190.027 69.2829 190.182 69.7432C190.337 70.1989 190.414 70.6934 190.414 71.2266V71.3838C190.414 71.917 190.337 72.4115 190.182 72.8672C190.027 73.3229 189.801 73.7217 189.505 74.0635C189.213 74.4007 188.86 74.665 188.445 74.8564C188.035 75.0433 187.57 75.1367 187.051 75.1367C186.531 75.1367 186.064 75.0433 185.649 74.8564C185.235 74.665 184.879 74.4007 184.583 74.0635C184.291 73.7217 184.068 73.3229 183.913 72.8672C183.758 72.4115 183.681 71.917 183.681 71.3838ZM184.945 71.2266V71.3838C184.945 71.7529 184.989 72.1016 185.075 72.4297C185.162 72.7533 185.292 73.0404 185.465 73.291C185.643 73.5417 185.864 73.7399 186.128 73.8857C186.392 74.027 186.7 74.0977 187.051 74.0977C187.397 74.0977 187.7 74.027 187.96 73.8857C188.224 73.7399 188.443 73.5417 188.616 73.291C188.789 73.0404 188.919 72.7533 189.006 72.4297C189.097 72.1016 189.143 71.7529 189.143 71.3838V71.2266C189.143 70.862 189.097 70.5179 189.006 70.1943C188.919 69.8662 188.787 69.5768 188.609 69.3262C188.436 69.071 188.217 68.8704 187.953 68.7246C187.693 68.5788 187.388 68.5059 187.037 68.5059C186.691 68.5059 186.385 68.5788 186.121 68.7246C185.861 68.8704 185.643 69.071 185.465 69.3262C185.292 69.5768 185.162 69.8662 185.075 70.1943C184.989 70.5179 184.945 70.862 184.945 71.2266ZM193.265 69.1826V75H192V67.6035H193.196L193.265 69.1826ZM192.964 71.0215L192.438 71.001C192.442 70.4951 192.517 70.028 192.663 69.5996C192.809 69.1667 193.014 68.7907 193.278 68.4717C193.543 68.1527 193.857 67.9066 194.222 67.7334C194.591 67.5557 194.999 67.4668 195.445 67.4668C195.81 67.4668 196.138 67.5169 196.43 67.6172C196.721 67.7129 196.97 67.8678 197.175 68.082C197.384 68.2962 197.544 68.5742 197.653 68.916C197.763 69.2533 197.817 69.6657 197.817 70.1533V75H196.546V70.1396C196.546 69.7523 196.489 69.4424 196.375 69.21C196.261 68.973 196.095 68.8021 195.876 68.6973C195.657 68.5879 195.388 68.5332 195.069 68.5332C194.755 68.5332 194.468 68.5993 194.208 68.7314C193.953 68.8636 193.732 69.0459 193.545 69.2783C193.363 69.5107 193.219 69.7773 193.114 70.0781C193.014 70.3743 192.964 70.6888 192.964 71.0215ZM204.045 73.0381C204.045 72.8558 204.004 72.6872 203.922 72.5322C203.844 72.3727 203.683 72.2292 203.437 72.1016C203.195 71.9694 202.83 71.8555 202.343 71.7598C201.933 71.6732 201.561 71.5706 201.229 71.4521C200.9 71.3337 200.62 71.1901 200.388 71.0215C200.16 70.8529 199.984 70.6546 199.861 70.4268C199.738 70.1989 199.677 69.9323 199.677 69.627C199.677 69.3353 199.741 69.0596 199.868 68.7998C200 68.54 200.185 68.3099 200.422 68.1094C200.663 67.9089 200.953 67.7516 201.29 67.6377C201.627 67.5238 202.003 67.4668 202.418 67.4668C203.01 67.4668 203.516 67.5716 203.936 67.7812C204.355 67.9909 204.676 68.2712 204.899 68.6221C205.123 68.9684 205.234 69.3535 205.234 69.7773H203.97C203.97 69.5723 203.908 69.374 203.785 69.1826C203.667 68.9867 203.491 68.8249 203.259 68.6973C203.031 68.5697 202.751 68.5059 202.418 68.5059C202.067 68.5059 201.782 68.5605 201.563 68.6699C201.349 68.7747 201.192 68.9092 201.092 69.0732C200.996 69.2373 200.948 69.4105 200.948 69.5928C200.948 69.7295 200.971 69.8525 201.017 69.9619C201.067 70.0667 201.153 70.1647 201.276 70.2559C201.399 70.3424 201.573 70.4245 201.796 70.502C202.019 70.5794 202.304 70.6569 202.65 70.7344C203.257 70.8711 203.756 71.0352 204.147 71.2266C204.539 71.418 204.831 71.6527 205.022 71.9307C205.214 72.2087 205.31 72.5459 205.31 72.9424C205.31 73.266 205.241 73.5622 205.104 73.8311C204.972 74.0999 204.779 74.3324 204.523 74.5283C204.273 74.7197 203.972 74.8701 203.621 74.9795C203.275 75.0843 202.885 75.1367 202.452 75.1367C201.8 75.1367 201.249 75.0205 200.798 74.7881C200.347 74.5557 200.005 74.2549 199.772 73.8857C199.54 73.5166 199.424 73.127 199.424 72.7168H200.695C200.714 73.0632 200.814 73.3389 200.996 73.5439C201.178 73.7445 201.402 73.888 201.666 73.9746C201.93 74.0566 202.192 74.0977 202.452 74.0977C202.799 74.0977 203.088 74.0521 203.32 73.9609C203.557 73.8698 203.737 73.7445 203.86 73.585C203.983 73.4255 204.045 73.2432 204.045 73.0381ZM41.7666 95H40.502V86.8242C40.502 86.291 40.5977 85.8421 40.7891 85.4775C40.985 85.1084 41.2653 84.8304 41.6299 84.6436C41.9945 84.4521 42.4274 84.3564 42.9287 84.3564C43.0745 84.3564 43.2204 84.3656 43.3662 84.3838C43.5166 84.402 43.6624 84.4294 43.8037 84.4658L43.7354 85.498C43.6396 85.4753 43.5303 85.4593 43.4072 85.4502C43.2887 85.4411 43.1702 85.4365 43.0518 85.4365C42.7829 85.4365 42.5505 85.4912 42.3545 85.6006C42.1631 85.7054 42.0173 85.8604 41.917 86.0654C41.8167 86.2705 41.7666 86.5234 41.7666 86.8242V95ZM43.3389 87.6035V88.5742H39.333V87.6035H43.3389ZM46.0117 88.7656V95H44.7471V87.6035H45.9775L46.0117 88.7656ZM48.3223 87.5625L48.3154 88.7383C48.2106 88.7155 48.1104 88.7018 48.0146 88.6973C47.9235 88.6882 47.8187 88.6836 47.7002 88.6836C47.4085 88.6836 47.151 88.7292 46.9277 88.8203C46.7044 88.9115 46.5153 89.0391 46.3604 89.2031C46.2054 89.3672 46.0824 89.5632 45.9912 89.791C45.9046 90.0143 45.8477 90.2604 45.8203 90.5293L45.4648 90.7344C45.4648 90.2878 45.5081 89.8685 45.5947 89.4766C45.6859 89.0846 45.8249 88.7383 46.0117 88.4375C46.1986 88.1322 46.4355 87.8952 46.7227 87.7266C47.0143 87.5534 47.3607 87.4668 47.7617 87.4668C47.8529 87.4668 47.9577 87.4782 48.0762 87.501C48.1947 87.5192 48.2767 87.5397 48.3223 87.5625ZM49.0195 91.3838V91.2266C49.0195 90.6934 49.097 90.1989 49.252 89.7432C49.4069 89.2829 49.6302 88.8841 49.9219 88.5469C50.2135 88.2051 50.5667 87.9408 50.9814 87.7539C51.3962 87.5625 51.861 87.4668 52.376 87.4668C52.8955 87.4668 53.3626 87.5625 53.7773 87.7539C54.1966 87.9408 54.5521 88.2051 54.8438 88.5469C55.14 88.8841 55.3656 89.2829 55.5205 89.7432C55.6755 90.1989 55.7529 90.6934 55.7529 91.2266V91.3838C55.7529 91.917 55.6755 92.4115 55.5205 92.8672C55.3656 93.3229 55.14 93.7217 54.8438 94.0635C54.5521 94.4007 54.1989 94.665 53.7842 94.8564C53.374 95.0433 52.9092 95.1367 52.3896 95.1367C51.8701 95.1367 51.403 95.0433 50.9883 94.8564C50.5736 94.665 50.2181 94.4007 49.9219 94.0635C49.6302 93.7217 49.4069 93.3229 49.252 92.8672C49.097 92.4115 49.0195 91.917 49.0195 91.3838ZM50.2842 91.2266V91.3838C50.2842 91.7529 50.3275 92.1016 50.4141 92.4297C50.5007 92.7533 50.6305 93.0404 50.8037 93.291C50.9814 93.5417 51.2025 93.7399 51.4668 93.8857C51.7311 94.027 52.0387 94.0977 52.3896 94.0977C52.736 94.0977 53.0391 94.027 53.2988 93.8857C53.5632 93.7399 53.7819 93.5417 53.9551 93.291C54.1283 93.0404 54.2581 92.7533 54.3447 92.4297C54.4359 92.1016 54.4814 91.7529 54.4814 91.3838V91.2266C54.4814 90.862 54.4359 90.5179 54.3447 90.1943C54.2581 89.8662 54.126 89.5768 53.9482 89.3262C53.7751 89.071 53.5563 88.8704 53.292 88.7246C53.0322 88.5788 52.7269 88.5059 52.376 88.5059C52.0296 88.5059 51.7243 88.5788 51.46 88.7246C51.2002 88.8704 50.9814 89.071 50.8037 89.3262C50.6305 89.5768 50.5007 89.8662 50.4141 90.1943C50.3275 90.5179 50.2842 90.862 50.2842 91.2266ZM58.5967 89.0732V95H57.3252V87.6035H58.5283L58.5967 89.0732ZM58.3369 91.0215L57.749 91.001C57.7536 90.4951 57.8197 90.028 57.9473 89.5996C58.0749 89.1667 58.264 88.7907 58.5146 88.4717C58.7653 88.1527 59.0775 87.9066 59.4512 87.7334C59.8249 87.5557 60.2578 87.4668 60.75 87.4668C61.0964 87.4668 61.4154 87.5169 61.707 87.6172C61.9987 87.7129 62.2516 87.8656 62.4658 88.0752C62.68 88.2848 62.8464 88.5537 62.9648 88.8818C63.0833 89.21 63.1426 89.6064 63.1426 90.0713V95H61.8779V90.1328C61.8779 89.7454 61.8118 89.4355 61.6797 89.2031C61.5521 88.9707 61.3698 88.8021 61.1328 88.6973C60.8958 88.5879 60.6178 88.5332 60.2988 88.5332C59.9251 88.5332 59.613 88.5993 59.3623 88.7314C59.1117 88.8636 58.9111 89.0459 58.7607 89.2783C58.6104 89.5107 58.501 89.7773 58.4326 90.0781C58.3688 90.3743 58.3369 90.6888 58.3369 91.0215ZM63.1289 90.3242L62.2812 90.584C62.2858 90.1784 62.3519 89.7887 62.4795 89.415C62.6117 89.0413 62.8008 88.7087 63.0469 88.417C63.2975 88.1253 63.6051 87.8952 63.9697 87.7266C64.3343 87.5534 64.7513 87.4668 65.2207 87.4668C65.6172 87.4668 65.9681 87.5192 66.2734 87.624C66.5833 87.7288 66.8431 87.8906 67.0527 88.1094C67.2669 88.3236 67.4287 88.5993 67.5381 88.9365C67.6475 89.2738 67.7021 89.6748 67.7021 90.1396V95H66.4307V90.126C66.4307 89.7113 66.3646 89.39 66.2324 89.1621C66.1048 88.9297 65.9225 88.7679 65.6855 88.6768C65.4531 88.5811 65.1751 88.5332 64.8516 88.5332C64.5736 88.5332 64.3275 88.5811 64.1133 88.6768C63.8991 88.7725 63.7191 88.9046 63.5732 89.0732C63.4274 89.2373 63.3158 89.4264 63.2383 89.6406C63.1654 89.8548 63.1289 90.0827 63.1289 90.3242ZM76.6846 85.0469V95H75.3857V85.0469H76.6846ZM79.8838 85.0469V86.127H72.1934V85.0469H79.8838ZM83.5547 95.1367C83.0397 95.1367 82.5726 95.0501 82.1533 94.877C81.7386 94.6992 81.3809 94.4508 81.0801 94.1318C80.7839 93.8128 80.556 93.4346 80.3965 92.9971C80.237 92.5596 80.1572 92.0811 80.1572 91.5615V91.2744C80.1572 90.6729 80.2461 90.1374 80.4238 89.668C80.6016 89.194 80.8431 88.793 81.1484 88.4648C81.4538 88.1367 81.8001 87.8883 82.1875 87.7197C82.5749 87.5511 82.9759 87.4668 83.3906 87.4668C83.9193 87.4668 84.375 87.5579 84.7578 87.7402C85.1452 87.9225 85.4619 88.1777 85.708 88.5059C85.9541 88.8294 86.1364 89.2122 86.2549 89.6543C86.3734 90.0918 86.4326 90.5703 86.4326 91.0898V91.6572H80.9092V90.625H85.168V90.5293C85.1497 90.2012 85.0814 89.8822 84.9629 89.5723C84.849 89.2624 84.6667 89.0072 84.416 88.8066C84.1654 88.6061 83.8236 88.5059 83.3906 88.5059C83.1035 88.5059 82.8392 88.5674 82.5977 88.6904C82.3561 88.8089 82.1488 88.9867 81.9756 89.2236C81.8024 89.4606 81.668 89.75 81.5723 90.0918C81.4766 90.4336 81.4287 90.8278 81.4287 91.2744V91.5615C81.4287 91.9124 81.4766 92.2428 81.5723 92.5527C81.6725 92.8581 81.8161 93.127 82.0029 93.3594C82.1943 93.5918 82.4245 93.7741 82.6934 93.9062C82.9668 94.0384 83.2767 94.1045 83.623 94.1045C84.0697 94.1045 84.4479 94.0133 84.7578 93.8311C85.0677 93.6488 85.3389 93.4049 85.5713 93.0996L86.3369 93.708C86.1774 93.9495 85.9746 94.1797 85.7285 94.3984C85.4824 94.6172 85.1794 94.7949 84.8193 94.9316C84.4639 95.0684 84.0423 95.1367 83.5547 95.1367ZM89.1738 88.7656V95H87.9092V87.6035H89.1396L89.1738 88.7656ZM91.4844 87.5625L91.4775 88.7383C91.3727 88.7155 91.2725 88.7018 91.1768 88.6973C91.0856 88.6882 90.9808 88.6836 90.8623 88.6836C90.5706 88.6836 90.3132 88.7292 90.0898 88.8203C89.8665 88.9115 89.6774 89.0391 89.5225 89.2031C89.3675 89.3672 89.2445 89.5632 89.1533 89.791C89.0667 90.0143 89.0098 90.2604 88.9824 90.5293L88.627 90.7344C88.627 90.2878 88.6702 89.8685 88.7568 89.4766C88.848 89.0846 88.987 88.7383 89.1738 88.4375C89.3607 88.1322 89.5977 87.8952 89.8848 87.7266C90.1764 87.5534 90.5228 87.4668 90.9238 87.4668C91.015 87.4668 91.1198 87.4782 91.2383 87.501C91.3568 87.5192 91.4388 87.5397 91.4844 87.5625ZM93.9111 89.0732V95H92.6396V87.6035H93.8428L93.9111 89.0732ZM93.6514 91.0215L93.0635 91.001C93.068 90.4951 93.1341 90.028 93.2617 89.5996C93.3893 89.1667 93.5785 88.7907 93.8291 88.4717C94.0798 88.1527 94.3919 87.9066 94.7656 87.7334C95.1393 87.5557 95.5723 87.4668 96.0645 87.4668C96.4108 87.4668 96.7298 87.5169 97.0215 87.6172C97.3132 87.7129 97.5661 87.8656 97.7803 88.0752C97.9945 88.2848 98.1608 88.5537 98.2793 88.8818C98.3978 89.21 98.457 89.6064 98.457 90.0713V95H97.1924V90.1328C97.1924 89.7454 97.1263 89.4355 96.9941 89.2031C96.8665 88.9707 96.6842 88.8021 96.4473 88.6973C96.2103 88.5879 95.9323 88.5332 95.6133 88.5332C95.2396 88.5332 94.9274 88.5993 94.6768 88.7314C94.4261 88.8636 94.2256 89.0459 94.0752 89.2783C93.9248 89.5107 93.8154 89.7773 93.7471 90.0781C93.6833 90.3743 93.6514 90.6888 93.6514 91.0215ZM98.4434 90.3242L97.5957 90.584C97.6003 90.1784 97.6663 89.7887 97.7939 89.415C97.9261 89.0413 98.1152 88.7087 98.3613 88.417C98.612 88.1253 98.9196 87.8952 99.2842 87.7266C99.6488 87.5534 100.066 87.4668 100.535 87.4668C100.932 87.4668 101.283 87.5192 101.588 87.624C101.898 87.7288 102.158 87.8906 102.367 88.1094C102.581 88.3236 102.743 88.5993 102.853 88.9365C102.962 89.2738 103.017 89.6748 103.017 90.1396V95H101.745V90.126C101.745 89.7113 101.679 89.39 101.547 89.1621C101.419 88.9297 101.237 88.7679 101 88.6768C100.768 88.5811 100.49 88.5332 100.166 88.5332C99.888 88.5332 99.6419 88.5811 99.4277 88.6768C99.2135 88.7725 99.0335 88.9046 98.8877 89.0732C98.7419 89.2373 98.6302 89.4264 98.5527 89.6406C98.4798 89.8548 98.4434 90.0827 98.4434 90.3242ZM106.305 87.6035V95H105.033V87.6035H106.305ZM104.938 85.6416C104.938 85.4365 104.999 85.2633 105.122 85.1221C105.25 84.9808 105.437 84.9102 105.683 84.9102C105.924 84.9102 106.109 84.9808 106.236 85.1221C106.368 85.2633 106.435 85.4365 106.435 85.6416C106.435 85.8376 106.368 86.0062 106.236 86.1475C106.109 86.2842 105.924 86.3525 105.683 86.3525C105.437 86.3525 105.25 86.2842 105.122 86.1475C104.999 86.0062 104.938 85.8376 104.938 85.6416ZM109.6 89.1826V95H108.335V87.6035H109.531L109.6 89.1826ZM109.299 91.0215L108.772 91.001C108.777 90.4951 108.852 90.028 108.998 89.5996C109.144 89.1667 109.349 88.7907 109.613 88.4717C109.878 88.1527 110.192 87.9066 110.557 87.7334C110.926 87.5557 111.334 87.4668 111.78 87.4668C112.145 87.4668 112.473 87.5169 112.765 87.6172C113.056 87.7129 113.305 87.8678 113.51 88.082C113.719 88.2962 113.879 88.5742 113.988 88.916C114.098 89.2533 114.152 89.6657 114.152 90.1533V95H112.881V90.1396C112.881 89.7523 112.824 89.4424 112.71 89.21C112.596 88.973 112.43 88.8021 112.211 88.6973C111.992 88.5879 111.723 88.5332 111.404 88.5332C111.09 88.5332 110.803 88.5993 110.543 88.7314C110.288 88.8636 110.067 89.0459 109.88 89.2783C109.698 89.5107 109.554 89.7773 109.449 90.0781C109.349 90.3743 109.299 90.6888 109.299 91.0215ZM120.599 93.291V87.6035H121.87V95H120.66L120.599 93.291ZM120.838 91.7324L121.364 91.7188C121.364 92.2109 121.312 92.6667 121.207 93.0859C121.107 93.5007 120.943 93.8607 120.715 94.166C120.487 94.4714 120.188 94.7106 119.819 94.8838C119.45 95.0524 119.001 95.1367 118.473 95.1367C118.113 95.1367 117.782 95.0843 117.481 94.9795C117.185 94.8747 116.93 94.7129 116.716 94.4941C116.502 94.2754 116.335 93.9906 116.217 93.6396C116.103 93.2887 116.046 92.8672 116.046 92.375V87.6035H117.311V92.3887C117.311 92.7214 117.347 92.9971 117.42 93.2158C117.497 93.43 117.6 93.6009 117.728 93.7285C117.86 93.8516 118.006 93.9382 118.165 93.9883C118.329 94.0384 118.498 94.0635 118.671 94.0635C119.209 94.0635 119.635 93.9609 119.949 93.7559C120.264 93.5462 120.489 93.266 120.626 92.915C120.767 92.5596 120.838 92.1654 120.838 91.7324ZM128.104 93.0381C128.104 92.8558 128.063 92.6872 127.981 92.5322C127.904 92.3727 127.742 92.2292 127.496 92.1016C127.255 91.9694 126.89 91.8555 126.402 91.7598C125.992 91.6732 125.621 91.5706 125.288 91.4521C124.96 91.3337 124.68 91.1901 124.447 91.0215C124.219 90.8529 124.044 90.6546 123.921 90.4268C123.798 90.1989 123.736 89.9323 123.736 89.627C123.736 89.3353 123.8 89.0596 123.928 88.7998C124.06 88.54 124.244 88.3099 124.481 88.1094C124.723 87.9089 125.012 87.7516 125.35 87.6377C125.687 87.5238 126.063 87.4668 126.478 87.4668C127.07 87.4668 127.576 87.5716 127.995 87.7812C128.414 87.9909 128.736 88.2712 128.959 88.6221C129.182 88.9684 129.294 89.3535 129.294 89.7773H128.029C128.029 89.5723 127.968 89.374 127.845 89.1826C127.726 88.9867 127.551 88.8249 127.318 88.6973C127.09 88.5697 126.81 88.5059 126.478 88.5059C126.127 88.5059 125.842 88.5605 125.623 88.6699C125.409 88.7747 125.252 88.9092 125.151 89.0732C125.056 89.2373 125.008 89.4105 125.008 89.5928C125.008 89.7295 125.031 89.8525 125.076 89.9619C125.126 90.0667 125.213 90.1647 125.336 90.2559C125.459 90.3424 125.632 90.4245 125.855 90.502C126.079 90.5794 126.364 90.6569 126.71 90.7344C127.316 90.8711 127.815 91.0352 128.207 91.2266C128.599 91.418 128.891 91.6527 129.082 91.9307C129.273 92.2087 129.369 92.5459 129.369 92.9424C129.369 93.266 129.301 93.5622 129.164 93.8311C129.032 94.0999 128.838 94.3324 128.583 94.5283C128.332 94.7197 128.032 94.8701 127.681 94.9795C127.334 95.0843 126.945 95.1367 126.512 95.1367C125.86 95.1367 125.309 95.0205 124.857 94.7881C124.406 94.5557 124.064 94.2549 123.832 93.8857C123.6 93.5166 123.483 93.127 123.483 92.7168H124.755C124.773 93.0632 124.873 93.3389 125.056 93.5439C125.238 93.7445 125.461 93.888 125.726 93.9746C125.99 94.0566 126.252 94.0977 126.512 94.0977C126.858 94.0977 127.147 94.0521 127.38 93.9609C127.617 93.8698 127.797 93.7445 127.92 93.585C128.043 93.4255 128.104 93.2432 128.104 93.0381ZM135.111 85.0469H136.39L139.65 93.1611L142.904 85.0469H144.189L140.143 95H139.145L135.111 85.0469ZM134.694 85.0469H135.822L136.007 91.1172V95H134.694V85.0469ZM143.472 85.0469H144.6V95H143.287V91.1172L143.472 85.0469ZM151.087 93.7354V89.9277C151.087 89.6361 151.028 89.3831 150.909 89.1689C150.795 88.9502 150.622 88.7816 150.39 88.6631C150.157 88.5446 149.87 88.4854 149.528 88.4854C149.209 88.4854 148.929 88.54 148.688 88.6494C148.451 88.7588 148.264 88.9023 148.127 89.0801C147.995 89.2578 147.929 89.4492 147.929 89.6543H146.664C146.664 89.39 146.732 89.1279 146.869 88.8682C147.006 88.6084 147.202 88.3737 147.457 88.1641C147.717 87.9499 148.027 87.7812 148.387 87.6582C148.751 87.5306 149.157 87.4668 149.604 87.4668C150.141 87.4668 150.615 87.5579 151.025 87.7402C151.44 87.9225 151.764 88.1982 151.996 88.5674C152.233 88.932 152.352 89.39 152.352 89.9414V93.3867C152.352 93.6328 152.372 93.8949 152.413 94.1729C152.459 94.4508 152.525 94.6901 152.611 94.8906V95H151.292C151.228 94.8542 151.178 94.6605 151.142 94.4189C151.105 94.1729 151.087 93.945 151.087 93.7354ZM151.306 90.5156L151.319 91.4043H150.041C149.681 91.4043 149.36 91.4339 149.077 91.4932C148.795 91.5479 148.558 91.6322 148.366 91.7461C148.175 91.86 148.029 92.0036 147.929 92.1768C147.828 92.3454 147.778 92.5436 147.778 92.7715C147.778 93.0039 147.831 93.2158 147.936 93.4072C148.04 93.5986 148.198 93.7513 148.407 93.8652C148.621 93.9746 148.883 94.0293 149.193 94.0293C149.581 94.0293 149.923 93.9473 150.219 93.7832C150.515 93.6191 150.75 93.4186 150.923 93.1816C151.101 92.9447 151.196 92.7145 151.21 92.4912L151.75 93.0996C151.718 93.291 151.632 93.5029 151.49 93.7354C151.349 93.9678 151.16 94.1911 150.923 94.4053C150.69 94.6149 150.412 94.7904 150.089 94.9316C149.77 95.0684 149.41 95.1367 149.009 95.1367C148.507 95.1367 148.068 95.0387 147.689 94.8428C147.316 94.6468 147.024 94.3848 146.814 94.0566C146.609 93.724 146.507 93.3525 146.507 92.9424C146.507 92.5459 146.584 92.1973 146.739 91.8965C146.894 91.5911 147.118 91.3382 147.409 91.1377C147.701 90.9326 148.052 90.7777 148.462 90.6729C148.872 90.568 149.33 90.5156 149.836 90.5156H151.306ZM155.605 88.7656V95H154.341V87.6035H155.571L155.605 88.7656ZM157.916 87.5625L157.909 88.7383C157.804 88.7155 157.704 88.7018 157.608 88.6973C157.517 88.6882 157.412 88.6836 157.294 88.6836C157.002 88.6836 156.745 88.7292 156.521 88.8203C156.298 88.9115 156.109 89.0391 155.954 89.2031C155.799 89.3672 155.676 89.5632 155.585 89.791C155.498 90.0143 155.441 90.2604 155.414 90.5293L155.059 90.7344C155.059 90.2878 155.102 89.8685 155.188 89.4766C155.28 89.0846 155.419 88.7383 155.605 88.4375C155.792 88.1322 156.029 87.8952 156.316 87.7266C156.608 87.5534 156.954 87.4668 157.355 87.4668C157.447 87.4668 157.551 87.4782 157.67 87.501C157.788 87.5192 157.87 87.5397 157.916 87.5625ZM160.356 84.5V95H159.085V84.5H160.356ZM164.875 87.6035L161.648 91.0557L159.844 92.9287L159.741 91.582L161.033 90.0371L163.33 87.6035H164.875ZM163.72 95L161.081 91.4727L161.737 90.3447L165.21 95H163.72ZM169.113 95.1367C168.598 95.1367 168.131 95.0501 167.712 94.877C167.297 94.6992 166.939 94.4508 166.639 94.1318C166.342 93.8128 166.115 93.4346 165.955 92.9971C165.796 92.5596 165.716 92.0811 165.716 91.5615V91.2744C165.716 90.6729 165.805 90.1374 165.982 89.668C166.16 89.194 166.402 88.793 166.707 88.4648C167.012 88.1367 167.359 87.8883 167.746 87.7197C168.133 87.5511 168.535 87.4668 168.949 87.4668C169.478 87.4668 169.934 87.5579 170.316 87.7402C170.704 87.9225 171.021 88.1777 171.267 88.5059C171.513 88.8294 171.695 89.2122 171.813 89.6543C171.932 90.0918 171.991 90.5703 171.991 91.0898V91.6572H166.468V90.625H170.727V90.5293C170.708 90.2012 170.64 89.8822 170.521 89.5723C170.408 89.2624 170.225 89.0072 169.975 88.8066C169.724 88.6061 169.382 88.5059 168.949 88.5059C168.662 88.5059 168.398 88.5674 168.156 88.6904C167.915 88.8089 167.707 88.9867 167.534 89.2236C167.361 89.4606 167.227 89.75 167.131 90.0918C167.035 90.4336 166.987 90.8278 166.987 91.2744V91.5615C166.987 91.9124 167.035 92.2428 167.131 92.5527C167.231 92.8581 167.375 93.127 167.562 93.3594C167.753 93.5918 167.983 93.7741 168.252 93.9062C168.525 94.0384 168.835 94.1045 169.182 94.1045C169.628 94.1045 170.007 94.0133 170.316 93.8311C170.626 93.6488 170.897 93.4049 171.13 93.0996L171.896 93.708C171.736 93.9495 171.533 94.1797 171.287 94.3984C171.041 94.6172 170.738 94.7949 170.378 94.9316C170.022 95.0684 169.601 95.1367 169.113 95.1367ZM176.564 87.6035V88.5742H172.565V87.6035H176.564ZM173.919 85.8057H175.184V93.168C175.184 93.4186 175.222 93.6077 175.3 93.7354C175.377 93.863 175.478 93.9473 175.601 93.9883C175.724 94.0293 175.856 94.0498 175.997 94.0498C176.102 94.0498 176.211 94.0407 176.325 94.0225C176.444 93.9997 176.533 93.9814 176.592 93.9678L176.599 95C176.498 95.0319 176.366 95.0615 176.202 95.0889C176.043 95.1208 175.849 95.1367 175.621 95.1367C175.311 95.1367 175.026 95.0752 174.767 94.9521C174.507 94.8291 174.299 94.624 174.145 94.3369C173.994 94.0452 173.919 93.6533 173.919 93.1611V85.8057Z" fill="#ADADAD"/>
</svg>
