<svg width="76" height="48" viewBox="0 0 76 48" fill="none" xmlns="http://www.w3.org/2000/svg">
<mask id="mask0_828_19900" style="mask-type:alpha" maskUnits="userSpaceOnUse" x="0" y="0" width="76" height="48">
<rect width="76" height="48" fill="#F6F6F6"/>
</mask>
<g mask="url(#mask0_828_19900)">
<rect width="80" height="50" fill="#F6F6F6"/>
<ellipse cx="38" cy="54.5" rx="46" ry="18.5" fill="url(#paint0_linear_828_19900)"/>
<path opacity="0.3" d="M15.5169 33.4271C15.5169 33.4271 15.3894 34.4978 15.7407 34.9888C15.8674 35.1625 16.5721 35.5242 16.6288 36.3915C16.6713 37.2443 16.3305 38.8206 14.1329 38.9085C12.103 38.9957 9.46612 38.2867 10.2133 35.1778C10.6928 33.5579 12.1873 33.8913 12.0322 31.1433C12.0053 29.2634 12.9345 27.3254 13.5698 27.4126C14.1478 27.4845 14.1903 28.4068 14.5989 29.1625C14.8667 29.681 15.6139 30.3173 15.5169 33.4271Z" fill="#D9D9D9"/>
<path d="M13.1412 41.2611C13.1412 41.4624 13.5211 41.5201 13.5211 41.1175C13.5064 40.7286 13.4933 39.5808 13.4337 38.9784C13.419 38.8067 13.3169 38.433 13.3316 38.3319C13.3749 38.1041 13.6821 37.3702 13.7556 37.1401C14.052 36.0842 14.1657 34.9873 14.0922 33.8941C13.9901 32.3999 13.8871 32.3999 13.7262 32.4151C13.5652 32.4303 13.7262 33.291 13.7548 33.8372C13.8647 35.1703 13.6852 36.5119 13.2279 37.7721C13.1992 37.8481 13.0228 38.1025 12.8031 37.6863C12.5833 37.27 11.5302 35.8046 12.1307 34.397C12.321 33.9663 12.0424 34.024 11.8211 34.4403C11.6269 34.8376 11.5557 35.2812 11.6161 35.718C11.7995 36.5377 12.126 37.3201 12.5818 38.0304C12.7582 38.2484 12.9013 38.49 13.0058 38.749C13.1165 39.2222 13.1412 41.2611 13.1412 41.2611Z" fill="#D8D9DB"/>
<path d="M64.8125 10.0625C64.8125 10.9804 64.0628 11.7249 63.1385 11.7249C62.2142 11.7249 61.4645 10.9804 61.4645 10.0625C61.4645 9.14453 62.2142 8.40002 63.1385 8.40002C64.0628 8.40002 64.8125 9.14453 64.8125 10.0625Z" fill="#EEF0F2"/>
<path d="M50.6624 35.7772L26.5387 31.5539C25.3281 31.3423 24.5198 30.1957 24.7328 28.9934L28.0652 10.2281C28.257 9.14496 28.9174 8.40088 30.2509 8.40088C30.3824 8.39665 30.5145 8.40813 30.6435 8.43473L54.7648 12.658C55.3467 12.759 55.8641 13.086 56.2031 13.5659C56.5427 14.0459 56.676 14.6401 56.5738 15.2179L53.2413 33.9844C53.0539 35.0404 52.1299 35.811 51.0502 35.8116C50.9199 35.8116 50.7903 35.8002 50.6624 35.7772Z" fill="#CACACA"/>
<path d="M24.9109 15.0328H49.3968C50.6263 15.0328 51.6227 16.0223 51.6227 17.2433V36.2534C51.6227 37.4744 50.6263 38.4639 49.3968 38.4639H24.9109C23.6814 38.4639 22.685 37.4744 22.685 36.2534V17.2433C22.685 16.0223 23.6814 15.0328 24.9109 15.0328Z" fill="url(#paint1_linear_828_19900)"/>
<path d="M48.0613 20.1158C48.0613 21.2147 47.1647 22.1051 46.0582 22.1051C44.9516 22.1051 44.0551 21.2147 44.0551 20.1158C44.0551 19.0169 44.9516 18.1266 46.0582 18.1266C47.1647 18.1266 48.0613 19.0169 48.0613 20.1158Z" fill="white"/>
<path d="M37.9143 34.4843H46.1672C47.628 34.4753 48.53 33.2065 47.8057 32.2249L43.721 26.7987C43.3789 26.3484 42.853 25.6424 42.0514 25.6424C41.2644 25.6424 40.8688 26.2994 40.4798 26.8078L36.3111 32.2714C35.5631 33.2621 36.4535 34.494 37.9143 34.4843Z" fill="url(#paint2_linear_828_19900)"/>
<path d="M28.5363 34.4848H38.6231C40.4083 34.4715 41.5112 32.6714 40.6268 31.2739L35.6358 23.5629C35.1817 22.8678 34.573 22.1092 33.5925 22.1092C32.6637 22.1092 32.1098 22.9125 31.6715 23.5792L26.577 31.3428C25.6628 32.7476 26.7505 34.5005 28.5363 34.4848Z" fill="url(#paint3_linear_828_19900)"/>
</g>
<defs>
<linearGradient id="paint0_linear_828_19900" x1="38" y1="36" x2="37.9315" y2="59.1653" gradientUnits="userSpaceOnUse">
<stop stop-color="#EDEBEA"/>
<stop offset="1" stop-color="#F5F6F8" stop-opacity="0"/>
</linearGradient>
<linearGradient id="paint1_linear_828_19900" x1="37.1538" y1="15.0328" x2="37.1538" y2="38.4639" gradientUnits="userSpaceOnUse">
<stop stop-color="#E3E3E3"/>
<stop offset="1" stop-color="#E3E3E3"/>
</linearGradient>
<linearGradient id="paint2_linear_828_19900" x1="36.0567" y1="30.0519" x2="48.0863" y2="30.0519" gradientUnits="userSpaceOnUse">
<stop stop-color="white"/>
<stop offset="1" stop-color="white" stop-opacity="0.2"/>
</linearGradient>
<linearGradient id="paint3_linear_828_19900" x1="26.4346" y1="28.2299" x2="41.0973" y2="28.2299" gradientUnits="userSpaceOnUse">
<stop stop-color="white"/>
<stop offset="1" stop-color="white" stop-opacity="0.7"/>
</linearGradient>
</defs>
</svg>
