<svg width="32" height="32" viewBox="0 0 32 32" fill="none" xmlns="http://www.w3.org/2000/svg">
<path d="M0 16C0 7.16344 7.16344 0 16 0C24.8366 0 32 7.16344 32 16C32 24.8366 24.8366 32 16 32C7.16344 32 0 24.8366 0 16Z" fill="#F6F6F6"/>
<mask id="mask0_2521_34667" style="mask-type:alpha" maskUnits="userSpaceOnUse" x="7" y="5" width="20" height="20">
<rect x="7" y="5" width="20" height="20" fill="#D9D9D9"/>
</mask>
<g mask="url(#mask0_2521_34667)">
<path d="M11.5915 21.5834C11.266 21.5834 10.9887 21.4674 10.7599 21.2356C10.531 21.0037 10.4165 20.725 10.4165 20.3995C10.4165 20.0739 10.5324 19.7967 10.7643 19.5678C10.9961 19.3389 11.2748 19.2244 11.6004 19.2244C11.926 19.2244 12.2032 19.3403 12.4321 19.5722C12.661 19.804 12.7754 20.0827 12.7754 20.4083C12.7754 20.7339 12.6595 21.0111 12.4277 21.24C12.1958 21.4689 11.9171 21.5834 11.5915 21.5834ZM22.9051 21.5834C22.7128 21.5834 22.5537 21.5063 22.4278 21.3521C22.3019 21.198 22.2281 21.0155 22.2066 20.8045C22.1136 19.328 21.7629 17.947 21.1543 16.6614C20.5458 15.3758 19.7475 14.2355 18.7595 13.2404C17.7644 12.2523 16.624 11.454 15.3384 10.8455C14.0529 10.237 12.6718 9.88624 11.1953 9.79329C10.9844 9.7712 10.8019 9.69568 10.6477 9.56675C10.4936 9.43782 10.4165 9.27758 10.4165 9.08602C10.4165 8.89061 10.503 8.72754 10.6761 8.59681C10.8492 8.46608 11.0458 8.41193 11.2659 8.43438C12.9346 8.54121 14.4869 8.93356 15.9226 9.61144C17.3583 10.2893 18.6254 11.179 19.7239 12.2805C20.8223 13.382 21.7105 14.6491 22.3884 16.0818C23.0663 17.5145 23.4586 19.0652 23.5655 20.734C23.5879 20.9541 23.5344 21.1507 23.405 21.3237C23.2756 21.4968 23.109 21.5834 22.9051 21.5834ZM18.0899 21.5834C17.9016 21.5834 17.7402 21.5094 17.6056 21.3614C17.471 21.2134 17.3935 21.0433 17.3733 20.851C17.2835 20.0283 17.068 19.2583 16.7266 18.5409C16.3853 17.8235 15.9347 17.1848 15.3748 16.625C14.815 16.0652 14.1764 15.6146 13.459 15.2733C12.7415 14.9319 11.9715 14.7164 11.1489 14.6266C10.9566 14.6063 10.7864 14.5291 10.6385 14.3951C10.4905 14.2611 10.4165 14.0978 10.4165 13.9053C10.4165 13.7123 10.4892 13.5541 10.6345 13.4305C10.7798 13.307 10.9486 13.2511 11.1409 13.2629C12.1558 13.3473 13.1061 13.597 13.9918 14.0121C14.8775 14.4271 15.6611 14.9755 16.3428 15.6571C17.0244 16.3387 17.5727 17.1224 17.9878 18.008C18.4029 18.8937 18.6526 19.8441 18.737 20.859C18.7487 21.0513 18.6918 21.2201 18.5663 21.3654C18.4407 21.5107 18.2819 21.5834 18.0899 21.5834Z" fill="#5C5C5C"/>
</g>
</svg>
