<svg width="16" height="16" viewBox="0 0 16 16" fill="none" xmlns="http://www.w3.org/2000/svg">
<circle opacity="0.1" cx="8.0001" cy="8.00001" r="6.4" stroke="#FF7733" stroke-width="3.2"/>
<path d="M15.9999 8.00001C15.9999 8.88366 15.2836 9.60001 14.3999 9.60001C13.5162 9.60001 12.7999 8.88366 12.7999 8.00001H15.9999ZM-9.799e-05 8.00001C-9.799e-05 5.87827 0.842757 3.84344 2.34305 2.34315L4.60579 4.60589C3.70562 5.50607 3.1999 6.72697 3.1999 8.00001H-9.799e-05ZM2.34305 2.34315C3.84334 0.842861 5.87817 5.96046e-06 7.9999 5.96046e-06V3.20001C6.72686 3.20001 5.50596 3.70572 4.60579 4.60589L2.34305 2.34315ZM7.9999 5.96046e-06C10.1216 5.96046e-06 12.1565 0.84286 13.6568 2.34315L11.394 4.60589C10.4938 3.70572 9.27294 3.20001 7.9999 3.20001V5.96046e-06ZM13.6568 2.34315C15.157 3.84344 15.9999 5.87827 15.9999 8.00001H12.7999C12.7999 6.72697 12.2942 5.50607 11.394 4.60589L13.6568 2.34315Z" fill="url(#paint0_linear_2225_34943)"/>
<defs>
<linearGradient id="paint0_linear_2225_34943" x1="14.3999" y1="8.00001" x2="2.8799" y2="8.00001" gradientUnits="userSpaceOnUse">
<stop stop-color="#FF7733"/>
<stop offset="1" stop-color="#FF7733" stop-opacity="0"/>
</linearGradient>
</defs>
</svg>
