<svg width="16" height="16" viewBox="0 0 16 16" fill="none" xmlns="http://www.w3.org/2000/svg">
	<mask id="mask0_5071_51575" style="mask-type:alpha" maskUnits="userSpaceOnUse" x="0" y="0" width="16" height="16">
		<rect width="16" height="16" fill="#D9D9D9"/>
	</mask>
	<g mask="url(#mask0_5071_51575)">
		<path
			d="M8.00088 8.85007L5.26755 11.5834C5.14533 11.7056 5.00644 11.764 4.85088 11.7584C4.69533 11.7528 4.55644 11.689 4.43422 11.5667C4.31199 11.4445 4.25088 11.3028 4.25088 11.1417C4.25088 10.9806 4.31199 10.839 4.43422 10.7167L7.15088 8.00007L4.41755 5.26673C4.29533 5.14451 4.23699 5.00284 4.24255 4.84173C4.24811 4.68062 4.31199 4.53895 4.43422 4.41673C4.55644 4.29451 4.69811 4.2334 4.85922 4.2334C5.02033 4.2334 5.16199 4.29451 5.28422 4.41673L8.00088 7.15007L10.7342 4.41673C10.8564 4.29451 10.9981 4.2334 11.1592 4.2334C11.3203 4.2334 11.462 4.29451 11.5842 4.41673C11.7064 4.53895 11.7675 4.68062 11.7675 4.84173C11.7675 5.00284 11.7064 5.14451 11.5842 5.26673L8.85088 8.00007L11.5842 10.7334C11.7064 10.8556 11.7675 10.9945 11.7675 11.1501C11.7675 11.3056 11.7064 11.4445 11.5842 11.5667C11.462 11.689 11.3203 11.7501 11.1592 11.7501C10.9981 11.7501 10.8564 11.689 10.7342 11.5667L8.00088 8.85007Z"
			fill="white"/>
	</g>
</svg>
