<svg width="20" height="20" viewBox="0 0 20 20" fill="none" xmlns="http://www.w3.org/2000/svg">
	<mask id="mask0_5085_4880" style="mask-type:alpha" maskUnits="userSpaceOnUse" x="0" y="0" width="20" height="20">
		<rect width="20" height="20" fill="#D9D9D9"/>
	</mask>
	<g mask="url(#mask0_5085_4880)">
		<path d="M9.99986 10.7744L6.43894 14.3353C6.32357 14.4507 6.19937 14.5063 6.06636 14.502C5.93336 14.4977 5.8065 14.4352 5.68578 14.3145C5.56504 14.1938 5.50467 14.0648 5.50467 13.9275C5.50467 13.7902 5.56504 13.6612 5.68578 13.5405L9.22584 10.0004L5.66494 6.43948C5.54955 6.3241 5.494 6.19644 5.49828 6.05648C5.50254 5.91653 5.56504 5.7862 5.68578 5.66548C5.8065 5.54474 5.9355 5.48438 6.07278 5.48438C6.21005 5.48438 6.33905 5.54474 6.45978 5.66548L9.99986 9.22637L13.5608 5.66548C13.6762 5.55009 13.8038 5.49106 13.9438 5.4884C14.0837 5.48572 14.2141 5.54474 14.3348 5.66548C14.4555 5.7862 14.5159 5.9152 14.5159 6.05248C14.5159 6.18976 14.4555 6.31876 14.3348 6.43948L10.7739 10.0004L14.3348 13.5613C14.4502 13.6767 14.5092 13.8009 14.5119 13.9339C14.5145 14.0669 14.4555 14.1938 14.3348 14.3145C14.2141 14.4352 14.0851 14.4956 13.9478 14.4956C13.8105 14.4956 13.6815 14.4352 13.5608 14.3145L9.99986 10.7744Z" fill="#3377FF"/>
	</g>
</svg>
