<svg width="33" height="32" viewBox="0 0 33 32" fill="none" xmlns="http://www.w3.org/2000/svg">
<path d="M22.1666 5.33325C21.9014 5.33325 21.647 5.2279 21.4595 5.04036C21.2719 4.85282 21.1666 4.59847 21.1666 4.33325C21.1666 4.06804 21.2719 3.81368 21.4595 3.62615C21.647 3.43861 21.9014 3.33325 22.1666 3.33325H26.8333C27.4521 3.33325 28.0456 3.57908 28.4832 4.01667C28.9208 4.45425 29.1666 5.04775 29.1666 5.66659V10.3333C29.1666 10.5985 29.0612 10.8528 28.8737 11.0404C28.6862 11.2279 28.4318 11.3333 28.1666 11.3333C27.9014 11.3333 27.647 11.2279 27.4595 11.0404C27.2719 10.8528 27.1666 10.5985 27.1666 10.3333V5.66659C27.1666 5.57818 27.1315 5.4934 27.069 5.43088C27.0064 5.36837 26.9217 5.33325 26.8333 5.33325H22.1666ZM27.1666 21.6666C27.1666 21.4014 27.2719 21.147 27.4595 20.9595C27.647 20.7719 27.9014 20.6666 28.1666 20.6666C28.4318 20.6666 28.6862 20.7719 28.8737 20.9595C29.0612 21.147 29.1666 21.4014 29.1666 21.6666V26.3333C29.1666 26.9521 28.9208 27.5456 28.4832 27.9832C28.0456 28.4208 27.4521 28.6666 26.8333 28.6666H22.1666C21.9014 28.6666 21.647 28.5612 21.4595 28.3737C21.2719 28.1862 21.1666 27.9318 21.1666 27.6666C21.1666 27.4014 21.2719 27.147 21.4595 26.9595C21.647 26.7719 21.9014 26.6666 22.1666 26.6666H26.8333C26.9217 26.6666 27.0064 26.6315 27.069 26.569C27.1315 26.5064 27.1666 26.4217 27.1666 26.3333V21.6666ZM10.8333 26.6666C11.0985 26.6666 11.3528 26.7719 11.5404 26.9595C11.7279 27.147 11.8333 27.4014 11.8333 27.6666C11.8333 27.9318 11.7279 28.1862 11.5404 28.3737C11.3528 28.5612 11.0985 28.6666 10.8333 28.6666H6.16659C5.54775 28.6666 4.95425 28.4208 4.51667 27.9832C4.07908 27.5456 3.83325 26.9521 3.83325 26.3333V21.6666C3.83325 21.4014 3.93861 21.147 4.12615 20.9595C4.31368 20.7719 4.56804 20.6666 4.83325 20.6666C5.09847 20.6666 5.35282 20.7719 5.54036 20.9595C5.7279 21.147 5.83325 21.4014 5.83325 21.6666V26.3333C5.83325 26.4217 5.86837 26.5064 5.93088 26.569C5.9934 26.6315 6.07818 26.6666 6.16659 26.6666H10.8333ZM5.83325 10.3333C5.83325 10.5985 5.7279 10.8528 5.54036 11.0404C5.35282 11.2279 5.09847 11.3333 4.83325 11.3333C4.56804 11.3333 4.31368 11.2279 4.12615 11.0404C3.93861 10.8528 3.83325 10.5985 3.83325 10.3333V5.66659C3.83325 5.04775 4.07908 4.45425 4.51667 4.01667C4.95425 3.57908 5.54775 3.33325 6.16659 3.33325H10.8333C11.0985 3.33325 11.3528 3.43861 11.5404 3.62615C11.7279 3.81368 11.8333 4.06804 11.8333 4.33325C11.8333 4.59847 11.7279 4.85282 11.5404 5.04036C11.3528 5.2279 11.0985 5.33325 10.8333 5.33325H6.16659C6.07818 5.33325 5.9934 5.36837 5.93088 5.43088C5.86837 5.4934 5.83325 5.57818 5.83325 5.66659V10.3333ZM25.4999 14.9999C25.7651 14.9999 26.0195 15.1053 26.207 15.2928C26.3946 15.4804 26.4999 15.7347 26.4999 15.9999C26.4999 16.2651 26.3946 16.5195 26.207 16.707C26.0195 16.8946 25.7651 16.9999 25.4999 16.9999H7.49992C7.2347 16.9999 6.98035 16.8946 6.79281 16.707C6.60528 16.5195 6.49992 16.2651 6.49992 15.9999C6.49992 15.7347 6.60528 15.4804 6.79281 15.2928C6.98035 15.1053 7.2347 14.9999 7.49992 14.9999H25.4999Z" fill="#1F1F1F"/>
</svg>
