<svg width="124" height="124" viewBox="0 0 124 124" fill="none" xmlns="http://www.w3.org/2000/svg">
<g clip-path="url(#clip0_4706_18322)">
<circle cx="62.0003" cy="62.0003" r="53.1429" fill="url(#paint0_linear_4706_18322)" fill-opacity="0.1"/>
<circle cx="62.0003" cy="62.0003" r="52.7" stroke="url(#paint1_linear_4706_18322)" stroke-opacity="0.3" stroke-width="0.885714"/>
<ellipse cx="20.302" cy="17.0327" rx="5.08323" ry="5.10989" fill="url(#paint2_linear_4706_18322)"/>
<ellipse cx="118.916" cy="95.7251" rx="5.08323" ry="5.10989" fill="url(#paint3_linear_4706_18322)"/>
<ellipse cx="10.1359" cy="90.6157" rx="3.04994" ry="3.06593" fill="url(#paint4_linear_4706_18322)"/>
<ellipse cx="106.717" cy="33.3848" rx="4.06658" ry="4.08791" fill="url(#paint5_linear_4706_18322)" fill-opacity="0.9"/>
<mask id="mask0_4706_18322" style="mask-type:alpha" maskUnits="userSpaceOnUse" x="34" y="34" width="56" height="56">
<rect x="34" y="34" width="56" height="56" fill="#D9D9D9"/>
</mask>
<g mask="url(#mask0_4706_18322)">
<path d="M61.9874 73.1996C62.5789 73.1996 63.0788 72.9995 63.4871 72.5994C63.8954 72.1992 64.0996 71.7034 64.0996 71.1119C64.0996 70.5204 63.8995 70.0204 63.4994 69.6121C63.0992 69.2038 62.6034 68.9996 62.0119 68.9996C61.4204 68.9996 60.9204 69.1997 60.5121 69.5999C60.1038 70 59.8996 70.4959 59.8996 71.0874C59.8996 71.6789 60.0997 72.1788 60.4999 72.5871C60.9 72.9954 61.3959 73.1996 61.9874 73.1996ZM61.9874 64.7996C62.5789 64.7996 63.0788 64.5984 63.4871 64.1959C63.8954 63.7934 64.0996 63.2946 64.0996 62.6996V52.8996C64.0996 52.3046 63.8995 51.8059 63.4994 51.4034C63.0992 51.0009 62.6034 50.7996 62.0119 50.7996C61.4204 50.7996 60.9204 51.0009 60.5121 51.4034C60.1038 51.8059 59.8996 52.3046 59.8996 52.8996V62.6996C59.8996 63.2946 60.0997 63.7934 60.4999 64.1959C60.9 64.5984 61.3959 64.7996 61.9874 64.7996ZM62.0159 84.3996C58.9328 84.3996 56.0302 83.8163 53.3079 82.6496C50.5857 81.4829 48.2038 79.8788 46.1621 77.8371C44.1204 75.7954 42.5163 73.4143 41.3496 70.6936C40.1829 67.9729 39.5996 65.066 39.5996 61.9728C39.5996 58.8796 40.1829 55.9816 41.3496 53.2788C42.5163 50.576 44.1204 48.2038 46.1621 46.1621C48.2038 44.1204 50.5849 42.5163 53.3056 41.3496C56.0263 40.1829 58.9332 39.5996 62.0264 39.5996C65.1197 39.5996 68.0177 40.1829 70.7204 41.3496C73.4232 42.5163 75.7954 44.1204 77.8371 46.1621C79.8788 48.2038 81.4829 50.5803 82.6496 53.2916C83.8163 56.0033 84.3996 58.9006 84.3996 61.9833C84.3996 65.0664 83.8163 67.9691 82.6496 70.6913C81.4829 73.4135 79.8788 75.7954 77.8371 77.8371C75.7954 79.8788 73.4189 81.4829 70.7076 82.6496C67.9959 83.8163 65.0987 84.3996 62.0159 84.3996ZM61.9996 80.1996C67.0552 80.1996 71.3524 78.4302 74.8913 74.8913C78.4302 71.3524 80.1996 67.0552 80.1996 61.9996C80.1996 56.9441 78.4302 52.6468 74.8913 49.1079C71.3524 45.5691 67.0552 43.7996 61.9996 43.7996C56.9441 43.7996 52.6468 45.5691 49.1079 49.1079C45.5691 52.6468 43.7996 56.9441 43.7996 61.9996C43.7996 67.0552 45.5691 71.3524 49.1079 74.8913C52.6468 78.4302 56.9441 80.1996 61.9996 80.1996Z" fill="#FF4D4D"/>
</g>
</g>
<defs>
<linearGradient id="paint0_linear_4706_18322" x1="62.0003" y1="8.85742" x2="62.0003" y2="115.143" gradientUnits="userSpaceOnUse">
<stop stop-color="#FFACB7" stop-opacity="0.3"/>
<stop offset="1" stop-color="#FF1824"/>
</linearGradient>
<linearGradient id="paint1_linear_4706_18322" x1="62.0003" y1="115.143" x2="62.0003" y2="8.85742" gradientUnits="userSpaceOnUse">
<stop stop-color="#DFC0FF"/>
<stop offset="1" stop-color="#FBEEFF" stop-opacity="0.3"/>
</linearGradient>
<linearGradient id="paint2_linear_4706_18322" x1="17.7604" y1="13.4558" x2="23.39" y2="21.0926" gradientUnits="userSpaceOnUse">
<stop stop-color="#FFC4A4" stop-opacity="0.3"/>
<stop offset="1" stop-color="#FF6D6D"/>
</linearGradient>
<linearGradient id="paint3_linear_4706_18322" x1="116.883" y1="90.6152" x2="122.516" y2="99.2752" gradientUnits="userSpaceOnUse">
<stop stop-color="#DB4A7A" stop-opacity="0.3"/>
<stop offset="1" stop-color="#FF799F"/>
</linearGradient>
<linearGradient id="paint4_linear_4706_18322" x1="7.08594" y1="87.5498" x2="13.2177" y2="93.6496" gradientUnits="userSpaceOnUse">
<stop stop-color="#EFFBFF"/>
<stop offset="1" stop-color="#A3D9FF"/>
</linearGradient>
<linearGradient id="paint5_linear_4706_18322" x1="105.192" y1="29.8079" x2="109.801" y2="36.9398" gradientUnits="userSpaceOnUse">
<stop stop-color="#E2D3F5"/>
<stop offset="1" stop-color="#E45ED9"/>
</linearGradient>
<clipPath id="clip0_4706_18322">
<rect width="124" height="124" fill="white"/>
</clipPath>
</defs>
</svg>
