<svg width="20" height="20" viewBox="0 0 20 20" fill="none" xmlns="http://www.w3.org/2000/svg">
<circle opacity="0.1" cx="10" cy="10" r="8" stroke="#FF7733" stroke-width="4"/>
<path d="M4.34315 4.34315L5.75736 5.75736L4.34315 4.34315ZM20 10C20 11.1046 19.1046 12 18 12C16.8954 12 16 11.1046 16 10H18H20ZM2 10H0C0 7.34783 1.05357 4.8043 2.92893 2.92893L4.34315 4.34315L5.75736 5.75736C4.63214 6.88258 4 8.4087 4 10H2ZM4.34315 4.34315L2.92893 2.92893C4.8043 1.05357 7.34783 0 10 0V2V4C8.4087 4 6.88258 4.63214 5.75736 5.75736L4.34315 4.34315ZM10 2V0C12.6522 0 15.1957 1.05357 17.0711 2.92893L15.6569 4.34315L14.2426 5.75736C13.1174 4.63214 11.5913 4 10 4V2ZM15.6569 4.34315L17.0711 2.92893C18.9464 4.80429 20 7.34783 20 10H18H16C16 8.4087 15.3679 6.88258 14.2426 5.75736L15.6569 4.34315Z" fill="url(#paint0_linear_5067_94325)"/>
<defs>
<linearGradient id="paint0_linear_5067_94325" x1="18" y1="10" x2="3.6" y2="10" gradientUnits="userSpaceOnUse">
<stop stop-color="#FF7733"/>
<stop offset="1" stop-color="#FF7733" stop-opacity="0"/>
</linearGradient>
</defs>
</svg>
