<svg width="32" height="32" viewBox="0 0 32 32" fill="none" xmlns="http://www.w3.org/2000/svg">
<path d="M0 8C0 3.58172 3.58172 0 8 0H24C28.4183 0 32 3.58172 32 8V24C32 28.4183 28.4183 32 24 32H8C3.58172 32 0 28.4183 0 24V8Z" fill="#EBF5FF"/>
<g clip-path="url(#clip0_4315_22089)">
<path fill-rule="evenodd" clip-rule="evenodd" d="M10.6528 9.88881C10.2309 9.88881 9.88887 10.2308 9.88887 10.6527V14.4721C9.88887 14.894 10.2309 15.236 10.6528 15.236H19.8194C20.2413 15.236 20.5833 14.894 20.5833 14.4721V10.6527C20.5833 10.2308 20.2413 9.88881 19.8194 9.88881H10.6528ZM17.1458 11.0346C16.7239 11.0346 16.3819 11.3766 16.3819 11.7985V13.3263C16.3819 13.7482 16.7239 14.0902 17.1458 14.0902H18.6736C19.0955 14.0902 19.4375 13.7482 19.4375 13.3263V11.7985C19.4375 11.3766 19.0955 11.0346 18.6736 11.0346H17.1458Z" fill="#51AEFF"/>
<path d="M9.88887 17.5277C9.88887 17.1058 10.2309 16.7638 10.6528 16.7638H21.3472C21.7691 16.7638 22.1111 17.1058 22.1111 17.5277V21.3471C22.1111 21.769 21.7691 22.111 21.3472 22.111H10.6528C10.2309 22.111 9.88887 21.769 9.88887 21.3471V17.5277Z" fill="#51AEFF"/>
<path fill-rule="evenodd" clip-rule="evenodd" d="M6.83331 9.88881C6.83331 8.20127 8.20133 6.83325 9.88887 6.83325H19.3177C20.128 6.83325 20.9052 7.15518 21.4783 7.7282L24.2717 10.5216C24.8447 11.0947 25.1666 11.8719 25.1666 12.6822V22.111C25.1666 23.7986 23.7986 25.1666 22.1111 25.1666H9.88887C8.20133 25.1666 6.83331 23.7986 6.83331 22.111V9.88881ZM7.5972 22.111V9.88881C7.5972 8.62316 8.62322 7.59714 9.88887 7.59714H19.3177C19.9254 7.59714 20.5083 7.83858 20.9381 8.26835L23.7315 11.0618C24.1613 11.4916 24.4028 12.0745 24.4028 12.6822V22.111C24.4028 23.3767 23.3767 24.4027 22.1111 24.4027H9.88887C8.62322 24.4027 7.5972 23.3767 7.5972 22.111Z" fill="#51AEFF"/>
</g>
<defs>
<clipPath id="clip0_4315_22089">
<rect width="20" height="20" fill="white" transform="translate(6 6)"/>
</clipPath>
</defs>
</svg>
