<svg width="25" height="24" viewBox="0 0 25 24" fill="none" xmlns="http://www.w3.org/2000/svg">
<path d="M8.00125 6.55786C7.65425 6.55786 7.359 6.67928 7.1155 6.92211C6.87183 7.16494 6.75 7.45978 6.75 7.80661C6.75 8.15361 6.87142 8.44886 7.11425 8.69236C7.35708 8.93603 7.65192 9.05786 7.99875 9.05786C8.34575 9.05786 8.641 8.93644 8.8845 8.69361C9.12817 8.45078 9.25 8.15586 9.25 7.80886C9.25 7.46203 9.12858 7.16678 8.88575 6.92311C8.64292 6.67961 8.34808 6.55786 8.00125 6.55786ZM8.00125 15.9424C7.65425 15.9424 7.359 16.0638 7.1155 16.3066C6.87183 16.5494 6.75 16.8444 6.75 17.1914C6.75 17.5382 6.87142 17.8334 7.11425 18.0771C7.35708 18.3206 7.65192 18.4424 7.99875 18.4424C8.34575 18.4424 8.641 18.3209 8.8845 18.0781C9.12817 17.8353 9.25 17.5404 9.25 17.1936C9.25 16.8466 9.12858 16.5514 8.88575 16.3079C8.64292 16.0642 8.34808 15.9424 8.00125 15.9424ZM4.88475 3.80786H20.1152C20.3659 3.80786 20.5761 3.89245 20.7458 4.06161C20.9153 4.23061 21 4.44011 21 4.69011V10.8654C21 11.136 20.9153 11.3608 20.7458 11.5396C20.5761 11.7184 20.3659 11.8079 20.1152 11.8079H4.88475C4.63408 11.8079 4.42392 11.7184 4.25425 11.5396C4.08475 11.3608 4 11.136 4 10.8654V4.69011C4 4.44011 4.08475 4.23061 4.25425 4.06161C4.42392 3.89245 4.63408 3.80786 4.88475 3.80786ZM5.5 5.30786V10.3079H19.5V5.30786H5.5ZM4.88475 13.1924H20.096C20.3602 13.1924 20.5768 13.2809 20.746 13.4579C20.9153 13.6347 21 13.8539 21 14.1156V20.2309C21 20.5142 20.9153 20.7453 20.746 20.9241C20.5768 21.1029 20.3602 21.1924 20.096 21.1924H4.904C4.63983 21.1924 4.42317 21.1029 4.254 20.9241C4.08467 20.7453 4 20.5142 4 20.2309V14.1156C4 13.8539 4.08142 13.6347 4.24425 13.4579C4.40708 13.2809 4.62058 13.1924 4.88475 13.1924ZM5.5 14.6924V19.6924H19.5V14.6924H5.5Z" fill="#51AEFF"/>
</svg>
