<svg width="22" height="22" viewBox="0 0 22 22" fill="none" xmlns="http://www.w3.org/2000/svg">
<path d="M10.9997 10.0834C10.4955 10.0834 10.083 10.4959 10.083 11C10.083 11.5042 10.4955 11.9167 10.9997 11.9167C11.5038 11.9167 11.9163 11.5042 11.9163 11C11.9163 10.4959 11.5038 10.0834 10.9997 10.0834ZM11.458 1.83337C15.583 1.83337 15.6838 5.10587 13.5205 6.18754C12.613 6.63671 12.2097 7.59921 12.0355 8.45171C12.4755 8.63504 12.8605 8.91921 13.1538 9.28587C16.5455 7.45254 20.1938 8.17671 20.1938 11.4584C20.1938 15.5834 16.9213 15.675 15.8397 13.5025C15.3813 12.595 14.4097 12.1917 13.5572 12.0175C13.3738 12.4575 13.0897 12.8334 12.723 13.145C14.5472 16.5275 13.823 20.1667 10.5413 20.1667C6.41634 20.1667 6.33384 16.885 8.49717 15.8034C9.39551 15.3542 9.79884 14.4009 9.98217 13.5575C9.53301 13.3742 9.13884 13.0809 8.84551 12.7142C5.46301 14.5292 1.83301 13.8142 1.83301 10.5417C1.83301 6.41671 5.09634 6.31587 6.17801 8.48837C6.63634 9.39587 7.59884 9.79004 8.45134 9.96421C8.62551 9.52421 8.91884 9.13921 9.29467 8.84587C7.47051 5.46337 8.19467 1.83337 11.458 1.83337Z" fill="#DBDBDB"/>
</svg>
