<svg width="14" height="14" viewBox="0 0 14 14" fill="none" xmlns="http://www.w3.org/2000/svg">
<path d="M0 7C0 3.13401 3.13401 0 7 0C10.866 0 14 3.13401 14 7C14 10.866 10.866 14 7 14C3.13401 14 0 10.866 0 7Z" fill="#29CC5F"/>
<path fill-rule="evenodd" clip-rule="evenodd" d="M10.089 4.78596C10.3453 5.04224 10.3453 5.45776 10.089 5.71404L6.58904 9.21404C6.33276 9.47032 5.91724 9.47032 5.66096 9.21404L3.91096 7.46404C3.65468 7.20776 3.65468 6.79224 3.91096 6.53596C4.16724 6.27968 4.58276 6.27968 4.83904 6.53596L6.125 7.82192L9.16096 4.78596C9.41724 4.52968 9.83276 4.52968 10.089 4.78596Z" fill="white"/>
</svg>
