<svg width="16" height="16" viewBox="0 0 16 16" fill="none" xmlns="http://www.w3.org/2000/svg">
<path d="M0 4C0 1.79086 1.79086 0 4 0H12C14.2091 0 16 1.79086 16 4V12C16 14.2091 14.2091 16 12 16H4C1.79086 16 0 14.2091 0 12V4Z" fill="#51AEFF"/>
<path fill-rule="evenodd" clip-rule="evenodd" d="M11.5303 5.46967C11.8232 5.76256 11.8232 6.23744 11.5303 6.53033L7.53033 10.5303C7.23744 10.8232 6.76256 10.8232 6.46967 10.5303L4.46967 8.53033C4.17678 8.23744 4.17678 7.76256 4.46967 7.46967C4.76256 7.17678 5.23744 7.17678 5.53033 7.46967L7 8.93934L10.4697 5.46967C10.7626 5.17678 11.2374 5.17678 11.5303 5.46967Z" fill="white"/>
</svg>
